<svg viewBox="30.82499999999999 7.521084337349407 195.22500000000002 208.53915662650604" fill="none" xmlns="http://www.w3.org/2000/svg" xmlns:xlink="http://www.w3.org/1999/xlink" overflow="visible" width="195.22500000000002px" height="208.53915662650604px"><g id="Master/Stickers/Request Approved"><g id="Group"><path id="Vector" d="M63.9876 41.963C62.6831 40.8449 62.8695 39.1677 62.3104 37.6768C61.3786 34.8815 59.7014 33.2042 56.906 32.2725C55.6015 31.8997 54.1107 31.3407 52.8062 30.7816C52.4335 30.2225 52.6198 29.6635 52.6198 28.918C52.8062 28.7317 53.1789 28.7317 53.3653 28.5453C54.297 28.1726 55.4152 27.7999 56.347 27.6135C60.0741 26.8681 61.9377 24.0727 62.6831 20.7183C62.8695 19.7865 63.0558 18.8548 63.6149 17.923C64.174 17.7366 64.733 17.7366 65.2921 17.923C68.2738 27.7999 69.951 26.8681 76.1008 28.7317C76.2872 28.918 76.2872 29.1044 76.2872 29.2907C76.2872 29.8498 76.2872 30.2225 76.2872 30.968C69.7647 31.7134 66.0375 35.2542 65.2921 41.5903C65.2921 42.1494 64.5467 41.963 63.9876 41.963Z" fill="#FBB811"/><path id="Vector_2" d="M211.396 87.9933C211.769 89.6705 210.278 89.8569 209.532 90.0432C207.855 90.4159 206.923 91.7204 205.992 92.8386C205.432 93.3977 205.432 94.1431 205.432 94.7022C205.246 95.8203 204.687 96.193 203.383 96.0067C202.451 94.7022 202.637 92.6522 201.146 91.3477C199.842 90.0432 197.792 90.2296 196.487 88.9251C196.487 87.6206 197.419 87.4342 198.165 87.2479C200.774 86.5025 202.264 84.8252 203.01 82.2162C203.196 81.6572 203.569 81.2845 204.314 80.9117C205.619 82.0299 205.246 84.2662 206.551 85.3843C208.041 86.8752 209.719 87.4342 211.396 87.9933Z" fill="#FBB811"/><path id="Vector_3" d="M160.147 47.7401C160.147 48.6719 160.147 49.4173 160.147 50.3491C159.961 56.8716 164.061 61.1578 170.583 61.5305C173.379 61.7169 176.361 61.5305 179.156 61.5305C180.274 61.5305 181.392 61.7169 183.069 61.9033C183.069 79.7935 183.069 97.6838 182.883 115.574C182.883 136.073 182.883 156.573 182.697 177.072C182.697 179.494 182.697 182.103 182.697 184.526C182.697 187.135 183.628 190.117 180.46 190.676C170.583 192.167 159.029 192.353 149.152 190.676C144.121 189.744 138.716 190.303 133.498 190.303C127.908 190.303 122.503 190.303 116.913 190.303C106.849 190.303 96.5998 190.117 86.5365 190.303C83.7411 190.303 81.1321 190.676 78.3368 190.303C74.2369 189.744 71.8143 187.321 71.8143 183.222C71.8143 176.14 71.8143 169.245 71.8143 162.163C71.8143 150.796 71.6279 139.241 71.6279 127.874C71.6279 119.86 71.8143 111.847 71.8143 103.834C71.8143 95.6339 71.6279 87.2478 71.6279 79.0481C71.6279 75.321 71.8143 71.5938 71.8143 67.8667C71.6279 62.0896 71.8143 56.1262 71.8143 50.3491C73.1188 50.5355 73.8642 49.6037 74.796 48.8583C76.6596 47.1811 78.8958 46.8083 81.1321 46.8083C87.6546 46.9947 94.1771 46.8083 100.7 46.9947C107.408 46.9947 114.304 46.9947 121.013 46.9947C127.535 46.9947 134.057 46.9947 140.58 47.1811C147.102 46.9947 153.625 46.4356 160.147 47.7401Z" fill="#E7E5FB"/><path id="Vector_4" d="M160.148 47.7398C153.625 46.4353 87.6548 46.8081 81.1323 46.6217C78.896 46.6217 76.6597 46.9944 74.7962 48.6716C74.0507 49.4171 73.3053 50.3488 71.8145 50.1625C71.8145 48.6716 71.8145 47.3671 71.8145 45.8763C71.8145 40.6583 74.7962 37.8629 79.8278 38.0493C84.114 38.2356 150.271 38.2356 158.47 38.0493C158.843 38.0493 159.216 38.2356 159.961 38.422C160.148 41.5901 160.148 44.5718 160.148 47.7398Z" fill="#CAD2ED"/><path id="Vector_5" d="M167.602 86.6885H91.1958C90.6367 86.6885 90.0776 86.1294 90.0776 85.5703V81.6568C90.0776 81.0978 90.6367 80.5387 91.1958 80.5387H167.602C168.161 80.5387 168.72 81.0978 168.72 81.6568V85.5703C168.72 86.3158 168.161 86.6885 167.602 86.6885Z" fill="#CAD2ED"/><path id="Vector_6" d="M127.908 101.783H91.0093C90.4502 101.783 89.8911 101.224 89.8911 100.665V96.7516C89.8911 96.1925 90.4502 95.6334 91.0093 95.6334H127.722C128.281 95.6334 128.84 96.1925 128.84 96.7516V100.665C129.026 101.224 128.467 101.783 127.908 101.783Z" fill="#CAD2ED"/><path id="Vector_7" d="M174.497 74.0162C190.656 74.0162 203.755 60.9169 203.755 44.7582C203.755 28.5994 190.656 15.5001 174.497 15.5001C158.339 15.5001 145.239 28.5994 145.239 44.7582C145.239 60.9169 158.339 74.0162 174.497 74.0162Z" fill="#4CD7AD"/><g id="Group_2"><path id="Vector_8" d="M213.632 124.333C214.937 125.824 214.937 125.824 214.191 127.687C211.769 132.719 209.16 137.75 206.737 142.782C197.792 160.672 188.847 178.376 179.902 196.267C177.293 201.485 172.82 209.684 170.211 214.716C169.466 215.089 72.1873 214.53 36.2205 214.53C36.0341 214.53 35.6614 214.53 35.2887 214.53C34.5433 213.97 33.6115 213.411 34.1705 212.293C35.2887 210.802 36.2205 209.125 36.7795 207.262C37.525 206.889 37.525 206.143 37.7113 205.771C44.7929 191.794 51.6881 177.817 58.7697 163.654C61.3786 158.25 64.3604 153.032 66.5966 147.627C68.6466 143.9 70.6965 140.359 72.1873 136.446C73.6782 134.582 74.4236 132.16 75.5418 130.11C76.4736 128.433 77.219 126.383 78.5235 124.705C79.4553 124.705 80.5734 124.705 81.5052 124.705C110.018 124.705 121.572 124.705 149.898 124.705C151.016 124.705 151.948 124.705 153.066 124.705C153.998 124.705 154.743 124.705 155.675 124.705C159.961 124.705 164.061 124.705 168.348 124.705C169.093 124.705 170.025 124.705 170.77 124.705C182.511 124.705 194.251 124.705 205.992 124.705C207.669 124.705 209.16 124.705 210.837 124.705C211.955 124.333 212.7 124.519 213.632 124.333ZM196.115 137.564C183.256 137.564 170.77 137.564 158.098 137.564C155.303 142.409 155.116 142.968 155.116 144.832C167.602 144.832 180.088 144.832 192.947 144.832C193.878 142.409 195.556 140.359 196.115 137.564Z" fill="#7A6EF5"/><path id="Vector_9" d="M72.1872 101.97C70.1373 101.97 67.901 101.97 65.8511 101.783V101.97C66.0374 101.97 66.2238 101.97 66.4101 101.97C66.9692 102.902 66.7829 103.833 66.7829 104.952C66.7829 118.183 66.7829 131.228 66.7829 144.459C66.7829 145.577 66.7829 146.509 66.9692 147.627C69.0191 143.9 71.0691 140.359 72.5599 136.446C72.5599 132.16 72.5599 128.06 72.5599 123.774C72.1872 116.319 72.1872 109.051 72.1872 101.97Z" fill="#D2D2FF"/><path id="Vector_10" d="M36.7795 207.075C36.7795 206.143 36.7795 205.212 36.7795 204.28C36.7795 168.127 36.7795 131.973 36.7795 95.8201C36.7795 94.8883 36.5931 93.9566 36.9659 93.0248C42.9293 93.0248 48.7063 93.0248 54.8561 93.0248C57.4651 95.4474 59.515 98.9882 62.124 101.784C63.4285 102.156 64.9194 101.784 66.4102 101.97C66.9693 102.902 66.783 103.833 66.783 104.952C66.783 118.183 66.783 131.228 66.783 144.459C66.783 145.577 66.783 146.509 66.9693 147.627C64.5467 153.032 61.7513 158.436 59.1423 163.654C52.0608 177.631 45.1656 191.608 38.084 205.771C37.5249 206.143 37.3386 206.889 36.7795 207.075Z" fill="#B6B2F8"/></g><path id="Vector_11" d="M198.537 137.564C184.933 137.564 171.329 137.564 157.912 137.564C154.93 142.782 154.557 143.341 154.743 145.391C168.161 145.391 181.393 145.391 194.997 145.391C196.115 142.596 197.792 140.546 198.537 137.564Z" fill="#B6B2F8"/><path id="Vector_12" d="M171.888 57.2443C171.888 57.2443 171.702 57.2443 171.888 57.2443C170.77 57.2443 169.652 56.6852 169.093 55.9398L160.521 45.3174C159.216 43.8266 159.589 41.4039 161.08 40.2858C162.571 38.9813 164.993 39.354 166.111 40.8449L172.075 48.1128L184.933 34.136C186.238 32.6452 188.474 32.6452 189.965 33.9497C191.456 35.2542 191.456 37.6768 190.151 38.9813L174.497 55.9398C173.752 56.8716 172.82 57.2443 171.888 57.2443Z" fill="#F0F1F0"/><path id="Vector_13" d="M222.764 44.1991H211.396C210.278 44.1991 209.16 43.2673 209.16 41.9628C209.16 40.8447 210.091 39.7266 211.396 39.7266H222.764C223.882 39.7266 225 40.6583 225 41.9628C225 43.2673 224.068 44.1991 222.764 44.1991Z" fill="white"/><path id="Vector_14" d="M208.415 30.9679C207.669 30.9679 206.738 30.5952 206.551 29.6634C205.992 28.5452 206.551 27.2407 207.483 26.868L217.733 22.0227C218.851 21.4637 220.155 22.0227 220.528 22.9545C221.087 24.0727 220.528 25.3772 219.596 25.7499L209.347 30.5952C209.16 30.9679 208.787 30.9679 208.415 30.9679Z" fill="white"/><path id="Vector_15" d="M200.96 19.0409C200.401 19.0409 199.842 18.8546 199.469 18.4819C198.537 17.5501 198.537 16.2456 199.469 15.5001L205.991 8.97765C206.923 8.04586 208.228 8.04586 208.973 8.97765C209.905 9.90943 209.905 11.2139 208.973 11.9594L202.451 18.4819C201.891 18.8546 201.332 19.0409 200.96 19.0409Z" fill="white"/><path id="Vector_16" d="M55.7884 56.1261C57.4351 56.1261 58.7701 54.7912 58.7701 53.1444C58.7701 51.4977 57.4351 50.1627 55.7884 50.1627C54.1416 50.1627 52.8066 51.4977 52.8066 53.1444C52.8066 54.7912 54.1416 56.1261 55.7884 56.1261Z" fill="#FBB811"/><path id="Vector_17" d="M214.564 104.392C211.955 104.392 209.905 102.342 209.905 99.7334C209.905 97.1244 211.955 95.0745 214.564 95.0745C217.173 95.0745 219.223 97.1244 219.223 99.7334C219.223 102.342 217.173 104.392 214.564 104.392ZM214.564 98.0562C213.632 98.0562 212.701 98.8016 212.701 99.9197C212.701 101.038 213.446 101.783 214.564 101.783C215.682 101.783 216.428 101.038 216.428 99.9197C216.428 98.8016 215.682 98.0562 214.564 98.0562Z" fill="#FBB811"/></g></g></svg>