<svg viewBox="23.975000000000023 7.521084337349407 202.07499999999996 208.53915662650604" fill="none" xmlns="http://www.w3.org/2000/svg" xmlns:xlink="http://www.w3.org/1999/xlink" overflow="visible" width="202.07499999999996px" height="208.53915662650604px"><g id="Master/Stickers/Market Research"><g id="Group"><g id="Group_2"><path id="Vector" d="M94.7363 38.9668L110.165 88.0756L162.285 73.2113L160.967 68.5073L98.8758 37.6497L94.7363 38.9668Z" fill="#8E9EA8"/><path id="Vector_2" d="M194.836 175.192L75.5444 213.2L27 60.6048L98.8758 37.6497L113.74 84.1243L160.968 68.5073L194.836 175.192Z" fill="#CAD2ED"/></g><path id="Vector_3" d="M153.817 7.73291V59.0997L208.006 60.7931L208.195 55.901L158.333 7.73291H153.817Z" fill="#CAD2ED"/><path id="Vector_4" d="M208.195 167.854H82.8823V7.73291H158.333V56.4655L208.195 55.901V167.854Z" fill="white"/><path id="Vector_5" d="M190.132 78.6681H100.005C99.4402 78.6681 98.8757 78.1037 98.8757 77.5392V71.1419C98.8757 70.5774 99.4402 70.0129 100.005 70.0129H190.132C190.696 70.0129 191.261 70.5774 191.261 71.1419V77.5392C191.261 78.1037 190.884 78.6681 190.132 78.6681Z" fill="#CAD2ED"/><path id="Vector_6" d="M142.528 119.498H100.005C99.4402 119.498 98.8757 118.934 98.8757 118.369V111.972C98.8757 111.407 99.4402 110.843 100.005 110.843H142.34C142.904 110.843 143.469 111.407 143.469 111.972V118.369C143.657 118.934 143.093 119.498 142.528 119.498Z" fill="#CAD2ED"/><path id="Vector_7" d="M190.132 99.3654H100.005C99.4402 99.3654 98.8757 98.8009 98.8757 98.2365V91.8391C98.8757 91.2747 99.4402 90.7102 100.005 90.7102H190.132C190.696 90.7102 191.261 91.2747 191.261 91.8391V98.2365C191.261 98.8009 190.884 99.3654 190.132 99.3654Z" fill="#CAD2ED"/><g id="Group_3"><g id="Group_4"><path id="Vector_8" fill-rule="evenodd" clip-rule="evenodd" d="M224 153.555C224 171.618 209.324 186.294 191.261 186.294C173.198 186.294 158.521 171.618 158.521 153.555C158.521 135.492 173.198 120.815 191.261 120.815C209.324 121.003 224 135.492 224 153.555Z" fill="#FEE526"/></g><g id="Group_5"><path id="Vector_9" fill-rule="evenodd" clip-rule="evenodd" d="M191.261 183.284C183.923 183.284 176.961 180.649 171.317 175.569C165.484 170.301 161.909 162.963 161.532 155.06C161.156 147.158 163.79 139.631 169.247 133.61C174.515 127.777 181.853 124.202 189.756 123.826C197.658 123.45 205.185 126.084 211.206 131.541C217.039 136.809 220.614 144.147 220.99 152.05C221.366 159.952 218.732 167.478 213.275 173.499C208.007 179.332 200.669 182.907 192.766 183.284C192.202 183.284 191.826 183.284 191.261 183.284Z" fill="#FFB902"/></g><g id="Group_6"><path id="Vector_10" fill-rule="evenodd" clip-rule="evenodd" d="M195.965 161.646C195.965 160.328 195.212 159.576 193.707 158.823V164.28C195.4 163.715 195.965 162.586 195.965 161.646ZM190.32 148.851V143.582C188.815 143.959 188.062 144.9 188.062 146.029C188.062 146.969 188.438 147.91 190.32 148.851ZM193.707 172.182V176.698H190.132V172.37C184.487 171.994 180.159 168.984 178.278 164.092L185.24 160.14C186.369 162.586 187.686 163.903 190.132 164.468V157.506C189.944 157.318 189.755 157.318 189.567 157.318C185.24 155.625 179.971 152.99 179.971 146.217C179.971 139.631 184.863 136.244 190.32 135.68V131.352H193.895V135.68C198.222 136.244 201.797 138.502 203.867 143.018L196.905 146.969C196.341 145.276 195.212 144.147 193.707 143.771V150.544C198.034 152.426 204.055 154.119 204.055 161.457C204.055 167.855 199.728 171.43 193.707 172.182Z" fill="white"/></g></g><path id="Vector_11" d="M141.587 36.3326H121.078V55.1483H141.587V36.3326Z" fill="#FEE526"/><path id="Vector_12" d="M120.514 22.7855H100.005V55.1485H120.514V22.7855Z" fill="#FCC90F"/></g></g></svg>