<svg width="100" height="100" viewBox="0 0 100 100" fill="none" xmlns="http://www.w3.org/2000/svg">
<path d="M50 3.46658C24.5556 3.46658 3.85178 22.1 3.85178 45C3.85178 67.9 24.5556 86.5334 50 86.5334C75.4444 86.5334 96.1482 67.9 96.1482 45C96.1482 22.1 75.4444 3.46658 50 3.46658ZM50 79.6166C28.7962 79.6166 11.5371 64.0832 11.5371 45C11.5371 25.9168 28.7962 10.3834 50 10.3834C71.2038 10.3834 88.4629 25.9166 88.4629 45C88.4629 64.0834 71.2038 79.6166 50 79.6166Z" fill="#FFC107"/>
<path d="M50 0C22.426 0 0 20.1834 0 45C0 45.5 0 58.3334 0 58.3334C0 81.3166 22.426 100 50 100C77.574 100 100 81.3166 100 58.3334C100 58.3334 100 45.5 100 45C100 20.1834 77.574 0 50 0ZM11.1111 73.3334V79.1C7.31489 74.25 4.81489 68.65 4 62.6334C5.83333 66.4834 8.24067 70.05 11.1296 73.2668C11.1296 73.2834 11.1111 73.3 11.1111 73.3334ZM20.3704 87.7666C18.3704 86.3666 16.5187 84.85 14.8149 83.2V76.9334C16.5556 78.4834 18.4076 79.9168 20.3704 81.2168V87.7666ZM29.6296 92.75C27.648 91.9334 25.7591 91.0166 23.9444 90H24.074V83.4666C25.8518 84.4332 27.7222 85.3 29.6296 86.0832V92.75ZM38.8889 95.55C36.9816 95.15 35.1296 94.6666 33.3333 94.0834V87.4168C35.1482 88.0002 37 88.4834 38.8889 88.8668V95.55ZM48.1482 96.6334C46.2593 96.5668 44.4076 96.4168 42.5927 96.1668V89.5C44.4076 89.75 46.2778 89.9 48.1482 89.95V96.6334ZM57.4073 96.1666C55.5924 96.4166 53.7407 96.5666 51.8518 96.6332V89.9498C53.7222 89.8998 55.5924 89.7498 57.4073 89.4998V96.1666ZM66.6667 94.0834C64.8704 94.6668 63.0184 95.15 61.1111 95.55V88.8666C63 88.4832 64.8518 88 66.6667 87.4166V94.0834ZM70.3704 92.75V86.0834C72.2778 85.3 74.1482 84.4334 75.926 83.4668V90H76.0556C74.2407 91.0166 72.3518 91.9334 70.3704 92.75ZM85.1851 83.2C83.4813 84.85 81.6296 86.3666 79.6296 87.7666V81.2166C81.5924 79.9166 83.4444 78.4832 85.1851 76.9332V83.2ZM88.8889 79.1V73.3334C88.8889 73.3 88.8704 73.2834 88.8704 73.2668C91.7593 70.0502 94.1667 66.4834 96 62.6334C95.1851 68.65 92.6851 74.25 88.8889 79.1ZM50 86.5334C24.5556 86.5334 3.85178 67.9 3.85178 45C3.85178 22.1 24.5556 3.4666 50 3.4666C75.4444 3.4666 96.1482 22.1 96.1482 45C96.1482 67.9 75.4444 86.5334 50 86.5334Z" fill="black"/>
<path d="M88.8889 79.1001V73.3335C88.8889 73.3001 88.8704 73.2835 88.8704 73.2669C91.7593 70.0502 94.1667 66.4835 96 62.6335C95.1851 68.6501 92.6851 74.2501 88.8889 79.1001Z" fill="#FFBB4D"/>
<path d="M85.1851 76.9334V83.2C83.4813 84.85 81.6296 86.3666 79.6296 87.7666V81.2166C81.5927 79.9166 83.4445 78.4834 85.1851 76.9334Z" fill="#FFBB4D"/>
<path d="M76.0556 90C74.2407 91.0166 72.3518 91.9334 70.3704 92.75V86.0834C72.2778 85.3 74.1482 84.4334 75.926 83.4668V90H76.0556Z" fill="#FFBB4D"/>
<path d="M66.6667 87.4166V94.0832C64.8704 94.6666 63.0184 95.1498 61.1111 95.5498V88.8664C63 88.4834 64.8518 88 66.6667 87.4166Z" fill="#FFBB4D"/>
<path d="M57.4073 89.5V96.1666C55.5924 96.4166 53.7407 96.5666 51.8518 96.6332V89.9498C53.7222 89.9 55.5927 89.75 57.4073 89.5Z" fill="#FFBB4D"/>
<path d="M48.1482 89.95V96.6334C46.2593 96.5668 44.4076 96.4168 42.5927 96.1668V89.5C44.4073 89.75 46.2778 89.9 48.1482 89.95Z" fill="#FFBB4D"/>
<path d="M38.8889 88.8666V95.55C36.9816 95.15 35.1296 94.6666 33.3333 94.0834V87.4168C35.1482 88 37 88.4834 38.8889 88.8666Z" fill="#FFBB4D"/>
<path d="M29.6296 86.0834V92.75C27.648 91.9334 25.7591 91.0166 23.9444 90H24.074V83.4666C25.8518 84.4334 27.7222 85.3 29.6296 86.0834Z" fill="#FFBB4D"/>
<path d="M20.3704 81.2166V87.7666C18.3704 86.3666 16.5187 84.85 14.8149 83.2V76.9334C16.5556 78.4834 18.4073 79.9166 20.3704 81.2166Z" fill="#FFBB4D"/>
<path d="M11.1296 73.2666C11.1296 73.2832 11.1111 73.3 11.1111 73.3332V79.0998C7.31489 74.2498 4.81489 68.6498 4 62.6332C5.83334 66.4834 8.24067 70.05 11.1296 73.2666Z" fill="#FFBB4D"/>
<path d="M50 10.3834C28.7962 10.3834 11.5371 25.9168 11.5371 45C11.5371 64.0832 28.7962 79.6166 50 79.6166C71.2038 79.6166 88.4629 64.0834 88.4629 45C88.4629 25.9166 71.2038 10.3834 50 10.3834ZM50 76.15C30.9073 76.15 15.3889 62.1834 15.3889 45C15.3889 27.8166 30.9073 13.85 50 13.85C69.0927 13.85 84.6111 27.8166 84.6111 45C84.6111 62.1834 69.0927 76.15 50 76.15Z" fill="#3A3707"/>
<ellipse cx="50.15" cy="45" rx="35" ry="31" fill="#FFD43C"/>
</svg>
