<svg viewBox="163.39999999999998 213.29850746268653 361.19999999999993 249.42164179104486" fill="none" xmlns="http://www.w3.org/2000/svg" xmlns:xlink="http://www.w3.org/1999/xlink" overflow="visible" width="361.19999999999993px" height="249.42164179104486px"><g id="Master/Stickers/Credit Card"><g id="Credit Card"><path id="Credit Card_2" fill-rule="evenodd" clip-rule="evenodd" d="M501.251 459.538H186.8C176.632 459.538 168.388 451.313 168.388 441.166V233.443C168.388 223.297 176.632 215.071 186.8 215.071H501.251C511.42 215.071 519.663 223.297 519.663 233.443V441.166C519.663 451.313 511.42 459.538 501.251 459.538" fill="#4B69FD"/><path id="Fill 3" fill-rule="evenodd" clip-rule="evenodd" d="M260.869 338.586H198.269C193.405 338.586 189.462 334.652 189.462 329.797V293.19C189.462 288.336 193.405 284.402 198.269 284.402H260.869C265.733 284.402 269.677 288.336 269.677 293.19V329.797C269.677 334.652 265.733 338.586 260.869 338.586" fill="#FFBA00"/><path id="Fill 5" fill-rule="evenodd" clip-rule="evenodd" d="M269.139 299.798H246.367V295.385C246.367 292.87 244.316 290.823 241.795 290.823H217.344C214.824 290.823 212.773 292.87 212.773 295.385V299.798H190V293.19C190 288.64 193.71 284.938 198.27 284.938H260.869C265.429 284.938 269.139 288.64 269.139 293.19V299.798ZM246.367 311.006H269.139V300.773H246.367V311.006ZM246.367 322.215H269.139V311.98H246.367V322.215ZM213.749 327.602V295.385C213.749 293.407 215.362 291.797 217.344 291.797H241.795C243.778 291.797 245.39 293.407 245.39 295.385V327.602C245.39 329.58 243.778 331.19 241.795 331.19H217.344C215.362 331.19 213.749 329.58 213.749 327.602V327.602ZM269.139 329.798C269.139 334.348 265.429 338.05 260.869 338.05H198.27C193.71 338.05 190 334.348 190 329.798V323.19H212.773V327.602C212.773 330.118 214.824 332.164 217.344 332.164H241.795C244.316 332.164 246.367 330.118 246.367 327.602V323.19H269.139V329.798ZM190 322.215H212.772V311.98H190V322.215ZM190 311.006H212.772V300.773H190V311.006ZM270.215 293.19C270.215 288.048 266.023 283.865 260.869 283.865H198.27C193.117 283.865 188.924 288.048 188.924 293.19V329.798C188.924 334.939 193.117 339.122 198.27 339.122H260.869C266.023 339.122 270.215 334.939 270.215 329.798V293.19ZM494.068 393.288C494.068 396.614 491.356 399.319 488.023 399.319H434.906C431.573 399.319 428.862 396.614 428.862 393.288V375.862C428.862 372.536 431.573 369.831 434.906 369.831H488.023C491.356 369.831 494.068 372.536 494.068 375.862V393.288ZM488.023 368.856H434.906C431.035 368.856 427.885 371.998 427.885 375.862V393.288C427.885 397.151 431.035 400.294 434.906 400.294H488.023C491.895 400.294 495.044 397.151 495.044 393.288V375.862C495.044 371.998 491.895 368.856 488.023 368.856V368.856ZM414.329 393.288C414.329 396.614 411.618 399.319 408.285 399.319H355.168C351.835 399.319 349.124 396.614 349.124 393.288V375.862C349.124 372.536 351.835 369.831 355.168 369.831H408.285C411.618 369.831 414.329 372.536 414.329 375.862V393.288ZM408.285 368.856H355.168C351.297 368.856 348.148 371.998 348.148 375.862V393.288C348.148 397.151 351.297 400.294 355.168 400.294H408.285C412.157 400.294 415.306 397.151 415.306 393.288V375.862C415.306 371.998 412.157 368.856 408.285 368.856V368.856ZM334.592 393.288C334.592 396.614 331.881 399.319 328.548 399.319H275.431C272.098 399.319 269.386 396.614 269.386 393.288V375.862C269.386 372.536 272.098 369.831 275.431 369.831H328.548C331.881 369.831 334.592 372.536 334.592 375.862V393.288ZM328.548 368.856H275.431C271.559 368.856 268.41 371.998 268.41 375.862V393.288C268.41 397.151 271.559 400.294 275.431 400.294H328.548C332.419 400.294 335.569 397.151 335.569 393.288V375.862C335.569 371.998 332.419 368.856 328.548 368.856V368.856ZM254.855 393.288C254.855 396.614 252.143 399.319 248.81 399.319H195.693C192.36 399.319 189.649 396.614 189.649 393.288V375.862C189.649 372.536 192.36 369.831 195.693 369.831H248.81C252.143 369.831 254.855 372.536 254.855 375.862V393.288ZM248.81 368.856H195.693C191.822 368.856 188.672 371.998 188.672 375.862V393.288C188.672 397.151 191.822 400.294 195.693 400.294H248.81C252.682 400.294 255.831 397.151 255.831 393.288V375.862C255.831 371.998 252.682 368.856 248.81 368.856V368.856ZM370.423 248.312C370.423 245.015 373.112 242.33 376.417 242.33H481.258C484.564 242.33 487.252 245.015 487.252 248.312V259.41C487.252 262.709 484.564 265.393 481.258 265.393H376.417C373.112 265.393 370.423 262.709 370.423 259.41V248.312ZM376.417 266.466H481.258C485.157 266.466 488.328 263.301 488.328 259.41V248.312C488.328 244.422 485.157 241.258 481.258 241.258H376.417C372.519 241.258 369.347 244.422 369.347 248.312V259.41C369.347 263.301 372.519 266.466 376.417 266.466V266.466ZM519.125 441.166C519.125 451.001 511.108 459.001 501.251 459.001H186.8C176.944 459.001 168.926 451.001 168.926 441.166V233.444C168.926 223.609 176.944 215.607 186.8 215.607H501.251C511.108 215.607 519.125 223.609 519.125 233.444V441.166ZM501.251 214.535H186.8C176.351 214.535 167.85 223.017 167.85 233.444V441.166C167.85 451.592 176.351 460.075 186.8 460.075H501.251C511.701 460.075 520.201 451.592 520.201 441.166V233.444C520.201 223.017 511.701 214.535 501.251 214.535V214.535Z" fill="black"/></g></g></svg>