<svg viewBox="180.60000000000002 328.95000000000005 129.0000000000001 51.5999999999999" fill="none" xmlns="http://www.w3.org/2000/svg" xmlns:xlink="http://www.w3.org/1999/xlink" overflow="visible" width="129.0000000000001px" height="51.5999999999999px"><g id="Master/Stickers/Dog"><path id="Dog hair" fill-rule="evenodd" clip-rule="evenodd" d="M304.725 371.456C304.725 371.456 303.953 362.704 281.966 369.288C287.863 365.967 292.027 359.932 292.72 352.862C292.797 352.403 292.826 352.135 292.826 352.135C292.826 352.135 292.8 352.12 292.759 352.098C292.787 351.653 292.826 351.213 292.826 350.762C292.826 339.016 283.304 329.493 271.558 329.493C271.558 329.493 271.547 329.493 271.54 329.494C270.189 329.495 268.871 329.635 267.59 329.877C261.851 330.586 250.619 332.542 238.835 337.694C233.57 334.859 226.883 333.21 219.698 333.439C204.383 333.931 187.696 359.199 183.732 365.56C183.242 366.348 183.555 367.411 184.415 367.76C195.619 372.3 214.837 356.91 214.62 357.156C213.703 358.197 212.811 359.275 211.955 360.401C197.701 379.152 230.073 376.348 230.717 372.09C231.944 372.068 241.246 371.552 243.36 371.31C243.205 371.718 243.111 372.138 243.111 372.573C243.111 378.533 271.558 372.03 271.558 372.03C273.223 372.03 274.835 371.818 276.39 371.456H304.725Z" fill="#F0BE91"/><path id="Fill 17" fill-rule="evenodd" clip-rule="evenodd" d="M304.73 370.956L277.323 370.725L271.447 371.543C271.245 371.589 271.033 371.637 270.811 371.686C268.81 372.13 265.999 372.693 262.935 373.205C262.254 373.318 261.561 373.43 260.862 373.536C257.014 374.124 252.976 374.577 249.766 374.584C247.14 374.59 245.068 374.297 244.11 373.533C243.77 373.262 243.611 372.957 243.611 372.573C243.611 372.227 243.682 371.871 243.828 371.487C243.831 371.481 243.828 371.475 243.83 371.469C245.433 367.29 255.719 364.417 259.795 363.279C260.565 363.064 261.167 362.896 261.531 362.775C261.584 362.758 261.629 362.726 261.673 362.691C261.705 362.729 261.731 362.769 261.763 362.808C263.048 364.305 264.913 365.11 267.307 365.202H267.327C267.594 365.202 267.815 364.99 267.826 364.721C267.836 364.445 267.621 364.213 267.345 364.202C265.244 364.123 263.622 363.435 262.526 362.161C260.506 359.811 260.889 356.193 260.893 356.157C260.899 356.104 260.89 356.056 260.88 356.007C261.184 353.345 262.588 350.341 266.68 348.159C266.924 348.029 267.016 347.727 266.886 347.482C266.755 347.239 266.454 347.146 266.209 347.276C261.744 349.658 260.239 353.006 259.927 355.957C259.918 355.985 259.903 356.012 259.9 356.043C259.894 356.097 259.847 356.54 259.862 357.202C259.859 359.338 260.398 361.132 260.709 361.982C260.387 362.076 259.988 362.187 259.526 362.316C255.017 363.574 245.125 366.339 243.018 370.842C240.798 371.062 233.929 371.454 231.47 371.561C231.732 370.71 231.658 369.911 231.228 369.183C230.56 368.049 229.063 367.227 227.275 366.627C227.281 366.556 227.306 366.464 227.382 366.355C227.857 365.675 230.239 364.168 242.076 364.941C242.345 364.969 242.589 364.75 242.607 364.475C242.625 364.199 242.416 363.961 242.14 363.943C232.955 363.349 227.698 363.988 226.518 365.851C226.411 366.019 226.349 366.181 226.313 366.331C222.17 365.175 217.055 365.046 216.73 365.039C216.429 365.028 216.225 365.253 216.219 365.528C216.213 365.805 216.433 366.033 216.709 366.039C219.95 366.108 228.723 366.901 230.366 369.69C230.739 370.323 230.709 371.031 230.275 371.857C230.269 371.868 230.27 371.881 230.265 371.892C230.248 371.931 230.23 371.971 230.223 372.015C230.134 372.603 228.686 373.521 225.716 374.144C220.496 375.242 212.023 375.014 209.535 371.08C208.008 368.665 208.957 365.174 212.355 360.704C212.928 359.95 213.542 359.2 214.182 358.443C214.791 357.782 217.355 354.937 218.469 352.8C218.597 352.555 218.502 352.253 218.257 352.125C218.012 351.998 217.709 352.092 217.583 352.337C216.839 353.765 215.348 355.595 214.341 356.759C214.246 356.813 214.151 356.878 214.057 356.947C209.879 360.065 196.391 369.415 186.957 367.929C191.368 364.223 186.438 361.408 186.437 361.407C186.433 361.413 186.43 361.418 186.426 361.424C186.423 361.422 186.422 361.419 186.419 361.417C186.188 361.268 185.878 361.333 185.728 361.564L183.309 365.296C182.99 365.808 182.914 366.431 183.101 367.005C183.282 367.562 183.693 368.006 184.228 368.224C192.523 371.582 204.772 364.624 211.783 359.806C211.708 359.903 211.633 360.001 211.559 360.099C207.881 364.935 206.917 368.81 208.689 371.614C210.642 374.702 215.46 375.71 219.964 375.71C222.144 375.71 224.25 375.474 225.922 375.123C227.628 374.766 230.422 373.978 231.084 372.579C232.978 372.507 239.893 372.12 242.678 371.878C242.676 371.891 242.677 371.903 242.675 371.915C242.637 372.132 242.611 372.35 242.611 372.573C242.611 373.266 242.906 373.852 243.487 374.315C243.629 374.429 243.789 374.532 243.966 374.628C244.03 374.663 244.107 374.69 244.175 374.724C244.296 374.78 244.413 374.84 244.547 374.891C244.637 374.925 244.74 374.953 244.836 374.984C244.963 375.026 245.085 375.069 245.222 375.106C245.333 375.136 245.456 375.16 245.572 375.186C245.708 375.218 245.839 375.251 245.983 375.277C246.11 375.302 246.247 375.319 246.38 375.34C246.527 375.363 246.671 375.388 246.825 375.407C246.965 375.425 247.114 375.436 247.26 375.451C247.418 375.468 247.573 375.485 247.737 375.497C247.891 375.509 248.053 375.516 248.212 375.524C248.378 375.534 248.542 375.544 248.713 375.551C248.881 375.557 249.056 375.559 249.229 375.561C249.4 375.564 249.568 375.569 249.743 375.569C249.778 375.569 249.812 375.571 249.848 375.571C250.124 375.571 250.406 375.567 250.691 375.561C250.719 375.56 250.748 375.56 250.776 375.56C251.081 375.552 251.391 375.541 251.705 375.527C251.788 375.523 251.872 375.519 251.956 375.516C252.24 375.502 252.526 375.485 252.816 375.468C252.881 375.463 252.945 375.46 253.011 375.455C253.371 375.432 253.734 375.404 254.102 375.374C254.122 375.372 254.143 375.37 254.164 375.368C254.508 375.339 254.854 375.308 255.202 375.272C255.272 375.267 255.342 375.259 255.413 375.252C255.747 375.219 256.083 375.183 256.419 375.145C256.454 375.142 256.489 375.138 256.524 375.134C256.913 375.09 257.301 375.043 257.69 374.995C257.694 374.994 257.698 374.993 257.701 374.993C258.074 374.946 258.446 374.897 258.816 374.847C258.867 374.841 258.917 374.833 258.968 374.826C260.129 374.667 261.273 374.493 262.374 374.313C262.382 374.312 262.391 374.31 262.4 374.31C267.233 373.519 271.176 372.63 271.648 372.522L277.388 371.72L304.721 371.956H304.726C305 371.956 305.223 371.735 305.226 371.46C305.228 371.185 305.006 370.958 304.73 370.956M206.579 347.934C206.861 348.028 207.469 348.144 208.218 348.144C209.726 348.144 211.807 347.673 212.957 345.603C213.091 345.361 213.004 345.058 212.762 344.923C212.522 344.791 212.217 344.877 212.083 345.117C210.647 347.702 207.498 347.122 206.964 347.002C206.878 346.941 206.77 346.908 206.659 346.913C206.418 346.924 206.198 347.111 206.164 347.35C206.13 347.589 206.351 347.857 206.579 347.934M249.956 355.231C251.793 343.488 237.222 332.878 219.698 333.439L219.361 340.853C217.227 361.858 248.117 366.975 249.956 355.231M271.558 329.993C283.01 329.993 292.327 339.31 292.327 350.762C292.327 351.098 292.304 351.428 292.281 351.758L292.26 352.066C292.256 352.134 292.273 352.204 292.306 352.271C292.289 352.391 292.264 352.562 292.228 352.779C292.182 353.052 292.366 353.31 292.638 353.355C292.666 353.36 292.694 353.362 292.721 353.362C292.961 353.362 293.173 353.189 293.214 352.945C293.294 352.468 293.324 352.188 293.324 352.188C293.333 352.108 293.311 352.023 293.271 351.944L293.278 351.827C293.303 351.474 293.327 351.121 293.327 350.762C293.327 338.762 283.569 329 271.478 329H271.465C271.192 329.042 270.976 329.3 271.018 329.572C271.06 329.846 271.286 330.038 271.558 329.993" fill="black"/></g></svg>