<svg viewBox="197.79999999999995 204.6977611940298 292.39999999999986 258.0223880597015" fill="none" xmlns="http://www.w3.org/2000/svg" xmlns:xlink="http://www.w3.org/1999/xlink" overflow="visible" width="292.39999999999986px" height="258.0223880597015px"><g id="Master/Stickers/Dollar"><g id="Dollar"><path id="Fill 1" fill-rule="evenodd" clip-rule="evenodd" d="M309.542 272.029C310.186 274.582 312.78 276.129 315.337 275.488L475.267 235.348C477.824 234.707 479.376 232.118 478.732 229.565L473.693 209.574C473.05 207.023 470.456 205.475 467.897 206.116L307.969 246.255C305.411 246.897 303.86 249.486 304.503 252.038L309.542 272.029ZM484.14 302.431V281.817C484.14 279.186 482.001 277.052 479.364 277.052H314.454C311.817 277.052 309.679 279.186 309.679 281.817V287.162C308.921 287.142 308.158 287.131 307.392 287.131C259.55 287.131 214.069 325.83 205.808 373.568C197.546 421.305 229.63 460.003 277.472 460.003C279.577 460.003 281.677 459.926 283.77 459.777V459.779C293.248 459.779 302.23 458.794 310.675 456.965C311.548 458.101 312.907 458.847 314.454 458.847H479.364C482.001 458.847 484.14 456.714 484.14 454.082V433.468C484.14 430.837 482.001 428.704 479.364 428.704H363.104C363.166 428.641 363.225 428.579 363.285 428.516H479.364C482.001 428.516 484.14 426.382 484.14 423.752V403.138C484.14 400.506 482.001 398.373 479.364 398.373H383.444L383.526 398.186H479.364C482.001 398.186 484.14 396.053 484.14 393.421V372.808C484.14 370.176 482.001 368.043 479.364 368.043H391.266C391.271 367.98 391.276 367.918 391.281 367.855H479.364C482.001 367.855 484.14 365.722 484.14 363.092V342.477C484.14 339.846 482.001 337.713 479.364 337.713H388.243C388.224 337.651 388.206 337.587 388.187 337.526H479.364C482.001 337.526 484.14 335.393 484.14 332.76V312.147C484.14 309.515 482.001 307.382 479.364 307.382H369.25C369.183 307.32 369.113 307.258 369.046 307.195H479.364C482.001 307.195 484.14 305.061 484.14 302.431V302.431Z" fill="#FFBA00"/><path id="Fill 3" fill-rule="evenodd" clip-rule="evenodd" d="M305.393 248.643C305.991 247.646 306.942 246.941 308.071 246.658L468 206.52C468.356 206.43 468.714 206.386 469.072 206.386C469.849 206.386 470.615 206.595 471.3 207.004C472.299 207.6 473.006 208.549 473.289 209.676L478.329 229.666C478.613 230.793 478.441 231.962 477.843 232.96C477.246 233.957 476.294 234.661 475.165 234.944L315.237 275.084C314.105 275.368 312.936 275.195 311.936 274.6C310.937 274.003 310.23 273.054 309.947 271.928L304.908 251.936C304.623 250.809 304.795 249.64 305.393 248.643V248.643ZM309.138 272.13C309.477 273.472 310.319 274.603 311.509 275.313C312.325 275.799 313.238 276.049 314.164 276.049C314.589 276.049 315.017 275.997 315.44 275.891L475.369 235.751C476.713 235.414 477.846 234.574 478.558 233.386C479.27 232.2 479.475 230.806 479.137 229.464L474.098 209.473C473.759 208.131 472.917 207.001 471.727 206.291C470.539 205.583 469.144 205.375 467.797 205.713L307.868 245.851C306.523 246.189 305.39 247.03 304.678 248.217C303.966 249.405 303.761 250.796 304.099 252.139L309.138 272.13ZM479.365 306.78H369.329C355.386 293.944 336.376 286.959 314.861 286.959C314.846 286.959 314.833 286.965 314.82 286.966C313.26 286.832 311.685 286.747 310.095 286.698V281.816C310.095 279.418 312.051 277.468 314.455 277.468H479.365C481.768 277.468 483.723 279.418 483.723 281.816V302.43C483.723 304.829 481.768 306.78 479.365 306.78V306.78ZM483.723 312.147V332.761C483.723 335.158 481.768 337.11 479.365 337.11H388.601C385.807 328.312 381.382 320.191 375.378 313.077C373.81 311.219 372.138 309.469 370.398 307.797H479.365C481.768 307.797 483.723 309.749 483.723 312.147V312.147ZM483.723 342.477V363.091C483.723 365.49 481.768 367.44 479.365 367.44H391.811C392.671 357.186 391.684 347.297 388.919 338.128H479.365C481.768 338.128 483.723 340.079 483.723 342.477V342.477ZM483.723 372.808V393.421C483.723 395.819 481.768 397.771 479.365 397.771H384.216C387.232 390.613 389.471 383.067 390.824 375.253C391.218 372.971 391.496 370.709 391.71 368.458H479.365C481.768 368.458 483.723 370.409 483.723 372.808V372.808ZM483.723 403.137V423.751C483.723 426.15 481.768 428.101 479.365 428.101H364.36C372.486 419.6 379.048 409.669 383.773 398.788H479.365C481.768 398.788 483.723 400.739 483.723 403.137V403.137ZM483.723 433.468V454.082C483.723 456.48 481.768 458.431 479.365 458.431H314.455C313.324 458.431 312.302 457.989 311.53 457.279C328.355 453.523 343.501 446.278 356.182 435.758C358.702 433.669 361.096 431.444 363.383 429.119H479.365C481.768 429.119 483.723 431.069 483.723 433.468V433.468ZM294.916 458.806C336.107 450.837 372.274 415.685 379.548 373.652C383.611 350.177 378.185 328.167 364.268 311.676C354.298 299.862 340.804 291.952 325.261 288.545C345.347 290.777 362.619 299.508 374.613 313.72C388.443 330.107 393.85 351.899 389.837 375.083C385.738 398.769 373.559 420.044 355.543 434.991C338.992 448.723 318.202 456.851 294.916 458.806V458.806ZM283.631 459.264C283.542 459.254 283.446 459.255 283.359 459.242L283.351 459.286C281.396 459.415 279.437 459.505 277.472 459.505C254.724 459.505 234.797 450.737 221.361 434.816C207.637 418.555 202.288 396.834 206.301 373.652C214.51 326.219 259.859 287.63 307.391 287.63C330.139 287.63 350.067 296.398 363.503 312.319C377.227 328.58 382.575 350.302 378.562 373.482C370.708 418.862 328.861 456.12 283.631 459.264V459.264ZM484.555 302.43V281.816C484.555 278.96 482.227 276.637 479.365 276.637H314.455C311.592 276.637 309.263 278.96 309.263 281.816V286.678C308.638 286.665 308.02 286.632 307.391 286.632C259.394 286.632 213.603 325.593 205.315 373.482C201.252 396.958 206.679 418.969 220.596 435.459C234.225 451.609 254.424 460.503 277.472 460.503C279.576 460.503 281.673 460.424 283.765 460.277C283.767 460.277 283.768 460.278 283.77 460.278C293.07 460.278 302.031 459.325 310.573 457.492C311.523 458.572 312.905 459.261 314.455 459.261H479.365C482.227 459.261 484.555 456.938 484.555 454.083V433.468C484.555 431.224 483.109 429.327 481.105 428.61C483.109 427.892 484.555 425.995 484.555 423.751V403.137C484.555 400.893 483.11 398.998 481.106 398.28C483.11 397.561 484.555 395.665 484.555 393.421V372.808C484.555 370.564 483.109 368.667 481.105 367.948C483.109 367.232 484.555 365.335 484.555 363.091V342.477C484.555 340.232 483.11 338.338 481.106 337.619C483.11 336.901 484.555 335.005 484.555 332.761V312.147C484.555 309.903 483.11 308.006 481.106 307.288C483.11 306.57 484.555 304.675 484.555 302.43V302.43Z" fill="black"/><path id="Fill 6" fill-rule="evenodd" clip-rule="evenodd" d="M277.436 421.259H289.911L291.994 409.226L292.341 409.166C306.129 406.803 315.906 398.332 317.857 387.061C319.744 376.161 315.064 369.807 301.708 365.134C293.124 361.96 288.279 359.435 288.887 355.911C289.248 353.833 291.087 350.349 299.373 350.349C307.712 350.349 312.924 352.715 316.039 354.128L316.338 354.263L322.514 339.388C319.344 337.974 314.235 336.181 305.797 335.875L305.226 335.853L306.953 325.876H294.478L292.591 336.776L292.253 336.842C278.864 339.447 269.744 347.512 267.857 358.416C266.091 368.615 271.619 375.268 285.779 379.987C293.417 382.444 297.693 384.732 296.928 389.154C296.276 392.914 292.021 395.071 285.253 395.071C278.593 395.071 271.954 393.385 265.51 390.062L259.228 405.502C262.883 407.47 270.02 409.818 278.773 410.256L279.336 410.284L277.436 421.259ZM290.752 422.257H276.249L278.16 411.22C270.722 410.773 263 408.806 258.35 406.158L257.97 405.941L264.999 388.666L265.489 388.925C271.94 392.341 278.589 394.073 285.253 394.073C291.486 394.073 295.382 392.218 295.942 388.984C296.508 385.711 293.767 383.606 285.467 380.935C275.55 377.63 264.479 372.066 266.871 358.248C268.816 347.011 278.094 338.687 291.723 335.929L293.636 324.878H308.14L306.406 334.9C313.007 335.196 318.412 336.401 323.371 338.68L323.808 338.881L316.869 355.593L315.624 355.037C312.584 353.657 307.496 351.347 299.373 351.347C293.776 351.347 290.402 353.027 289.874 356.08C289.445 358.556 292.745 360.755 302.047 364.195C315.962 369.064 320.831 375.74 318.843 387.23C316.833 398.835 306.892 407.569 292.859 410.089L290.752 422.257Z" fill="black"/></g></g></svg>