<svg viewBox="166.39999999999998 152.47826086956525 520 446.0248447204968" xmlns="http://www.w3.org/2000/svg" overflow="visible" xmlns:xlink="http://www.w3.org/1999/xlink" width="520px" height="446.0248447204968px"><g id="Master/Spot Illustration/Online Shopping" stroke="none" stroke-width="1" fill="none" fill-rule="evenodd"><path d="M626.099,573 L194.5,573 C194.224,573 194,572.776 194,572.5 C194,572.224 194.224,572 194.5,572 L626.099,572 C626.375,572 626.599,572.224 626.599,572.5 C626.599,572.776 626.375,573 626.099,573" id="Fill-32" fill="#000"/><path d="M540.937,596 L441.5,596 C441.224,596 441,595.776 441,595.5 C441,595.224 441.224,595 441.5,595 L540.937,595 C541.213,595 541.437,595.224 541.437,595.5 C541.437,595.776 541.213,596 540.937,596" id="Fill-33" fill="#000"/><g id="User Interface" transform="translate(156.000000, 72.994000) scale(1 1)"><g id="User Interface/Business Board" stroke="none" stroke-width="1" fill="none" fill-rule="evenodd"><polygon id="Fill-1" fill="#94B1EB" points="89.2428 105.443 511.4808 105.443 511.4808 82.5 89.2428 82.5"/><path d="M88.7428,419.607 L511.9818,419.607 L511.9818,82 L88.7428,82 L88.7428,419.607 Z M89.7428,418.607 L510.9818,418.607 L510.9818,83 L89.7428,83 L89.7428,418.607 Z" id="Fill-2" fill="#000"/><path d="M235.817,242.3588 L64.468,242.3588 C61.448,242.3588 59,239.9108 59,236.8908 L59,133.3528 C59,130.3328 61.448,127.8838 64.468,127.8838 L235.817,127.8838 C238.838,127.8838 241.286,130.3328 241.286,133.3528 L241.286,236.8908 C241.286,239.9108 238.838,242.3588 235.817,242.3588" id="Fill-3" fill="#E1E1E1"/><polygon id="Fill-5" fill="#F1EFEF" points="74.9258 159.969 225.3598 159.969 225.3598 149.45 74.9258 149.45"/><path d="M200.7558,220.471 L225.0378,220.471 L225.0378,201.33 L200.7558,201.33 L200.7558,220.471 Z M75.2488,220.471 L101.7908,220.471 L101.7908,201.33 L75.2488,201.33 L75.2488,220.471 Z M75.2488,200.686 L101.7908,200.686 L101.7908,176.851 L75.2488,176.851 L75.2488,200.686 Z M102.4348,200.686 L134.5638,200.686 L134.5638,176.851 L102.4348,176.851 L102.4348,200.686 Z M135.2088,200.686 L167.3378,200.686 L167.3378,176.851 L135.2088,176.851 L135.2088,200.686 Z M167.9818,220.471 L200.1108,220.471 L200.1108,201.33 L167.9818,201.33 L167.9818,220.471 Z M102.4348,220.471 L134.5638,220.471 L134.5638,201.33 L102.4348,201.33 L102.4348,220.471 Z M135.2088,220.471 L167.3378,220.471 L167.3378,201.33 L135.2088,201.33 L135.2088,220.471 Z M167.9818,200.686 L200.1108,200.686 L200.1108,176.851 L167.9818,176.851 L167.9818,200.686 Z M200.7558,200.686 L225.0378,200.686 L225.0378,176.851 L200.7558,176.851 L200.7558,200.686 Z M225.3598,149.129 C225.1818,149.129 225.0378,149.273 225.0378,149.451 L225.0378,176.207 L200.7558,176.207 L200.7558,149.451 C200.7558,149.273 200.6108,149.129 200.4328,149.129 C200.2558,149.129 200.1108,149.273 200.1108,149.451 L200.1108,176.207 L167.9818,176.207 L167.9818,149.451 C167.9818,149.273 167.8378,149.129 167.6598,149.129 C167.4818,149.129 167.3378,149.273 167.3378,149.451 L167.3378,176.207 L135.2088,176.207 L135.2088,149.451 C135.2088,149.273 135.0638,149.129 134.8868,149.129 C134.7088,149.129 134.5638,149.273 134.5638,149.451 L134.5638,176.207 L102.4348,176.207 L102.4348,149.451 C102.4348,149.273 102.2908,149.129 102.1128,149.129 C101.9348,149.129 101.7908,149.273 101.7908,149.451 L101.7908,176.207 L75.2488,176.207 L75.2488,149.451 C75.2488,149.273 75.1038,149.129 74.9268,149.129 C74.7488,149.129 74.6038,149.273 74.6038,149.451 L74.6038,220.792 C74.6038,220.97 74.7488,221.114 74.9268,221.114 L225.3598,221.114 C225.5378,221.114 225.6818,220.97 225.6818,220.792 L225.6818,149.451 C225.6818,149.273 225.5378,149.129 225.3598,149.129 L225.3598,149.129 Z" id="Fill-7" fill="#B5B6B7"/><path d="M457.1295,245.6479 L457.1295,137.7479 C457.1295,136.5559 456.1635,135.5899 454.9715,135.5899 L420.9095,135.5899 C419.7185,135.5899 418.7525,136.5559 418.7525,137.7479 L418.7525,245.6479 L400.2265,245.6479 L400.2265,182.0639 C400.2265,180.8719 399.2595,179.9059 398.0675,179.9059 L364.0065,179.9059 C362.8145,179.9059 361.8485,180.8719 361.8485,182.0639 L361.8485,245.6479 L343.3215,245.6479 L343.3215,221.6409 C343.3215,220.4489 342.3565,219.4829 341.1635,219.4829 L307.1025,219.4829 C305.9105,219.4829 304.9445,220.4489 304.9445,221.6409 L304.9445,245.6479 L266.8785,245.6479 C265.1685,245.6479 263.7825,247.0339 263.7825,248.7429 C263.7825,250.4529 265.1685,251.8379 266.8785,251.8379 L468.1175,251.8379 C469.8275,251.8379 471.2135,250.4529 471.2135,248.7429 C471.2135,247.0339 469.8275,245.6479 468.1175,245.6479 L457.1295,245.6479 Z" id="Fill-8" fill="#94B1EB"/><path d="M379.0084,447.2045 L278.8534,447.2045 C276.3724,447.2045 274.3624,445.1945 274.3624,442.7135 L274.3624,357.6875 C274.3624,355.2075 276.3724,353.1965 278.8534,353.1965 L379.0084,353.1965 C381.4884,353.1965 383.4994,355.2075 383.4994,357.6875 L383.4994,442.7135 C383.4994,445.1945 381.4884,447.2045 379.0084,447.2045" id="Fill-9" fill="#F1EFEF"/><path d="M365.4703,377.2744 L292.3913,377.2744 C291.4283,377.2744 290.6473,376.4934 290.6473,375.5304 C290.6473,374.5674 291.4283,373.7864 292.3913,373.7864 L365.4703,373.7864 C366.4343,373.7864 367.2143,374.5674 367.2143,375.5304 C367.2143,376.4934 366.4343,377.2744 365.4703,377.2744" id="Fill-10" fill="#E1E1E1"/><path d="M365.4703,393.7216 L292.3913,393.7216 C291.4283,393.7216 290.6473,392.9406 290.6473,391.9776 C290.6473,391.0136 291.4283,390.2336 292.3913,390.2336 L365.4703,390.2336 C366.4343,390.2336 367.2143,391.0136 367.2143,391.9776 C367.2143,392.9406 366.4343,393.7216 365.4703,393.7216" id="Fill-11" fill="#E1E1E1"/><path d="M365.4703,410.1684 L292.3913,410.1684 C291.4283,410.1684 290.6473,409.3874 290.6473,408.4244 C290.6473,407.4604 291.4283,406.6804 292.3913,406.6804 L365.4703,406.6804 C366.4343,406.6804 367.2143,407.4604 367.2143,408.4244 C367.2143,409.3874 366.4343,410.1684 365.4703,410.1684" id="Fill-12" fill="#E1E1E1"/><path d="M365.4703,426.6152 L292.3913,426.6152 C291.4283,426.6152 290.6473,425.8342 290.6473,424.8712 C290.6473,423.9072 291.4283,423.1272 292.3913,423.1272 L365.4703,423.1272 C366.4343,423.1272 367.2143,423.9072 367.2143,424.8712 C367.2143,425.8342 366.4343,426.6152 365.4703,426.6152" id="Fill-13" fill="#E1E1E1"/><path d="M429.2574,330.0463 L339.9994,330.0463 C338.3274,330.0463 336.9734,328.6913 336.9734,327.0203 L336.9734,269.7233 C336.9734,268.0523 338.3274,266.6973 339.9994,266.6973 L429.2574,266.6973 C430.9284,266.6973 432.2834,268.0523 432.2834,269.7233 L432.2834,327.0203 C432.2834,328.6913 430.9284,330.0463 429.2574,330.0463" id="Fill-14" fill="#F1EFEF"/><path d="M420.1344,282.9228 L349.1224,282.9228 C348.4734,282.9228 347.9464,282.3968 347.9464,281.7478 C347.9464,281.0978 348.4734,280.5718 349.1224,280.5718 L420.1344,280.5718 C420.7824,280.5718 421.3094,281.0978 421.3094,281.7478 C421.3094,282.3968 420.7824,282.9228 420.1344,282.9228" id="Fill-15" fill="#E1E1E1"/><path d="M420.1344,294.0058 L349.1224,294.0058 C348.4734,294.0058 347.9464,293.4798 347.9464,292.8308 C347.9464,292.1808 348.4734,291.6548 349.1224,291.6548 L420.1344,291.6548 C420.7824,291.6548 421.3094,292.1808 421.3094,292.8308 C421.3094,293.4798 420.7824,294.0058 420.1344,294.0058" id="Fill-16" fill="#E1E1E1"/><path d="M420.1344,305.0888 L349.1224,305.0888 C348.4734,305.0888 347.9464,304.5628 347.9464,303.9138 C347.9464,303.2638 348.4734,302.7378 349.1224,302.7378 L420.1344,302.7378 C420.7824,302.7378 421.3094,303.2638 421.3094,303.9138 C421.3094,304.5628 420.7824,305.0888 420.1344,305.0888" id="Fill-17" fill="#E1E1E1"/><path d="M420.1344,316.1718 L349.1224,316.1718 C348.4734,316.1718 347.9464,315.6458 347.9464,314.9968 C347.9464,314.3468 348.4734,313.8208 349.1224,313.8208 L420.1344,313.8208 C420.7824,313.8208 421.3094,314.3468 421.3094,314.9968 C421.3094,315.6458 420.7824,316.1718 420.1344,316.1718" id="Fill-18" fill="#E1E1E1"/><path d="M268.1471,292.1416 C259.0271,280.8686 245.0871,273.6556 229.4591,273.6556 L229.4591,323.4036 L268.1471,292.1416 Z" id="Fill-19" fill="#83BB9E"/><path d="M250.7838,242.5595 C250.9708,242.5785 251.1598,242.5965 251.3478,242.6165 C251.1598,242.5965 250.9718,242.5785 250.7838,242.5595" id="Fill-20" fill="#F1EFEF"/><path d="M263.4117,298.3129 C263.6617,298.6079 263.9107,298.9039 264.1537,299.2059 L225.4657,330.4669 L225.4657,280.7189 C197.9897,280.7189 175.7177,302.9919 175.7177,330.4669 C175.7177,357.9419 197.9897,380.2149 225.4657,380.2149 C252.9397,380.2149 275.2137,357.9419 275.2137,330.4669 C275.2137,318.2039 270.7677,306.9849 263.4117,298.3129" id="Fill-21" fill="#EC7068"/><path d="M247.358,242.3134 C247.505,242.3204 247.654,242.3254 247.801,242.3334 C247.654,242.3254 247.505,242.3204 247.358,242.3134" id="Fill-22" fill="#F1EFEF"/><polygon id="Fill-23" fill="#F0BE91" points="254.5908 173.714 315.5528 173.714 315.5528 134.71 254.5908 134.71"/><path d="M285.6695,154.2119 L315.7265,134.9809 C315.8755,134.8849 315.9195,134.6859 315.8235,134.5369 C315.7275,134.3859 315.5265,134.3419 315.3785,134.4389 L285.0715,153.8299 L254.7645,134.4389 C254.6165,134.3429 254.4155,134.3859 254.3185,134.5369 C254.2235,134.6859 254.2675,134.8849 254.4165,134.9809 L284.4745,154.2119 L254.4165,173.4429 C254.2675,173.5389 254.2235,173.7379 254.3185,173.8879 C254.4145,174.0379 254.6135,174.0809 254.7645,173.9849 L285.0715,154.5939 L315.3785,173.9849 C315.4325,174.0199 315.4925,174.03603 315.5525,174.03603 C315.6575,174.03603 315.7625,173.9839 315.8235,173.8879 C315.9195,173.7379 315.8755,173.5389 315.7265,173.4429 L285.6695,154.2119 Z" id="Fill-24" fill="#F1EFEF"/><path d="M354.1676,153.8901 L321.3446,153.8901 C321.1666,153.8901 321.0216,154.0341 321.0216,154.2121 C321.0216,154.3901 321.1666,154.5341 321.3446,154.5341 L354.1676,154.5341 C354.3456,154.5341 354.4896,154.3901 354.4896,154.2121 C354.4896,154.0341 354.3456,153.8901 354.1676,153.8901 M364.3616,145.0161 L321.3446,145.0161 C321.1666,145.0161 321.0216,145.1601 321.0216,145.3381 C321.0216,145.5151 321.1666,145.6601 321.3446,145.6601 L364.3616,145.6601 C364.5396,145.6601 364.6846,145.5151 364.6846,145.3381 C364.6846,145.1601 364.5396,145.0161 364.3616,145.0161 M344.9556,162.7641 L321.3446,162.7641 C321.1666,162.7641 321.0216,162.9081 321.0216,163.0861 C321.0216,163.2641 321.1666,163.4081 321.3446,163.4081 L344.9556,163.4081 C345.1336,163.4081 345.2776,163.2641 345.2776,163.0861 C345.2776,162.9081 345.1336,162.7641 344.9556,162.7641" id="Fill-25" fill="#B5B6B7"/></g></g><g id="Side Decoration" transform="translate(355.358404, 56.125212) scale(1.0181086519114688 1)"><g id="Side Decoration/Flat Leaves Copy" stroke="none" stroke-width="1" fill="none" fill-rule="evenodd"><g id="Group-69" transform="translate(203.679934, 390.000000)" fill="#83BB9E"><path d="M114.1177,0.4224 C114.1177,0.4224 -34.6103,16.4394 8.0537,117.3394 C8.0537,117.3394 70.0417,148.3444 114.1177,0.4224" id="Fill-67"/></g><path d="M207.425034,515.998 C207.359034,515.998 207.291034,515.985 207.226034,515.956 C206.973034,515.846 206.857034,515.552 206.967034,515.298 C207.327034,514.472 243.599034,432.346 301.735034,403.219 C301.983034,403.097 302.282034,403.196 302.406034,403.442 C302.530034,403.689 302.430034,403.989 302.183034,404.113 C244.374034,433.076 208.242034,514.874 207.884034,515.698 C207.802034,515.886 207.618034,515.998 207.425034,515.998" id="Fill-70" fill="#000"/><path d="M201.316434,512.1931 C201.316434,512.1931 228.743434,491.9991 173.865434,439.6411 C173.865434,439.6411 147.625434,508.3061 201.316434,512.1931 Z" id="Fill-72" fill="#83BB9E"/><path d="M203.924534,516.4023 C203.776534,516.4023 203.630534,516.3373 203.531534,516.2123 C203.460534,516.1223 196.360534,507.0913 189.412534,494.4343 C182.988534,482.7333 175.382534,465.4433 175.620534,449.5253 C175.624534,449.2493 175.862534,449.0103 176.127534,449.0323 C176.403534,449.0373 176.624534,449.2643 176.620534,449.5403 C176.170534,479.6123 204.034534,515.2353 204.316534,515.5923 C204.487534,515.8093 204.450534,516.1233 204.234534,516.2943 C204.142534,516.3673 204.032534,516.4023 203.924534,516.4023" id="Fill-74" fill="#000"/><path d="M201.317134,512.6934 C201.305134,512.6934 201.293134,512.6934 201.280134,512.6924 C188.070134,511.7354 178.524134,506.7744 172.905134,497.9444 C159.405134,476.7324 173.257134,439.8334 173.398134,439.4624 C173.497134,439.2044 173.788134,439.0774 174.044134,439.1734 C174.302134,439.2724 174.431134,439.5614 174.333134,439.8194 C174.193134,440.1854 160.519134,476.6224 173.750134,497.4094 C179.189134,505.9564 188.476134,510.7624 201.353134,511.6944 C201.628134,511.7144 201.835134,511.9544 201.815134,512.2294 C201.796134,512.4924 201.577134,512.6934 201.317134,512.6934" id="Fill-76" fill="#000"/></g></g><g transform="translate(0.408400, -174.000000) scale(1 1)" id="Master/Character/Sitting on Floor"><g id="Master/Character/Sitting on Floor" stroke="none" stroke-width="1" fill="none" fill-rule="evenodd"><g id="Lower Body/Sitting on Floor" transform="translate(71.000000, 391.000000) scale(1 1)"><g id="Lower Body/Sitting on Floor/Legs Extended Blue Long Pants" stroke="none" stroke-width="1" fill="none" fill-rule="evenodd"><g id="Group" transform="translate(139.000108, 278.000429)"><path d="M273.849892,45.6050707 C271.391892,45.6060707 272.793892,45.6770707 260.311892,51.2970707 C248.290892,56.7090707 230.796892,56.8400707 230.796892,56.8400707 L230.783892,65.1020707 C223.469892,61.4650707 217.917892,57.4940707 217.917892,57.4940707 L217.435892,57.0540707 L206.891892,65.6040707 L210.530892,67.6230707 C210.530892,67.6230707 210.178892,69.0890707 210.131892,71.0540707 L181.070892,73.4160707 L181.039892,73.5880707 L210.130892,71.1260707 C210.045892,75.3560707 211.392892,81.8190707 220.619892,81.0480707 C226.989892,80.5160707 235.625892,79.9850707 243.293892,79.5420707 C243.293892,79.5420707 255.321892,78.9690707 259.261892,78.2380707 C260.730892,77.2440707 261.008892,74.9200707 259.349892,73.7150707 C257.664892,72.4920707 258.187892,72.9370707 250.235892,71.4030707 C254.551892,67.7560707 259.637892,63.5650707 264.286892,59.7570707 C264.286892,59.7570707 273.679892,52.2240707 276.436892,49.3150707 C277.040892,47.6480707 275.899892,45.6050707 273.849892,45.6050707" id="Socks" fill="#F9E272"/><path d="M172.696592,50.3814707 L143.952592,45.3794707 C141.687592,45.2504707 139.417592,45.2644707 137.155592,45.4214707 L118.309592,47.7344707 L151.195592,33.7644707 C151.195592,33.7644707 154.533592,37.1244707 165.993592,42.9134707 L179.951592,51.1884707 L172.696592,50.3814707 Z M215.458592,55.1344707 L183.510592,26.2344707 L183.531592,26.2134707 L160.351592,5.1544707 C160.351592,5.1544707 149.805592,-4.2805293 135.928592,2.3794707 C122.052592,9.0404707 92.0165919,19.7864707 92.0165919,19.7864707 L90.6985919,13.8164707 L3.88859188,13.1514707 C3.88859188,13.1514707 -17.2034081,75.7484707 38.8575919,76.3044707 C94.9185919,76.8594707 149.525592,73.1484707 149.525592,73.1484707 L177.418592,73.5374707 L177.453592,73.7094707 L179.254592,73.5634707 L181.040592,73.5884707 L181.070592,73.4154707 L210.132592,71.0544707 C210.178592,69.0894707 210.530592,67.6224707 210.530592,67.6224707 L206.891592,65.6044707 L184.545592,53.2064707 L184.634592,52.6904707 L206.891592,65.6044707 L217.435592,57.0544707 L217.918592,57.4934707 C217.918592,57.4934707 223.469592,61.4654707 230.783592,65.1024707 L230.797592,56.8404707 L215.458592,55.1344707 Z" id="Pants" fill="#94B1EB"/><path d="M272.757092,50.7622707 C270.437092,50.7622707 268.419092,49.6452707 267.402092,48.0102707 C267.120092,48.1462707 266.817092,48.2902707 266.498092,48.4422707 C267.677092,50.4112707 270.037092,51.7622707 272.757092,51.7622707 C273.162092,51.7622707 273.558092,51.7262707 273.944092,51.6682707 C274.554092,51.1242707 275.107092,50.6172707 275.581092,50.1642707 C274.737092,50.5442707 273.777092,50.7622707 272.757092,50.7622707 L272.757092,50.7622707 Z M149.502092,72.6482707 C148.989092,72.6722707 99.6880919,74.9362707 46.6060919,75.7212707 C56.2820919,73.7662707 66.5070919,70.1042707 76.0130919,65.1432707 L151.410092,34.2152707 C151.659092,34.0962707 151.766092,33.7982707 151.647092,33.5492707 C151.527092,33.2982707 151.228092,33.1932707 150.981092,33.3132707 L75.5670919,64.2482707 C63.9210919,70.3252707 51.2150919,74.4342707 39.7890919,75.8162707 C39.7640919,75.8202707 39.7420919,75.8332707 39.7180919,75.8402707 C39.6870919,75.8492707 39.6550919,75.8562707 39.6270919,75.8702707 C39.5980919,75.8852707 39.5730919,75.9052707 39.5480919,75.9252707 C39.5230919,75.9452707 39.4980919,75.9622707 39.4780919,75.9862707 C39.4560919,76.0102707 39.4420919,76.0372707 39.4250919,76.0662707 C39.4090919,76.0932707 39.3930919,76.1192707 39.3820919,76.1512707 C39.3710919,76.1812707 39.3680919,76.2132707 39.3630919,76.2452707 C39.3610919,76.2712707 39.3500919,76.2932707 39.3500919,76.3192707 C39.3500919,76.3292707 39.3550919,76.3372707 39.3560919,76.3472707 C39.3570919,76.3562707 39.3530919,76.3642707 39.3540919,76.3722707 C39.3570919,76.4002707 39.3700919,76.4222707 39.3770919,76.4472707 C39.3850919,76.4752707 39.3900919,76.5032707 39.4020919,76.5302707 C39.4180919,76.5622707 39.4410919,76.5882707 39.4620919,76.6162707 C39.4790919,76.6372707 39.4910919,76.6582707 39.5100919,76.6762707 C39.5390919,76.7042707 39.5740919,76.7232707 39.6100919,76.7422707 C39.6280919,76.7532707 39.6440919,76.7682707 39.6630919,76.7762707 C39.7220919,76.7992707 39.7830919,76.8132707 39.8490919,76.8132707 L39.8500919,76.8132707 L39.8560919,76.8132707 C95.4530919,76.1322707 149.014092,73.6722707 149.519092,73.6482707 L181.033092,74.0882707 C182.026092,73.9082707 181.147092,73.0822707 181.147092,73.0822707 L149.502092,72.6482707 Z M259.815092,76.5002707 C259.540092,77.4802707 258.714092,78.1532707 257.711092,78.2142707 C256.744092,78.2732707 255.608092,78.3402707 254.335092,78.4122707 C253.864092,77.6802707 253.582092,76.8472707 253.582092,75.9542707 C253.582092,74.7502707 254.073092,73.6452707 254.889092,72.7672707 C254.931092,72.7742707 254.981092,72.7832707 255.021092,72.7892707 C257.825092,73.2832707 257.928092,73.3032707 258.943092,74.0382707 C258.944092,74.0402707 258.945092,74.0422707 258.947092,74.0432707 C259.907092,74.7102707 260.025092,75.7502707 259.815092,76.5002707 L259.815092,76.5002707 Z M220.194092,80.5682707 C216.777092,80.7792707 214.226092,79.9602707 212.635092,78.1082707 C211.253092,76.4992707 210.767092,74.3372707 210.657092,72.4032707 C211.442092,72.1062707 212.286092,71.9322707 213.173092,71.9322707 C217.137092,71.9322707 220.362092,75.1582707 220.362092,79.1212707 C220.362092,79.6192707 220.293092,80.0992707 220.194092,80.5682707 L220.194092,80.5682707 Z M259.694092,73.3662707 C259.677092,73.3492707 259.665092,73.3262707 259.644092,73.3112707 C258.329092,72.3562707 258.153092,72.3252707 255.194092,71.8052707 C253.372092,71.4842707 250.322092,70.9482707 245.153092,69.8712707 C232.502092,67.2362707 218.351092,57.1872707 218.209092,57.0862707 C217.986092,56.9262707 217.673092,56.9762707 217.512092,57.2012707 C217.351092,57.4262707 217.402092,57.7392707 217.627092,57.9002707 C217.771092,58.0022707 232.089092,68.1712707 244.950092,70.8502707 C249.117092,71.7182707 251.896092,72.2332707 253.780092,72.5702707 C253.037092,73.5442707 252.582092,74.6992707 252.582092,75.9542707 C252.582092,76.8552707 252.817092,77.7052707 253.216092,78.4772707 C252.250092,78.5322707 251.222092,78.5902707 250.141092,78.6512707 C241.432092,79.1442707 229.596092,79.8142707 221.227092,80.4972707 C221.306092,80.0482707 221.362092,79.5922707 221.362092,79.1212707 C221.362092,74.6062707 217.689092,70.9322707 213.173092,70.9322707 C212.285092,70.9322707 211.436092,71.0842707 210.635092,71.3482707 C210.652092,69.3312707 211.009092,67.7712707 211.017092,67.7392707 C211.069092,67.5212707 210.969092,67.2942707 210.773092,67.1852707 L166.236092,42.4772707 C165.995092,42.3422707 165.691092,42.4302707 165.556092,42.6712707 C165.422092,42.9122707 165.509092,43.2172707 165.751092,43.3512707 L209.964092,67.8802707 C209.663092,69.4102707 208.793092,75.1662707 211.873092,78.7562707 C213.501092,80.6542707 215.949092,81.6112707 219.163092,81.6112707 C219.646092,81.6112707 220.146092,81.5892707 220.662092,81.5452707 C229.044092,80.8462707 241.271092,80.1552707 250.197092,79.6502707 C253.215092,79.4792707 255.836092,79.3302707 257.772092,79.2122707 C259.206092,79.1242707 260.387092,78.1652707 260.778092,76.7702707 C261.137092,75.4872707 260.708092,74.1802707 259.694092,73.3662707 L259.694092,73.3662707 Z" id="Fill-7" fill="#000"/></g><path d="M199.2532,310.1287 C213.247539,304.942122 223.743294,301.052189 230.740464,298.4589 C233.547294,297.418633 233.447873,297.0999 230.4422,297.5027 L198.9052,309.1917 C198.6472,309.2867 198.5152,309.5757 198.6112,309.8337 C198.6852,310.0357 198.8762,310.1597 199.0792,310.1597 C199.1372,310.1597 199.1952,310.1507 199.2532,310.1287 Z" id="Path" fill="#000"/></g></g><g id="Upper Body" transform="translate(8.000000, 378.000000) scale(1 1)"><g id="Upper Body/Video Call" stroke="none" stroke-width="1" fill="none" fill-rule="evenodd"><path d="M252.135,198.2885 C247.49,202.1595 236.136,181.5155 236.136,181.5155 C236.136,181.5155 205.944,178.1605 182.203,215.3195 C182.203,215.3195 196.912,228.2215 211.105,230.5455 C211.105,230.5455 204.654,298.7715 206.202,303.4155 C208.082649,304.967817 209.716983,305.771244 211.105,305.825781 C243.019722,307.079764 276.004357,304.185399 293.471094,305.825781 C298.548248,306.3026 301.169862,303.495048 301.335937,297.403125 L296.777,228.4805 C296.777,228.4805 311.164,226.9315 326.13,219.9655 C326.13,219.9655 312.776,180.9995 264.521,182.0315 C264.521,182.0315 256.779,194.4185 252.135,198.2885 Z" id="T-Shirt" fill="#83BB9E"/><path d="M206.2022,303.4158 C205.9932,303.4158 205.7982,303.6248 205.7282,303.4158 C204.1632,298.7238 210.3442,233.0808 210.6072,230.4948 C210.6162,230.4238 211.3832,223.9238 214.8392,216.1488 C214.9522,215.8968 215.2482,215.7828 215.4992,215.8948 C215.7512,216.0068 215.8652,216.3028 215.7532,216.5548 C212.3632,224.1818 211.6092,230.5388 211.6012,230.6018 C209.3752,252.4258 205.4782,299.8228 206.6762,303.4158 C206.7642,303.6778 206.6222,303.3288 206.3602,303.4158 C206.3072,303.4338 206.2542,303.4158 206.2022,303.4158" id="Fill-6" fill="#000"/><path d="M231.0851,215.1237 C232.5351,212.7477 242.6831,203.6067 243.4071,205.6607 C244.1311,207.7137 234.8301,217.0157 234.8301,217.0157 C234.8301,217.0157 249.5681,204.5737 251.7431,206.5057 C253.9171,208.4387 237.4881,221.0027 237.4881,221.0027 L237.514161,220.984785 C238.281774,220.457614 255.760155,208.48914 257.1421,210.7337 C258.5551,213.0297 239.7831,224.8687 239.7831,224.8687 C239.7831,224.8687 255.6081,215.9287 257.0591,217.8617 C258.5081,219.7947 242.2821,229.6887 242.2821,229.6887 C243.7321,231.1377 253.2731,229.2167 253.2731,229.2167 C256.3331,230.5057 247.6921,235.2797 240.6051,236.4067 C235.2891,237.2527 225.9861,252.0997 224.6931,253.6677 C217.5971,262.2707 195.8841,287.0317 180.4601,287.7877 C161.7831,288.7027 171.2471,239.7177 184.5531,217.2397 L184.5531,217.2397 L187.3741,219.3577 C192.0151,222.8847 199.0501,227.5567 208.1601,229.9157 L208.1601,229.9157 L208.1611,229.9167 L200.6021,246.5797 L211.8771,237.5527 C211.8771,237.5527 223.3531,229.3377 224.8031,225.1097 C226.2531,220.8817 231.0851,215.1237 231.0851,215.1237 Z M323.5415,221.1189 C323.5415,221.1189 342.2835,254.7049 327.3035,285.8729 C327.3035,285.8729 303.6255,294.8129 258.2035,258.3299 C258.2035,258.3299 242.4985,261.2289 234.5255,249.6319 L269.0755,252.0479 C269.0755,252.0479 307.0085,262.2489 309.6665,261.7389 C309.6665,261.7389 302.0095,252.7519 296.7775,228.4809 C296.7775,228.4809 314.4635,225.4659 323.5415,221.1189 Z M257.346434,172.9998 L257.346434,182.0318 L264.521,182.0318 C264.521,182.0318 256.779,194.4178 252.134,198.2888 C247.49,202.1598 236.135,181.5158 236.135,181.5158 L236.135,181.5158 L243.669434,181.5158 L243.669434,172.9998 L257.346434,172.9998 Z" id="Skin" fill="#c3986a"/><path d="M298.553265,259.578621 L296.278,228.4608 C296.288,228.2138 296.477,228.0098 296.724,227.9838 C296.866,227.9688 310.934,226.3918 325.499,219.7068 C323.858,215.515806 309.198,181.7178 264.801,182.5258 C263.687,184.2898 256.813,195.0408 252.455,198.6728 C251.829,199.1938 251.078,199.3768 250.224,199.2158 C244.792,198.1898 236.066,182.4278 235.698,181.7568 C235.564,181.5148 235.653,181.2108 235.895,181.0778 C236.136,180.9448 236.441,181.0328 236.574,181.2748 C236.662,181.4348 245.438,197.2948 250.409,198.2328 C250.961,198.3358 251.423,198.2298 251.814,197.9038 C256.344,194.1298 264.02,181.8898 264.097,181.7668 C264.187,181.6238 264.342,181.5358 264.51,181.5318 C289.606,180.9998 305.161,191.4208 313.779,200.2618 C323.12,209.8448 326.57,219.7048 326.604,219.8028 C326.686,220.0448 326.573,220.3108 326.341,220.4178 C312.905,226.6728 299.774,228.6008 297.26,228.9248 L299.514509,259.639688 C299.514509,259.919922 299.320265,259.717227 299.053265,259.717227" id="Fill-8" fill="#000"/><path d="M200.6026,247.0794 C200.4946,247.0794 200.3866,247.0444 200.2956,246.9744 C200.1136,246.8324 200.0516,246.5834 200.1466,246.3724 L207.7056,229.7094 C207.8196,229.4584 208.1146,229.3464 208.3676,229.4604 C208.6186,229.5754 208.7296,229.8714 208.6166,230.1224 L201.9206,244.8834 L211.5646,237.1624 C211.6996,237.0654 222.9486,228.9764 224.3306,224.9474 C225.7936,220.6814 230.5016,215.0394 230.7026,214.8024 C231.9466,212.7514 240.6816,204.5964 243.0656,204.8694 C243.4566,204.9104 243.7526,205.1384 243.8786,205.4944 C244.3076,206.7124 242.2426,209.5774 239.9456,212.2584 C244.6676,208.6514 250.5156,204.7444 252.0756,206.1324 C252.2516,206.2884 252.4576,206.5724 252.4406,207.0364 C252.3786,208.6974 248.7506,212.2624 245.1046,215.4374 C249.7856,212.5504 255.1036,209.6234 256.8426,209.9914 C257.2506,210.0774 257.4626,210.3004 257.5676,210.4714 C258.1256,211.3774 257.5776,213.1064 249.2846,219.0684 C248.8546,219.3764 248.4236,219.6834 247.9946,219.9844 C255.3446,216.4984 257.0636,217.0364 257.4586,217.5614 C257.5776,217.7204 257.7026,217.9914 257.6276,218.3844 C257.1456,220.8874 246.9126,227.4144 243.3396,229.6254 C245.2106,229.9914 249.9016,229.3854 253.1746,228.7264 C253.4426,228.6704 253.7086,228.8474 253.7636,229.1184 C253.8176,229.3894 253.6426,229.6524 253.3716,229.7074 C251.7346,230.0374 243.4896,231.6024 241.9286,230.0424 C241.8206,229.9334 241.7676,229.7814 241.7856,229.6294 C241.8036,229.4774 241.8916,229.3414 242.0216,229.2624 C250.2816,224.2244 256.8436,219.2364 256.6496,218.1424 C255.9146,217.3604 248.3026,220.6304 240.0296,225.3044 C239.7936,225.4354 239.4936,225.3584 239.3536,225.1244 C239.2146,224.8914 239.2876,224.5904 239.5166,224.4454 C249.2606,218.2994 257.1376,212.1404 256.7156,210.9944 C255.8076,210.1984 247.1326,214.9674 237.7716,221.4134 C237.5476,221.5684 237.2426,221.5154 237.0826,221.2964 C236.9236,221.0764 236.9686,220.7694 237.1846,220.6054 C242.6566,216.4204 251.3666,209.0264 251.4406,206.9994 C251.4446,206.9094 251.4226,206.8904 251.4116,206.8794 C250.5126,206.0904 244.0496,209.8874 235.1526,217.3974 C234.9476,217.5704 234.6436,217.5514 234.4616,217.3544 C234.2806,217.1574 234.2876,216.8514 234.4766,216.6624 C238.8426,212.2954 243.3176,206.9114 242.9356,205.8274 C241.9296,205.5044 233.3956,212.2964 231.5116,215.3834 C231.4206,215.5014 226.6786,221.1824 225.2766,225.2714 C223.7916,229.6014 212.6426,237.6204 212.1676,237.9594 L200.9146,246.9694 C200.8236,247.0424 200.7136,247.0794 200.6026,247.0794" id="Fill-13" fill="#000"/><path d="M180.4595,288.2874 C180.1945,288.2874 179.9735,288.0794 179.9605,287.8114 C179.9475,287.5364 180.1595,287.3014 180.4355,287.2874 C195.7885,286.5354 217.8975,261.1204 224.3075,253.3494 C224.4835,253.1364 224.7985,253.1064 225.0115,253.2814 C225.2245,253.4574 225.2545,253.7724 225.0795,253.9854 C200.1625,284.1934 185.5925,288.0364 180.4845,288.2874 C180.4765,288.2874 180.4675,288.2874 180.4595,288.2874" id="Fill-15" fill="#000"/><path d="M185.5352,262.2391 C185.4392,262.2391 185.3422,262.2121 185.2562,262.1541 C185.0272,262.0001 184.9672,261.6891 185.1202,261.4601 C191.0232,252.6861 200.2242,246.2331 200.3172,246.1691 C200.5452,246.0111 200.8552,246.0671 201.0132,246.2941 C201.1712,246.5211 201.1152,246.8321 200.8882,246.9901 C200.7972,247.0531 191.7452,253.4041 185.9512,262.0181 C185.8542,262.1611 185.6962,262.2391 185.5352,262.2391" id="Fill-17" fill="#000"/><path d="M253.9458,259.1326 C248.5958,259.1326 239.5568,257.8326 234.1128,249.9146 C233.9568,249.6876 234.0148,249.3766 234.2418,249.2196 C234.4698,249.0626 234.7808,249.1206 234.9378,249.3486 C242.6308,260.5376 257.9578,257.8656 258.1128,257.8386 C258.3798,257.7846 258.6448,257.9666 258.6948,258.2396 C258.7448,258.5106 258.5658,258.7716 258.2938,258.8216 C258.2418,258.8316 256.5208,259.1326 253.9458,259.1326" id="Fill-21" fill="#000"/><path d="M309.666,262.2391 C309.525,262.2391 309.384,262.1791 309.286,262.0631 C308.969,261.6931 301.487,252.7031 296.289,228.5861 C296.26,228.4531 296.287,228.3141 296.363,228.2001 C296.439,228.0881 296.559,228.0111 296.693,227.9881 C296.87,227.9581 314.415,224.9341 323.326,220.6681 C323.574,220.5481 323.874,220.6541 323.993,220.9031 C324.112,221.1521 324.006,221.4501 323.757,221.5701 C315.591,225.4801 300.365,228.3441 297.376,228.8831 C302.51,252.3341 309.972,261.3261 310.047,261.4151 C310.226,261.6251 310.2,261.9411 309.99,262.1201 C309.895,262.2001 309.781,262.2391 309.666,262.2391" id="Fill-23" fill="#000"/><path d="M316.9683,269.1473 C316.8203,269.1473 316.6733,269.0813 316.5743,268.9553 C312.5393,263.8023 309.4693,262.2003 309.4383,262.1843 C309.1933,262.0593 309.0953,261.7573 309.2203,261.5113 C309.3453,261.2663 309.6443,261.1683 309.8933,261.2933 C310.0263,261.3613 313.1913,263.0143 317.3613,268.3393 C317.5313,268.5563 317.4933,268.8713 317.2763,269.0413 C317.1843,269.1123 317.0763,269.1473 316.9683,269.1473" id="Fill-25" fill="#000"/><polygon id="Computer" fill="#F1EFEF" points="277.189 210.906 263.276 248.119 263.217 248.104 224.693 248.104 224.693 249.104 260.561 255.382 315.259 255.382 335.345 210.906"/><path d="M260.7276,253.9798 C260.6996,253.9798 260.6716,253.9778 260.6446,253.9728 L224.8186,248.3368 C224.5466,248.2918 224.3626,248.0328 224.4086,247.7608 C224.4546,247.4888 224.7096,247.3058 224.9846,247.3508 L260.3976,252.9178 L276.5166,210.3808 C276.5876,210.1828 276.7756,210.0498 276.9866,210.0498 L335.3006,210.0498 C335.4706,210.0498 335.6286,210.1358 335.7206,210.2788 C335.8126,210.4218 335.8256,210.6018 335.7556,210.7558 L320.4396,244.6688 C320.3266,244.9208 320.0276,245.0328 319.7786,244.9188 C319.5266,244.8058 319.4146,244.5098 319.5286,244.2578 L334.5256,211.0498 L277.3386,211.0498 L261.1976,253.6488 C261.1256,253.8498 260.9356,253.9798 260.7276,253.9798" id="Fill-29" fill="#000"/></g></g><g id="Hair" transform="translate(104.000000, 398.000000) scale(1 1)"><g id="Hair/Long Wavy" stroke="none" stroke-width="1" fill="none" fill-rule="evenodd"><g id="Head" transform="translate(132.000000, 111.000000)"><path d="M44.1789,24.3663 C44.5879,35.6913 33.3599,45.0883 22.4569,45.0883 C11.5539,45.0883 0.4939,36.9643 0.0189,25.3903 C-0.4461,14.0673 7.7449,1.3583 15.9329,0.2613 C32.6079,-1.9747 43.6789,10.5083 44.1789,24.3663" id="Fill-1" fill="#000"/><path d="M22.4567,44.088 C12.4757,44.088 1.4787,36.559 1.0177,25.35 C0.5797,14.678 8.3147,2.291 16.0657,1.252 C17.3127,1.085 18.5577,1 19.7657,1 C34.4247,1 42.7697,13.058 43.1797,24.402 C43.3447,28.984 41.4627,33.553 37.8807,37.268 C33.7607,41.538 27.9947,44.088 22.4567,44.088" id="Skin" fill="#c3986a"/></g><path d="M148.8104,126.0757 C140.8924,126.3017 141.5704,133.6357 141.5704,133.6357 C141.5704,133.6357 139.2794,126.9507 141.5564,123.6847 C141.5564,123.6847 133.436034,134.1847 137.055034,140.9717 C140.675034,147.7577 142.853659,154.0917 138.328659,161.7827 C133.804659,169.4747 138.2364,170.8317 143.4404,179.6537 C148.6434,188.4757 134.1644,199.5607 124.2114,204.7637 C124.2114,204.7637 131.6764,198.4297 124.2114,193.0007 C116.7454,187.5717 100.4584,177.6177 105.4354,163.3657 C110.4114,149.1137 118.7234,152.1857 116.4604,135.8977 C114.1984,119.6107 128.9614,96.9887 148.8684,99.7037 C148.8684,99.7037 150.8454,95.1787 154.2684,94.5007 C154.2684,94.5007 151.9774,99.2507 154.2684,99.7037 C156.5604,100.1557 171.0764,99.7037 180.5394,115.7466 C190.0024,131.7895 178.5034,143.9107 191.3984,152.0547 C204.2924,160.1987 201.3524,182.3687 191.3984,187.3447 C181.4444,192.3217 182.5754,201.1437 182.5754,201.1437 C182.5754,201.1437 176.2414,192.5477 180.5394,185.9877 C180.5394,185.9877 173.5274,185.0827 169.0024,179.2017 C164.4784,173.3197 168.5504,166.0807 167.1934,161.7827 C165.8354,157.4837 162.755,154.174032 162.755,154.174032 C162.755,154.174032 174.663747,149.738762 176.189747,137.295762 C176.189747,137.295762 176.400463,126.336558 171.753427,123.312722 C171.753427,123.312722 162.6094,124.3007 160.7154,115.7347 C160.7154,115.7347 156.7274,125.8487 148.8104,126.0757 Z" id="Hair" fill="#e7b460"/><path d="M190.066,167.4027 C190.086,167.7987 190.105,168.2017 190.129,168.6127 C190.145,168.8777 190.366,169.0827 190.628,169.0827 C190.638,169.0827 190.648,169.0827 190.659,169.0817 C190.934,169.0647 191.144,168.8287 191.128,168.5517 C191.103,168.1457 191.084,167.7467 191.064,167.3527 C190.831,162.5987 190.629,158.4937 182.781,150.6447 C174.781,142.6437 179.67,126.4987 180.293,125.4147 C180.451,125.2207 180.442,124.9357 180.265,124.7527 C180.073,124.5517 179.756,124.5487 179.558,124.7387 C179.122,125.1597 177.337,130.8037 177.278,137.0747 C177.219,143.3067 178.833,148.1107 182.074,151.3517 C189.649,158.9267 189.833,162.6677 190.066,167.4027 M121.42,170.7137 C124.245,172.9107 127.447,175.4007 127.363,182.3757 C127.36,182.6517 127.581,182.8787 127.857,182.8817 L127.863,182.8817 C128.136,182.8817 128.36,182.6617 128.363,182.3867 C128.453,174.9167 124.894,172.1477 122.034,169.9237 C120.48,168.7147 119.138,167.6727 118.723,166.1127 C117.537,161.6647 122.795,154.1477 122.848,154.0717 C123.007,153.8467 122.954,153.5347 122.728,153.3757 C122.506,153.2167 122.193,153.2687 122.032,153.4947 C121.803,153.8187 116.45,161.4697 117.756,166.3707 C118.259,168.2547 119.795,169.4487 121.42,170.7137 M148.869,100.2037 C149.061,100.2037 149.245,100.0907 149.327,99.9037 C149.343,99.8657 150.842,96.4937 153.38,95.3157 C152.952,96.4537 152.449,98.2357 152.986,99.3107 C153.221,99.7817 153.63,100.0877 154.171,100.1937 C154.435,100.2477 154.705,100.0707 154.758,99.7997 C154.812,99.5297 154.636,99.2667 154.365,99.2137 C154.127,99.1657 153.977,99.0577 153.88,98.8647 C153.451,98.0047 154.167,95.8647 154.718,94.7167 C154.8,94.5467 154.78,94.3437 154.664,94.1947 C154.548,94.0447 154.365,93.9707 154.17,94.0097 C150.534,94.7307 148.496,99.3087 148.411,99.5037 C148.3,99.7567 148.416,100.0507 148.669,100.1617 C148.734,100.1897 148.801,100.2037 148.869,100.2037 Z M161.963,154.0627 C161.959,154.0647 161.954,154.0667 161.951,154.0677 C161.948,154.0687 161.944,154.0707 161.941,154.0717 C159.511,155.0997 156.929,155.6207 154.268,155.6207 C152.111,155.6207 147.648,154.063663 145.379,153.304663 C145.367,153.188663 142.860028,151.795227 142.846028,151.679227 C142.817028,151.444227 142.106,151.612577 142.066,151.378577 C142.028,151.154577 141.105,150.803656 141.057,150.580656 C141.014,150.381656 140.559845,147.987174 140.366845,147.500174 C140.290845,147.307174 139.632418,143.327797 139.154418,142.452797 C138.832418,141.861797 138.509418,141.267797 138.191418,140.670797 C137.448418,139.279797 137.125418,137.691797 137.078418,136.057797 C137.012418,133.367797 139.927376,126.2897 140.036376,128.7817 C140.145376,131.2737 140.883,133.1427 141.057,133.6737 C141.076,133.7337 141.091,133.7797 141.096,133.7957 C141.157,133.9757 141.311,134.0987 141.492,134.1277 C141.53,134.1337 141.57,134.1297 141.609,134.1267 C141.631,134.1257 141.652,134.1297 141.674,134.1257 C141.911,134.0747 142.071,133.8637 142.066,133.6257 C142.065,133.6137 142.07,133.6027 142.069,133.5907 C142.069,133.5887 142.068,133.5757 142.066,133.5537 C142.046,133.2367 141.954,130.8897 143.323,129.0227 C143.382,128.9407 143.451,128.8617 143.517,128.7817 C143.557,128.7327 143.594,128.6817 143.637,128.6327 C143.727,128.5317 143.828,128.4397 143.925,128.3447 C143.984,128.2897 144.037,128.2267 144.098,128.1737 C144.182,128.0987 144.275,128.0347 144.364,127.9647 C144.448,127.9007 144.526,127.8317 144.614,127.7707 C144.685,127.7217 144.764,127.6817 144.837,127.6347 C144.952,127.5647 145.063,127.4907 145.183,127.4267 C145.246,127.3937 145.315,127.3677 145.379,127.3367 C145.52,127.2687 145.659,127.1997 145.806,127.1407 C145.856,127.1217 145.91,127.1067 145.96,127.0887 C146.13,127.0257 146.302,126.9637 146.483,126.9127 C146.506,126.9057 146.532,126.9017 146.555,126.8947 C147.003,126.7717 147.481,126.6817 147.993,126.6297 C148.261,126.6017 148.539,126.5837 148.825,126.5757 C155.351,126.3887 159.197,120.0757 160.601,117.1967 C162.015,121.4247 165.12,123.0937 167.589,123.7507 C168.94,124.1167 170.087,124.1747 170.676,124.1677 C170.72,124.1677 170.775,124.1687 170.812,124.1687 C172.85764,124.1687 173.071534,126.1967 173.555534,127.4267 C174.151534,129.2807 174.665491,131.756 174.862491,133.544 C174.875491,133.669 174.859491,133.972 174.862491,134 C174.959491,135.052 175.156698,135.6957 175.189698,136.4087 C175.132698,138.1737 174.83182,140.33547 174.35182,141.92747 C174.13082,142.61447 173.21464,144.140366 172.93964,144.762366 C172.91264,144.825366 172.88564,144.887366 172.85764,144.949366 C172.73564,145.218366 172.60864,145.483366 172.47664,145.741366 C169.73464,151.117366 164.675,152.6937 162.799,153.6637 C162.524,153.8027 162.249,153.9407 161.963,154.0627 Z M191.174,186.8977 C183.746,190.6127 182.313,196.5037 182.084,199.4317 C180.558,196.7827 177.906,190.9207 180.958,186.2617 C181.052,186.1177 181.066,185.9347 180.994,185.7787 C180.921,185.6227 180.774,185.5137 180.604,185.4917 C180.536,185.4827 173.747,184.5477 169.399,178.8967 C166.698,175.3847 167.212,171.3007 167.665,167.6977 C167.946,165.4617 168.212,163.3487 167.67,161.6317 C166.601,158.2487 163.89,155.220032 162.755,154.174032 C162.796,154.153032 162.851,154.124032 162.893,154.100032 C162.925,154.086032 162.957,154.072032 162.987,154.057032 L163.232,153.933032 C165.384,152.792032 171.363,150.386785 174.004,143.804785 L174.404952,143.136474 C174.494286,142.906474 174.755868,142.410466 175.189698,141.64845 C175.205698,141.60045 176.018747,138.30107 176.189747,136.90407 C176.190747,136.71107 176.127976,134.891535 175.795976,132.187535 C175.618976,130.610535 175.598698,130.5197 175.189698,129.1127 C175.112698,128.8917 174.488952,127.2137 174.404952,126.9967 C173.900952,125.4207 172.990365,124.2677 172.068365,123.2187 C172.026365,123.1707 171.356,123.2477 171.301,123.2187 C171.295,123.2147 171.291,123.2097 171.284,123.2077 C171.209,123.1717 171.126,123.1507 171.04,123.1587 C171.003,123.1617 170.858,123.1697 170.647,123.1707 C170.627,123.1707 170.616,123.1717 170.594,123.1717 C170.544,123.1717 170.473,123.1687 170.415,123.1667 C170.332,123.1657 170.256,123.1647 170.16,123.1607 C168.511,123.0837 164.954,122.5247 162.743,119.3047 C162.718,119.2697 162.699,119.2267 162.675,119.1917 C162.482,118.9007 162.295,118.5957 162.126,118.2607 C161.985,117.9837 161.864,117.6737 161.743,117.3637 C161.7,117.2537 161.648,117.1587 161.607,117.0447 C161.453,116.6077 161.319,116.1397 161.208,115.6397 C161.207,115.6347 161.205,115.6317 161.204,115.6267 C161.202,115.6197 161.196,115.6157 161.194,115.6097 C161.171,115.5337 161.129,115.4667 161.075,115.4107 C161.048,115.3817 161.024,115.3577 160.992,115.3367 C160.983,115.3307 160.977,115.3207 160.968,115.3147 C160.937,115.2977 160.903,115.2967 160.871,115.2857 C160.831,115.2707 160.798,115.2407 160.754,115.2367 C160.744,115.2357 160.735,115.2447 160.724,115.2447 C160.628,115.2387 160.538,115.2657 160.457,115.3087 C160.452,115.3117 160.449,115.3157 160.444,115.3187 C160.362,115.3657 160.304,115.4367 160.27,115.5277 C160.265,115.5377 160.254,115.5417 160.251,115.5507 C160.212,115.6497 156.296,125.3607 148.795,125.5757 C146.217,125.6497 144.229,126.4557 142.886,127.9707 C142.687,128.1967 142.508,128.4297 142.35,128.6677 C142.305,128.7347 142.272,128.8027 142.23,128.8717 C142.124,129.0437 142.016,129.2147 141.928,129.3877 C141.885,129.4727 141.855,129.5577 141.816,129.6427 C141.744,129.8007 141.668,129.9587 141.609,130.1137 C141.578,130.1957 141.557,130.2747 141.53,130.3557 C141.477,130.5087 141.421,130.6647 141.379,130.8137 C141.293,130.3557 141.214,129.8607 141.156,129.3497 C141.18,129.2747 141.192,129.1957 141.177,129.1127 C141.126,128.8227 141.091,128.5397 141.068,128.2617 C141.059,128.0787 141.052,127.8947 141.051,127.7117 C141.051,127.6357 141.052,127.5617 141.054,127.4867 C141.056,127.3227 141.062,127.1587 141.072,126.9967 C141.081,126.8597 141.091,126.7247 141.106,126.5897 C141.117,126.4877 141.129,126.3857 141.143,126.2857 C141.161,126.1627 141.183,126.0417 141.206,125.9217 C141.216,125.8727 141.222,125.8227 141.233,125.7737 C141.247,125.7097 141.262,125.6467 141.278,125.5837 C141.32,125.4147 141.37,125.2507 141.422,125.0867 C141.441,125.0327 141.462,124.9817 141.482,124.9287 C141.779,124.3157 141.981,123.9497 141.992,123.9297 C142.007,123.9017 142.011,123.8717 142.021,123.8407 C142.031,123.8127 142.045,123.7857 142.049,123.7567 C142.054,123.7197 142.049,123.6837 142.046,123.6477 C142.045,123.6357 142.046,123.6237 142.045,123.6117 C143.147,121.5427 144.952,119.9487 146.445,118.6347 L146.98,118.1627 C149.25,116.1357 148.336,113.0347 147.536,111.6777 C147.395,111.4397 147.088,111.3617 146.851,111.5017 C146.613,111.6417 146.534,111.9477 146.674,112.1857 C146.693,112.2177 148.545,115.4247 146.314,117.4167 L145.784,117.8847 C144.06,119.4017 141.767,121.4327 140.672,124.2297 C140.217,125.0957 134.634398,132.506375 136.173398,138.714375 C136.188398,138.771375 136.579398,139.999375 136.603398,140.059375 C136.735398,140.396375 137.680398,142.212375 137.994398,142.789375 C139.534398,145.616375 138.932481,148.376837 139.698481,151.150837 C139.706481,151.176837 140.073481,153.5377 140.107481,153.9997 C140.285481,156.3767 139.809481,158.8227 138.279481,161.4247 C133.680481,169.2417 137.742,170.9757 143.009,179.9077 C144.088,181.7367 144.315,183.7827 143.685,185.9887 C141.902,192.2367 133.782,198.7207 126.465,202.9527 C127.308,201.7247 128.093,200.0747 128.025,198.2407 C127.946,196.1367 126.762,194.2377 124.505,192.5957 C123.894,192.1517 123.223,191.6757 122.51,191.1717 C114.637,185.5947 101.461,176.2617 105.907,163.5307 C105.999,163.2697 105.861,162.9847 105.6,162.8937 C105.338,162.7997 105.054,162.9397 104.963,163.2007 C100.269,176.6437 113.83,186.2487 121.932,191.9867 C122.642,192.4897 123.309,192.9627 123.918,193.4047 C125.912,194.8547 126.958,196.4937 127.026,198.2737 C127.152,201.5637 123.92,204.3547 123.887,204.3827 C123.694,204.5487 123.655,204.8327 123.797,205.0437 C123.893,205.1857 124.05,205.2637 124.212,205.2637 C124.291,205.2637 124.37,205.2457 124.443,205.2077 C132.465,201.0127 142.571,193.5357 144.647,186.2627 C145.355,183.7837 145.094,181.4737 143.871,179.3997 C138.771,170.7537 134.724481,169.4407 139.140481,161.9327 C140.634481,159.3947 141.816,155.401364 141.051,151.729671 C144.647,155.088 151.838,156.129032 153.99,156.129032 C156.676,156.129032 159.279,155.610032 161.743,154.615032 C162.524,155.294032 165.602,158.4057 166.716,161.9327 C167.193,163.4407 166.94,165.4477 166.672,167.5727 C166.195,171.3677 165.654,175.6687 168.606,179.5067 C172.387,184.4217 177.777,185.9457 179.737,186.3527 C176.066,193.0147 181.915,201.0897 182.173,201.4407 C182.307,201.6237 182.548,201.6937 182.761,201.6077 C182.972,201.5237 183.1,201.3067 183.072,201.0817 C183.029,200.7347 182.122,192.5427 191.622,187.7927 C191.869,187.6687 191.968,187.3687 191.845,187.1217 C191.721,186.8747 191.422,186.7747 191.174,186.8977 Z" id="Fill-8" fill="#000"/></g></g><g id="Expression" transform="translate(201.000000, 501.000000) scale(1 1)"><g id="Expression/Relax" stroke="none" stroke-width="1" fill="none" fill-rule="evenodd"><path d="M49.0105,26.3156 C49.1135,26.3156 49.2155,26.2846 49.3045,26.2206 C51.3455,24.7386 53.3825,25.0236 53.4035,25.0266 C53.6715,25.0706 53.9305,24.8826 53.9725,24.6086 C54.0145,24.3366 53.8295,24.0826 53.5575,24.0396 C53.4575,24.0226 51.1065,23.6746 48.7165,25.4106 C48.4925,25.5736 48.4445,25.8856 48.6065,26.1096 C48.7035,26.2446 48.8565,26.3156 49.0105,26.3156 M72.5845,28.7776 C72.4075,28.5666 72.0935,28.5366 71.8805,28.7156 C71.7205,28.8486 67.9305,31.9406 64.7345,28.7456 C64.5385,28.5496 64.2225,28.5496 64.0275,28.7456 C63.8315,28.9406 63.8315,29.2566 64.0275,29.4526 C65.3225,30.7486 66.7045,31.1796 67.9685,31.1796 C70.4585,31.1796 72.4925,29.5076 72.5235,29.4816 C72.7355,29.3046 72.7625,28.9896 72.5845,28.7776 M56.6395,28.7456 C56.4445,28.5496 56.1275,28.5496 55.9325,28.7456 C52.7375,31.9416 48.9455,28.8486 48.7855,28.7156 C48.5735,28.5376 48.2585,28.5676 48.0815,28.7776 C47.9045,28.9896 47.9315,29.3046 48.1435,29.4816 C48.1735,29.5076 50.2075,31.1796 52.6985,31.1796 C53.9615,31.1796 55.3435,30.7486 56.6395,29.4526 C56.8345,29.2566 56.8345,28.9406 56.6395,28.7456 M67.2635,25.0266 C67.2845,25.0236 69.3215,24.7386 71.3625,26.2206 C71.4505,26.2846 71.5535,26.3156 71.6565,26.3156 C71.8105,26.3156 71.9625,26.2446 72.0605,26.1096 C72.2225,25.8856 72.1735,25.5736 71.9495,25.4106 C69.5585,23.6746 67.2075,24.0226 67.1095,24.0396 C66.8365,24.0826 66.6525,24.3366 66.6945,24.6086 C66.7365,24.8826 66.9995,25.0716 67.2635,25.0266 M66.2575,42.7706 C60.6925,48.3346 54.6455,42.9836 54.3915,42.7536 C54.1885,42.5696 53.8705,42.5836 53.6855,42.7886 C53.4995,42.9926 53.5155,43.3086 53.7195,43.4946 C53.7655,43.5366 56.8405,46.2706 60.7315,46.2706 C62.6975,46.2706 64.8695,45.5726 66.9645,43.4776 C67.1595,43.2826 67.1595,42.9656 66.9645,42.7706 C66.7695,42.5756 66.4525,42.5756 66.2575,42.7706 M59.7885,31.1176 C60.9415,32.6566 62.8445,35.6946 62.1495,37.1586 C61.8605,37.7676 61.0665,38.0766 59.7885,38.0766 C58.5115,38.0766 57.7175,37.7676 57.4285,37.1586 C56.7335,35.6946 58.6365,32.6566 59.7885,31.1176 M56.5255,37.5866 C56.9935,38.5756 58.0915,39.0766 59.7885,39.0766 C61.4865,39.0766 62.5835,38.5756 63.0525,37.5866 C64.2415,35.0786 60.5955,30.5016 60.1755,29.9876 C59.9865,29.7546 59.5915,29.7546 59.4025,29.9876 C58.9825,30.5016 55.3355,35.0786 56.5255,37.5866" id="Fill-4" fill="#000"/><path d="M50.4996066,33 C52.4327301,33 54,33.8954741 54,35 C54,36.1045259 52.4327301,37 50.4996066,37 C48.5664831,37 47,36.1045259 47,35 C47,33.8954741 48.5664831,33 50.4996066,33 Z M68.5,33 C70.4329063,33 72,33.8954741 72,35 C72,36.1045259 70.4329063,37 68.5,37 C66.5670937,37 65,36.1045259 65,35 C65,33.8954741 66.5670937,33 68.5,33 Z" id="Cheeks" fill="#E2A2B5"/></g></g><g id="Facial Hair" transform="translate(200.000000, 500.000000) scale(1 1)" fill="#000"><g id="Facial Hair/None" stroke="none" stroke-width="1" fill="none" fill-rule="evenodd" fill-opacity="0"/></g><g id="Accesories" transform="translate(104.500000, 399.000000) scale(1 1)"><g id="Accesories/Earpods" stroke="none" stroke-width="1" fill="none" fill-rule="evenodd"><path d="M139.1182,138.9451 C139.6212,138.5371 139.9492,137.9221 139.9492,137.2241 C139.9492,135.9961 138.9532,135.0001 137.7242,135.0001 C136.4962,135.0001 135.5002,135.9961 135.5002,137.2241 C135.5002,138.4251 136.4532,139.3971 137.6432,139.4411 L138.6832,142.9921 C138.9542,143.9131 139.7992,144.5461 140.7592,144.5461 L139.1182,138.9451 Z" id="Earpods" fill="#F1EFEF"/><path d="M140.7588,144.0462 C140.0268,144.0462 139.3698,143.5552 139.1628,142.8512 L138.2948,139.8862 C139.5238,139.6232 140.4488,138.5312 140.4488,137.2242 C140.4488,136.9482 140.2258,136.7242 139.9488,136.7242 C139.6728,136.7242 139.4488,136.9482 139.4488,137.2242 C139.4488,138.1752 138.6758,138.9492 137.7248,138.9492 C136.7738,138.9492 135.9998,138.1752 135.9998,137.2242 C135.9998,136.9482 135.7768,136.7242 135.4998,136.7242 C135.2238,136.7242 134.9998,136.9482 134.9998,137.2242 C134.9998,138.5672 135.9788,139.6792 137.2578,139.9012 L138.2038,143.1322 C138.5338,144.2592 139.5848,145.0462 140.7588,145.0462 C141.0348,145.0462 141.2588,144.8222 141.2588,144.5462 C141.2588,144.2702 141.0348,144.0462 140.7588,144.0462" id="Fill-4" fill="#000"/></g></g></g></g></g></svg>