<?xml version="1.0" ?>
<!-- Uploaded to: SVG Repo, www.svgrepo.com, Generator: SVG Repo Mixer Tools -->
<svg width="800px" height="800px" viewBox="0 0 32 32" xmlns="http://www.w3.org/2000/svg">
<title/>
<g data-name="filled line" id="filled_line">
<path d="M4,26.3779a1,1,0,0,1-1-1v-10a1,1,0,0,1,2,0v10A1,1,0,0,1,4,26.3779Z" style="fill:#f6ae2d"/>
<path d="M27.5977,6.5767c-2.6016-1.6075-6.523-.8531-8.045-.0933L16,8.26,12.4473,6.4834c-1.522-.7607-5.4439-1.5146-8.045.0933A5.248,5.248,0,0,0,2,11.3779c0,3.2583,1.5605,4.7774,2.87,5.4781a6.4671,6.4671,0,0,0,3.06.7168A8.6331,8.6331,0,0,0,12.5547,16.21c1.7436-1.1626,2.8207-1.992,3.4453-2.507.6246.515,1.7017,1.3444,3.4453,2.507a8.6344,8.6344,0,0,0,4.6255,1.3628,6.4671,6.4671,0,0,0,3.06-.7168c1.3091-.7007,2.87-2.22,2.87-5.4781A5.248,5.248,0,0,0,27.5977,6.5767Z" style="fill:#501980"/>
<path d="M9,14.3779a3,3,0,1,1,3-3A3.0033,3.0033,0,0,1,9,14.3779Zm-1-3" style="fill:#f6ae2d"/>
<path d="M23,14.3779a3,3,0,1,1,3-3A3.0033,3.0033,0,0,1,23,14.3779Zm-1-3" style="fill:#f6ae2d"/>
<path d="M9,8.3779a3,3,0,1,0,3,3A3.0033,3.0033,0,0,0,9,8.3779Zm0,4a1,1,0,1,1,1-1A1.0013,1.0013,0,0,1,9,12.3779Z"/>
<path d="M27.5977,6.5767c-2.6016-1.6075-6.523-.8531-8.045-.0933L16,8.26,12.4473,6.4834c-1.522-.7607-5.4439-1.5146-8.045.0933A5.248,5.248,0,0,0,2,11.3779,6.6273,6.6273,0,0,0,3.0359,15.2.9446.9446,0,0,0,3,15.3779v10a1,1,0,0,0,2,0V16.9142a6.518,6.518,0,0,0,2.9292.6586A8.6331,8.6331,0,0,0,12.5547,16.21c1.7436-1.1626,2.8207-1.992,3.4453-2.507.6246.515,1.7017,1.3444,3.4453,2.507a8.6344,8.6344,0,0,0,4.6255,1.3628,6.4671,6.4671,0,0,0,3.06-.7168c1.3091-.7007,2.87-2.22,2.87-5.4781A5.248,5.248,0,0,0,27.5977,6.5767ZM11.4453,14.5459a5.9574,5.9574,0,0,1-5.6323.5464C4.61,14.4487,4,13.1987,4,11.3779a3.3243,3.3243,0,0,1,1.4541-3.1,5.3887,5.3887,0,0,1,2.7891-.6523,8.2565,8.2565,0,0,1,3.31.647L15,9.9961v1.937A37.4459,37.4459,0,0,1,11.4453,14.5459Zm14.7417.5464a5.9558,5.9558,0,0,1-5.6323-.5464A37.5536,37.5536,0,0,1,17,11.9331V9.9961l3.4473-1.7236c1.1748-.5874,4.3047-1.104,6.0986.0053A3.3243,3.3243,0,0,1,28,11.3779C28,13.1987,27.39,14.4487,26.187,15.0923Z"/>
<path d="M23,8.3779a3,3,0,1,0,3,3A3.0033,3.0033,0,0,0,23,8.3779Zm0,4a1,1,0,1,1,1-1A1.0013,1.0013,0,0,1,23,12.3779Z"/>
</g>
</svg>