<svg width="387" height="112" viewBox="0 0 387 112" fill="none" xmlns="http://www.w3.org/2000/svg">
<path d="M274.539 74.4989V36.2427C274.539 33.6017 277.088 31.4607 280.233 31.4607C283.378 31.4607 285.927 33.6017 285.927 36.2427V74.4989C285.927 77.1399 283.378 79.2809 280.233 79.2809C277.088 79.2809 274.539 77.1399 274.539 74.4989Z" fill="#9BACEC"/>
<path d="M376.95 42.6278C376.948 42.5209 376.946 42.5103 376.948 42.5376C376.908 42.0041 376.314 41.1099 374.928 41.0296C374.924 41.0294 374.885 41.0274 374.764 41.0262C374.628 41.0249 374.45 41.0247 374.16 41.0247H356.725C347.19 41.0247 340.106 47.7751 340.106 55.3708C340.106 62.9665 347.19 69.7169 356.725 69.7169H374.16C374.775 69.7169 374.88 69.7147 374.93 69.712C376.315 69.6304 376.907 68.7373 376.948 68.2044C376.946 68.2312 376.948 68.2205 376.95 68.1138C376.951 68.0006 376.951 67.8497 376.951 67.5917V43.1499C376.951 42.892 376.951 42.7411 376.95 42.6278ZM387 67.9072C386.999 68.2281 386.996 68.5617 386.972 68.8753C386.538 74.7284 381.376 78.9198 375.539 79.2587L375.532 79.2591C375.215 79.2771 374.875 79.2804 374.52 79.2809H356.725C342.355 79.2809 330.058 68.9039 330.058 55.3708C330.058 41.8376 342.355 31.4607 356.725 31.4607H374.52C374.876 31.4612 375.218 31.4646 375.538 31.4831C381.33 31.8186 386.457 35.9469 386.961 41.7276L386.972 41.8646C386.995 42.1783 386.999 42.5135 387 42.8344V67.9072Z" fill="#9BACEC"/>
<path d="M241.797 56.0001C241.797 44.0678 241.786 34.6356 242.83 27.2702C243.894 19.7667 246.135 13.6935 251.184 8.90401L251.422 8.68145C256.435 4.04833 262.761 1.97313 270.548 0.980067C278.314 -0.0101856 288.258 4.14356e-06 300.838 4.14356e-06H321.081C333.661 4.10685e-06 343.606 -0.0101828 351.371 0.980067C359.282 1.98886 365.685 4.11435 370.735 8.90382C377.677 15.4885 379.355 24.5596 379.882 36.601L369.77 36.999C369.248 25.075 367.542 19.4523 363.578 15.6923C360.723 12.9839 356.811 11.3601 350.023 10.4944C343.088 9.61012 333.948 9.60001 321.081 9.60001H300.838C287.972 9.60001 278.831 9.61013 271.897 10.4944C265.108 11.3601 261.197 12.9837 258.341 15.6923C255.486 18.4008 253.774 22.1106 252.861 28.5495C251.929 35.1266 251.918 43.7965 251.918 56.0001C251.918 68.2036 251.929 76.8736 252.861 83.4507C253.76 89.7891 255.432 93.4827 258.208 96.1799L258.341 96.3075C261.197 99.0161 265.108 100.64 271.897 101.506C278.831 102.39 287.972 102.4 300.838 102.4H321.081C333.948 102.4 343.088 102.39 350.023 101.506C356.811 100.64 360.723 99.0164 363.578 96.3079C367.542 92.5485 369.248 86.9252 369.77 75.001L379.882 75.399C379.355 87.4403 377.677 96.5119 370.735 103.096C365.685 107.886 359.282 110.011 351.371 111.02C343.606 112.01 333.661 112 321.081 112H300.838C288.258 112 278.314 112.01 270.548 111.02C262.637 110.011 256.234 107.885 251.184 103.096C246.135 98.3064 243.894 92.2333 242.83 84.7298C241.786 77.3643 241.797 67.9322 241.797 56.0001Z" fill="#9BACEC"/>
<path d="M354.998 49.0786C358.521 49.0786 361.376 51.8957 361.376 55.3708C361.376 58.8459 358.521 61.6629 354.998 61.6629H354.941C351.419 61.6629 348.564 58.8459 348.564 55.3708C348.564 51.8957 351.419 49.0786 354.941 49.0786H354.998Z" fill="#9BACEC"/>
<path d="M214.988 44.3494C219.865 44.3494 223.668 45.9572 226.397 49.1728C229.125 52.3666 230.489 56.6978 230.489 62.1666C230.489 65.9291 229.802 69.265 228.427 72.1744C227.073 75.0837 225.14 77.3369 222.626 78.9337C220.134 80.5087 217.255 81.2962 213.989 81.2962C208.983 81.2962 205.094 79.765 202.323 76.7025C199.551 73.64 198.165 69.1337 198.165 63.1837C198.165 59.4212 198.874 56.1181 200.292 53.2744C201.732 50.4087 203.719 48.2103 206.254 46.6791C208.79 45.1259 211.701 44.3494 214.988 44.3494ZM214.666 49.7306C211.4 49.7306 208.983 50.8244 207.415 53.0119C205.868 55.1775 205.094 58.4478 205.094 62.8228C205.094 71.5509 208.177 75.9259 214.344 75.9478C217.566 75.9478 219.908 74.8322 221.369 72.6009C222.83 70.3478 223.561 66.9791 223.561 62.4947C223.561 53.9853 220.596 49.7306 214.666 49.7306Z" fill="black"/>
<path d="M193.847 80.3119L182.632 80.64L182.116 76.8009C179.173 79.7978 175.714 81.2962 171.739 81.2962C167.12 81.2962 163.65 79.7431 161.33 76.6369C159.031 73.5306 157.881 69.265 157.881 63.84C157.881 57.89 159.353 53.1541 162.297 49.6322C165.261 46.1103 169.623 44.3494 175.381 44.3494C177.529 44.3494 179.613 44.7103 181.633 45.4322V34.2759L176.025 32.9306V29.2228L188.239 28.8947V75.2587L193.847 76.6041V80.3119ZM181.633 51.0759C181.504 50.9884 181.171 50.8462 180.634 50.6494C180.118 50.4306 179.345 50.2228 178.313 50.0259C177.282 49.8291 176.079 49.7306 174.704 49.7306C168.108 49.7306 164.81 54.215 164.81 63.1837C164.81 67.1212 165.476 70.2384 166.808 72.5353C168.162 74.8103 170.246 75.9478 173.06 75.9478C174.736 75.9478 176.208 75.5759 177.476 74.8322C178.765 74.0884 179.774 73.2791 180.505 72.4041C181.257 71.5291 181.633 71.0259 181.633 70.8947V51.0759Z" fill="black"/>
<path d="M125.138 49.7962C126.514 48.5931 128.307 47.39 130.52 46.1869C132.755 44.9619 135.054 44.3494 137.417 44.3494C140.941 44.3494 143.583 45.4212 145.345 47.565C147.107 49.6869 147.988 52.6509 147.988 56.4572V75.2587L152.918 76.9322V80.64H137.095V76.9322L141.381 75.2587V57.1134C141.381 54.6853 140.919 52.9025 139.995 51.765C139.071 50.6275 137.557 50.0587 135.451 50.0587C133.775 50.0587 132.228 50.4634 130.81 51.2728C129.414 52.0822 128.243 52.9572 127.298 53.8978C126.352 54.8384 125.88 55.3525 125.88 55.44V75.2587L130.166 76.9322V80.64H113.666V76.9322L119.273 75.2587V50.3869L113.666 49.0416V45.3666L124.558 45.0384L125.138 49.7962Z" fill="black"/>
<path d="M84.9511 63.84C84.9511 67.515 85.8319 70.4572 87.5937 72.6666C89.3555 74.8541 91.6651 75.9478 94.5226 75.9478C96.4562 75.9478 98.2502 75.6744 99.9045 75.1275C101.559 74.5806 102.923 73.99 103.997 73.3556C105.072 72.6994 105.609 72.3275 105.609 72.24L107.929 75.7181C107.929 75.8056 107.209 76.3525 105.77 77.3587C104.352 78.3431 102.59 79.2509 100.485 80.0822C98.4006 80.8916 96.1876 81.2962 93.8458 81.2962C88.6465 81.2962 84.704 79.6994 82.0184 76.5056C79.3543 73.3119 78.0222 68.8712 78.0222 63.1837C78.0222 59.64 78.699 56.4353 80.0525 53.5697C81.4276 50.7041 83.3397 48.4509 85.789 46.8103C88.2597 45.1697 91.0635 44.3494 94.2003 44.3494C103.439 44.3494 108.058 49.6103 108.058 60.1322C108.058 60.8541 108.015 61.5759 107.929 62.2978C107.843 63.0197 107.779 63.49 107.736 63.7087L84.9511 63.84ZM101.065 58.7869C101.065 56.0525 100.485 53.8431 99.3244 52.1587C98.1857 50.4525 96.3595 49.5994 93.8458 49.5994C91.2891 49.5994 89.2588 50.4744 87.7548 52.2244C86.2724 53.9744 85.4237 56.1619 85.2089 58.7869H101.065Z" fill="black"/>
<path d="M48.1798 48.7791C51.2951 45.8259 54.636 44.3494 58.2024 44.3494C62.8646 44.3494 66.3882 45.9244 68.773 49.0744C71.1793 52.2025 72.3824 56.4572 72.3824 61.8384C72.3824 67.7884 70.8892 72.5244 67.9028 76.0462C64.9165 79.5462 60.4691 81.2962 54.5608 81.2962C52.6701 81.2962 50.6935 80.99 48.6309 80.3775V91.0415L55.5598 92.3869V96.0947H36.7391V92.3869L42.0244 91.0415V50.3869L36.4168 49.0416V45.3666L47.6319 45.0384L48.1798 48.7791ZM48.6309 74.6025C48.7169 74.69 49.0069 74.8322 49.5011 75.0291C50.0167 75.2259 50.7902 75.4337 51.8214 75.6525C52.8742 75.8494 54.1203 75.9478 55.5598 75.9478C62.1556 75.9478 65.4536 71.4634 65.4536 62.4947C65.4536 58.6009 64.7338 55.5056 63.2943 53.2087C61.8763 50.89 59.7386 49.7306 56.8811 49.7306C55.1194 49.7306 53.6154 50.0806 52.3693 50.7806C51.1447 51.4587 50.2101 52.2025 49.5655 53.0119C48.9425 53.8212 48.6309 54.2916 48.6309 54.4228V74.6025Z" fill="black"/>
<path d="M6.60659 73.9134C6.77847 74.0009 7.17594 74.1869 7.799 74.4712C8.42206 74.7337 9.27071 74.9853 10.345 75.2259C11.4192 75.4666 12.5901 75.5869 13.8577 75.5869C16.5004 75.5869 18.8422 74.9525 20.8833 73.6837C22.9458 72.415 23.9771 70.6541 23.9771 68.4009C23.9771 66.9572 23.5366 65.7541 22.6558 64.7916C21.7749 63.8072 20.6792 63.0087 19.3686 62.3962C18.0795 61.7837 16.2963 61.0509 14.0189 60.1978C11.0325 59.1259 8.61542 58.1197 6.76773 57.1791C4.94151 56.2384 3.37312 54.8822 2.06254 53.1103C0.773454 51.3384 0.128909 49.0634 0.128909 46.2853C0.128909 41.8447 1.61136 38.5087 4.57627 36.2775C7.56266 34.0462 11.301 32.9306 15.7914 32.9306C17.6391 32.9306 19.5942 33.1384 21.6567 33.5541C23.7193 33.9478 25.481 34.3634 26.942 34.8009C28.403 35.2166 29.3268 35.49 29.7135 35.6212L29.3913 47.04H25.105L22.8491 39.8541C22.6773 39.8103 22.2583 39.69 21.5923 39.4931C20.9262 39.2744 20.0668 39.0775 19.0141 38.9025C17.9613 38.7275 16.9086 38.64 15.8558 38.64C13.0413 38.64 10.8713 39.2853 9.34591 40.5759C7.82048 41.8447 7.05777 43.3759 7.05777 45.1697C7.05777 46.6134 7.49821 47.8275 8.37909 48.8119C9.25997 49.7744 10.3557 50.5728 11.6663 51.2072C12.9983 51.8416 14.8568 52.5853 17.2416 53.4384C20.0991 54.4666 22.4409 55.44 24.2671 56.3587C26.0933 57.2775 27.6403 58.5791 28.9079 60.2634C30.1969 61.9259 30.8415 64.0369 30.8415 66.5962C30.8415 69.8119 30.068 72.5353 28.5211 74.7666C26.9742 76.9759 24.8902 78.6166 22.269 79.6884C19.6694 80.7603 16.7797 81.2962 13.5999 81.2962C11.5374 81.2962 9.50704 81.0994 7.50895 80.7056C5.51086 80.3119 3.84579 79.9072 2.51373 79.4916C1.20315 79.0541 0.365242 78.7697 0 78.6384V66.8587H5.28527L6.60659 73.9134Z" fill="black"/>
</svg>
