<svg width="214" height="164" viewBox="0 0 214 164" fill="none" xmlns="http://www.w3.org/2000/svg">
<g filter="url(#filter0_d_165_10812)">
<path d="M89.0261 0.0115824C91.0736 0.0580974 93.3486 1.44955 94.2458 2.5692C96.1565 4.91479 96.1896 6.22642 96.4988 7.32799C97.2318 11.4977 96.9132 14.0526 96.7732 16.9706C96.0114 26.7051 94.5721 35.3267 94.1638 40.5399C93.1898 51.6237 91.2816 51.3086 88.6814 59.8934C86.0736 68.4671 89.4348 76.1905 86.9451 86.6903C84.7796 95.9682 82.3527 98.0173 81.0974 106.752C80.9384 107.918 80.8133 109.141 80.7322 110.506C80.5448 113.65 80.2788 117.152 80.3015 119.695C80.7303 119.407 81.1589 119.105 81.5554 118.81C83.1572 117.62 84.4693 116.457 85.3425 115.423C88.8434 111.215 91.2961 113.204 96.7077 107.538C99.9698 104.099 102.637 101.663 105.55 99.4383C107.503 97.964 109.339 96.6554 112.051 95.0721C112.256 94.9577 112.468 94.8368 112.794 94.6688C112.956 94.5882 113.143 94.4867 113.504 94.3495C113.692 94.2835 113.926 94.1899 114.398 94.1278C114.818 94.0504 115.852 94.1367 116.522 94.6063C117.83 95.5966 117.731 96.1531 117.895 96.5155C117.985 96.8578 118.007 97.0957 118.025 97.3094C118.053 97.7118 118.04 98.0279 118.023 98.3231C117.987 98.9229 117.921 99.4542 117.852 100.015C117.712 101.124 117.549 102.28 117.399 103.503C117.097 105.949 116.845 108.656 116.782 111.426C116.756 112.021 116.835 112.631 116.895 112.783C116.963 112.803 117.063 112.827 117.187 112.848C122.811 113.195 128.521 111.157 131.463 109.765C131.537 109.728 131.613 109.691 131.688 109.655L131.542 109.705C138.07 105.995 146.775 104.412 151.748 102.806C153.311 102.295 154.579 101.976 155.575 101.786C155.997 101.706 156.255 101.812 156.335 101.993C156.433 102.219 156.255 102.561 155.775 102.806C153.442 103.992 150.03 105.927 146.142 108.577C140.743 112.23 138.478 112.465 133.28 114.357C133.251 114.367 133.167 114.397 133.137 114.405C131.278 114.933 129.068 115.636 126.054 116.516C122.919 117.417 119.907 118.124 116.762 118.214C116.703 118.208 116.524 118.194 116.465 118.182C115.98 118.14 115.226 118.101 114.196 117.612C113.153 117.138 112.193 116.061 111.786 115.225C110.957 113.514 110.95 112.487 110.834 111.491C110.638 109.571 110.531 107.647 110.516 105.665C102.99 112.334 102.179 118.002 87.5642 126.86C87.2743 127.028 86.9851 127.19 86.6824 127.356C84.9727 128.279 83.4225 129.204 81.1921 129.979C80.0675 130.327 78.5852 130.785 76.5154 130.332C74.3784 129.875 72.8126 128.143 72.2263 127.016C70.2042 122.526 70.6861 120.556 70.3025 118.144C69.9009 113.644 69.411 110.016 69.2517 105.224C69.1414 101.724 69.2508 97.6847 69.9255 92.4393C72.4448 73.1504 79.5738 49.878 81.1775 38.4588C81.8452 33.7356 82.6148 28.2358 83.2175 22.4833C81.5372 25.2488 79.8854 28.2282 78.24 31.2743C72.5461 41.8567 66.9078 53.4809 60.6716 63.7294C52.785 76.6938 42.3595 94.3249 35.364 105.571C33.9972 107.772 32.7698 109.718 31.7214 111.348C25.2676 121.35 23.7051 123.766 18.6804 134.034C15.7877 139.932 11.0408 147.637 6.16868 153.627C3.71755 156.643 3.39267 155.454 4.94896 151.897C7.22473 146.697 9.8698 142.871 10.3484 139.807C11.3049 133.675 11.7769 131.134 16.4216 125.348C21.0652 119.542 20.1593 115.136 22.4743 111.536C24.0756 109.035 25.2738 108.7 28.8542 102.129C30.4352 99.2227 32.4832 95.0761 35.2146 88.9774C44.1044 69.0913 49.3288 58.3424 52.9167 50.8905C55.6922 45.1242 61.9394 35.0854 67.5886 25.2967C69.2439 22.4307 70.8561 19.5764 72.3445 16.8436C74.1537 13.6195 76.2782 9.66753 80.0134 5.01744C81.1257 3.82343 81.776 2.59519 84.8855 0.869004C85.7749 0.455974 87.0241 -0.0862386 89.0261 0.0115824ZM77.9216 121.03C77.7681 121.043 77.6715 121.071 77.6413 121.084C77.5477 121.128 77.7077 121.11 77.9216 121.03ZM116.794 112.741C116.785 112.742 116.8 112.75 116.836 112.763C116.819 112.75 116.803 112.74 116.794 112.741ZM116.625 101.036C116.688 100.988 116.595 101.034 116.5 101.092C116.465 101.113 116.429 101.138 116.389 101.163C116.551 101.09 116.589 101.057 116.625 101.036ZM90.8327 12.2723C90.8262 12.267 90.771 12.3088 90.6833 12.3827C90.7902 12.3159 90.8188 12.2769 90.8327 12.2723Z" fill="#9BACEC"/>
<path d="M107.92 60.0617C107.653 59.9817 107.187 59.8884 106.52 59.7817C105.88 59.6751 105.173 59.6217 104.4 59.6217C103.093 59.6217 102.08 59.8484 101.36 60.3017C100.64 60.7551 100.28 61.3151 100.28 61.9817C100.28 62.5684 100.573 63.0484 101.16 63.4217C101.773 63.7684 102.773 64.0084 104.16 64.1417L105.76 64.3017C107.12 64.4351 108.187 64.7417 108.96 65.2217C109.733 65.7017 110.28 66.2751 110.6 66.9417C110.92 67.5817 111.08 68.2617 111.08 68.9817C111.08 69.7017 110.893 70.4217 110.52 71.1417C110.147 71.8351 109.493 72.4217 108.56 72.9017C107.653 73.3551 106.347 73.5817 104.64 73.5817C103.653 73.5817 102.64 73.4884 101.6 73.3017C100.56 73.0884 99.5734 72.7817 98.6401 72.3817C98.2401 72.1951 98.0401 71.8751 98.0401 71.4217C98.0401 71.1817 98.1467 70.9684 98.3601 70.7817C98.5734 70.5684 98.8134 70.4617 99.0801 70.4617C99.1334 70.4617 99.2267 70.4884 99.3601 70.5417C99.4934 70.5951 99.7334 70.6884 100.08 70.8217C100.587 71.0084 101.253 71.1817 102.08 71.3417C102.907 71.5017 103.76 71.5817 104.64 71.5817C106.08 71.5817 107.173 71.3417 107.92 70.8617C108.693 70.3551 109.08 69.7284 109.08 68.9817C109.08 68.2884 108.813 67.7017 108.28 67.2217C107.747 66.7151 106.853 66.4084 105.6 66.3017L104 66.1417C102.427 65.9817 101.227 65.6884 100.4 65.2617C99.5734 64.8084 99.0134 64.2884 98.7201 63.7017C98.4267 63.1151 98.2801 62.5284 98.2801 61.9417C98.2801 61.2751 98.4534 60.6217 98.8001 59.9817C99.1734 59.3151 99.8001 58.7551 100.68 58.3017C101.587 57.8484 102.827 57.6217 104.4 57.6217C105.307 57.6217 106.147 57.6884 106.92 57.8217C107.72 57.9284 108.427 58.0751 109.04 58.2617C109.253 58.2884 109.427 58.4084 109.56 58.6217C109.693 58.8084 109.76 59.0084 109.76 59.2217C109.76 59.5151 109.653 59.7551 109.44 59.9417C109.253 60.1284 109.027 60.2217 108.76 60.2217C108.6 60.2217 108.32 60.1684 107.92 60.0617Z" fill="black"/>
<path d="M118.728 80.0617C118.728 80.3284 118.635 80.5551 118.448 80.7417C118.261 80.9551 118.021 81.0617 117.728 81.0617C117.461 81.0617 117.221 80.9551 117.008 80.7417C116.821 80.5551 116.728 80.3284 116.728 80.0617V58.7417C116.728 58.4484 116.821 58.2084 117.008 58.0217C117.221 57.8351 117.461 57.7417 117.728 57.7417C118.021 57.7417 118.261 57.8351 118.448 58.0217C118.635 58.2084 118.728 58.4484 118.728 58.7417V60.3417C119.581 59.5151 120.475 58.8751 121.408 58.4217C122.368 57.9684 123.368 57.7417 124.408 57.7417C125.661 57.7417 126.821 58.0351 127.888 58.6217C128.981 59.2084 129.861 60.0884 130.528 61.2617C131.195 62.4084 131.528 63.8484 131.528 65.5817C131.528 67.0751 131.208 68.4217 130.568 69.6217C129.928 70.7951 129.035 71.7284 127.888 72.4217C126.741 73.0884 125.421 73.4217 123.928 73.4217C123.048 73.4217 122.168 73.2751 121.288 72.9817C120.408 72.6884 119.555 72.2884 118.728 71.7817V80.0617ZM123.928 71.4217C125.608 71.4217 126.955 70.8617 127.968 69.7417C129.008 68.5951 129.528 67.2084 129.528 65.5817C129.528 63.7151 129.021 62.2751 128.008 61.2617C126.995 60.2484 125.795 59.7417 124.408 59.7417C123.288 59.7417 122.248 60.0751 121.288 60.7417C120.355 61.3817 119.501 62.2351 118.728 63.3017V69.3817C119.501 69.9684 120.328 70.4617 121.208 70.8617C122.115 71.2351 123.021 71.4217 123.928 71.4217Z" fill="black"/>
<path d="M144.12 73.4217C141.56 73.4217 139.494 72.7551 137.92 71.4217C136.374 70.0884 135.6 68.2084 135.6 65.7817C135.6 64.1551 135.947 62.7417 136.64 61.5417C137.334 60.3417 138.254 59.4084 139.4 58.7417C140.574 58.0751 141.867 57.7417 143.28 57.7417C144.694 57.7417 145.88 58.0217 146.84 58.5817C147.8 59.1417 148.52 59.8351 149 60.6617C149.507 61.4884 149.76 62.3017 149.76 63.1017C149.76 64.0617 149.454 64.8884 148.84 65.5817C148.254 66.2751 147.134 66.6217 145.48 66.6217H137.64C137.854 68.2217 138.547 69.4217 139.72 70.2217C140.92 71.0217 142.387 71.4217 144.12 71.4217C144.787 71.4217 145.387 71.3684 145.92 71.2617C146.48 71.1551 146.907 71.0484 147.2 70.9417C147.494 70.8351 147.68 70.7684 147.76 70.7417C147.867 70.7151 147.947 70.7017 148 70.7017C148.267 70.7017 148.494 70.8084 148.68 71.0217C148.894 71.2084 149 71.4351 149 71.7017C149 72.1551 148.787 72.4617 148.36 72.6217C147.8 72.8351 147.147 73.0217 146.4 73.1817C145.654 73.3417 144.894 73.4217 144.12 73.4217ZM143.28 59.7417C141.867 59.7417 140.64 60.1951 139.6 61.1017C138.56 61.9817 137.92 63.1551 137.68 64.6217H145.52C147.04 64.6217 147.8 64.1151 147.8 63.1017C147.8 62.2751 147.387 61.5151 146.56 60.8217C145.734 60.1017 144.64 59.7417 143.28 59.7417Z" fill="black"/>
<path d="M167.919 73.4217C167.652 73.4217 167.412 73.3284 167.199 73.1417C167.012 72.9284 166.919 72.6884 166.919 72.4217V64.4217C166.919 62.7684 166.599 61.5817 165.959 60.8617C165.345 60.1151 164.505 59.7417 163.439 59.7417C162.319 59.7417 161.252 60.0484 160.239 60.6617C159.225 61.2484 158.292 61.9684 157.439 62.8217V72.4217C157.439 72.6884 157.345 72.9284 157.159 73.1417C156.972 73.3284 156.732 73.4217 156.439 73.4217C156.172 73.4217 155.932 73.3284 155.719 73.1417C155.532 72.9284 155.439 72.6884 155.439 72.4217V58.7417C155.439 58.4484 155.532 58.2084 155.719 58.0217C155.932 57.8351 156.172 57.7417 156.439 57.7417C156.732 57.7417 156.972 57.8351 157.159 58.0217C157.345 58.2084 157.439 58.4484 157.439 58.7417V60.1817C158.345 59.4617 159.292 58.8751 160.279 58.4217C161.265 57.9684 162.319 57.7417 163.439 57.7417C164.452 57.7417 165.372 57.9417 166.199 58.3417C167.025 58.7417 167.679 59.4351 168.159 60.4217C168.665 61.3817 168.919 62.7151 168.919 64.4217V72.4217C168.919 72.6884 168.825 72.9284 168.639 73.1417C168.452 73.3284 168.212 73.4217 167.919 73.4217Z" fill="black"/>
<path d="M187.722 73.4217C187.455 73.4217 187.215 73.3284 187.002 73.1417C186.815 72.9284 186.722 72.6884 186.722 72.4217V70.7417C185.948 71.5684 185.068 72.2217 184.082 72.7017C183.122 73.1817 182.055 73.4217 180.882 73.4217C179.575 73.4217 178.388 73.1151 177.322 72.5017C176.282 71.8884 175.442 71.0217 174.802 69.9017C174.188 68.7551 173.882 67.4217 173.882 65.9017C173.882 64.3017 174.215 62.8884 174.882 61.6617C175.575 60.4351 176.508 59.4751 177.682 58.7817C178.882 58.0884 180.228 57.7417 181.722 57.7417C182.682 57.7417 183.562 57.8751 184.362 58.1417C185.188 58.3817 185.975 58.7284 186.722 59.1817V51.9817C186.722 51.6884 186.815 51.4484 187.002 51.2617C187.215 51.0751 187.455 50.9817 187.722 50.9817C188.015 50.9817 188.255 51.0751 188.442 51.2617C188.628 51.4484 188.722 51.6884 188.722 51.9817V72.4217C188.722 72.6884 188.628 72.9284 188.442 73.1417C188.255 73.3284 188.015 73.4217 187.722 73.4217ZM180.882 71.4217C182.215 71.4217 183.348 71.0751 184.282 70.3817C185.242 69.6884 186.055 68.7951 186.722 67.7017V61.5817C185.975 60.9951 185.202 60.5417 184.402 60.2217C183.628 59.9017 182.735 59.7417 181.722 59.7417C180.602 59.7417 179.602 60.0084 178.722 60.5417C177.842 61.0751 177.148 61.8084 176.642 62.7417C176.135 63.6484 175.882 64.7017 175.882 65.9017C175.882 67.5284 176.348 68.8617 177.282 69.9017C178.242 70.9151 179.442 71.4217 180.882 71.4217Z" fill="black"/>
<path d="M201.997 57.5817C203.624 57.5817 205.024 57.9551 206.197 58.7017C207.397 59.4217 208.317 60.4084 208.957 61.6617C209.624 62.8884 209.957 64.2617 209.957 65.7817C209.957 67.2484 209.624 68.5684 208.957 69.7417C208.317 70.9151 207.397 71.8484 206.197 72.5417C205.024 73.2351 203.624 73.5817 201.997 73.5817C200.397 73.5817 198.997 73.2351 197.797 72.5417C196.597 71.8484 195.664 70.9017 194.997 69.7017C194.357 68.5017 194.037 67.1684 194.037 65.7017C194.037 64.2084 194.357 62.8484 194.997 61.6217C195.637 60.3951 196.557 59.4217 197.757 58.7017C198.957 57.9551 200.37 57.5817 201.997 57.5817ZM201.997 59.5817C200.77 59.5817 199.704 59.8617 198.797 60.4217C197.917 60.9817 197.237 61.7284 196.757 62.6617C196.277 63.5684 196.037 64.5817 196.037 65.7017C196.037 67.3551 196.57 68.7551 197.637 69.9017C198.73 71.0217 200.184 71.5817 201.997 71.5817C203.81 71.5817 205.25 71.0217 206.317 69.9017C207.41 68.7817 207.957 67.4084 207.957 65.7817C207.957 64.6351 207.717 63.5951 207.237 62.6617C206.757 61.7284 206.064 60.9817 205.157 60.4217C204.277 59.8617 203.224 59.5817 201.997 59.5817Z" fill="black"/>
</g>
<defs>
<filter id="filter0_d_165_10812" x="0" y="0" width="213.957" height="163.346" filterUnits="userSpaceOnUse" color-interpolation-filters="sRGB">
<feFlood flood-opacity="0" result="BackgroundImageFix"/>
<feColorMatrix in="SourceAlpha" type="matrix" values="0 0 0 0 0 0 0 0 0 0 0 0 0 0 0 0 0 0 127 0" result="hardAlpha"/>
<feOffset dy="4"/>
<feGaussianBlur stdDeviation="2"/>
<feComposite in2="hardAlpha" operator="out"/>
<feColorMatrix type="matrix" values="0 0 0 0 0 0 0 0 0 0 0 0 0 0 0 0 0 0 0.25 0"/>
<feBlend mode="normal" in2="BackgroundImageFix" result="effect1_dropShadow_165_10812"/>
<feBlend mode="normal" in="SourceGraphic" in2="effect1_dropShadow_165_10812" result="shape"/>
</filter>
</defs>
</svg>
