<svg width="153" height="156" viewBox="0 0 153 156" fill="none" xmlns="http://www.w3.org/2000/svg">
<path d="M85.0261 0.0115824C87.0736 0.0580974 89.3486 1.44955 90.2458 2.5692C92.1565 4.91479 92.1896 6.22642 92.4988 7.32799C93.2318 11.4977 92.9132 14.0526 92.7732 16.9706C92.0114 26.7051 90.5721 35.3267 90.1638 40.5399C89.1898 51.6237 87.2816 51.3086 84.6814 59.8934C82.0736 68.4671 85.4348 76.1905 82.9451 86.6903C80.7796 95.9682 78.3527 98.0173 77.0974 106.752C76.9384 107.918 76.8133 109.141 76.7322 110.506C76.5448 113.65 76.2788 117.152 76.3015 119.695C76.7303 119.407 77.1589 119.105 77.5554 118.81C79.1572 117.62 80.4693 116.457 81.3425 115.423C84.8434 111.215 87.2961 113.204 92.7077 107.538C95.9698 104.099 98.6366 101.663 101.55 99.4383C103.503 97.964 105.339 96.6554 108.051 95.0721C108.256 94.9577 108.468 94.8368 108.794 94.6688C108.956 94.5882 109.143 94.4867 109.504 94.3495C109.692 94.2835 109.926 94.1899 110.398 94.1278C110.818 94.0504 111.852 94.1367 112.522 94.6063C113.83 95.5966 113.731 96.1531 113.895 96.5155C113.985 96.8578 114.007 97.0957 114.025 97.3094C114.053 97.7118 114.04 98.0279 114.023 98.3231C113.987 98.9229 113.921 99.4542 113.852 100.015C113.712 101.124 113.549 102.28 113.399 103.503C113.097 105.949 112.845 108.656 112.782 111.426C112.756 112.021 112.835 112.631 112.895 112.783C112.963 112.803 113.063 112.827 113.187 112.848C118.811 113.195 124.521 111.157 127.463 109.765C127.537 109.728 127.613 109.691 127.688 109.655L127.542 109.705C134.07 105.995 142.775 104.412 147.748 102.806C149.311 102.295 150.579 101.976 151.575 101.786C151.997 101.706 152.255 101.812 152.335 101.993C152.433 102.219 152.255 102.561 151.775 102.806C149.442 103.992 146.03 105.927 142.142 108.577C136.743 112.23 134.478 112.465 129.28 114.357C129.251 114.367 129.167 114.397 129.137 114.405C127.278 114.933 125.068 115.636 122.054 116.516C118.919 117.417 115.907 118.124 112.762 118.214C112.703 118.208 112.524 118.194 112.465 118.182C111.98 118.14 111.226 118.101 110.196 117.612C109.153 117.138 108.193 116.061 107.786 115.225C106.957 113.514 106.95 112.487 106.834 111.491C106.638 109.571 106.531 107.647 106.516 105.665C98.9896 112.334 98.1788 118.002 83.5642 126.86C83.2743 127.028 82.9851 127.19 82.6824 127.356C80.9727 128.279 79.4225 129.204 77.1921 129.979C76.0675 130.327 74.5852 130.785 72.5154 130.332C70.3784 129.875 68.8126 128.143 68.2263 127.016C66.2042 122.526 66.6861 120.556 66.3025 118.144C65.9009 113.644 65.411 110.016 65.2517 105.224C65.1414 101.724 65.2508 97.6847 65.9255 92.4393C68.4448 73.1504 75.5738 49.878 77.1775 38.4588C77.8452 33.7356 78.6148 28.2358 79.2175 22.4833C77.5372 25.2488 75.8854 28.2282 74.24 31.2743C68.5461 41.8567 62.9078 53.4809 56.6716 63.7294C48.785 76.6938 38.3595 94.3249 31.364 105.571C29.9972 107.772 28.7698 109.718 27.7214 111.348C21.2676 121.35 19.7051 123.766 14.6804 134.034C11.7877 139.932 7.04077 147.637 2.16868 153.627C-0.282452 156.643 -0.607334 155.454 0.948956 151.897C3.22473 146.697 5.8698 142.871 6.34837 139.807C7.30493 133.675 7.77688 131.134 12.4216 125.348C17.0652 119.542 16.1593 115.136 18.4743 111.536C20.0756 109.035 21.2738 108.7 24.8542 102.129C26.4352 99.2227 28.4832 95.0761 31.2146 88.9774C40.1044 69.0913 45.3288 58.3424 48.9167 50.8905C51.6922 45.1242 57.9394 35.0854 63.5886 25.2967C65.2439 22.4307 66.8561 19.5764 68.3445 16.8436C70.1537 13.6195 72.2782 9.66753 76.0134 5.01744C77.1257 3.82343 77.776 2.59519 80.8855 0.869004C81.7749 0.455974 83.0241 -0.0862386 85.0261 0.0115824ZM73.9216 121.03C73.7681 121.043 73.6715 121.071 73.6413 121.084C73.5477 121.128 73.7077 121.11 73.9216 121.03ZM112.794 112.741C112.785 112.742 112.8 112.75 112.836 112.763C112.819 112.75 112.803 112.74 112.794 112.741ZM112.625 101.036C112.688 100.988 112.595 101.034 112.5 101.092C112.465 101.113 112.429 101.138 112.389 101.163C112.551 101.09 112.589 101.057 112.625 101.036ZM86.8327 12.2723C86.8262 12.267 86.771 12.3088 86.6833 12.3827C86.7902 12.3159 86.8188 12.2769 86.8327 12.2723Z" fill="#9BACEC"/>
</svg>
