<svg viewBox="340.125 267.19540229885047 1133.75 1041.6091954022988" fill="none" xmlns="http://www.w3.org/2000/svg" xmlns:xlink="http://www.w3.org/1999/xlink" overflow="visible" width="1133.75px" height="1041.6091954022988px"><g id="Master/Characters/Mobile Money"><g id="Mobile Money" transform="scale(1 1)"><g id="Mobile Money/Color"><path id="Vector" d="M1122.54 1008.43C1127.14 1009.3 1131.38 1011.52 1134.72 1014.81C1138.07 1018.09 1140.36 1022.29 1141.32 1026.88C1142.27 1031.46 1141.84 1036.23 1140.09 1040.58C1138.34 1044.92 1135.33 1048.65 1131.46 1051.29C1127.59 1053.92 1123.02 1055.35 1118.33 1055.39C1113.65 1055.44 1109.06 1054.09 1105.14 1051.52C1101.22 1048.95 1098.15 1045.28 1096.32 1040.97C1094.49 1036.65 1093.98 1031.89 1094.85 1027.29C1095.43 1024.23 1096.6 1021.32 1098.31 1018.72C1100.01 1016.12 1102.22 1013.88 1104.79 1012.13C1107.36 1010.37 1110.25 1009.15 1113.29 1008.51C1116.34 1007.88 1119.48 1007.85 1122.54 1008.43V1008.43Z" fill="white"/><path id="Vector_2" d="M1112.62 1113.61L1030.33 1062.86L1029.89 1062.58L1006.81 1049.71L1007.19 1049.03L1017.77 1030.6L1142.99 812.43L1153.62 793.92L1185.55 810.1L1190.23 812.459L1261.94 848.34L1262.22 848.39L1256.14 882.67L1229.88 1030.76L1215.29 1113.09L1213.7 1122.09L1205.19 1170.09L1203.78 1169.84L1112.62 1113.61ZM1141.41 1036.1C1142.28 1031.5 1141.77 1026.74 1139.94 1022.42C1138.11 1018.11 1135.04 1014.44 1131.12 1011.87C1127.2 1009.3 1122.61 1007.95 1117.92 1008C1113.24 1008.04 1108.67 1009.47 1104.8 1012.1C1100.92 1014.74 1097.92 1018.47 1096.17 1022.81C1094.41 1027.16 1093.99 1031.93 1094.94 1036.51C1095.9 1041.1 1098.19 1045.3 1101.53 1048.58C1104.87 1051.87 1109.12 1054.09 1113.72 1054.96C1116.78 1055.54 1119.92 1055.51 1122.96 1054.88C1126.01 1054.24 1128.9 1053.02 1131.47 1051.26C1134.04 1049.51 1136.24 1047.27 1137.95 1044.67C1139.65 1042.07 1140.83 1039.16 1141.41 1036.1Z" fill="#6E9BFF"/><path id="Vector_3" d="M1414.99 292.061C1421.2 292.062 1427.33 293.423 1432.95 296.048C1438.58 298.674 1443.56 302.5 1447.55 307.257C1451.53 312.015 1454.43 317.589 1456.03 323.586C1457.64 329.583 1457.9 335.859 1456.82 341.971L1451.98 369.181L1439.88 437.321L1427.22 508.661L1414.22 581.781L1401.22 654.921L1387.44 732.571L1373.21 812.681L1295.68 1249.43C1293.93 1259.26 1288.79 1268.15 1281.14 1274.56C1273.49 1280.98 1263.83 1284.49 1253.85 1284.49H1172.68C1182.66 1284.49 1192.32 1280.98 1199.96 1274.57C1207.61 1268.15 1212.75 1259.26 1214.49 1249.43L1224.07 1195.49L1229.38 1165.6L1237.13 1121.97L1238.69 1113.16L1253.31 1030.83L1277.67 893.651L1292.05 812.651L1306.27 732.541L1320.06 654.891L1333.06 581.761L1346.06 508.631L1358.73 437.291L1370.82 369.151L1375.64 342.011C1376.73 335.899 1376.46 329.623 1374.86 323.625C1373.26 317.627 1370.37 312.053 1366.38 307.294C1362.39 302.536 1357.41 298.71 1351.79 296.084C1346.16 293.459 1340.03 292.1 1333.82 292.101L1414.99 292.061Z" fill="#6E9BFF"/><path id="Vector_4" d="M1333.79 292.061C1340 292.06 1346.13 293.419 1351.76 296.044C1357.38 298.669 1362.36 302.496 1366.35 307.254C1370.34 312.013 1373.23 317.587 1374.83 323.585C1376.43 329.583 1376.7 335.859 1375.61 341.971L1370.79 369.111L1358.7 437.25L1345.99 508.591L1332.99 581.721L1319.99 654.851L1306.2 732.5L1291.98 812.611L1277.6 893.611L1253.24 1030.79L1238.62 1113.12L1237.06 1121.93L1229.31 1165.56L1224 1195.45L1214.49 1249.43C1212.75 1259.26 1207.61 1268.15 1199.96 1274.57C1192.32 1280.98 1182.66 1284.49 1172.68 1284.49H775.44C769.233 1284.49 763.101 1283.13 757.476 1280.5C751.851 1277.88 746.871 1274.05 742.884 1269.29C738.898 1264.54 736.002 1258.96 734.402 1252.96C732.801 1246.97 732.534 1240.69 733.62 1234.58L740.62 1195.13L769.86 1030.43L779.419 976.561C787.092 978.422 794.861 979.868 802.69 980.891L793.879 1030.45L779.24 1112.79L764.579 1195.12L762.99 1204.12C757.18 1236.85 762.38 1249.37 799.4 1249.76H801.249H1158.44C1184.51 1249.76 1191.18 1249.76 1195.58 1224.88C1195.96 1222.68 1196.33 1220.29 1196.7 1217.69L1200.64 1195.47L1200.93 1193.83L1205.14 1170.06L1213.65 1122.06L1215.24 1113.06L1229.83 1030.73L1256.09 882.641L1262.17 848.361L1268.52 812.531L1282.72 732.431L1296.49 654.771L1309.49 581.641L1322.49 508.521L1335.14 437.171L1347.22 369.041L1347.39 368.041C1355.27 323.681 1340.85 322.381 1309.14 322.381H951.879C926.049 323.311 918.19 328.721 913.62 354.451L911.089 368.681L903.539 411.301L881.99 398.701L894.709 327.111C896.454 317.288 901.602 308.392 909.248 301.983C916.895 295.575 926.553 292.062 936.53 292.061H1333.79Z" fill="#6E9BFF"/><path id="Vector_5" d="M1200.64 1195.43L1196.7 1217.65C1196.33 1220.25 1195.96 1222.65 1195.58 1224.84C1191.18 1249.71 1184.51 1249.72 1158.44 1249.72H1106.53L1116.27 1195.33L1177.27 1195.4L1200.64 1195.43Z" fill="#B9CEFF"/><path id="Vector_6" d="M1116.28 1195.37L1106.54 1249.75H996.121L1005.94 1195.29L1116.28 1195.37Z" fill="#B9CEFF"/><path id="Vector_7" d="M1112.63 1113.61L1020.78 1112.96L1029.6 1064.06L1030.34 1062.86L1112.63 1113.61Z" fill="#B9CEFF"/><path id="Vector_8" d="M1116.28 1195.37L1005.94 1195.29L1020.78 1112.96L1112.63 1113.61L1203.73 1169.81L1205.14 1170.05L1200.93 1193.82L1200.64 1195.46L1177.32 1195.43L1116.31 1195.37H1116.28Z" fill="#B9CEFF"/><path id="Vector_9" d="M1309.07 322.43C1340.78 322.43 1355.2 323.73 1347.32 368.09L1347.15 369.09H1325.76H1299.45L1264.74 369.01L1273.1 322.479L1309.07 322.43Z" fill="#B9CEFF"/><path id="Vector_10" d="M1347.16 369.11L1335.08 437.24L1313.52 437.2L1252.51 437.14L1264.75 369L1299.45 369.08H1325.76L1347.16 369.11Z" fill="#B9CEFF"/><path id="Vector_11" d="M1335.08 437.241L1322.42 508.581L1300.71 508.551L1239.69 508.481L1252.51 437.141L1313.52 437.201L1335.08 437.241Z" fill="#B9CEFF"/><path id="Vector_12" d="M1322.42 508.58L1309.47 581.7L1287.57 581.67L1226.56 581.61L1239.69 508.48L1300.71 508.55L1322.42 508.58Z" fill="#B9CEFF"/><path id="Vector_13" d="M1309.47 581.699L1296.5 654.839L1274.43 654.809L1213.42 654.739L1226.56 581.609L1287.57 581.669L1309.47 581.699Z" fill="#B9CEFF"/><path id="Vector_14" d="M1296.5 654.84L1282.72 732.5L1260.48 732.47L1199.47 732.4L1213.42 654.74L1274.43 654.81L1296.5 654.84Z" fill="#B9CEFF"/><path id="Vector_15" d="M1282.72 732.5L1268.52 812.59L1246.09 812.56L1190.18 812.5L1185.51 810.13L1199.47 732.4L1260.48 732.47L1282.72 732.5Z" fill="#B9CEFF"/><path id="Vector_16" d="M1273.11 322.471L1264.75 369.001L1154.34 368.931L1162.69 322.471H1273.11Z" fill="#B9CEFF"/><path id="Vector_17" d="M1268.52 812.59L1262.17 848.43L1261.89 848.38L1190.18 812.5L1246.09 812.56L1268.52 812.59Z" fill="#B9CEFF"/><path id="Vector_18" d="M1264.75 369L1252.51 437.14L1142.1 437.06L1154.34 368.93L1264.75 369Z" fill="#B9CEFF"/><path id="Vector_19" d="M1252.51 437.141L1239.69 508.481L1129.29 508.411H1129.28L1142.1 437.061L1252.51 437.141Z" fill="#B9CEFF"/><path id="Vector_20" d="M1239.69 508.48L1226.56 581.61L1116.15 581.54L1129.28 508.41H1129.29L1239.69 508.48Z" fill="#B9CEFF"/><path id="Vector_21" d="M1226.56 581.609L1213.42 654.739L1103.01 654.659L1116.15 581.539L1226.56 581.609Z" fill="#B9CEFF"/><path id="Vector_22" d="M1213.42 654.74L1199.47 732.4L1089.06 732.32L1103.01 654.66L1213.42 654.74Z" fill="#B9CEFF"/><path id="Vector_23" d="M1199.47 732.4L1185.51 810.13L1153.57 793.95L1084.29 758.86L1089.06 732.32L1199.47 732.4Z" fill="#B9CEFF"/><path id="Vector_24" d="M1162.69 322.471L1154.34 368.931L1049.86 368.861H1049.85L1058.19 322.471H1162.69Z" fill="#B9CEFF"/><path id="Vector_25" d="M1154.34 368.929L1142.1 437.059L1037.61 436.999L1049.85 368.859H1049.86L1154.34 368.929Z" fill="#B9CEFF"/><path id="Vector_26" d="M964.851 792.71L942.771 757.431L909.141 703.631C904.55 696.215 901.991 687.721 901.724 679.003C901.456 670.285 903.488 661.651 907.614 653.967C911.741 646.283 917.818 639.82 925.233 635.229C932.649 630.638 941.143 628.079 949.86 627.811C958.25 646.913 968.762 665.01 981.2 681.761C987.3 689.961 994.371 698.191 1004.06 701.421C1007.22 702.44 1010.57 702.753 1013.86 702.34C1017.15 701.927 1020.32 700.798 1023.13 699.031L1031.13 712.031L1033.33 715.681C1034.88 718.241 1036.55 720.724 1038.33 723.131C1048.81 737.505 1062.84 748.908 1079.06 756.221L1084.36 758.901L1153.64 794L1142.99 812.431L1017.82 1030.57L1007.24 1049L1006.86 1049.68L972.54 1030.55L934.721 1010.05L887.721 984.581C880.443 980.644 872.081 979.184 863.9 980.421C858.447 981.221 852.977 981.817 847.49 982.21C832.563 983.27 817.567 982.821 802.73 980.871C794.901 979.848 787.133 978.402 779.46 976.541C775.58 975.541 771.74 974.541 767.91 973.391C772.81 967.677 777.84 962.087 783 956.621C789.553 949.647 796.247 942.85 803.08 936.23C805.67 933.73 808.27 931.231 810.88 928.791L812.03 927.701C829.43 911.411 847.531 895.85 865.771 880.44C875.461 872.25 885.201 864.111 894.891 855.911C906.411 846.171 917.891 836.371 929.101 826.341C931.161 824.521 933.2 822.681 935.25 820.821C936.3 819.881 937.351 818.931 938.391 817.971L938.811 817.581C940.341 816.201 941.81 814.811 943.36 813.401L945.13 811.761L947.91 809.151C949.56 807.611 951.211 806.041 952.851 804.471C953.301 804.031 953.75 803.611 954.19 803.171C955.13 802.281 956.07 801.371 957 800.471C959.093 798.471 961.177 796.424 963.25 794.331C963.65 793.931 964.04 793.531 964.44 793.141C964.56 793.001 964.701 792.85 964.851 792.71Z" fill="#A84E2B"/><path id="Vector_27" d="M1142.1 437.06L1129.28 508.41L1068.08 508.37H1068.07L1028.94 485.3L1037.61 437L1142.1 437.06Z" fill="#B9CEFF"/><path id="Vector_28" d="M1129.28 508.43L1116.14 581.55H1094.14C1099.42 565.144 1103.89 548.507 1107.55 531.64L1068.13 508.4L1129.28 508.43Z" fill="#B9CEFF"/><path id="Vector_29" d="M1116.14 581.529L1102.99 654.649H1064.26C1076 631.055 1085.96 606.617 1094.07 581.539L1116.14 581.529Z" fill="#B9CEFF"/><path id="Vector_30" d="M1010.15 677.73L1006.06 671.19L1007.19 670.49C1023.77 646.3 1033.6 619.23 1041.04 600.86C1033.83 595.699 1027.78 589.079 1023.29 581.43C1018.77 573.718 1015.93 565.134 1014.98 556.245C1014.02 547.357 1014.97 538.367 1017.75 529.87L980.849 508.27L937.179 482.7L836.179 423.59C830.306 431.321 822.723 437.587 814.024 441.898C805.326 446.21 795.747 448.448 786.038 448.44C783.578 448.444 781.121 448.3 778.679 448.01C755.543 505.995 722.274 559.4 680.429 605.73C628.309 663.29 564.119 708.47 507.559 761.68C478.789 788.74 451.558 818.84 430.048 851.97C437.663 859.464 442.908 869.032 445.129 879.483C447.35 889.934 446.448 900.807 442.538 910.75L634.238 1023.43C640.972 1014.37 650.214 1007.49 660.82 1003.63C671.426 999.778 682.93 999.115 693.908 1001.73C715.328 968.95 742.318 939.16 770.828 912.35C804.708 880.49 845.298 847.19 880.408 816.7C900.098 799.27 924.869 777.03 942.769 757.43L964.849 792.76C964.699 792.9 964.558 793.05 964.408 793.2C964.008 793.59 963.619 793.99 963.219 794.39C961.152 796.45 959.069 798.497 956.969 800.53C956.039 801.43 955.098 802.34 954.158 803.23C953.718 803.67 953.268 804.09 952.818 804.53C951.178 806.1 949.528 807.67 947.878 809.21L945.099 811.82L943.328 813.46C941.818 814.87 940.328 816.26 938.778 817.64L938.358 818.03C937.358 819.03 936.269 819.94 935.219 820.88C933.219 822.74 931.128 824.58 929.068 826.4C917.828 836.4 906.378 846.23 894.858 855.97C885.168 864.17 875.428 872.31 865.738 880.5C847.498 895.91 829.398 911.5 811.998 927.76L810.849 928.85C808.239 931.3 805.638 933.79 803.048 936.29C796.228 942.917 789.535 949.714 782.969 956.68C777.815 962.16 772.785 967.75 767.878 973.45C752.396 991.212 738.483 1010.28 726.298 1030.45C711.158 1055.84 699.498 1082.95 693.128 1111.74L357.078 913.65C372.298 855.21 409.079 803.92 451.849 759.87C458.675 752.85 465.638 746.014 472.738 739.36C483.548 729.19 494.628 719.31 505.858 709.6L506.568 708.99C527.008 691.3 547.918 674.1 568.438 656.54C588.958 638.98 609.168 621.01 628.148 601.84C634.088 595.84 639.928 589.69 645.608 583.41C660.103 567.407 673.579 550.51 685.958 532.82C727.886 472.975 756.92 405.069 771.219 333.41L881.988 398.7L903.508 411.38L945.508 436.14L946.838 436.93L1028.89 485.3L1068.03 508.37L1107.45 531.61C1103.81 548.457 1099.34 565.093 1094.04 581.52C1079.12 627.69 1057.92 671.588 1031.04 711.98L1023.04 698.98L1010.04 677.76L1010.15 677.73ZM1080.38 556C1080.38 542.52 1070.25 531.61 1057.74 531.61C1045.23 531.61 1035.1 542.52 1035.1 556C1035.1 569.48 1045.24 580.39 1057.74 580.39C1070.24 580.39 1080.38 569.43 1080.38 556V556ZM816.618 399.24C816.618 385.78 806.448 374.85 793.908 374.85C781.368 374.85 771.198 385.78 771.198 399.24C771.198 412.7 781.358 423.63 793.908 423.63C806.458 423.63 816.618 412.71 816.618 399.24ZM696.798 1047.35C697.448 1034.83 687.068 1024.11 673.608 1023.42C660.148 1022.73 648.728 1032.31 648.088 1044.85C647.448 1057.39 657.828 1068.09 671.278 1068.78C684.728 1069.47 696.158 1059.88 696.798 1047.35ZM430.059 891.72C430.059 878.26 419.889 867.33 407.349 867.33C394.809 867.33 384.639 878.26 384.639 891.72C384.639 905.18 394.809 916.11 407.349 916.11C419.889 916.11 430.059 905.19 430.059 891.72Z" fill="#FFF1DF"/><path id="Vector_31" d="M1102.99 654.65L1088.99 732.32H1045.77C1043.07 729.396 1040.54 726.317 1038.19 723.1C1036.43 720.7 1034.76 718.217 1033.19 715.65L1030.99 712C1043.24 693.595 1054.32 674.441 1064.17 654.65H1102.99Z" fill="#B9CEFF"/><path id="Vector_32" d="M1089.06 732.321L1084.29 758.851L1078.99 756.171C1066.45 750.511 1055.18 742.395 1045.84 732.301L1089.06 732.321Z" fill="#B9CEFF"/><path id="Vector_33" d="M1057.74 531.609C1070.25 531.609 1080.38 542.519 1080.38 555.999C1080.38 569.479 1070.25 580.389 1057.74 580.389C1045.23 580.389 1035.1 569.469 1035.1 555.999C1035.1 542.529 1045.24 531.609 1057.74 531.609Z" fill="#EAA28C"/><path id="Vector_34" d="M1058.19 322.471L1049.85 368.861L957.648 368.801L965.968 322.471H1058.19Z" fill="#B9CEFF"/><path id="Vector_35" d="M1049.85 368.861L1037.61 437.001L946.881 436.941L945.551 436.151L957.651 368.801L1049.85 368.861Z" fill="#B9CEFF"/><path id="Vector_36" d="M1037.61 436.999L1028.94 485.299L946.879 436.939L1037.61 436.999Z" fill="#B9CEFF"/><path id="Vector_37" d="M1023.29 581.43C1027.78 589.065 1033.83 595.671 1041.04 600.82C1033.6 619.19 1023.77 646.26 1007.19 670.45L1006.06 671.15L993.469 651.03C989.002 643.88 982.787 637.986 975.41 633.904C968.034 629.822 959.739 627.687 951.309 627.7H949.858C941.141 627.969 932.647 630.527 925.231 635.119C917.816 639.71 911.739 646.172 907.612 653.856C903.486 661.54 901.454 670.175 901.722 678.893C901.99 687.61 904.548 696.104 909.139 703.52L942.769 757.32C924.869 776.92 900.098 799.16 880.408 816.59C845.298 847.08 804.708 880.38 770.828 912.24C742.318 939.05 715.328 968.84 693.908 1001.62C682.93 999.005 671.426 999.668 660.82 1003.52C650.214 1007.38 640.972 1014.26 634.238 1023.32L442.548 910.73C446.458 900.787 447.359 889.914 445.139 879.463C442.918 869.012 437.674 859.444 430.059 851.95C451.569 818.82 478.798 788.72 507.568 761.66C564.128 708.45 628.318 663.27 680.438 605.71C722.284 559.38 755.552 505.975 778.688 447.99C781.131 448.28 783.588 448.424 786.048 448.42C795.756 448.429 805.335 446.19 814.034 441.878C822.733 437.567 830.316 431.301 836.188 423.57L937.188 482.68L980.858 508.25L1017.76 529.85C1014.97 538.346 1014.03 547.337 1014.98 556.226C1015.94 565.115 1018.77 573.7 1023.3 581.41L1023.29 581.43ZM880.408 733.15C880.441 729.39 880.261 725.63 879.868 721.89C877.473 699.403 867.876 678.291 852.508 661.7C828.118 634.98 790.328 619.38 749.698 622.92C684.028 628.64 635.848 682.24 642.078 742.63C648.308 803.02 706.578 847.32 772.248 841.63C802.728 838.98 829.438 826 848.698 806.83C868.318 787.28 880.198 761.29 880.408 733.19V733.15Z" fill="#EAA28C"/><path id="Vector_38" d="M1029.89 1062.58L1030.34 1062.86L1029.6 1064.06L1020.78 1112.96H1020.69H1020.68L916.199 1112.89L930.989 1030.55L972.489 1030.58L1006.81 1049.72L1029.89 1062.58Z" fill="#B9CEFF"/><path id="Vector_39" d="M1010.1 677.76L1023.1 698.98C1020.29 700.747 1017.12 701.877 1013.83 702.29C1010.53 702.703 1007.19 702.388 1004.03 701.37C994.338 698.14 987.268 689.91 981.168 681.71C968.73 664.959 958.217 646.862 949.828 627.76H951.278C959.709 627.747 968.003 629.882 975.38 633.964C982.756 638.046 988.972 643.94 993.438 651.09L1006.03 671.21L1010.12 677.75L1010.1 677.76Z" fill="#CE6F59"/><path id="Vector_40" d="M1020.78 1112.96L1005.94 1195.29H1005.9L901.41 1195.22L916.2 1112.89L1020.68 1112.96H1020.69H1020.78Z" fill="#B9CEFF"/><path id="Vector_41" d="M1005.94 1195.29L996.119 1249.75H891.609L901.409 1195.22L1005.9 1195.29H1005.94Z" fill="#B9CEFF"/><path id="Vector_42" d="M972.488 1030.58L930.988 1030.55L934.668 1010.08L972.488 1030.58Z" fill="#B9CEFF"/><path id="Vector_43" d="M965.989 322.43L957.659 368.77H911.109L913.64 354.54C918.21 328.81 926.069 323.4 951.899 322.47L965.989 322.43Z" fill="#B9CEFF"/><path id="Vector_44" d="M957.649 368.8L945.549 436.15L903.539 411.39L911.099 368.77L957.639 368.8H957.649Z" fill="#B9CEFF"/><path id="Vector_45" d="M934.661 1010.08L930.991 1030.55L838.801 1030.49L847.461 982.239C852.954 981.846 858.424 981.249 863.871 980.449C872.052 979.213 880.414 980.673 887.691 984.61L934.661 1010.08Z" fill="#B9CEFF"/><path id="Vector_46" d="M930.99 1030.55L916.2 1112.89L824 1112.83L838.79 1030.49L930.99 1030.55Z" fill="#B9CEFF"/><path id="Vector_47" d="M916.199 1112.89L901.409 1195.22H901.399L809.199 1195.16L823.999 1112.83L916.199 1112.89Z" fill="#B9CEFF"/><path id="Vector_48" d="M901.408 1195.21L891.608 1249.75H801.248H799.398L809.198 1195.18L901.398 1195.23L901.408 1195.21Z" fill="#B9CEFF"/><path id="Vector_49" d="M715.571 686.219L700.76 703.889L698.76 706.249C687.47 719.619 688.76 738.039 701.76 747.669C707.014 751.495 713.363 753.522 719.861 753.449C725.035 753.417 730.141 752.271 734.833 750.09C739.524 747.909 743.691 744.744 747.05 740.809L749.05 738.479L798.941 774.189L811.941 758.929C812.611 758.159 813.22 757.369 813.8 756.559C817.749 751.19 819.908 744.714 819.971 738.049C820.006 733.724 819.004 729.454 817.05 725.595C815.097 721.736 812.247 718.401 808.741 715.869C795.741 706.379 776.261 708.799 764.111 720.999L715.571 686.219ZM879.871 721.929C880.264 725.669 880.444 729.428 880.411 733.189C880.201 761.289 868.321 787.279 848.701 806.829C829.441 825.999 802.701 838.979 772.251 841.629C706.581 847.359 648.311 803.049 642.081 742.629C635.851 682.209 684.081 628.629 749.701 622.919C790.331 619.379 828.12 634.979 852.51 661.699C867.886 678.301 877.484 699.428 879.871 721.929V721.929Z" fill="#FFC964"/><path id="Vector_50" d="M847.45 982.24L838.79 1030.49H793.891L802.7 980.93C817.535 982.869 832.527 983.308 847.45 982.24Z" fill="#B9CEFF"/><path id="Vector_51" d="M838.788 1030.49L823.998 1112.83H823.988L779.238 1112.8L793.878 1030.47L838.788 1030.49Z" fill="#B9CEFF"/><path id="Vector_52" d="M824 1112.83L809.2 1195.16L764.59 1195.14L779.24 1112.8L823.99 1112.83H824Z" fill="#B9CEFF"/><path id="Vector_53" d="M819.989 738.051C819.926 744.715 817.768 751.191 813.819 756.56L764.129 721C776.279 708.8 795.739 706.38 808.759 715.87C812.265 718.402 815.115 721.737 817.068 725.596C819.022 729.455 820.024 733.726 819.989 738.051V738.051Z" fill="#FFC964"/><path id="Vector_54" d="M764.15 721L813.84 756.56C813.26 757.37 812.65 758.16 811.98 758.93L798.98 774.19L749.09 738.48L762.2 723.1C762.834 722.367 763.484 721.667 764.15 721Z" fill="#FFC964"/><path id="Vector_55" d="M793.909 374.85C806.449 374.85 816.619 385.78 816.619 399.24C816.619 412.7 806.449 423.63 793.909 423.63C781.369 423.63 771.199 412.71 771.199 399.24C771.199 385.77 781.359 374.85 793.909 374.85Z" fill="#EAA28C"/><path id="Vector_56" d="M809.199 1195.16L799.399 1249.73C762.399 1249.34 757.179 1236.82 762.989 1204.09L764.579 1195.09H809.189L809.199 1195.16Z" fill="#B9CEFF"/><path id="Vector_57" d="M715.571 686.221L764.151 721C763.485 721.667 762.818 722.367 762.151 723.101L749.041 738.48L700.711 703.891L715.571 686.221Z" fill="#FFC964"/><path id="Vector_58" d="M749.091 738.48L747.091 740.811C743.732 744.745 739.565 747.911 734.873 750.092C730.182 752.273 725.076 753.418 719.902 753.451C713.403 753.524 707.055 751.497 701.801 747.671C688.801 738.041 687.481 719.62 698.801 706.25L700.801 703.891L749.091 738.48Z" fill="#FFC964"/><path id="Vector_59" d="M673.611 1023.43C687.071 1024.12 697.451 1034.84 696.801 1047.36C696.151 1059.88 684.741 1069.48 671.281 1068.79C657.821 1068.1 647.451 1057.39 648.091 1044.86C648.731 1032.33 660.161 1022.72 673.611 1023.43Z" fill="#EAA28C"/><path id="Vector_60" d="M635.218 500.151L685.938 532.781C673.559 550.471 660.082 567.367 645.587 583.371C639.907 589.651 634.068 595.781 628.128 601.801L627.198 600.881L614.068 592.121L587.138 573.561C567.248 560.271 563.028 534.311 575.468 513.791C576.811 511.584 578.339 509.497 580.038 507.551C586.78 499.845 596.09 494.847 606.238 493.487C616.386 492.126 626.684 494.494 635.218 500.151V500.151Z" fill="#A84E2B"/><path id="Vector_61" d="M553.578 646.08L553.208 645.82L545.638 640.51C544.638 639.82 543.638 639.18 542.638 638.58L537.638 635.15C535.956 633.994 534.352 632.728 532.838 631.36C517.888 617.83 513.728 595.99 523.778 579.57C535.098 561.03 560.208 556.37 579.718 569.17L614.108 592.17L627.238 600.93L628.168 601.85C609.168 621.02 589.008 638.97 568.458 656.55L553.578 646.08Z" fill="#A84E2B"/><path id="Vector_62" d="M553.578 646.079L568.418 656.499C547.898 674.059 526.988 691.259 506.548 708.949L506.159 708.499L501.229 704.889C499.959 703.949 498.738 702.959 497.588 701.889C497.358 701.689 497.119 701.469 496.899 701.249C482.109 687.249 478.548 665.149 489.258 648.989C500.618 631.849 523.948 627.539 542.628 638.559L553.578 646.079Z" fill="#A84E2B"/><path id="Vector_63" d="M453.829 720.771C464.919 704.041 487.409 699.521 505.829 709.561C494.599 719.271 483.519 729.151 472.709 739.321C465.629 745.987 458.666 752.824 451.82 759.831C445.8 747.251 446.079 732.431 453.829 720.771Z" fill="#A84E2B"/><path id="Vector_64" d="M407.351 867.33C419.891 867.33 430.061 878.26 430.061 891.72C430.061 905.18 419.891 916.11 407.351 916.11C394.811 916.11 384.641 905.19 384.641 891.72C384.641 878.25 394.811 867.33 407.351 867.33Z" fill="#EAA28C"/><path id="Vector_65" d="M972.479 1032.64C972.129 1032.65 971.784 1032.56 971.479 1032.39L886.679 986.39C879.787 982.69 871.886 981.311 864.149 982.46C858.699 983.26 853.148 983.87 847.578 984.27C832.511 985.341 817.375 984.889 802.399 982.92C802.13 982.885 801.871 982.796 801.637 982.661C801.402 982.525 801.196 982.345 801.031 982.13C800.866 981.915 800.746 981.669 800.676 981.408C800.606 981.146 800.588 980.873 800.623 980.605C800.659 980.336 800.746 980.077 800.882 979.843C801.017 979.608 801.198 979.403 801.413 979.238C801.628 979.073 801.873 978.952 802.135 978.882C802.397 978.812 802.67 978.794 802.939 978.83C817.64 980.759 832.498 981.201 847.288 980.15C852.728 979.76 858.198 979.15 863.538 978.38C872.161 977.097 880.969 978.633 888.649 982.76L973.448 1028.76C973.852 1028.98 974.17 1029.33 974.354 1029.75C974.537 1030.17 974.574 1030.64 974.459 1031.09C974.344 1031.53 974.084 1031.92 973.72 1032.2C973.355 1032.48 972.908 1032.63 972.448 1032.63L972.479 1032.64Z" fill="#002127"/><path id="Vector_66" d="M1203.73 1171.87C1203.35 1171.87 1202.97 1171.76 1202.65 1171.56L1028.79 1064.33L971.481 1032.43C971.02 1032.16 970.684 1031.71 970.544 1031.2C970.404 1030.68 970.471 1030.13 970.732 1029.66C970.992 1029.19 971.424 1028.84 971.938 1028.69C972.451 1028.53 973.005 1028.58 973.481 1028.83L1031.41 1061.16L1204.79 1168.1C1205.17 1168.33 1205.47 1168.69 1205.64 1169.11C1205.8 1169.53 1205.82 1169.99 1205.7 1170.42C1205.58 1170.85 1205.32 1171.24 1204.96 1171.51C1204.6 1171.78 1204.16 1171.92 1203.71 1171.92L1203.73 1171.87Z" fill="#002127"/><path id="Vector_67" d="M1190.18 814.56C1189.86 814.56 1189.54 814.485 1189.25 814.341L1078.06 758.02C1061.55 750.561 1047.25 738.937 1036.59 724.29C1034.82 721.87 1033.12 719.29 1031.54 716.7L1029.33 713.04C1029.09 712.573 1029.03 712.032 1029.18 711.526C1029.32 711.02 1029.65 710.587 1030.1 710.316C1030.55 710.045 1031.09 709.955 1031.6 710.066C1032.12 710.176 1032.57 710.478 1032.87 710.91L1035.07 714.57C1036.59 717.08 1038.22 719.571 1039.92 721.861C1042.22 724.999 1044.7 728.004 1047.35 730.861C1056.49 740.768 1067.54 748.727 1079.84 754.26L1085.22 756.98L1191.11 810.62C1191.52 810.832 1191.85 811.176 1192.04 811.596C1192.23 812.016 1192.28 812.49 1192.17 812.94C1192.07 813.39 1191.81 813.791 1191.45 814.079C1191.09 814.368 1190.64 814.526 1190.18 814.53V814.56Z" fill="#002127"/><path id="Vector_68" d="M779.429 978.631C779.264 978.631 779.099 978.611 778.939 978.571C775.069 977.631 771.149 976.571 767.269 975.391C767.009 975.312 766.768 975.183 766.559 975.011C766.349 974.839 766.176 974.627 766.048 974.388C765.92 974.149 765.841 973.887 765.815 973.617C765.788 973.348 765.815 973.075 765.894 972.816C765.972 972.556 766.102 972.315 766.274 972.106C766.446 971.896 766.657 971.723 766.897 971.595C767.136 971.467 767.397 971.388 767.667 971.361C767.937 971.335 768.21 971.362 768.469 971.441C772.269 972.591 776.118 973.641 779.908 974.561C780.406 974.672 780.844 974.964 781.139 975.38C781.434 975.796 781.564 976.306 781.504 976.812C781.444 977.318 781.199 977.784 780.816 978.12C780.432 978.456 779.938 978.638 779.429 978.631V978.631Z" fill="#002127"/><path id="Vector_69" d="M1253.85 1286.54H1172.68C1172.16 1286.5 1171.67 1286.27 1171.31 1285.89C1170.95 1285.5 1170.75 1285 1170.75 1284.47C1170.75 1283.95 1170.95 1283.45 1171.31 1283.06C1171.67 1282.68 1172.16 1282.45 1172.68 1282.41H1253.85C1263.35 1282.42 1272.54 1279.08 1279.82 1272.97C1287.1 1266.87 1291.99 1258.4 1293.64 1249.05L1371.18 812.319C1371.21 812.039 1371.3 811.769 1371.44 811.525C1371.59 811.281 1371.77 811.069 1372 810.901C1372.23 810.733 1372.49 810.612 1372.76 810.548C1373.03 810.483 1373.32 810.475 1373.6 810.524C1373.87 810.573 1374.14 810.678 1374.37 810.833C1374.61 810.988 1374.81 811.19 1374.97 811.425C1375.12 811.661 1375.23 811.925 1375.27 812.202C1375.32 812.48 1375.31 812.765 1375.25 813.039L1297.71 1249.77C1295.89 1260.08 1290.5 1269.42 1282.48 1276.14C1274.45 1282.87 1264.32 1286.55 1253.85 1286.54V1286.54Z" fill="#002127"/><path id="Vector_70" d="M1373.21 814.739C1373.09 814.749 1372.97 814.749 1372.85 814.739C1372.58 814.692 1372.33 814.593 1372.1 814.447C1371.87 814.302 1371.67 814.113 1371.52 813.891C1371.36 813.669 1371.25 813.418 1371.2 813.154C1371.14 812.889 1371.13 812.616 1371.18 812.349L1454.76 341.639C1455.79 335.824 1455.54 329.853 1454.01 324.146C1452.49 318.44 1449.73 313.137 1445.94 308.61C1442.14 304.083 1437.4 300.443 1432.05 297.944C1426.7 295.446 1420.87 294.151 1414.96 294.149H1333.79C1333.24 294.149 1332.72 293.932 1332.33 293.546C1331.95 293.16 1331.73 292.636 1331.73 292.089C1331.73 291.543 1331.95 291.019 1332.33 290.632C1332.72 290.246 1333.24 290.029 1333.79 290.029H1414.99C1421.5 290.027 1427.93 291.451 1433.83 294.203C1439.73 296.954 1444.96 300.966 1449.14 305.955C1453.32 310.944 1456.35 316.789 1458.03 323.079C1459.71 329.369 1459.99 335.95 1458.85 342.359L1375.28 813.069C1375.19 813.547 1374.93 813.975 1374.55 814.281C1374.17 814.586 1373.7 814.748 1373.21 814.739Z" fill="#002127"/><path id="Vector_71" d="M1118.18 1057.43C1116.55 1057.43 1114.93 1057.28 1113.33 1056.98C1106.62 1055.7 1100.7 1051.81 1096.86 1046.17C1093.01 1040.53 1091.56 1033.59 1092.83 1026.88V1026.88C1093.74 1022.08 1096 1017.64 1099.34 1014.07C1102.68 1010.51 1106.96 1007.97 1111.69 1006.75C1116.42 1005.53 1121.4 1005.68 1126.05 1007.18C1130.7 1008.68 1134.82 1011.48 1137.94 1015.24C1141.06 1019 1143.05 1023.57 1143.67 1028.41C1144.29 1033.26 1143.52 1038.18 1141.45 1042.6C1139.37 1047.03 1136.09 1050.77 1131.97 1053.4C1127.85 1056.02 1123.07 1057.42 1118.18 1057.43V1057.43ZM1096.88 1027.65C1096.22 1031.15 1096.42 1034.75 1097.49 1038.15C1098.55 1041.54 1100.43 1044.62 1102.97 1047.12C1105.51 1049.61 1108.62 1051.44 1112.04 1052.44C1115.45 1053.44 1119.06 1053.59 1122.54 1052.86C1126.02 1052.14 1129.27 1050.56 1132 1048.28C1134.73 1046 1136.86 1043.08 1138.19 1039.78C1139.52 1036.48 1140.02 1032.9 1139.63 1029.36C1139.25 1025.83 1138 1022.44 1136 1019.5C1134.41 1017.15 1132.37 1015.13 1129.99 1013.58C1127.61 1012.02 1124.95 1010.95 1122.16 1010.43C1116.52 1009.37 1110.7 1010.59 1105.96 1013.82C1101.22 1017.05 1097.95 1022.03 1096.88 1027.66V1027.65Z" fill="#002127"/><path id="Vector_72" d="M618.66 597.341C618.242 597.346 617.832 597.22 617.49 596.981L585.99 575.261C565.64 561.661 560.36 534.771 573.73 512.721C575.13 510.409 576.729 508.224 578.509 506.191C585.563 498.083 595.329 492.823 605.98 491.393C616.631 489.963 627.437 492.462 636.379 498.421L687.03 531.021C687.494 531.311 687.824 531.774 687.947 532.308C688.07 532.841 687.975 533.402 687.685 533.866C687.541 534.096 687.353 534.295 687.132 534.452C686.911 534.61 686.662 534.722 686.398 534.782C685.864 534.905 685.303 534.811 684.839 534.521L634.129 501.881C626.019 496.468 616.216 494.193 606.55 495.481C596.885 496.769 588.019 501.533 581.61 508.881C579.992 510.756 578.533 512.763 577.249 514.881C565.059 535.001 569.81 559.501 588.31 571.881L619.85 593.621C620.214 593.87 620.488 594.229 620.632 594.645C620.777 595.061 620.784 595.512 620.653 595.933C620.522 596.353 620.26 596.721 619.905 596.982C619.549 597.242 619.121 597.382 618.68 597.381L618.66 597.341Z" fill="#002127"/><path id="Vector_73" d="M542.588 640.619C542.169 640.618 541.761 640.489 541.418 640.249L536.418 636.829C534.666 635.605 532.996 634.269 531.418 632.829C515.488 618.409 511.518 595.539 521.978 578.429C524.707 573.974 528.31 570.118 532.571 567.095C536.832 564.072 541.662 561.944 546.768 560.84C552.586 559.615 558.59 559.563 564.428 560.688C570.267 561.812 575.822 564.091 580.768 567.389L628.298 599.139C628.752 599.443 629.069 599.915 629.176 600.451C629.282 600.988 629.172 601.544 628.868 601.999C628.564 602.454 628.093 602.77 627.556 602.877C627.02 602.984 626.462 602.873 626.008 602.569L578.488 570.829C574.002 567.822 568.96 565.743 563.659 564.713C558.358 563.682 552.904 563.722 547.618 564.829C543.054 565.813 538.736 567.712 534.927 570.412C531.118 573.113 527.897 576.558 525.458 580.539C516.028 595.959 519.678 616.639 534.138 629.729C535.59 631.033 537.123 632.242 538.728 633.349L543.728 636.779C544.09 637.03 544.361 637.39 544.505 637.806C544.648 638.222 544.655 638.673 544.524 639.093C544.394 639.513 544.133 639.881 543.779 640.143C543.426 640.405 542.998 640.547 542.558 640.549L542.588 640.619Z" fill="#002127"/><path id="Vector_74" d="M555.05 649.16C554.633 649.158 554.226 649.032 553.88 648.8L541.471 640.28C541.046 639.959 540.761 639.486 540.675 638.961C540.59 638.435 540.711 637.896 541.012 637.457C541.313 637.018 541.772 636.712 542.293 636.603C542.815 636.493 543.358 636.589 543.811 636.87L556.221 645.39C556.582 645.641 556.854 646.001 556.997 646.417C557.141 646.833 557.147 647.283 557.017 647.703C556.887 648.124 556.625 648.491 556.272 648.753C555.918 649.015 555.49 649.158 555.05 649.16V649.16Z" fill="#002127"/><path id="Vector_75" d="M506.151 710.56C505.659 710.557 505.185 710.38 504.811 710.06L500.001 706.53C498.683 705.564 497.415 704.533 496.201 703.44L495.521 702.81L495.441 702.74C479.641 687.83 476.301 664.74 487.501 647.84C499.301 630.04 523.921 625.17 543.581 636.74L543.791 636.86C544.791 637.43 545.791 638.11 546.791 638.86L569.581 654.86C570.029 655.174 570.334 655.653 570.428 656.193C570.523 656.732 570.4 657.287 570.086 657.735C569.771 658.183 569.292 658.488 568.753 658.583C568.213 658.677 567.659 658.554 567.211 658.24L544.42 642.24C543.51 641.6 542.571 640.99 541.621 640.43L541.51 640.37C523.73 629.88 501.511 634.18 490.911 650.16C480.831 665.36 483.911 686.16 498.191 699.73L498.3 699.82C498.5 700.02 498.71 700.22 498.92 700.4C500.04 701.4 501.211 702.4 502.411 703.25L507.34 706.86C507.608 707.051 507.825 707.305 507.971 707.6C508.13 707.915 508.205 708.266 508.19 708.619C508.175 708.972 508.069 709.316 507.883 709.616C507.698 709.917 507.439 710.165 507.13 710.338C506.822 710.51 506.474 710.6 506.121 710.6L506.151 710.56Z" fill="#002127"/><path id="Vector_76" d="M451.829 761.901C451.439 761.899 451.058 761.788 450.729 761.579C450.4 761.37 450.137 761.073 449.97 760.721C443.37 746.961 444.169 731.591 452.109 719.621C463.669 702.171 487.199 697.061 506.829 707.741C507.067 707.872 507.277 708.049 507.447 708.262C507.617 708.474 507.744 708.718 507.819 708.98C507.895 709.241 507.919 709.515 507.889 709.785C507.858 710.056 507.776 710.317 507.644 710.556C507.513 710.794 507.335 711.005 507.123 711.174C506.91 711.344 506.667 711.471 506.405 711.547C506.144 711.622 505.87 711.646 505.599 711.615C505.329 711.585 505.067 711.502 504.829 711.371C487.089 701.721 465.889 706.251 455.519 721.911C448.389 732.651 447.699 746.501 453.659 758.911C453.777 759.157 453.844 759.423 453.857 759.695C453.871 759.968 453.829 760.24 453.736 760.496C453.643 760.752 453.5 760.987 453.315 761.187C453.13 761.387 452.907 761.548 452.659 761.661C452.403 761.8 452.12 761.882 451.829 761.901V761.901Z" fill="#002127"/><path id="Vector_77" d="M1261.89 850.43C1261.57 850.432 1261.25 850.356 1260.97 850.21L1189.26 814.33C1189.02 814.209 1188.8 814.042 1188.62 813.838C1188.44 813.634 1188.31 813.396 1188.22 813.139C1188.14 812.883 1188.1 812.612 1188.12 812.341C1188.14 812.071 1188.21 811.807 1188.33 811.565C1188.45 811.323 1188.62 811.107 1188.83 810.929C1189.03 810.752 1189.27 810.616 1189.52 810.53C1189.78 810.444 1190.05 810.41 1190.32 810.429C1190.59 810.448 1190.86 810.52 1191.1 810.64L1262.81 846.52C1263.23 846.725 1263.56 847.067 1263.76 847.489C1263.96 847.911 1264.01 848.388 1263.91 848.842C1263.8 849.297 1263.54 849.701 1263.18 849.989C1262.81 850.278 1262.36 850.434 1261.89 850.43Z" fill="#002127"/><path id="Vector_78" d="M1172.68 1286.54H775.441C768.933 1286.54 762.504 1285.11 756.607 1282.35C750.711 1279.6 745.489 1275.59 741.309 1270.6C737.13 1265.61 734.094 1259.76 732.415 1253.48C730.736 1247.19 730.454 1240.61 731.591 1234.2L777.391 976.2C777.441 975.923 777.546 975.658 777.702 975.422C777.857 975.187 778.059 974.986 778.295 974.832C778.531 974.677 778.796 974.572 779.074 974.524C779.352 974.476 779.637 974.485 779.911 974.55C787.496 976.391 795.173 977.826 802.911 978.85C803.188 978.885 803.454 978.976 803.695 979.117C803.936 979.258 804.146 979.446 804.311 979.67C804.476 979.896 804.592 980.151 804.656 980.422C804.72 980.694 804.729 980.975 804.681 981.25L764.991 1204.43C761.741 1222.74 762.461 1232.67 767.471 1238.71C772.481 1244.75 782.291 1247.47 799.391 1247.65H1158.39C1184.66 1247.65 1189.39 1247.65 1193.5 1224.48C1193.87 1222.33 1194.23 1220.01 1194.6 1217.36L1345.24 367.73C1348.63 348.63 1347.93 337.48 1342.98 331.57C1337.45 324.97 1326.46 324.5 1308.98 324.5H951.881C926.371 325.42 919.881 330.81 915.651 354.86L905.571 411.71C905.514 412.039 905.378 412.349 905.175 412.613C904.971 412.878 904.707 413.089 904.404 413.229C904.101 413.369 903.769 413.433 903.435 413.416C903.102 413.398 902.778 413.301 902.491 413.13L880.991 400.48C880.625 400.269 880.333 399.951 880.154 399.568C879.975 399.185 879.918 398.757 879.991 398.34L892.711 326.75C894.527 316.444 899.921 307.109 907.941 300.387C915.962 293.665 926.096 289.987 936.561 290H1333.79C1340.3 289.999 1346.73 291.425 1352.63 294.177C1358.53 296.929 1363.75 300.941 1367.93 305.93C1372.11 310.918 1375.15 316.763 1376.83 323.052C1378.51 329.341 1378.79 335.921 1377.65 342.33L1216.53 1249.77C1214.71 1260.08 1209.32 1269.42 1201.3 1276.14C1193.28 1282.87 1183.15 1286.55 1172.68 1286.54V1286.54ZM781.081 979.08L735.661 1234.92C734.63 1240.73 734.885 1246.7 736.408 1252.41C737.931 1258.11 740.685 1263.42 744.476 1267.94C748.268 1272.47 753.005 1276.11 758.354 1278.61C763.704 1281.11 769.536 1282.41 775.441 1282.41H1172.68C1182.18 1282.42 1191.37 1279.08 1198.65 1272.98C1205.92 1266.87 1210.81 1258.4 1212.46 1249.05L1373.58 341.61C1374.62 335.795 1374.36 329.823 1372.84 324.116C1371.32 318.409 1368.56 313.105 1364.77 308.578C1360.98 304.05 1356.24 300.41 1350.89 297.912C1345.53 295.414 1339.7 294.119 1333.79 294.12H936.561C927.065 294.11 917.869 297.449 910.592 303.548C903.314 309.648 898.421 318.119 896.771 327.47L884.311 397.65L902.021 408.09L911.581 354.17C916.231 328.03 924.121 321.4 951.811 320.4H1309.07C1327.71 320.4 1339.51 320.97 1346.19 328.95C1352 335.88 1352.98 348.07 1349.36 368.48L1349.19 369.48L1198.73 1218.07C1198.37 1220.69 1197.99 1223.07 1197.61 1225.25C1192.91 1251.84 1184.22 1251.84 1158.44 1251.84H799.381C780.951 1251.64 770.141 1248.43 764.321 1241.4C758.501 1234.37 757.471 1223.4 760.961 1203.77L800.291 982.7C793.831 981.75 787.391 980.55 781.081 979.08Z" fill="#002127"/><path id="Vector_79" d="M1390.64 483.881H1390.29C1389.75 483.786 1389.27 483.481 1388.95 483.033C1388.64 482.585 1388.52 482.03 1388.61 481.491L1405.61 383.811C1405.64 383.529 1405.73 383.257 1405.87 383.011C1406.01 382.765 1406.2 382.551 1406.42 382.38C1406.65 382.21 1406.91 382.088 1407.18 382.022C1407.46 381.956 1407.74 381.947 1408.02 381.996C1408.3 382.044 1408.57 382.15 1408.8 382.305C1409.04 382.461 1409.24 382.663 1409.4 382.9C1409.55 383.136 1409.66 383.402 1409.71 383.681C1409.75 383.96 1409.74 384.246 1409.68 384.521L1392.68 482.201C1392.59 482.674 1392.33 483.1 1391.96 483.406C1391.59 483.713 1391.12 483.881 1390.64 483.881V483.881Z" fill="#002127"/><path id="Vector_80" d="M1367.57 615.43C1367.45 615.44 1367.33 615.44 1367.21 615.43C1366.67 615.332 1366.19 615.026 1365.88 614.579C1365.56 614.132 1365.44 613.579 1365.53 613.04L1382.53 515.36C1382.65 514.849 1382.97 514.403 1383.41 514.115C1383.85 513.826 1384.38 513.716 1384.9 513.806C1385.41 513.897 1385.88 514.181 1386.2 514.602C1386.51 515.022 1386.66 515.547 1386.6 516.07L1369.6 613.75C1369.51 614.222 1369.26 614.648 1368.89 614.955C1368.51 615.261 1368.05 615.429 1367.57 615.43V615.43Z" fill="#002127"/><path id="Vector_81" d="M865.729 882.531C865.305 882.532 864.891 882.403 864.543 882.161C864.195 881.919 863.931 881.576 863.785 881.178C863.64 880.78 863.621 880.347 863.73 879.938C863.84 879.528 864.073 879.163 864.398 878.891L877.889 867.531C883.102 863.151 888.312 858.761 893.519 854.361C907.519 842.561 918.019 833.451 927.679 824.831C929.739 823.011 931.778 821.181 933.818 819.321L936.958 816.48L937.378 816.091C938.898 814.711 940.408 813.321 941.908 811.921L943.238 810.69L943.679 810.281L946.448 807.681C948.098 806.141 949.748 804.581 951.378 803.011L951.748 802.661C952.068 802.351 952.388 802.05 952.698 801.73L955.508 799.031C957.594 797.031 959.672 794.991 961.738 792.911L962.938 791.71L963.368 791.281C963.56 791.09 963.788 790.938 964.038 790.835C964.288 790.732 964.556 790.679 964.827 790.68C965.098 790.68 965.365 790.734 965.615 790.838C965.865 790.942 966.092 791.094 966.283 791.286C966.474 791.477 966.625 791.705 966.729 791.955C966.832 792.205 966.885 792.473 966.885 792.744C966.884 793.015 966.831 793.283 966.727 793.533C966.623 793.783 966.47 794.01 966.278 794.201L964.648 795.841C962.588 797.887 960.515 799.924 958.429 801.951L958.338 802.051L955.559 804.73L954.559 805.671L954.198 806.011C952.558 807.601 950.898 809.171 949.198 810.721C948.265 811.601 947.335 812.471 946.408 813.331L945.979 813.741L944.628 814.98C943.128 816.38 941.611 817.778 940.078 819.171L939.658 819.561C938.658 820.561 937.558 821.481 936.498 822.421C934.498 824.271 932.409 826.121 930.349 827.951C920.659 836.591 910.098 845.721 896.108 857.541C890.895 861.947 885.678 866.341 880.458 870.721L866.979 882.081C866.623 882.364 866.183 882.522 865.729 882.531Z" fill="#002127"/><path id="Vector_82" d="M634.239 1025.43C633.888 1025.42 633.544 1025.33 633.239 1025.15L441.56 912.561C441.136 912.313 440.814 911.922 440.652 911.458C440.491 910.994 440.501 910.488 440.68 910.031C444.447 900.467 445.316 890.006 443.183 879.951C441.049 869.896 436.006 860.691 428.68 853.481C428.339 853.147 428.125 852.705 428.074 852.231C428.023 851.757 428.138 851.28 428.4 850.881C448 820.681 473.46 791.021 506.22 760.211C528.36 739.391 552.02 719.491 574.9 700.211C610.5 670.271 647.31 639.311 678.98 604.341C720.714 558.23 753.856 505.021 776.839 447.231C777.008 446.809 777.312 446.455 777.702 446.224C778.093 445.992 778.548 445.896 778.999 445.951C781.363 446.225 783.74 446.362 786.119 446.361C795.511 446.397 804.783 444.247 813.2 440.081C821.618 435.916 828.951 429.849 834.619 422.361C834.927 421.962 835.37 421.688 835.864 421.59C836.359 421.493 836.873 421.578 837.31 421.831L1018.86 528.101C1019.27 528.341 1019.58 528.713 1019.75 529.155C1019.91 529.596 1019.92 530.082 1019.78 530.531C1017.77 536.664 1016.76 543.078 1016.78 549.531C1016.78 552.945 1017.06 556.354 1017.63 559.721C1018.85 567.019 1021.4 574.03 1025.17 580.401C1029.53 587.78 1035.37 594.169 1042.34 599.161C1042.72 599.43 1042.99 599.817 1043.12 600.261C1043.25 600.706 1043.23 601.181 1043.06 601.611C1042.17 603.804 1041.25 606.111 1040.29 608.531C1033.29 626.091 1023.73 650.151 1008.99 671.641C1008.68 672.092 1008.21 672.401 1007.67 672.502C1007.13 672.602 1006.58 672.485 1006.12 672.176C1005.67 671.867 1005.36 671.392 1005.26 670.854C1005.16 670.317 1005.28 669.762 1005.59 669.311C1020.06 648.191 1029.53 624.391 1036.45 607.001L1038.63 601.551C1031.77 596.372 1025.99 589.896 1021.63 582.491C1017.61 575.687 1014.89 568.202 1013.58 560.411C1012.98 556.816 1012.67 553.177 1012.67 549.531C1012.66 543.2 1013.58 536.903 1015.41 530.841L836.819 426.301C830.744 433.89 823.034 440.009 814.264 444.203C805.494 448.397 795.89 450.556 786.169 450.521C784.169 450.521 782.109 450.431 780.169 450.241C757.033 507.934 723.834 561.058 682.119 607.141C650.259 642.321 613.34 673.371 577.64 703.391C554.8 722.601 531.179 742.461 509.129 763.201C477.129 793.321 452.13 822.291 432.85 851.731C440.11 859.315 445.116 868.772 447.306 879.04C449.496 889.309 448.783 899.984 445.249 909.871L633.86 1020.65C640.772 1011.93 649.982 1005.31 660.452 1001.55C670.923 997.781 682.236 997.013 693.119 999.331C712.539 969.851 737.559 940.871 769.569 910.771C793.199 888.551 820.089 865.631 846.089 843.471C857.639 833.621 868.559 824.321 879.199 815.071C879.401 814.874 879.641 814.719 879.904 814.618C880.168 814.517 880.45 814.47 880.732 814.482C881.014 814.493 881.29 814.562 881.544 814.684C881.798 814.807 882.025 814.98 882.21 815.193C882.395 815.406 882.535 815.654 882.62 815.923C882.706 816.192 882.735 816.476 882.707 816.757C882.679 817.037 882.593 817.31 882.456 817.556C882.319 817.803 882.133 818.019 881.909 818.191C871.249 827.451 860.33 836.761 848.77 846.611C822.77 868.741 795.96 891.611 772.4 913.781C740.19 944.061 715.139 973.181 695.789 1002.78C695.558 1003.14 695.221 1003.42 694.825 1003.57C694.429 1003.73 693.993 1003.76 693.579 1003.66C682.995 1001.13 671.902 1001.77 661.675 1005.49C651.448 1009.21 642.537 1015.84 636.049 1024.58C635.843 1024.86 635.569 1025.09 635.253 1025.24C634.937 1025.39 634.588 1025.45 634.239 1025.43Z" fill="#002127"/><path id="Vector_83" d="M1031.1 714.039C1030.75 714.033 1030.41 713.939 1030.1 713.764C1029.8 713.589 1029.55 713.339 1029.37 713.039L1008.37 678.82C1008.23 678.589 1008.13 678.333 1008.09 678.066C1008.05 677.799 1008.06 677.525 1008.12 677.262C1008.18 676.999 1008.3 676.751 1008.45 676.532C1008.61 676.312 1008.81 676.127 1009.04 675.985C1009.27 675.843 1009.53 675.748 1009.8 675.705C1010.06 675.662 1010.34 675.672 1010.6 675.735C1010.86 675.797 1011.11 675.912 1011.33 676.07C1011.55 676.229 1011.74 676.429 1011.88 676.66L1031.19 708.12C1057.12 668.622 1077.62 625.819 1092.14 580.86C1097.27 564.94 1101.66 548.71 1105.14 532.61L1066.99 510.14C1066.75 510.005 1066.54 509.824 1066.38 509.607C1066.21 509.391 1066.09 509.144 1066.02 508.88C1065.95 508.616 1065.93 508.341 1065.97 508.07C1066 507.8 1066.09 507.539 1066.23 507.304C1066.37 507.068 1066.55 506.863 1066.77 506.7C1066.99 506.536 1067.24 506.417 1067.51 506.351C1067.77 506.285 1068.05 506.271 1068.32 506.312C1068.59 506.353 1068.84 506.448 1069.08 506.59L1108.5 529.829C1108.88 530.037 1109.19 530.366 1109.37 530.766C1109.55 531.165 1109.6 531.612 1109.5 532.039C1105.9 548.759 1101.37 565.62 1096.04 582.15C1081.07 628.512 1059.8 672.593 1032.81 713.15C1032.62 713.427 1032.36 713.653 1032.06 713.808C1031.77 713.963 1031.43 714.043 1031.1 714.039V714.039Z" fill="#002127"/><path id="Vector_84" d="M1068.07 510.431C1067.72 510.424 1067.37 510.324 1067.07 510.141L902.538 413.141C902.066 412.864 901.724 412.41 901.586 411.881C901.448 411.351 901.527 410.788 901.804 410.316C902.081 409.844 902.534 409.501 903.064 409.363C903.593 409.226 904.156 409.304 904.628 409.581L1069.17 506.581C1069.56 506.807 1069.86 507.154 1070.03 507.57C1070.21 507.985 1070.24 508.445 1070.13 508.881C1070.01 509.316 1069.76 509.702 1069.41 509.98C1069.05 510.258 1068.62 510.413 1068.17 510.421L1068.07 510.431Z" fill="#002127"/><path id="Vector_85" d="M693.109 1113.77C692.74 1113.78 692.377 1113.68 692.06 1113.49L355.989 915.431C355.594 915.209 355.282 914.865 355.102 914.449C354.921 914.034 354.881 913.571 354.989 913.131C368.559 861.061 399.699 810.48 450.189 758.52L450.279 758.421C456.919 751.601 463.969 744.671 471.229 737.841C481.079 728.581 491.939 718.841 504.419 708.031C504.649 707.821 504.899 707.601 505.159 707.391C516.669 697.391 528.549 687.391 540.029 677.781C548.899 670.321 558.029 662.61 567.029 654.96C583.899 640.53 605.919 621.281 626.609 600.381C632.879 594.031 638.609 588.03 644.009 582.02C658.438 566.074 671.861 549.245 684.199 531.631C725.904 471.987 754.817 404.359 769.119 333C769.184 332.678 769.325 332.376 769.53 332.119C769.736 331.861 770 331.657 770.3 331.522C770.6 331.387 770.928 331.325 771.257 331.343C771.585 331.36 771.905 331.455 772.189 331.62L883.02 396.951C883.492 397.228 883.834 397.681 883.972 398.211C884.11 398.741 884.031 399.304 883.754 399.776C883.477 400.248 883.024 400.59 882.494 400.728C881.964 400.866 881.402 400.788 880.93 400.511L772.6 336.661C757.987 407.538 729.064 474.688 687.6 534C675.167 551.757 661.636 568.72 647.089 584.79C641.609 590.84 635.879 596.891 629.569 603.281C608.769 624.281 586.669 643.61 569.729 658.1C560.729 665.76 551.599 673.48 542.729 680.94C531.249 690.59 519.389 700.57 507.869 710.54L507.199 711.12C494.719 721.91 483.91 731.63 474.1 740.85C466.91 747.61 459.939 754.46 453.369 761.21L453.279 761.31C403.739 812.31 373.02 861.801 359.43 912.671L691.689 1108.53C697.869 1082.13 708.899 1055.53 724.479 1029.39C736.729 1009.12 750.711 989.954 766.27 972.1L766.359 972C771.029 966.57 776.1 960.94 781.43 955.27C787.67 948.62 794.429 941.73 801.569 934.81C804.149 932.31 806.779 929.811 809.399 927.341L810.279 926.511L810.549 926.261C828.419 909.511 846.979 893.611 864.359 878.921C864.781 878.591 865.314 878.438 865.847 878.493C866.379 878.548 866.869 878.807 867.215 879.216C867.56 879.625 867.734 880.151 867.699 880.685C867.665 881.22 867.425 881.72 867.029 882.08C849.679 896.73 831.179 912.59 813.369 929.27L813.1 929.52L812.249 930.33C809.619 932.8 807.009 935.33 804.449 937.77C797.369 944.65 790.639 951.49 784.449 958.1C779.119 963.76 774.069 969.38 769.449 974.79L769.35 974.901C753.982 992.545 740.171 1011.49 728.069 1031.51C712.159 1058.17 701.069 1085.31 695.129 1112.18C695.064 1112.5 694.922 1112.8 694.715 1113.05C694.507 1113.31 694.241 1113.5 693.939 1113.63C693.676 1113.74 693.393 1113.78 693.109 1113.77V1113.77Z" fill="#002127"/><path id="Vector_86" d="M1007.19 1051.1C1006.83 1051.1 1006.47 1051 1006.16 1050.82C1005.84 1050.64 1005.58 1050.38 1005.4 1050.07C1005.22 1049.75 1005.13 1049.4 1005.13 1049.03C1005.12 1048.67 1005.22 1048.31 1005.4 1048L1151.78 792.92C1151.9 792.665 1152.08 792.439 1152.29 792.254C1152.51 792.07 1152.76 791.932 1153.03 791.849C1153.3 791.765 1153.59 791.739 1153.87 791.771C1154.15 791.803 1154.43 791.892 1154.67 792.034C1154.92 792.175 1155.13 792.366 1155.3 792.594C1155.47 792.821 1155.59 793.082 1155.66 793.358C1155.72 793.634 1155.73 793.921 1155.68 794.2C1155.62 794.479 1155.52 794.744 1155.36 794.98L1008.99 1050.06C1008.81 1050.38 1008.54 1050.64 1008.23 1050.82C1007.91 1051 1007.55 1051.1 1007.19 1051.1V1051.1Z" fill="#002127"/><path id="Vector_87" d="M781.989 796.211C781.596 796.209 781.211 796.096 780.88 795.884C780.549 795.672 780.284 795.37 780.118 795.013C779.952 794.656 779.892 794.26 779.943 793.87C779.995 793.48 780.157 793.112 780.409 792.811L810.409 757.601C811.029 756.871 811.619 756.121 812.159 755.361C815.865 750.345 817.892 744.287 817.949 738.051C817.975 734.053 817.048 730.106 815.242 726.539C813.437 722.972 810.806 719.887 807.569 717.541C795.569 708.761 777.099 710.921 765.569 722.451C764.929 723.091 764.32 723.761 763.73 724.451L748.619 742.161C745.059 746.314 740.65 749.655 735.689 751.96C730.727 754.265 725.33 755.479 719.86 755.521C712.917 755.608 706.134 753.44 700.529 749.341C697.393 747.037 694.767 744.109 692.818 740.741C690.868 737.373 689.636 733.638 689.199 729.771C688.774 725.304 689.264 720.797 690.64 716.526C692.015 712.255 694.247 708.31 697.199 704.931L725.449 671.241C725.623 671.033 725.836 670.862 726.076 670.737C726.316 670.612 726.579 670.535 726.849 670.512C727.119 670.488 727.39 670.518 727.649 670.599C727.907 670.681 728.147 670.812 728.355 670.986C728.562 671.16 728.733 671.373 728.859 671.613C728.984 671.853 729.059 672.116 729.083 672.385C729.107 672.655 729.078 672.927 728.996 673.185C728.915 673.443 728.784 673.683 728.61 673.891L700.36 707.591C694.95 713.991 692.46 721.691 693.36 729.301C693.732 732.607 694.786 735.801 696.453 738.68C698.121 741.56 700.366 744.062 703.049 746.031C707.945 749.595 713.864 751.475 719.919 751.391C724.793 751.352 729.602 750.269 734.022 748.215C738.441 746.16 742.368 743.182 745.539 739.481L760.65 721.771C761.31 721.001 761.999 720.251 762.709 719.551C775.599 706.611 796.38 704.271 810.02 714.211C813.786 716.938 816.846 720.525 818.947 724.673C821.048 728.821 822.129 733.411 822.1 738.061C822.043 745.161 819.747 752.062 815.539 757.781C814.929 758.631 814.269 759.471 813.539 760.291L783.539 795.491C783.347 795.714 783.109 795.894 782.842 796.018C782.575 796.142 782.284 796.208 781.989 796.211V796.211Z" fill="#002127"/><path id="Vector_88" d="M812.35 785.83C811.921 785.83 811.501 785.697 811.15 785.45L688.9 697.94C688.679 697.782 688.492 697.583 688.348 697.353C688.205 697.123 688.108 696.867 688.063 696.599C688.019 696.332 688.027 696.058 688.089 695.794C688.15 695.53 688.262 695.28 688.42 695.06C688.577 694.839 688.777 694.652 689.007 694.508C689.238 694.365 689.493 694.268 689.76 694.223C690.028 694.179 690.302 694.188 690.566 694.249C690.83 694.31 691.079 694.422 691.299 694.58L813.56 782.09C813.918 782.344 814.185 782.705 814.323 783.121C814.461 783.537 814.463 783.987 814.328 784.404C814.193 784.821 813.929 785.185 813.573 785.441C813.217 785.698 812.789 785.834 812.35 785.83V785.83Z" fill="#002127"/><path id="Vector_89" d="M827.069 768.099C826.638 768.096 826.219 767.96 825.869 767.709L703.609 680.199C703.165 679.88 702.865 679.397 702.777 678.857C702.689 678.316 702.82 677.764 703.139 677.319C703.459 676.875 703.941 676.576 704.481 676.488C705.021 676.4 705.575 676.53 706.019 676.849L828.269 764.349C828.624 764.605 828.888 764.966 829.025 765.381C829.162 765.796 829.164 766.244 829.031 766.66C828.898 767.077 828.636 767.44 828.284 767.698C827.931 767.957 827.506 768.097 827.069 768.099V768.099Z" fill="#002127"/><path id="Vector_90" d="M760.891 844.189C699.031 844.189 645.991 800.71 640.021 742.88C637.131 714.8 645.741 686.98 664.271 664.55C684.771 639.74 715.841 623.83 749.521 620.9C789.261 617.44 828.33 632.18 854.04 660.35C854.335 660.757 854.471 661.259 854.422 661.76C854.372 662.261 854.141 662.727 853.772 663.069C853.402 663.411 852.921 663.606 852.418 663.617C851.915 663.628 851.424 663.455 851.04 663.13C826.19 635.91 788.401 621.66 749.931 625.01C717.341 627.85 687.3 643.22 667.5 667.18C649.68 688.75 641.401 715.48 644.181 742.45C650.291 801.63 707.67 845.2 772.12 839.58C800.96 837.06 827.65 824.92 847.29 805.37C847.482 805.179 847.71 805.027 847.96 804.924C848.21 804.821 848.478 804.768 848.749 804.769C849.02 804.769 849.287 804.823 849.537 804.927C849.787 805.031 850.014 805.183 850.205 805.374C850.396 805.566 850.548 805.794 850.651 806.044C850.755 806.294 850.807 806.562 850.807 806.833C850.806 807.104 850.752 807.372 850.648 807.622C850.544 807.871 850.392 808.098 850.2 808.29C829.88 828.52 802.28 841.089 772.48 843.689C768.56 844.029 764.701 844.189 760.891 844.189Z" fill="#002127"/><path id="Vector_91" d="M793.909 425.699C780.249 425.699 769.129 413.829 769.129 399.239C769.129 384.649 780.249 372.789 793.909 372.789C807.569 372.789 818.689 384.659 818.689 399.239C818.689 413.819 807.569 425.699 793.909 425.699ZM793.909 376.919C782.519 376.919 773.259 386.919 773.259 399.239C773.259 411.559 782.519 421.569 793.909 421.569C805.299 421.569 814.56 411.569 814.56 399.239C814.56 386.909 805.289 376.919 793.909 376.919V376.919Z" fill="#002127"/><path id="Vector_92" d="M407.351 918.18C393.691 918.18 382.57 906.31 382.57 891.72C382.57 877.13 393.691 865.27 407.351 865.27C421.011 865.27 432.13 877.14 432.13 891.72C432.13 906.3 420.991 918.18 407.351 918.18ZM407.351 869.4C395.961 869.4 386.7 879.4 386.7 891.72C386.7 904.04 395.961 914.05 407.351 914.05C418.741 914.05 428 904.05 428 891.72C428 879.39 418.731 869.43 407.351 869.43V869.4Z" fill="#002127"/><path id="Vector_93" d="M672.64 1070.88C672.15 1070.88 671.64 1070.88 671.18 1070.88C664.277 1070.58 657.748 1067.66 652.919 1062.72C650.581 1060.37 648.759 1057.57 647.573 1054.47C646.387 1051.38 645.862 1048.08 646.031 1044.77C646.201 1041.46 647.062 1038.23 648.558 1035.27C650.055 1032.32 652.154 1029.71 654.72 1027.62C660.06 1023.26 666.832 1021.04 673.72 1021.39C680.607 1021.75 687.116 1024.65 691.979 1029.54C694.31 1031.89 696.125 1034.7 697.311 1037.79C698.498 1040.88 699.028 1044.18 698.869 1047.49C698.189 1060.64 686.57 1070.88 672.64 1070.88ZM672.229 1025.45C666.806 1025.41 661.543 1027.29 657.369 1030.75C655.237 1032.48 653.493 1034.64 652.25 1037.08C651.006 1039.53 650.291 1042.21 650.15 1044.95C650.01 1047.69 650.448 1050.43 651.434 1052.99C652.421 1055.56 653.935 1057.88 655.879 1059.82C659.987 1064 665.532 1066.47 671.39 1066.72C683.68 1067.36 694.159 1058.62 694.739 1047.24C694.859 1044.51 694.41 1041.78 693.42 1039.23C692.43 1036.68 690.921 1034.37 688.989 1032.43C684.884 1028.25 679.343 1025.78 673.489 1025.53L672.229 1025.45Z" fill="#002127"/><path id="Vector_94" d="M1057.74 582.43C1044.11 582.43 1033.03 570.559 1033.03 555.979C1033.03 541.399 1044.11 529.52 1057.74 529.52C1071.37 529.52 1082.44 541.389 1082.44 555.979C1082.44 570.569 1071.36 582.43 1057.74 582.43ZM1057.74 533.65C1046.39 533.65 1037.16 543.649 1037.16 555.979C1037.16 568.309 1046.39 578.3 1057.74 578.3C1069.09 578.3 1078.32 568.299 1078.32 555.979C1078.32 543.659 1069.08 533.67 1057.74 533.67V533.65Z" fill="#002127"/><path id="Vector_95" d="M799.4 1251.8H799.03C798.763 1251.75 798.509 1251.65 798.281 1251.51C798.053 1251.36 797.856 1251.17 797.702 1250.95C797.548 1250.72 797.439 1250.47 797.382 1250.21C797.325 1249.94 797.321 1249.67 797.37 1249.4L845.42 981.91C845.468 981.644 845.568 981.389 845.715 981.161C845.861 980.933 846.05 980.736 846.272 980.582C846.495 980.427 846.746 980.318 847.011 980.26C847.275 980.203 847.549 980.197 847.815 980.245C848.082 980.293 848.336 980.393 848.564 980.54C848.792 980.686 848.989 980.875 849.143 981.098C849.298 981.32 849.408 981.571 849.466 981.836C849.523 982.1 849.528 982.374 849.48 982.64L801.48 1250.13C801.386 1250.61 801.126 1251.04 800.745 1251.34C800.364 1251.65 799.888 1251.81 799.4 1251.8V1251.8Z" fill="#002127"/><path id="Vector_96" d="M945.551 438.21C945.428 438.22 945.305 438.22 945.182 438.21C944.644 438.11 944.166 437.802 943.854 437.353C943.541 436.904 943.418 436.349 943.511 435.81L963.932 322.13C964.051 321.612 964.365 321.161 964.809 320.868C965.252 320.575 965.791 320.464 966.314 320.558C966.837 320.652 967.303 320.943 967.617 321.372C967.931 321.8 968.069 322.333 968.001 322.86L947.581 436.54C947.489 437.01 947.236 437.434 946.865 437.739C946.495 438.043 946.03 438.209 945.551 438.21Z" fill="#002127"/><path id="Vector_97" d="M880.411 818.72C879.991 818.721 879.582 818.593 879.237 818.355C878.892 818.117 878.628 817.779 878.48 817.386C878.332 816.994 878.308 816.566 878.41 816.159C878.512 815.752 878.735 815.386 879.05 815.11C901.3 795.4 924.251 774.6 941.241 755.99C941.628 755.678 942.115 755.517 942.612 755.535C943.109 755.552 943.583 755.749 943.948 756.088C944.312 756.426 944.541 756.885 944.595 757.379C944.649 757.874 944.523 758.371 944.241 758.78C927.121 777.53 904.081 798.42 881.731 818.2C881.369 818.529 880.899 818.714 880.411 818.72V818.72Z" fill="#002127"/><path id="Vector_98" d="M848.701 808.901C848.15 808.897 847.623 808.678 847.231 808.291C846.846 807.903 846.629 807.378 846.629 806.831C846.629 806.284 846.846 805.759 847.231 805.371C867.091 785.581 878.141 759.951 878.331 733.171C878.363 729.498 878.19 725.825 877.812 722.171C875.469 700.125 866.057 679.427 850.981 663.171C850.759 662.983 850.579 662.749 850.453 662.486C850.328 662.223 850.259 661.936 850.253 661.645C850.246 661.353 850.302 661.064 850.416 660.796C850.53 660.527 850.698 660.286 850.912 660.088C851.126 659.89 851.38 659.74 851.656 659.647C851.932 659.554 852.225 659.52 852.515 659.549C852.805 659.578 853.086 659.668 853.339 659.813C853.592 659.958 853.811 660.155 853.981 660.391C869.655 677.302 879.436 698.831 881.861 721.761C882.261 725.574 882.444 729.407 882.411 733.241C882.211 761.111 870.731 787.781 850.091 808.331C849.716 808.689 849.22 808.893 848.701 808.901V808.901Z" fill="#002127"/><path id="Vector_99" d="M891.61 1251.81H891.239C890.702 1251.71 890.225 1251.4 889.914 1250.95C889.603 1250.5 889.483 1249.95 889.579 1249.41L928.989 1030.19C929.037 1029.92 929.137 1029.67 929.283 1029.44C929.43 1029.21 929.62 1029.02 929.842 1028.86C930.064 1028.71 930.316 1028.6 930.58 1028.54C930.845 1028.48 931.117 1028.48 931.384 1028.52C931.651 1028.57 931.906 1028.67 932.134 1028.82C932.362 1028.97 932.558 1029.15 932.713 1029.38C932.868 1029.6 932.977 1029.85 933.034 1030.12C933.092 1030.38 933.097 1030.65 933.049 1030.92L893.68 1250.11C893.592 1250.59 893.335 1251.03 892.956 1251.34C892.577 1251.65 892.1 1251.82 891.61 1251.81V1251.81Z" fill="#002127"/><path id="Vector_100" d="M930.991 1032.62C930.868 1032.63 930.744 1032.63 930.621 1032.62C930.351 1032.58 930.094 1032.48 929.862 1032.34C929.631 1032.2 929.431 1032.01 929.275 1031.78C929.12 1031.56 929.012 1031.31 928.958 1031.04C928.904 1030.77 928.905 1030.5 928.961 1030.23L932.631 1009.75C932.679 1009.48 932.779 1009.23 932.926 1009C933.072 1008.77 933.261 1008.58 933.483 1008.42C933.706 1008.27 933.957 1008.16 934.222 1008.1C934.486 1008.04 934.76 1008.04 935.026 1008.09C935.293 1008.13 935.547 1008.23 935.775 1008.38C936.003 1008.53 936.2 1008.72 936.354 1008.94C936.509 1009.16 936.619 1009.41 936.677 1009.68C936.734 1009.94 936.739 1010.21 936.691 1010.48L933.021 1030.96C932.927 1031.43 932.673 1031.85 932.303 1032.15C931.933 1032.46 931.469 1032.62 930.991 1032.62V1032.62Z" fill="#002127"/><path id="Vector_101" d="M1028.93 487.36C1028.81 487.37 1028.69 487.37 1028.57 487.36C1028.03 487.263 1027.55 486.955 1027.24 486.505C1026.93 486.055 1026.8 485.499 1026.9 484.96L1056.15 322.13C1056.27 321.612 1056.58 321.161 1057.03 320.868C1057.47 320.575 1058.01 320.464 1058.53 320.558C1059.05 320.652 1059.52 320.943 1059.84 321.372C1060.15 321.8 1060.29 322.333 1060.22 322.86L1030.99 485.66C1030.92 486.147 1030.66 486.59 1030.28 486.904C1029.9 487.218 1029.42 487.38 1028.93 487.36Z" fill="#002127"/><path id="Vector_102" d="M996.119 1251.81C995.996 1251.82 995.872 1251.82 995.749 1251.81C995.209 1251.71 994.731 1251.4 994.418 1250.95C994.105 1250.5 993.983 1249.95 994.079 1249.41L1027.56 1063.72C1027.61 1063.45 1027.71 1063.2 1027.85 1062.97C1028 1062.74 1028.19 1062.55 1028.41 1062.39C1028.63 1062.24 1028.88 1062.13 1029.15 1062.07C1029.41 1062.01 1029.69 1062.01 1029.95 1062.05C1030.22 1062.1 1030.48 1062.2 1030.7 1062.35C1030.93 1062.49 1031.13 1062.68 1031.28 1062.91C1031.44 1063.13 1031.55 1063.38 1031.6 1063.64C1031.66 1063.91 1031.67 1064.18 1031.62 1064.45L998.139 1250.14C998.051 1250.61 997.799 1251.03 997.431 1251.34C997.062 1251.64 996.598 1251.81 996.119 1251.81V1251.81Z" fill="#002127"/><path id="Vector_103" d="M1084.29 760.921C1084.17 760.936 1084.05 760.936 1083.93 760.921C1083.66 760.874 1083.41 760.775 1083.18 760.629C1082.95 760.483 1082.75 760.294 1082.6 760.072C1082.44 759.85 1082.33 759.6 1082.27 759.335C1082.22 759.071 1082.21 758.798 1082.26 758.531L1160.65 322.141C1160.7 321.874 1160.8 321.62 1160.94 321.392C1161.09 321.164 1161.28 320.967 1161.5 320.812C1161.72 320.658 1161.97 320.549 1162.24 320.491C1162.5 320.433 1162.78 320.428 1163.04 320.476C1163.31 320.524 1163.56 320.624 1163.79 320.77C1164.02 320.917 1164.22 321.106 1164.37 321.328C1164.53 321.551 1164.64 321.801 1164.69 322.066C1164.75 322.331 1164.76 322.604 1164.71 322.871L1086.32 759.261C1086.22 759.729 1085.97 760.151 1085.6 760.453C1085.23 760.756 1084.77 760.921 1084.29 760.921Z" fill="#002127"/><path id="Vector_104" d="M1106.54 1251.81C1106.42 1251.82 1106.29 1251.82 1106.17 1251.81C1105.63 1251.71 1105.15 1251.41 1104.84 1250.96C1104.53 1250.51 1104.4 1249.95 1104.5 1249.41L1126.72 1125.35C1126.77 1125.08 1126.87 1124.83 1127.02 1124.6C1127.16 1124.37 1127.35 1124.18 1127.57 1124.02C1127.8 1123.87 1128.05 1123.76 1128.31 1123.7C1128.58 1123.64 1128.85 1123.64 1129.12 1123.68C1129.38 1123.73 1129.64 1123.83 1129.87 1123.98C1130.09 1124.13 1130.29 1124.32 1130.44 1124.54C1130.6 1124.76 1130.71 1125.01 1130.77 1125.28C1130.82 1125.54 1130.83 1125.81 1130.78 1126.08L1108.57 1250.14C1108.48 1250.61 1108.23 1251.03 1107.86 1251.34C1107.49 1251.64 1107.02 1251.81 1106.54 1251.81V1251.81Z" fill="#002127"/><path id="Vector_105" d="M1185.51 812.189C1185.39 812.199 1185.26 812.199 1185.14 812.189C1184.6 812.091 1184.12 811.784 1183.81 811.334C1183.49 810.884 1183.37 810.329 1183.47 809.789L1271.07 322.129C1271.12 321.863 1271.22 321.608 1271.36 321.38C1271.51 321.152 1271.7 320.955 1271.92 320.801C1272.14 320.646 1272.39 320.537 1272.66 320.479C1272.92 320.421 1273.2 320.416 1273.46 320.464C1273.73 320.512 1273.98 320.612 1274.21 320.758C1274.44 320.905 1274.64 321.094 1274.79 321.317C1274.95 321.539 1275.06 321.79 1275.11 322.055C1275.17 322.319 1275.18 322.593 1275.13 322.859L1187.54 810.519C1187.45 810.989 1187.19 811.413 1186.82 811.718C1186.45 812.022 1185.99 812.189 1185.51 812.189V812.189Z" fill="#002127"/><path id="Vector_106" d="M1347.15 371.159L1264.74 371.059L911.09 370.829C910.567 370.793 910.078 370.56 909.721 370.176C909.363 369.793 909.164 369.288 909.164 368.764C909.164 368.24 909.363 367.735 909.721 367.352C910.078 366.969 910.567 366.736 911.09 366.699L1264.75 366.929L1299.45 367.009H1347.16C1347.71 367.009 1348.23 367.226 1348.62 367.613C1349 367.999 1349.22 368.523 1349.22 369.069C1349.22 369.616 1349 370.14 1348.62 370.526C1348.23 370.912 1347.71 371.129 1347.16 371.129L1347.15 371.159Z" fill="#002127"/><path id="Vector_107" d="M1335.07 439.3L1252.5 439.2L946.878 439C946.595 439.02 946.311 438.981 946.043 438.886C945.775 438.792 945.53 438.643 945.322 438.449C945.115 438.255 944.949 438.021 944.836 437.76C944.723 437.5 944.664 437.219 944.664 436.935C944.664 436.651 944.723 436.37 944.836 436.11C944.949 435.85 945.115 435.615 945.322 435.422C945.53 435.228 945.775 435.079 946.043 434.984C946.311 434.889 946.595 434.851 946.878 434.87L1252.51 435.07L1335.08 435.171C1335.6 435.207 1336.09 435.44 1336.45 435.823C1336.81 436.207 1337 436.711 1337 437.235C1337 437.76 1336.81 438.264 1336.45 438.647C1336.09 439.03 1335.6 439.264 1335.08 439.3H1335.07Z" fill="#002127"/><path id="Vector_108" d="M1322.42 510.641L1239.69 510.541L1068.07 510.431C1067.55 510.394 1067.06 510.161 1066.7 509.778C1066.34 509.395 1066.14 508.89 1066.14 508.366C1066.14 507.842 1066.34 507.337 1066.7 506.954C1067.06 506.57 1067.55 506.337 1068.07 506.301L1239.68 506.411L1322.42 506.511C1322.94 506.547 1323.43 506.78 1323.79 507.164C1324.15 507.547 1324.35 508.052 1324.35 508.576C1324.35 509.1 1324.15 509.605 1323.79 509.988C1323.43 510.371 1322.94 510.604 1322.42 510.641V510.641Z" fill="#002127"/><path id="Vector_109" d="M1309.46 583.76L1226.55 583.671L1094.09 583.58C1093.81 583.6 1093.52 583.561 1093.25 583.466C1092.99 583.372 1092.74 583.223 1092.53 583.029C1092.33 582.835 1092.16 582.601 1092.05 582.34C1091.93 582.08 1091.88 581.799 1091.88 581.515C1091.88 581.231 1091.93 580.95 1092.05 580.69C1092.16 580.43 1092.33 580.195 1092.53 580.002C1092.74 579.808 1092.99 579.659 1093.25 579.564C1093.52 579.469 1093.81 579.431 1094.09 579.45V579.45L1309.46 579.63C1309.74 579.611 1310.03 579.649 1310.29 579.744C1310.56 579.839 1310.81 579.988 1311.01 580.182C1311.22 580.375 1311.39 580.61 1311.5 580.87C1311.61 581.131 1311.67 581.411 1311.67 581.695C1311.67 581.979 1311.61 582.26 1311.5 582.521C1311.39 582.781 1311.22 583.015 1311.01 583.209C1310.81 583.403 1310.56 583.552 1310.29 583.647C1310.03 583.741 1309.74 583.78 1309.46 583.76V583.76Z" fill="#002127"/><path id="Vector_110" d="M1296.49 656.9L1213.41 656.799L1064.28 656.699C1064 656.719 1063.71 656.68 1063.45 656.586C1063.18 656.491 1062.93 656.342 1062.72 656.148C1062.52 655.954 1062.35 655.72 1062.24 655.46C1062.13 655.199 1062.07 654.918 1062.07 654.634C1062.07 654.35 1062.13 654.07 1062.24 653.809C1062.35 653.549 1062.52 653.314 1062.72 653.121C1062.93 652.927 1063.18 652.778 1063.45 652.683C1063.71 652.588 1064 652.55 1064.28 652.569V652.569L1213.42 652.67L1296.49 652.769C1297.01 652.806 1297.5 653.039 1297.86 653.422C1298.22 653.806 1298.42 654.31 1298.42 654.834C1298.42 655.358 1298.22 655.863 1297.86 656.246C1297.5 656.629 1297.01 656.863 1296.49 656.9V656.9Z" fill="#002127"/><path id="Vector_111" d="M1282.72 734.56L1199.47 734.46L1045.85 734.36C1045.57 734.38 1045.28 734.341 1045.01 734.246C1044.75 734.151 1044.5 734.002 1044.29 733.809C1044.09 733.615 1043.92 733.381 1043.81 733.12C1043.69 732.86 1043.64 732.579 1043.64 732.295C1043.64 732.011 1043.69 731.73 1043.81 731.469C1043.92 731.209 1044.09 730.975 1044.29 730.781C1044.5 730.587 1044.75 730.439 1045.01 730.344C1045.28 730.249 1045.57 730.21 1045.85 730.23V730.23L1199.48 730.33L1282.73 730.43C1283.25 730.466 1283.74 730.699 1284.1 731.083C1284.46 731.466 1284.66 731.971 1284.66 732.495C1284.66 733.019 1284.46 733.524 1284.1 733.907C1283.74 734.29 1283.25 734.523 1282.73 734.56H1282.72Z" fill="#002127"/><path id="Vector_112" d="M1268.52 814.65L1190.18 814.56C1189.66 814.523 1189.17 814.29 1188.81 813.907C1188.45 813.523 1188.25 813.019 1188.25 812.495C1188.25 811.971 1188.45 811.466 1188.81 811.083C1189.17 810.699 1189.66 810.466 1190.18 810.43L1268.52 810.52C1269.04 810.556 1269.53 810.79 1269.89 811.173C1270.25 811.556 1270.45 812.06 1270.45 812.584C1270.45 813.109 1270.25 813.613 1269.89 813.997C1269.53 814.38 1269.04 814.613 1268.52 814.65V814.65Z" fill="#002127"/><path id="Vector_113" d="M972.488 1032.64L793.878 1032.53C793.595 1032.55 793.311 1032.51 793.043 1032.42C792.775 1032.32 792.53 1032.17 792.322 1031.98C792.115 1031.78 791.949 1031.55 791.836 1031.29C791.723 1031.03 791.664 1030.75 791.664 1030.46C791.664 1030.18 791.723 1029.9 791.836 1029.64C791.949 1029.38 792.115 1029.14 792.322 1028.95C792.53 1028.76 792.775 1028.61 793.043 1028.51C793.311 1028.42 793.595 1028.38 793.878 1028.4V1028.4L972.488 1028.52C973.035 1028.52 973.559 1028.74 973.945 1029.12C974.332 1029.51 974.548 1030.03 974.548 1030.58C974.548 1031.13 974.332 1031.65 973.945 1032.04C973.559 1032.42 973.035 1032.64 972.488 1032.64V1032.64Z" fill="#002127"/><path id="Vector_114" d="M1112.76 1115.67H1112.62L1020.76 1115.02L779.229 1114.86C778.682 1114.86 778.158 1114.64 777.771 1114.26C777.385 1113.87 777.168 1113.35 777.168 1112.8C777.168 1112.25 777.385 1111.73 777.771 1111.34C778.158 1110.96 778.682 1110.74 779.229 1110.74V1110.74L1020.67 1110.89L1112.75 1111.54C1113.03 1111.52 1113.32 1111.56 1113.58 1111.65C1113.85 1111.75 1114.1 1111.9 1114.3 1112.09C1114.51 1112.28 1114.68 1112.52 1114.79 1112.78C1114.9 1113.04 1114.96 1113.32 1114.96 1113.6C1114.96 1113.89 1114.9 1114.17 1114.79 1114.43C1114.68 1114.69 1114.51 1114.92 1114.3 1115.12C1114.1 1115.31 1113.85 1115.46 1113.58 1115.56C1113.32 1115.65 1113.03 1115.69 1112.75 1115.67H1112.76Z" fill="#002127"/><path id="Vector_115" d="M1200.64 1197.52L1116.3 1197.43L901.408 1197.28L764.578 1197.2C764.055 1197.16 763.566 1196.93 763.208 1196.55C762.851 1196.16 762.652 1195.66 762.652 1195.14C762.652 1194.61 762.851 1194.11 763.208 1193.72C763.566 1193.34 764.055 1193.11 764.578 1193.07V1193.07L1200.58 1193.39C1201.1 1193.43 1201.59 1193.66 1201.95 1194.04C1202.31 1194.43 1202.5 1194.93 1202.5 1195.46C1202.5 1195.98 1202.31 1196.48 1201.95 1196.87C1201.59 1197.25 1201.1 1197.48 1200.58 1197.52H1200.64Z" fill="#002127"/><path id="Vector_116" d="M980.929 820.499C980.574 820.502 980.225 820.411 979.918 820.236C979.61 820.06 979.356 819.806 979.179 819.499L907.388 704.639C902.598 696.915 899.926 688.065 899.642 678.98C899.359 669.896 901.473 660.896 905.772 652.888C910.071 644.88 916.404 638.145 924.133 633.362C931.861 628.578 940.713 625.915 949.798 625.639C950.288 625.639 950.798 625.639 951.308 625.639C960.091 625.607 968.736 627.823 976.422 632.074C984.107 636.326 990.578 642.472 995.219 649.929L1014.51 680.759C1014.65 680.989 1014.75 681.245 1014.79 681.512C1014.84 681.779 1014.83 682.053 1014.77 682.317C1014.71 682.581 1014.6 682.831 1014.44 683.052C1014.28 683.272 1014.08 683.46 1013.85 683.604C1013.62 683.748 1013.37 683.845 1013.1 683.89C1012.83 683.935 1012.56 683.926 1012.29 683.866C1012.03 683.805 1011.78 683.693 1011.56 683.535C1011.34 683.378 1011.15 683.179 1011.01 682.949L991.719 652.119C987.449 645.255 981.495 639.597 974.422 635.683C967.349 631.77 959.392 629.73 951.308 629.759H949.929C941.576 630.021 933.439 632.476 926.336 636.877C919.232 641.279 913.413 647.472 909.461 654.835C905.509 662.198 903.564 670.471 903.821 678.824C904.079 687.176 906.53 695.314 910.929 702.419L982.719 817.269C982.916 817.581 983.025 817.941 983.036 818.31C983.047 818.679 982.957 819.044 982.778 819.367C982.599 819.69 982.337 819.959 982.018 820.146C981.7 820.333 981.338 820.431 980.969 820.429L980.929 820.499Z" fill="#002127"/><path id="Vector_117" d="M1010.99 704.519C1008.41 704.531 1005.84 704.126 1003.39 703.32C993.232 699.95 985.912 691.529 979.532 682.939C966.995 666.068 956.401 647.836 947.951 628.59C947.731 628.088 947.72 627.52 947.918 627.01C948.117 626.5 948.51 626.09 949.011 625.869C949.512 625.649 950.081 625.637 950.591 625.836C951.101 626.035 951.512 626.428 951.732 626.93C960.06 645.89 970.495 663.853 982.841 680.479C988.841 688.529 995.611 696.39 1004.7 699.41C1007.56 700.338 1010.59 700.627 1013.57 700.256C1016.55 699.884 1019.42 698.861 1021.96 697.26C1022.19 697.089 1022.44 696.967 1022.72 696.9C1022.99 696.833 1023.28 696.823 1023.56 696.87C1023.83 696.917 1024.1 697.02 1024.34 697.174C1024.57 697.328 1024.78 697.528 1024.93 697.764C1025.09 697.999 1025.2 698.263 1025.25 698.541C1025.3 698.819 1025.29 699.104 1025.23 699.379C1025.16 699.654 1025.04 699.913 1024.88 700.14C1024.71 700.367 1024.5 700.558 1024.25 700.7C1020.3 703.237 1015.69 704.564 1010.99 704.519Z" fill="#002127"/><path id="Vector_118" d="M979.748 817.269C979.42 817.382 979.086 817.476 978.748 817.549C978.753 817.526 978.753 817.502 978.748 817.479C978.834 817.235 978.851 816.972 978.797 816.719C979.022 816.425 979.153 816.07 979.172 815.701C979.192 815.332 979.1 814.965 978.908 814.649C978.535 814.086 977.975 813.671 977.328 813.479L977.168 813.419L975.988 812.899L975.797 812.809C975.686 812.07 975.335 811.388 974.797 810.869C974.247 810.089 973.668 809.329 973.088 808.579C973.538 806.809 971.338 803.949 969.718 801.679C969.932 801.391 970.038 801.037 970.018 800.679C969.908 798.779 968.448 797.289 967.488 795.739C967.437 795.652 967.38 795.568 967.318 795.489C967.425 795.245 967.476 794.981 967.469 794.715C967.462 794.449 967.397 794.188 967.278 793.951C967.159 793.713 966.988 793.504 966.779 793.34C966.57 793.175 966.327 793.059 966.068 792.999C964.428 792.589 962.848 793.719 963.148 795.239C962.078 796.299 960.938 797.239 959.848 798.329C958.239 799.359 956.738 800.548 955.368 801.879C952.718 804.559 950.418 807.569 947.678 810.169L947.598 810.229C947.327 810.45 947.125 810.745 947.018 811.079L946.728 811.349L946.418 811.569L945.797 811.919C944.361 812.697 942.979 813.569 941.658 814.529C941.084 814.876 940.608 815.365 940.278 815.949C939.828 816.062 939.423 816.309 939.118 816.659C938.851 817.011 938.728 817.451 938.772 817.891C938.817 818.331 939.026 818.737 939.358 819.029C937.035 819.896 934.784 820.946 932.628 822.169C931.288 823.039 931.048 823.329 930.338 823.809C929.868 824.179 929.248 824.449 929.038 825.039C928.896 825.363 928.868 825.725 928.959 826.067C929.049 826.408 929.254 826.709 929.538 826.919C930.968 827.999 932.328 826.159 933.588 825.609C935.379 824.589 937.222 823.661 939.108 822.829C946.108 820.109 951.298 819.979 958.518 819.979C962.518 819.979 966.518 820.739 970.518 820.979C974.128 821.189 978.018 821.759 981.428 820.269C983.928 819.029 981.928 815.619 979.748 817.269Z" fill="#002127"/><path id="Vector_119" d="M1142.21 1034.98C1142.08 1034.68 1141.87 1034.43 1141.6 1034.25C1141.33 1034.08 1141.01 1033.98 1140.69 1033.98C1141.19 1032.98 1141.52 1031.9 1141.69 1030.79C1142.25 1028.14 1142.16 1025.39 1141.44 1022.78C1140.72 1020.17 1139.37 1017.77 1137.53 1015.79C1134.94 1013 1129.72 1009.93 1123.72 1007.48C1123.4 1007.4 1123.07 1007.45 1122.79 1007.62C1122.51 1007.78 1122.31 1008.05 1122.22 1008.37C1122.14 1008.68 1122.18 1009.01 1122.33 1009.3C1122.49 1009.58 1122.75 1009.79 1123.06 1009.89C1125.53 1010.94 1127.92 1012.17 1130.22 1013.56C1131.17 1014.17 1132.07 1014.84 1132.94 1015.56C1133.23 1015.86 1133.54 1016.14 1133.86 1016.4C1134.04 1016.59 1134.11 1016.65 1134.13 1016.64C1134.47 1017.1 1134.96 1017.47 1135.31 1017.92L1135.72 1018.47C1135.66 1018.74 1135.66 1019.01 1135.72 1019.28C1137.61 1023.72 1137.43 1026.47 1135.97 1029.62C1134.72 1031.94 1134.48 1032.45 1132.89 1033.93C1130.82 1035.79 1130.41 1036.11 1127.69 1036.81C1125.82 1037.1 1123.91 1037.07 1122.05 1036.71C1118.7 1035.78 1115.29 1035.07 1111.84 1034.61C1109.49 1034.32 1107.1 1034.54 1104.84 1035.27C1102.1 1035.96 1099.71 1037.6 1098.07 1039.9C1097.58 1040.72 1096.8 1041.8 1096.92 1042.77C1096.94 1043.03 1097.03 1043.29 1097.17 1043.51C1097.32 1043.73 1097.52 1043.91 1097.75 1044.03C1097.52 1044.45 1097.45 1044.95 1097.57 1045.42C1097.65 1045.67 1097.78 1045.9 1097.96 1046.1C1098.14 1046.29 1098.36 1046.44 1098.61 1046.53C1098.85 1046.63 1099.12 1046.67 1099.38 1046.65C1099.64 1046.63 1099.9 1046.55 1100.13 1046.42L1100.31 1046.27C1100.57 1046.8 1100.95 1047.27 1101.41 1047.64C1101.88 1048.02 1102.41 1048.28 1102.99 1048.43C1103.81 1049.3 1104.91 1049.85 1106.1 1050C1106.33 1050.52 1106.7 1050.97 1107.17 1051.3C1107.21 1051.48 1107.28 1051.65 1107.36 1051.82C1108 1053.36 1110.5 1053.95 1113.36 1054.12C1113.57 1054.38 1113.86 1054.56 1114.19 1054.64C1115.99 1055.18 1117.89 1054.7 1119.69 1054.35L1121.09 1053.96H1122.01C1122.56 1053.94 1123.08 1053.72 1123.49 1053.35C1126.49 1052.52 1129.43 1051.66 1132.33 1050.61C1132.65 1050.52 1132.94 1050.35 1133.16 1050.1C1133.38 1049.86 1133.53 1049.56 1133.59 1049.23C1133.65 1048.91 1133.61 1048.57 1133.49 1048.26C1133.37 1047.96 1133.16 1047.69 1132.89 1047.5L1133.89 1047L1134.02 1046.94C1134.33 1047.04 1134.67 1047.04 1134.99 1046.96C1135.3 1046.87 1135.59 1046.69 1135.81 1046.45C1138.18 1044.28 1140.06 1041.62 1141.33 1038.66C1141.64 1037.43 1142.68 1036.21 1142.21 1034.98Z" fill="#002127"/><path id="Vector_120" d="M1204.11 1174.43C1204 1172.43 1203.82 1168.97 1201.02 1169.2C1200.57 1169.27 1200.15 1169.45 1199.8 1169.74V1169.74C1199.84 1169.33 1199.75 1168.91 1199.53 1168.56C1199.08 1167.85 1198.25 1167.5 1197.62 1166.96C1196.99 1166.42 1196.15 1165.88 1195.4 1165.37C1190.62 1161.9 1185.71 1158.62 1180.72 1155.49C1177.98 1153.76 1175.22 1152.06 1172.45 1150.4C1170.35 1148.8 1168.23 1147.24 1166.06 1145.74C1162.43 1143.25 1158.7 1140.92 1154.87 1138.74C1152.53 1137.2 1150.01 1135.97 1147.37 1135.06C1146.37 1134.94 1145.17 1134.61 1144.37 1135.32C1142.77 1133.65 1141.05 1132.1 1139.23 1130.67C1133.21 1125.79 1126.77 1121.44 1120 1117.67C1118.85 1117.03 1117.66 1116.46 1116.44 1115.97C1115.79 1115.68 1115.09 1115.53 1114.38 1115.51L1110.6 1113.26C1108.06 1111.76 1105.46 1110.36 1102.9 1108.9C1101.25 1107.97 1099.65 1106.69 1097.72 1106.45C1097.57 1106.44 1097.41 1106.44 1097.26 1106.45C1090.96 1102.21 1084.56 1098.1 1078.05 1094.18L1076.9 1093.5H1076.83C1075.55 1092.64 1074.27 1091.77 1072.98 1090.92C1069.16 1087.81 1065.11 1084.99 1060.87 1082.48C1057.41 1080.42 1053.81 1078.6 1050.09 1077.05C1049.37 1076.64 1048.64 1076.25 1047.92 1075.85C1047.87 1075.67 1047.8 1075.49 1047.71 1075.33C1047.36 1074.85 1046.9 1074.46 1046.37 1074.18C1045.46 1073.55 1044.54 1072.91 1043.61 1072.31C1040.42 1070.18 1037.15 1068.19 1033.89 1066.18C1030.63 1064.17 1027.08 1062.11 1023.61 1060.18C1023.52 1060.12 1023.42 1060.07 1023.32 1060.02C1022.97 1059.59 1022.57 1059.19 1022.22 1058.83C1014.56 1052.37 1005.69 1047.55 996.85 1042.94C996.422 1042.68 995.911 1042.58 995.418 1042.68C994.925 1042.78 994.487 1043.06 994.189 1043.46H994.069C994.039 1043.46 994.009 1043.46 993.979 1043.46C993.119 1042.93 992.259 1042.39 991.399 1041.87L989.569 1040.63C988.954 1040.18 988.282 1039.81 987.569 1039.53L987.35 1039.39L983.569 1036.68L979.479 1033.68C978.479 1032.98 977.479 1031.99 976.289 1031.79C976.071 1031.75 975.847 1031.75 975.629 1031.79L974.279 1030.94C973.765 1030.59 973.192 1030.34 972.589 1030.2C972.476 1030.19 972.362 1030.19 972.249 1030.2L971.759 1029.75C971.507 1029.42 971.164 1029.18 970.772 1029.04C970.381 1028.91 969.96 1028.9 969.561 1029C969.161 1029.11 968.803 1029.33 968.53 1029.65C968.258 1029.96 968.083 1030.34 968.029 1030.75C965.749 1029.08 963.469 1027.43 961.169 1025.75C952.169 1019.34 942.929 1013.19 933.479 1007.45C926.139 1003.12 918.59 999.141 910.93 995.451C901.64 990.961 892.379 986.321 882.539 983.151C878.655 981.756 874.696 980.581 870.68 979.631C870.366 979.672 870.077 979.825 869.867 980.062C869.658 980.299 869.541 980.604 869.539 980.921C869.545 981.213 869.646 981.494 869.826 981.724C870.007 981.953 870.257 982.116 870.539 982.19C877.454 984.123 884.262 986.427 890.93 989.091C896.65 991.571 905.529 995.91 912.279 999.25C918.479 1002.45 924.66 1005.73 930.68 1009.25C939.75 1014.75 948.569 1020.68 957.229 1026.81C969.789 1035.93 980.639 1043.91 992.479 1054.09C1006.01 1066.18 1019.67 1078.09 1032.99 1090.47C1045.66 1102.25 1057.99 1114.41 1070.13 1126.73C1076.83 1133.4 1084.2 1139.35 1092.13 1144.5C1094.88 1146.29 1097.82 1147.77 1100.71 1149.31C1105.96 1152.11 1111.17 1154.97 1116.43 1157.75C1132.84 1166.19 1148.25 1176.42 1163.1 1187.35C1163.68 1187.76 1164.25 1188.19 1164.83 1188.63L1165.32 1189.06C1168.25 1191.58 1171.02 1194.29 1173.61 1197.16C1176.63 1199.9 1179.39 1202.91 1181.85 1206.16C1184.84 1209.99 1187.53 1214.05 1189.9 1218.29C1190.9 1220.12 1191.9 1221.96 1192.79 1223.83C1192.96 1224.36 1193.28 1224.82 1193.7 1225.18C1194.08 1225.45 1194.54 1225.58 1195.01 1225.56C1195.47 1225.53 1195.91 1225.35 1196.26 1225.04C1196.61 1224.73 1196.84 1224.31 1196.92 1223.85C1197 1223.39 1196.92 1222.92 1196.7 1222.51C1196.46 1222.03 1196.22 1221.51 1195.97 1221.05C1196.38 1220.76 1196.66 1220.32 1196.76 1219.83C1196.86 1219.34 1196.78 1218.83 1196.52 1218.4L1195.76 1217.14C1197.02 1215.92 1196.38 1214.67 1195.66 1213.72C1196.16 1213.78 1196.67 1213.65 1197.09 1213.36C1197.51 1213.08 1197.81 1212.65 1197.94 1212.16C1198.17 1210.32 1198.23 1208.47 1198.12 1206.62C1198.12 1205.06 1198.12 1203.5 1198.12 1201.94C1198.4 1201.76 1198.64 1201.51 1198.8 1201.21C1198.96 1200.91 1199.04 1200.58 1199.04 1200.24C1199.13 1198.83 1199.2 1197.41 1199.27 1196C1199.45 1195.91 1199.62 1195.79 1199.77 1195.65C1200.41 1194.76 1200.76 1193.69 1200.77 1192.59C1200.87 1191.37 1200.92 1190.14 1200.97 1188.91C1201.5 1188.26 1201.8 1187.44 1201.83 1186.6C1201.83 1186.6 1201.83 1186.67 1201.83 1186.7V1186.49C1201.83 1186.13 1201.83 1186.18 1201.83 1186.34L1201.89 1185.94C1202.1 1184.23 1202.39 1182.53 1202.63 1180.83C1202.77 1180.64 1202.87 1180.41 1202.93 1180.18C1202.98 1180.02 1203.01 1179.84 1203.01 1179.67C1204.78 1178.97 1204.06 1176.11 1204.11 1174.43Z" fill="#002127"/><path id="Vector_121" d="M1201.64 1186.51C1201.64 1186.51 1201.64 1186.57 1201.64 1186.6C1201.65 1186.51 1201.65 1186.43 1201.64 1186.34V1186.49V1186.51Z" fill="#002127"/><path id="Vector_122" d="M629.411 594.949C627.881 593.949 626.281 593.149 624.751 592.189C620.511 589.409 616.291 586.599 612.161 583.659C605.931 579.36 599.998 574.646 594.402 569.549C591.632 566.789 588.831 564.049 586.251 561.109C584.811 559.339 583.361 557.209 581.541 554.539C578.661 550.029 577.541 546.359 575.911 540.839C575.309 536.996 575.045 533.108 575.121 529.219C575.061 521.949 576.581 517.099 580.241 510.849C580.621 510.139 581.241 509.429 581.001 508.569C580.913 508.26 580.737 507.983 580.493 507.773C580.25 507.563 579.952 507.428 579.633 507.386C579.314 507.343 578.99 507.394 578.7 507.534C578.411 507.673 578.167 507.894 578.001 508.169C575.485 512.148 573.627 516.508 572.501 521.079C572.211 522.753 572.021 524.443 571.932 526.139C571.53 526.176 571.157 526.362 570.885 526.66C570.613 526.958 570.462 527.346 570.461 527.749V528.129C570.351 528.559 570.462 529.459 570.352 531.279C570.117 534.608 570.094 537.948 570.281 541.279V542.859C570.401 543.859 570.171 545.149 570.781 546.039C570.819 546.088 570.859 546.135 570.902 546.179C570.902 546.389 570.971 546.599 571.011 546.819C570.72 547.119 570.56 547.521 570.562 547.939C570.789 548.902 571.16 549.826 571.661 550.679C571.73 550.973 571.824 551.261 571.942 551.539C572.015 551.804 572.156 552.046 572.352 552.239C572.672 553.289 573.012 554.319 573.352 555.349C574.352 557.869 575.251 560.529 576.871 562.739C577.884 564.139 578.983 565.475 580.161 566.739C580.971 567.599 581.941 568.869 583.281 568.569C583.631 568.959 583.971 569.369 584.281 569.749C585.411 570.959 586.571 572.139 587.791 573.249C588.332 573.874 589.019 574.355 589.791 574.649C590.411 575.189 591.051 575.719 591.701 576.239C591.856 576.893 592.248 577.467 592.801 577.849C593.798 578.731 594.84 579.562 595.921 580.339C599.031 582.629 602.202 584.819 605.472 586.879C606.085 587.419 606.843 587.767 607.652 587.879C609.512 589.119 611.371 590.349 613.251 591.559C614.251 592.169 615.161 592.759 616.121 593.359C616.511 593.635 616.919 593.886 617.341 594.109L617.531 594.219C617.725 594.309 617.925 594.382 618.131 594.439C618.332 594.479 618.54 594.479 618.741 594.439C620.034 595.28 621.369 596.055 622.741 596.759C623.131 596.979 623.532 597.189 623.932 597.389L624.022 597.499C624.299 597.707 624.597 597.885 624.911 598.029C625.27 598.336 625.666 598.595 626.091 598.799C626.975 599.303 627.985 599.545 629.001 599.499C629.367 599.399 629.685 599.167 629.892 598.849C630.149 598.835 630.397 598.755 630.614 598.617C630.832 598.478 631.01 598.286 631.131 598.059C632.101 596.429 630.611 595.549 629.411 594.949Z" fill="#002127"/><path id="Vector_123" d="M574.611 647.749C573.211 647.029 571.871 646.219 570.521 645.419C565.951 642.889 561.391 640.319 557.071 637.419C548.071 631.729 541.071 626.909 533.951 619.239C530.531 615.239 528.371 612.929 526.251 608.239C523.251 602.539 522.782 596.679 523.142 589.239C523.205 588.007 523.392 586.784 523.701 585.589C524.171 584.069 524.642 582.589 525.222 581.069C526.261 578.945 527.647 577.009 529.321 575.339C529.981 574.659 530.871 573.939 530.571 572.869C530.49 572.594 530.34 572.344 530.134 572.144C529.928 571.944 529.674 571.801 529.396 571.727C529.119 571.654 528.827 571.653 528.55 571.725C528.272 571.798 528.018 571.94 527.812 572.139C525.858 574.073 524.158 576.248 522.751 578.609C520.92 582.294 519.897 586.327 519.751 590.439C519.658 593.107 519.733 595.779 519.972 598.439C519.757 598.372 519.529 598.356 519.308 598.392C519.086 598.429 518.876 598.517 518.694 598.649C518.513 598.781 518.364 598.954 518.261 599.154C518.158 599.353 518.104 599.574 518.102 599.799C518.192 600.639 518.302 600.399 518.432 600.879C518.481 601.057 518.559 601.226 518.661 601.379L518.791 601.689C518.795 601.749 518.795 601.809 518.791 601.869C518.815 603.128 519.08 604.37 519.571 605.529C520.061 606.999 520.571 608.449 521.191 609.879C521.971 612.429 522.812 614.959 523.812 617.439V617.359C523.882 617.895 524.1 618.402 524.44 618.822C524.781 619.242 525.231 619.559 525.741 619.739C526.529 621.249 527.393 622.718 528.331 624.139C528.46 624.469 528.666 624.764 528.932 624.999C529.717 626.121 530.575 627.19 531.501 628.199C532.128 628.968 532.907 629.598 533.791 630.049L534.011 630.259C536.121 632.259 538.892 634.399 541.642 636.479C544.822 639.169 548.101 641.749 551.211 643.889C551.859 644.615 552.568 645.284 553.331 645.889C556.334 648.339 559.621 650.417 563.121 652.079C564.391 652.699 565.661 653.339 566.961 653.919C567.961 654.479 569.472 654.919 570.182 653.649C570.278 653.49 570.342 653.313 570.371 653.129L570.831 652.839L571.491 652.519C571.671 652.459 571.941 652.349 572.091 652.279C572.459 652.051 572.73 651.695 572.852 651.279C573.091 651.212 573.31 651.089 573.491 650.919C573.861 651.173 574.281 651.347 574.722 651.429C575.043 651.48 575.371 651.431 575.664 651.29C575.957 651.149 576.201 650.922 576.361 650.639C577.221 648.979 575.881 648.369 574.611 647.749Z" fill="#002127"/><path id="Vector_124" d="M512.139 702.281H512.079C509.996 700.953 508.032 699.447 506.209 697.781C502.398 694.464 498.907 690.798 495.779 686.831C493.549 683.951 492.089 680.581 490.439 677.361C489.679 676.061 488.928 672.421 488.508 669.691C487.991 666.159 487.991 662.572 488.508 659.041C488.508 659.041 488.669 658.181 488.729 657.911C489.125 656.025 489.715 654.186 490.489 652.421C491.746 649.822 493.247 647.348 494.969 645.031C496.969 643.161 494.259 640.521 492.619 642.711C489.461 646.613 487.139 651.123 485.799 655.961C484.981 659.567 484.645 663.266 484.799 666.961L484.859 667.481C484.484 667.556 484.152 667.77 483.929 668.081C483.119 669.371 483.619 671.081 483.739 672.521C484.086 674.661 484.532 676.777 485.079 678.871C485.989 682.601 487.359 688.401 490.789 692.371C491.808 693.763 492.946 695.064 494.189 696.261C494.459 696.571 494.719 696.881 494.999 697.181C497.789 700.181 500.399 703.411 503.629 705.941L503.809 706.081C504.081 706.402 504.441 706.635 504.845 706.751C505.25 706.867 505.679 706.86 506.079 706.731C506.132 706.71 506.183 706.684 506.229 706.651C506.316 706.69 506.406 706.72 506.499 706.741C506.936 706.848 507.398 706.781 507.787 706.553C508.175 706.325 508.459 705.955 508.579 705.521C508.841 705.52 509.1 705.461 509.337 705.349C509.573 705.236 509.782 705.073 509.949 704.871L510.449 705.201C511.449 705.761 513.029 705.851 513.299 703.901C513.307 703.542 513.198 703.19 512.989 702.898C512.78 702.605 512.482 702.389 512.139 702.281V702.281Z" fill="#002127"/><path id="Vector_125" d="M461.46 714.66C462.08 714.04 462.721 713.2 462.281 712.3C462.176 712.052 462.011 711.833 461.802 711.663C461.593 711.493 461.346 711.377 461.081 711.324C460.817 711.272 460.544 711.285 460.286 711.363C460.027 711.441 459.793 711.58 459.601 711.77C457.631 713.933 456.002 716.385 454.771 719.04C453.483 721.242 452.533 723.626 451.951 726.11C451.751 727.03 451.581 727.96 451.431 728.89C451.245 728.752 451.031 728.654 450.805 728.602C450.579 728.551 450.344 728.547 450.117 728.591C449.889 728.636 449.673 728.727 449.483 728.859C449.292 728.991 449.131 729.162 449.01 729.36C448.663 730.102 448.558 730.935 448.71 731.74C448.61 730.61 448.53 733.31 448.51 733.74C448.476 736.769 448.812 739.792 449.51 742.74C449.63 744.67 449.74 746.61 449.83 748.54C449.739 748.715 449.683 748.907 449.665 749.105C449.648 749.302 449.671 749.501 449.731 749.69V749.69C450.061 750.54 450.401 751.38 450.731 752.23C450.731 752.46 450.82 752.69 450.87 752.93C450.922 753.616 451.077 754.29 451.33 754.93C451.46 755.38 451.611 755.83 451.701 756.29C451.711 756.419 451.711 756.55 451.701 756.68C451.682 756.943 451.732 757.207 451.846 757.445C451.96 757.684 452.134 757.888 452.351 758.04C452.564 758.203 452.814 758.312 453.078 758.358C453.343 758.403 453.615 758.383 453.87 758.299C454.126 758.215 454.356 758.07 454.542 757.877C454.729 757.684 454.866 757.448 454.941 757.19C454.997 756.883 455.014 756.571 454.991 756.26C455.134 756.093 455.243 755.899 455.311 755.69C455.494 755.622 455.665 755.527 455.821 755.41C456.038 755.569 456.295 755.664 456.564 755.686C456.832 755.707 457.101 755.653 457.34 755.53C457.565 755.439 457.767 755.3 457.932 755.122C458.097 754.944 458.221 754.732 458.294 754.501C458.368 754.27 458.389 754.025 458.358 753.785C458.326 753.544 458.242 753.314 458.111 753.11C458.111 753.02 457.751 752.45 457.691 752.24C456.942 750.652 456.343 748.999 455.901 747.3C454.82 744.074 454.236 740.702 454.17 737.3C453.819 732.215 454.665 727.119 456.641 722.42C458.421 719.22 459.52 716.75 461.46 714.66Z" fill="#002127"/></g></g></g></svg>