<svg viewBox="37.67499999999998 7.521084337349407 208.92500000000004 194.86445783132527" fill="none" xmlns="http://www.w3.org/2000/svg" xmlns:xlink="http://www.w3.org/1999/xlink" overflow="visible" width="208.92500000000004px" height="194.86445783132527px"><g id="Master/Stickers/Business Balance"><g id="Group"><g id="Group_2"><path id="Vector" d="M94.2686 8.16866L101.517 48.9872L144.624 42.8835L144.052 38.8779L97.8926 7.59644L94.2686 8.16866Z" fill="#E7E5FB"/><path id="Vector_2" d="M159.693 127.954L60.1259 145.311L38 18.0872L97.8926 7.59644L104.759 46.3168L144.052 38.8779L159.693 127.954Z" fill="#CAD2ED"/><path id="Vector_3" d="M132.798 59.4778L61.6517 71.876C61.0795 72.0667 60.5072 71.4945 60.3165 70.9223L59.5535 66.3445C59.3628 65.7723 59.935 65.2 60.5072 65.0093L131.654 52.6111C132.226 52.4204 132.798 52.9926 132.989 53.5648L133.752 58.1426C133.752 58.9056 133.37 59.4778 132.798 59.4778Z" fill="#E7E5FB"/><path id="Vector_4" d="M98.6556 82.3665L64.513 88.2794C63.9408 88.4702 63.3686 87.898 63.1778 87.3257L62.4149 82.748C62.2241 82.1757 62.7963 81.6035 63.3686 81.4128L97.5112 75.4998C98.0834 75.3091 98.6556 75.8813 98.8463 76.4535L99.6093 81.0313C99.8 81.7943 99.4186 82.3665 98.6556 82.3665Z" fill="#E7E5FB"/></g><g id="Group_3"><g id="Group_4"><path id="Vector_5" d="M193.644 86.1814L137.757 70.1592C133.37 68.824 128.792 71.4944 127.457 75.8814L108.192 143.785C106.857 148.172 109.528 152.75 113.915 154.085L169.802 170.107C174.189 171.443 178.766 168.772 180.102 164.385L199.366 96.4814C200.702 92.0944 198.031 87.5166 193.644 86.1814Z" fill="#959595"/><path id="Vector_6" d="M180.102 164.195C178.766 168.582 174.189 171.061 169.802 169.917L113.915 153.895C109.527 152.559 107.048 147.982 108.192 143.595L127.648 75.8815C128.983 71.4945 133.561 69.0149 137.948 70.1593L193.835 86.1815C198.222 87.5167 200.702 92.0945 199.557 96.4815L180.102 164.195Z" fill="#7A6EF5"/></g><path id="Vector_7" d="M134.333 77.637L129.202 95.6118L187.711 112.314L192.843 94.3393L134.333 77.637Z" fill="white"/><path id="Vector_8" d="M148.277 108.572L145.712 117.559L162.036 122.219L164.602 113.232L148.277 108.572Z" fill="white"/><path id="Vector_9" d="M127.249 102.615L124.684 111.602L141.008 116.262L143.573 107.275L127.249 102.615Z" fill="white"/><path id="Vector_10" d="M122.566 118.561L120 127.549L136.325 132.209L138.89 123.221L122.566 118.561Z" fill="white"/><path id="Vector_11" d="M143.778 124.571L141.212 133.559L157.536 138.218L160.102 129.231L143.778 124.571Z" fill="white"/><path id="Vector_12" d="M169.497 114.215L162.163 139.906L178.487 144.565L185.821 118.875L169.497 114.215Z" fill="#B6B2F8"/><path id="Vector_13" d="M118.068 134.56L115.503 143.547L131.827 148.207L134.393 139.22L118.068 134.56Z" fill="white"/><path id="Vector_14" d="M139.28 140.569L136.715 149.556L153.039 154.216L155.604 145.229L139.28 140.569Z" fill="white"/><path id="Vector_15" d="M159.566 146L157 154.987L173.324 159.647L175.89 150.66L159.566 146Z" fill="white"/><path id="Vector_16" d="M180.674 106.019C178.958 105.446 178.004 103.73 178.576 102.013L179.72 98.0074C180.293 96.2908 182.009 95.3371 183.726 95.9093C185.443 96.4815 186.396 98.1982 185.824 99.9148L184.68 103.92C184.108 105.637 182.391 106.591 180.674 106.019Z" fill="#42AF71"/><path id="Vector_17" d="M171.265 103.276C169.548 102.703 168.594 100.987 169.166 99.2701L170.311 95.2645C170.883 93.5478 172.6 92.5941 174.316 93.1664C176.033 93.7386 176.987 95.4552 176.414 97.1719L175.079 100.987C174.698 102.703 172.981 103.657 171.265 103.276Z" fill="#42AF71"/><path id="Vector_18" d="M153.674 98.0185C151.958 97.4463 151.004 95.7296 151.576 94.013L152.72 90.0074C153.293 88.2908 155.009 87.3371 156.726 87.9093C158.443 88.4815 159.396 90.1982 158.824 91.9148L157.68 95.9204C157.108 97.6371 155.391 98.5908 153.674 98.0185Z" fill="#42AF71"/><path id="Vector_19" d="M144.265 95.2756C142.548 94.7034 141.594 92.9867 142.166 91.2701L143.311 87.2645C143.883 85.5478 145.6 84.5941 147.316 85.1664C149.033 85.7386 149.987 87.4552 149.414 89.1719L148.079 92.9867C147.698 94.7034 145.981 95.6571 144.265 95.2756Z" fill="#42AF71"/><path id="Vector_20" d="M162.265 100.276C160.548 99.7034 159.594 97.9867 160.166 96.2701L161.311 92.2645C161.883 90.5478 163.6 89.5941 165.316 90.1664C167.033 90.7386 167.987 92.4552 167.414 94.1719L166.079 97.9867C165.698 99.7034 163.981 100.657 162.265 100.276Z" fill="#42AF71"/></g><g id="Group_5"><g id="Group_6"><path id="Vector_21" d="M201.274 155.993C210.861 155.993 218.632 148.222 218.632 138.635C218.632 129.049 210.861 121.278 201.274 121.278C191.688 121.278 183.917 129.049 183.917 138.635C183.917 148.222 191.688 155.993 201.274 155.993Z" fill="#FCC821"/><path id="Vector_22" d="M197.46 151.033C190.784 148.935 186.969 141.687 189.067 135.011C191.165 128.335 198.413 124.52 205.089 126.618C211.765 128.717 215.58 135.965 213.482 142.641C211.384 149.317 204.135 153.131 197.46 151.033ZM204.135 129.67C198.985 128.144 193.645 130.815 191.928 135.965C190.402 141.115 193.073 146.455 198.223 148.172C203.373 149.698 208.713 147.028 210.43 141.878C212.147 136.728 209.285 131.196 204.135 129.67Z" fill="#F3941F"/></g><g id="Group_7"><g id="Group_8"><path id="Vector_23" d="M230.332 138.972L160.305 158.397L170.91 196.627L240.937 177.202L230.332 138.972Z" fill="#CDFFEC"/></g><g id="Group_9"><g id="Group_10"><path id="Vector_24" d="M215.77 163.432C218.059 172.015 213.1 180.789 204.707 183.078C196.315 185.367 187.35 180.408 185.061 172.015C182.772 163.622 187.731 154.658 196.124 152.369C204.707 149.889 213.481 154.848 215.77 163.432Z" fill="white"/></g></g><g id="Group_11"><g id="Group_12"><path id="Vector_25" d="M204.326 166.102C203.563 165.721 202.61 165.53 201.274 165.53H200.511C200.321 165.53 200.13 165.53 200.13 165.53C199.558 165.53 198.985 165.339 198.604 165.149C198.223 164.958 197.841 164.577 197.841 164.004C197.65 163.432 197.65 163.051 198.032 162.478C198.223 162.097 198.604 161.715 199.176 161.715C199.748 161.525 200.13 161.525 200.702 161.906C201.084 162.097 201.465 162.478 201.656 163.051L205.089 162.097C204.708 161.143 204.326 160.38 203.563 159.808C202.991 159.236 202.037 158.664 201.274 158.473C200.321 158.282 199.939 158.282 199.558 158.282L198.795 155.23L197.269 155.612L195.934 155.993L196.697 159.045C196.315 159.236 195.934 159.617 195.743 159.808C194.98 160.38 194.598 161.334 194.408 162.097C194.217 163.051 194.217 163.814 194.408 164.767C194.598 165.53 194.98 166.293 195.743 166.865C196.315 167.438 197.078 168.01 197.841 168.201C198.223 168.391 198.795 168.391 199.558 168.391C199.558 168.391 199.939 168.391 200.321 168.391C200.511 168.391 200.702 168.391 201.084 168.391C201.847 168.391 202.61 168.582 202.991 168.773C203.563 169.154 204.135 169.536 204.326 170.299C204.517 170.871 204.517 171.634 204.135 172.015C203.754 172.588 203.373 172.969 202.61 173.16C202.61 173.16 202.61 173.16 202.419 173.16C201.847 173.351 201.274 173.351 200.702 172.969C200.13 172.778 199.748 172.206 199.558 171.634L196.124 172.588C196.315 173.351 196.697 173.923 197.078 174.495C197.46 175.067 198.032 175.449 198.604 175.83C199.558 176.402 200.702 176.784 201.847 176.593L202.61 179.454L203.945 179.073L205.471 178.691L204.708 175.639C205.089 175.449 205.661 175.067 205.852 174.686C206.615 173.923 206.997 173.16 207.378 172.015C207.569 171.062 207.569 169.917 207.378 168.964C206.806 168.01 205.661 166.865 204.326 166.102Z" fill="#42AF71"/></g></g><g id="Group_13"><path id="Vector_26" d="M157.213 156.565L169.23 199.673L244 178.882L231.983 135.775L157.213 156.565ZM180.483 191.089C179.339 186.702 174.761 184.223 170.374 185.367L165.605 168.01C169.993 166.675 172.472 162.288 171.137 157.901L220.539 144.167C221.874 148.364 226.261 150.843 230.648 149.699L235.417 167.247C231.03 168.582 228.55 172.969 229.694 177.356L180.483 191.089Z" fill="#4CD7AD"/></g></g></g><g id="Group_14"><path id="Vector_27" d="M174.189 69.5871C183.775 69.5871 191.546 61.816 191.546 52.2297C191.546 42.6435 183.775 34.8723 174.189 34.8723C164.603 34.8723 156.832 42.6435 156.832 52.2297C156.832 61.816 164.603 69.5871 174.189 69.5871Z" fill="#FCC821"/><path id="Vector_28" d="M170.183 64.6278C163.507 62.5296 159.692 55.2815 161.791 48.6055C163.889 41.9296 171.137 38.1148 177.813 40.2129C184.489 42.3111 188.304 49.5592 186.205 56.2352C184.107 62.9111 176.859 66.7259 170.183 64.6278ZM177.05 43.2648C171.9 41.7389 166.559 44.4092 164.842 49.5592C163.317 54.7092 165.987 60.05 171.137 61.7666C176.287 63.2926 181.628 60.6222 183.344 55.4722C184.87 50.3222 182.009 44.7907 177.05 43.2648Z" fill="#F3941F"/></g><g id="Group_15"><path id="Vector_29" d="M57.2646 161.333C66.8509 161.333 74.622 153.562 74.622 143.976C74.622 134.39 66.8509 126.618 57.2646 126.618C47.6784 126.618 39.9072 134.39 39.9072 143.976C39.9072 153.562 47.6784 161.333 57.2646 161.333Z" fill="#FCC821"/><path id="Vector_30" d="M53.4498 156.374C46.7738 154.276 42.959 147.028 45.0572 140.352C47.1553 133.676 54.4035 129.861 61.0794 131.959C67.7553 134.057 71.5701 141.306 69.472 147.982C67.1831 154.657 60.1257 158.472 53.4498 156.374ZM60.1257 135.011C54.9757 133.485 49.635 136.156 47.9183 141.306C46.3924 146.456 49.0627 151.796 54.2127 153.513C59.3627 155.039 64.7035 152.369 66.4201 147.219C68.1368 142.069 65.2757 136.537 60.1257 135.011Z" fill="#F3941F"/></g></g></g></svg>