<svg width="188" height="175" viewBox="0 0 188 175" fill="none" xmlns="http://www.w3.org/2000/svg">
<path d="M152.279 27.8438H35.2161C18.638 27.8438 14.013 39.4219 14.013 49.3906V89.8437H173.513V49.3906C173.497 39.4219 168.857 27.8438 152.279 27.8438Z" fill="#FFCA28"/>
<path d="M13.9973 68.7344C13.9973 68.7344 15.1692 70.875 20.4036 69.3281C25.638 67.7812 28.0598 58.5156 28.0598 58.5156L27.4036 89.8437H13.9973V68.7344Z" fill="#E2A610"/>
<path d="M173.497 67.25C173.497 67.25 172.107 69.4219 166.966 68C161.81 66.5625 159.763 56.2188 159.763 56.2188L160.169 89.8594H173.497V67.25Z" fill="#E2A610"/>
<path d="M169.185 81.8906C162.185 70.125 160.513 64.5625 159.513 53.75C158.857 46.6562 156.825 41.1719 149.872 41.1719H37.6223C30.6692 41.1719 28.638 46.6719 27.9817 53.75C26.9817 64.5469 25.3098 70.125 18.3098 81.8906C7.52859 100.016 -1.40891 116.188 0.184845 127.531C3.23172 149.25 22.6692 174.078 38.138 174.078H149.357C164.841 174.078 184.263 149.25 187.31 127.531C188.904 116.188 179.966 100.016 169.185 81.8906Z" fill="url(#paint0_radial_179_295)"/>
<path d="M79.1223 26.75C86.5091 26.75 92.4973 20.7618 92.4973 13.375C92.4973 5.98819 86.5091 0 79.1223 0C71.7355 0 65.7473 5.98819 65.7473 13.375C65.7473 20.7618 71.7355 26.75 79.1223 26.75Z" fill="#FFCA28"/>
<path d="M80.8411 4.24999C81.5286 5.64062 80.8411 7.07812 77.6848 8.98437C74.4192 10.9531 73.9661 12.75 72.6223 14.1562C71.5286 15.2969 69.388 14.875 69.138 13.3437C68.5442 9.74999 70.2786 6.92187 71.9192 5.21874C74.4192 2.60937 79.3723 1.31249 80.8411 4.24999Z" fill="#FFE36C"/>
<path d="M89.8723 21.3125C90.3411 20.6719 91.013 19.6094 91.2786 18.9219C91.3567 18.7344 90.7473 18.9688 90.2005 19.4844C89.013 20.625 86.6848 22.9688 82.2317 24.3125C76.4348 26.0625 72.3567 23.9375 71.763 24.125C71.1536 24.3281 73.2942 25.3906 73.6067 25.5313C74.7161 26.0313 75.9036 26.3906 77.1067 26.5781L77.9036 29.2656H89.888L88.0911 23.2969C88.7161 22.7344 89.3255 22.0625 89.8723 21.3125Z" fill="#9E740B"/>
<path d="M93.1536 55.25C93.1536 55.25 94.5755 49.7969 95.5442 46.5781C96.8567 42.1875 97.8723 34.0781 104.31 35.0625C107.122 35.5 109.544 38.3125 109.138 41.1563L105.122 55.2344H93.1536V55.25Z" fill="#FFCA28"/>
<path d="M105.122 45.75C112.509 45.75 118.497 39.7618 118.497 32.375C118.497 24.9882 112.509 19 105.122 19C97.7355 19 91.7473 24.9882 91.7473 32.375C91.7473 39.7618 97.7355 45.75 105.122 45.75Z" fill="#E2A610"/>
<path d="M108.122 22.1094C108.888 22.8125 109.169 24.125 108.482 24.8906C108.06 25.3594 107.247 25.7031 106.232 25.625C104.185 25.4844 102.654 25.9844 101.544 26.4219C98.9973 27.4219 97.6848 26.8438 97.5755 25.8125C97.4661 24.7813 97.763 22.8906 101.685 21.6719C105.607 20.4688 107.591 21.625 108.122 22.1094Z" fill="#FFCA28"/>
<path d="M152.624 50H35.8705C19.3361 50 14.7233 59.8363 14.7233 68.3053V102.673H173.803V68.3053C173.787 59.8363 169.159 50 152.624 50Z" fill="#FFCA28"/>
<path d="M14.7078 84.7389C14.7078 84.7389 15.8765 86.5575 21.0971 85.2433C26.3177 83.9292 28.7332 76.0575 28.7332 76.0575L28.0786 102.673H14.7078V84.7389Z" fill="#E2A610"/>
<path d="M173.787 83.4778C173.787 83.4778 172.4 85.323 167.273 84.115C162.13 82.8938 160.089 74.1062 160.089 74.1062L160.494 102.686H173.787V83.4778Z" fill="#E2A610"/>
<path d="M169.486 95.9159C162.504 85.9203 160.837 81.1947 159.839 72.0088C159.185 65.9823 157.159 61.323 150.224 61.323H38.2704C31.3356 61.323 29.3098 65.9956 28.6552 72.0088C27.6579 81.1814 25.9904 85.9203 19.0089 95.9159C8.25608 111.314 -0.657843 125.053 0.931702 134.69C3.97054 153.141 23.3568 174.234 38.7847 174.234H149.71C165.154 174.234 184.524 153.141 187.563 134.69C189.153 125.053 180.239 111.314 169.486 95.9159Z" fill="url(#paint1_radial_179_295)"/>
<path d="M83.2296 61.4823C83.2296 61.4823 54.1191 82.7743 63.1889 87.9778C72.5391 93.3407 83.2296 61.4823 83.2296 61.4823Z" fill="#755CA3"/>
<path d="M94.559 101.305C107.244 101.305 93.9045 61.2301 93.9045 61.2301C93.9045 61.2301 81.8738 101.305 94.559 101.305Z" fill="#755CA3"/>
<path d="M105.857 61.2301C105.857 61.2301 115.098 93.8185 124.994 88.2035C134.89 82.5885 105.857 61.2301 105.857 61.2301Z" fill="#755CA3"/>
<defs>
<radialGradient id="paint0_radial_179_295" cx="0" cy="0" r="1" gradientTransform="matrix(199.025 0.668724 -0.370186 110.081 101.221 67.4343)" gradientUnits="userSpaceOnUse">
<stop offset="0.444" stop-color="#9BACEC"/>
<stop offset="1" stop-color="#755CA3"/>
</radialGradient>
<radialGradient id="paint1_radial_179_295" cx="0" cy="0" r="1" gradientTransform="matrix(198.5 0.568119 -0.36921 93.5198 101.702 83.6344)" gradientUnits="userSpaceOnUse">
<stop offset="0.444" stop-color="#9BACEC"/>
<stop offset="1" stop-color="#755CA3"/>
</radialGradient>
</defs>
</svg>
