<svg width="53" height="37" viewBox="0 0 53 37" fill="none" xmlns="http://www.w3.org/2000/svg">
<path d="M38.7188 26.75C46.1056 26.75 52.0937 20.7618 52.0937 13.375C52.0937 5.98819 46.1056 0 38.7188 0C31.3319 0 25.3438 5.98819 25.3438 13.375C25.3438 20.7618 31.3319 26.75 38.7188 26.75Z" fill="#E2A610"/>
<path d="M27.9062 21.2187C27.1562 20.25 26.4687 19.2187 25.8594 18.1406C25.7969 18.0312 25.7344 17.9219 25.7187 17.8125C25.6875 17.625 25.75 17.4375 25.7969 17.25C26.1719 15.9687 26.2969 14.625 26.1875 13.3125C26.0937 12.2969 25.8594 11.2969 25.8594 10.2812C25.8594 9.60937 26.2187 7.29687 27.0937 7.875C27.8437 8.375 28.3906 10.0781 28.6875 10.8906C29.4531 13.0156 29.6406 15.3594 29.2187 17.5781C28.9844 18.8437 28.5469 20.0781 27.9062 21.2187Z" fill="#9E740B"/>
<path d="M41.7187 3.10938C42.4844 3.8125 42.7656 5.125 42.0781 5.89063C41.6563 6.35938 40.8437 6.70313 39.8281 6.625C37.7812 6.48438 36.25 6.98438 35.1406 7.42188C32.5937 8.42188 31.2812 7.84375 31.1719 6.8125C31.0625 5.78125 31.3594 3.89063 35.2813 2.67188C39.2031 1.46875 41.1875 2.625 41.7187 3.10938Z" fill="#FFCA28"/>
<path d="M26.75 36.25C26.75 36.25 28.1719 30.7969 29.1406 27.5781C30.4531 23.1875 31.4687 15.0781 37.9062 16.0625C40.7187 16.5 43.1406 19.3125 42.7344 22.1563L38.7188 36.2344H26.75V36.25Z" fill="#FFCA28"/>
<path d="M13.375 26.75C20.7618 26.75 26.75 20.7618 26.75 13.375C26.75 5.98819 20.7618 0 13.375 0C5.98819 0 0 5.98819 0 13.375C0 20.7618 5.98819 26.75 13.375 26.75Z" fill="#FFCA28"/>
<path d="M15.0938 4.24999C15.7813 5.64062 15.0937 7.07812 11.9375 8.98437C8.67188 10.9531 8.21875 12.75 6.875 14.1562C5.78125 15.2969 3.64062 14.875 3.39062 13.3437C2.79687 9.74999 4.53125 6.92187 6.17187 5.21874C8.67187 2.60937 13.625 1.31249 15.0938 4.24999Z" fill="#FFE36C"/>
<path d="M24.125 21.3125C24.5937 20.6719 25.2656 19.6094 25.5312 18.9219C25.6094 18.7344 25 18.9688 24.4531 19.4844C23.2656 20.625 20.9375 22.9688 16.4844 24.3125C10.6875 26.0625 6.60936 23.9375 6.01561 24.125C5.40623 24.3281 7.54686 25.3906 7.85936 25.5313C8.96874 26.0313 10.1562 26.3906 11.3594 26.5781L12.1562 29.2656H24.1406L22.3437 23.2969C22.9687 22.7344 23.5781 22.0625 24.125 21.3125Z" fill="#9E740B"/>
</svg>
