<svg width="188" height="147" viewBox="0 0 188 147" fill="none" xmlns="http://www.w3.org/2000/svg">
<path d="M152.279 0H35.2161C18.638 0 14.013 11.5781 14.013 21.5469V62H173.513V21.5469C173.497 11.5781 168.857 0 152.279 0Z" fill="#FFCA28"/>
<path d="M13.9973 40.8906C13.9973 40.8906 15.1692 43.0312 20.4036 41.4844C25.638 39.9375 28.0598 30.6719 28.0598 30.6719L27.4036 62H13.9973V40.8906Z" fill="#E2A610"/>
<path d="M173.497 39.4063C173.497 39.4063 172.107 41.5781 166.966 40.1563C161.81 38.7188 159.763 28.375 159.763 28.375L160.169 62.0156H173.497V39.4063Z" fill="#E2A610"/>
<path d="M169.185 54.0469C162.185 42.2813 160.513 36.7187 159.513 25.9062C158.857 18.8125 156.825 13.3281 149.872 13.3281H37.6223C30.6692 13.3281 28.638 18.8281 27.9817 25.9062C26.9817 36.7031 25.3098 42.2813 18.3098 54.0469C7.52859 72.1719 -1.40891 88.3438 0.184845 99.6875C3.23172 121.406 22.6692 146.234 38.138 146.234H149.357C164.841 146.234 184.263 121.406 187.31 99.6875C188.904 88.3438 179.966 72.1719 169.185 54.0469Z" fill="url(#paint0_radial_177_169)"/>
<path d="M82.7005 13.5156C82.7005 13.5156 53.513 38.5781 62.6067 44.7031C71.9817 51.0156 82.7005 13.5156 82.7005 13.5156Z" fill="#755CA3"/>
<path d="M94.0598 60.3906C106.779 60.3906 93.4036 13.2188 93.4036 13.2188C93.4036 13.2188 81.3411 60.3906 94.0598 60.3906Z" fill="#755CA3"/>
<path d="M105.388 13.2188C105.388 13.2188 114.654 51.5781 124.575 44.9687C134.497 38.3594 105.388 13.2188 105.388 13.2188Z" fill="#755CA3"/>
<defs>
<radialGradient id="paint0_radial_177_169" cx="0" cy="0" r="1" gradientTransform="matrix(199.025 0.668724 -0.370186 110.081 101.221 39.5906)" gradientUnits="userSpaceOnUse">
<stop offset="0.444" stop-color="#9BACEC"/>
<stop offset="1" stop-color="#755CA3"/>
</radialGradient>
</defs>
</svg>
