<svg width="196" height="177" viewBox="0 0 196 177" fill="none" xmlns="http://www.w3.org/2000/svg">
<path d="M110.419 26.75C117.806 26.75 123.794 20.7618 123.794 13.375C123.794 5.98819 117.806 0 110.419 0C103.032 0 97.0442 5.98819 97.0442 13.375C97.0442 20.7618 103.032 26.75 110.419 26.75Z" fill="#9BACEC"/>
<path d="M98.4505 36.25C98.4505 36.25 99.8724 30.7969 100.841 27.5781C102.154 23.1875 103.169 15.0781 109.607 16.0625C112.419 16.5 114.841 19.3125 114.435 22.1562L110.419 36.2344H98.4505V36.25Z" fill="#9BACEC"/>
<path d="M85.0755 26.75C92.4623 26.75 98.4505 20.7618 98.4505 13.375C98.4505 5.98819 92.4623 0 85.0755 0C77.6887 0 71.7005 5.98819 71.7005 13.375C71.7005 20.7618 77.6887 26.75 85.0755 26.75Z" fill="#9BACEC"/>
<path d="M95.8255 21.3125C96.2942 20.6719 96.9661 19.6094 97.2317 18.9219C97.3098 18.7344 96.7005 18.9687 96.1536 19.4844C94.9661 20.625 92.638 22.9687 88.1848 24.3125C82.388 26.0625 78.3098 23.9375 77.7161 24.125C77.1067 24.3281 79.2473 25.3906 79.5598 25.5312C80.6692 26.0312 81.8567 26.3906 83.0598 26.5781L83.8567 29.2656H95.8411L94.0442 23.2969C94.6692 22.7344 95.2786 22.0625 95.8255 21.3125Z" fill="#9BACEC"/>
<path d="M150.095 29H45.8768C31.1176 29 27 40.0179 27 49.5043V88H169V49.5043C168.986 40.0179 164.855 29 150.095 29Z" fill="#9BACEC"/>
<g filter="url(#filter0_d_183_402)">
<path d="M173.185 76.3281C166.185 64.5625 164.513 59 163.513 48.1875C162.857 41.0937 160.825 35.6094 153.872 35.6094H41.6223C34.6692 35.6094 32.638 41.1094 31.9817 48.1875C30.9817 58.9844 29.3098 64.5625 22.3098 76.3281C11.5286 94.4531 2.59109 110.625 4.18484 121.969C7.23172 143.688 26.6692 168.516 42.138 168.516H153.357C168.841 168.516 188.263 143.688 191.31 121.969C192.904 110.625 183.966 94.4531 173.185 76.3281Z" fill="url(#paint0_radial_183_402)"/>
<path d="M41.6221 42.1094H153.872C154.74 42.1094 155.09 42.2748 155.174 42.3193C155.243 42.356 155.383 42.4385 155.595 42.7656C156.127 43.5886 156.661 45.238 156.979 48.1807L157.041 48.7861C157.563 54.4251 158.292 59.0811 159.938 63.9736C161.468 68.5176 163.702 73.008 166.938 78.5322L167.599 79.6514C173.001 88.733 177.733 96.9876 180.934 104.298C184.209 111.78 185.408 117.259 184.873 121.064V121.065C183.543 130.549 178.518 141.121 171.932 149.314C168.665 153.378 165.173 156.656 161.813 158.87C158.405 161.117 155.528 162.016 153.356 162.016H42.1377C39.971 162.016 37.097 161.117 33.6885 158.87C30.3293 156.655 26.8359 153.377 23.5684 149.313C16.9796 141.119 11.9523 130.548 10.6221 121.065V121.064L10.5762 120.703C10.1634 116.915 11.3879 111.547 14.5615 104.298C17.7621 96.9875 22.4935 88.732 27.8955 79.6504C31.4925 73.6045 33.9256 68.815 35.5566 63.9668C37.1 59.3792 37.8376 55.0012 38.3535 49.832L38.4541 48.7871C38.7616 45.4714 39.3321 43.6513 39.9014 42.7695C40.1142 42.4398 40.2556 42.3563 40.3252 42.3193C40.4084 42.2751 40.7557 42.1094 41.6221 42.1094Z" stroke="#9BACEC" stroke-width="13"/>
</g>
<path d="M86.5394 41.6897C86.5394 41.6897 57.4289 62.9817 66.4987 68.1853C75.8489 73.5481 86.5394 41.6897 86.5394 41.6897Z" fill="#9BACEC"/>
<path d="M97.8688 81.5127C110.554 81.5127 97.2143 41.4375 97.2143 41.4375C97.2143 41.4375 85.1836 81.5127 97.8688 81.5127Z" fill="#9BACEC"/>
<path d="M109.167 41.4375C109.167 41.4375 118.408 74.026 128.304 68.4109C138.2 62.7959 109.167 41.4375 109.167 41.4375Z" fill="#9BACEC"/>
<defs>
<filter id="filter0_d_183_402" x="0" y="35.6094" width="195.495" height="140.906" filterUnits="userSpaceOnUse" color-interpolation-filters="sRGB">
<feFlood flood-opacity="0" result="BackgroundImageFix"/>
<feColorMatrix in="SourceAlpha" type="matrix" values="0 0 0 0 0 0 0 0 0 0 0 0 0 0 0 0 0 0 127 0" result="hardAlpha"/>
<feOffset dy="4"/>
<feGaussianBlur stdDeviation="2"/>
<feComposite in2="hardAlpha" operator="out"/>
<feColorMatrix type="matrix" values="0 0 0 0 0 0 0 0 0 0 0 0 0 0 0 0 0 0 0.25 0"/>
<feBlend mode="normal" in2="BackgroundImageFix" result="effect1_dropShadow_183_402"/>
<feBlend mode="normal" in="SourceGraphic" in2="effect1_dropShadow_183_402" result="shape"/>
</filter>
<radialGradient id="paint0_radial_183_402" cx="0" cy="0" r="1" gradientTransform="matrix(199.025 0.668724 -0.370186 110.081 105.221 61.8718)" gradientUnits="userSpaceOnUse">
<stop offset="1" stop-color="white"/>
</radialGradient>
</defs>
</svg>
