<svg width="188" height="179" viewBox="0 0 188 179" fill="none" xmlns="http://www.w3.org/2000/svg">
<path d="M152.279 31.8438H35.2161C18.638 31.8438 14.013 43.4219 14.013 53.3906V93.8437H173.513V53.3906C173.497 43.4219 168.857 31.8438 152.279 31.8438Z" fill="#FFCA28"/>
<path d="M13.9973 72.7344C13.9973 72.7344 15.1692 74.875 20.4036 73.3281C25.638 71.7812 28.0598 62.5156 28.0598 62.5156L27.4036 93.8437H13.9973V72.7344Z" fill="#E2A610"/>
<path d="M173.497 71.25C173.497 71.25 172.107 73.4219 166.966 72C161.81 70.5625 159.763 60.2188 159.763 60.2188L160.169 93.8594H173.497V71.25Z" fill="#E2A610"/>
<path d="M169.185 85.8906C162.185 74.125 160.513 68.5625 159.513 57.75C158.857 50.6562 156.825 45.1719 149.872 45.1719H37.6223C30.6692 45.1719 28.638 50.6719 27.9817 57.75C26.9817 68.5469 25.3098 74.125 18.3098 85.8906C7.52859 104.016 -1.40891 120.188 0.184845 131.531C3.23172 153.25 22.6692 178.078 38.138 178.078H149.357C164.841 178.078 184.263 153.25 187.31 131.531C188.904 120.188 179.966 104.016 169.185 85.8906Z" fill="url(#paint0_radial_180_388)"/>
<path d="M79.1223 30.75C86.5091 30.75 92.4973 24.7618 92.4973 17.375C92.4973 9.98819 86.5091 4 79.1223 4C71.7355 4 65.7473 9.98819 65.7473 17.375C65.7473 24.7618 71.7355 30.75 79.1223 30.75Z" fill="#FFCA28"/>
<path d="M80.8411 8.24999C81.5286 9.64062 80.8411 11.0781 77.6848 12.9844C74.4192 14.9531 73.9661 16.75 72.6223 18.1562C71.5286 19.2969 69.388 18.875 69.138 17.3437C68.5442 13.75 70.2786 10.9219 71.9192 9.21874C74.4192 6.60937 79.3723 5.31249 80.8411 8.24999Z" fill="#FFE36C"/>
<path d="M89.8723 25.3125C90.3411 24.6719 91.013 23.6094 91.2786 22.9219C91.3567 22.7344 90.7473 22.9688 90.2005 23.4844C89.013 24.625 86.6848 26.9688 82.2317 28.3125C76.4348 30.0625 72.3567 27.9375 71.763 28.125C71.1536 28.3281 73.2942 29.3906 73.6067 29.5313C74.7161 30.0313 75.9036 30.3906 77.1067 30.5781L77.9036 33.2656H89.888L88.0911 27.2969C88.7161 26.7344 89.3255 26.0625 89.8723 25.3125Z" fill="#9E740B"/>
<path d="M101.5 11.3226C83.9433 11.3226 69.6577 23.807 69.6577 39.15C69.6577 54.493 83.9433 66.9774 101.5 66.9774C119.057 66.9774 133.342 54.493 133.342 39.15C133.342 23.807 119.057 11.3226 101.5 11.3226ZM101.5 62.3431C86.8694 62.3431 74.9606 51.9357 74.9606 39.15C74.9606 26.3642 86.8694 15.9569 101.5 15.9569C116.131 15.9569 128.039 26.3641 128.039 39.15C128.039 51.9359 116.131 62.3431 101.5 62.3431Z" fill="#FFC107"/>
<path d="M101.5 9C82.4739 9 67 22.5229 67 39.15C67 39.485 67 48.0834 67 48.0834C67 63.4821 82.4739 76 101.5 76C120.526 76 136 63.4821 136 48.0834C136 48.0834 136 39.485 136 39.15C136 22.5229 120.526 9 101.5 9ZM74.6667 58.1334V61.997C72.0473 58.7475 70.3223 54.9955 69.76 50.9644C71.025 53.5439 72.6861 55.9335 74.6794 58.0888C74.6794 58.0999 74.6667 58.111 74.6667 58.1334ZM81.0556 67.8036C79.6756 66.8656 78.3979 65.8495 77.2223 64.744V60.5454C78.4233 61.5839 79.7012 62.5443 81.0556 63.4153V67.8036ZM87.4444 71.1425C86.0771 70.5954 84.7738 69.9811 83.5217 69.3H83.6111V64.9226C84.8377 65.5702 86.1283 66.151 87.4444 66.6757V71.1425ZM93.8333 73.0185C92.5173 72.7505 91.2394 72.4266 90 72.0359V67.5693C91.2523 67.9601 92.53 68.2839 93.8333 68.5408V73.0185ZM100.222 73.7444C98.9189 73.6998 97.6412 73.5993 96.3889 73.4318V68.965C97.6412 69.1325 98.9317 69.233 100.222 69.2665V73.7444ZM106.611 73.4316C105.359 73.5991 104.081 73.6996 102.778 73.7442V69.2664C104.068 69.2329 105.359 69.1324 106.611 68.9649V73.4316ZM113 72.0359C111.761 72.4268 110.483 72.7505 109.167 73.0185V68.5406C110.47 68.2837 111.748 67.96 113 67.5691V72.0359ZM115.556 71.1425V66.6759C116.872 66.151 118.162 65.5704 119.389 64.9228V69.3H119.478C118.226 69.9811 116.923 70.5954 115.556 71.1425ZM125.778 64.744C124.602 65.8495 123.324 66.8656 121.944 67.8036V63.4151C123.299 62.5441 124.577 61.5837 125.778 60.5452V64.744ZM128.333 61.997V58.1334C128.333 58.111 128.321 58.0999 128.321 58.0888C130.314 55.9336 131.975 53.5439 133.24 50.9644C132.678 54.9955 130.953 58.7475 128.333 61.997ZM101.5 66.9774C83.9433 66.9774 69.6577 54.493 69.6577 39.15C69.6577 23.807 83.9433 11.3226 101.5 11.3226C119.057 11.3226 133.342 23.807 133.342 39.15C133.342 54.493 119.057 66.9774 101.5 66.9774Z" fill="black"/>
<path d="M128.333 61.997V58.1334C128.333 58.1111 128.321 58.0999 128.321 58.0888C130.314 55.9337 131.975 53.5439 133.24 50.9644C132.678 54.9956 130.953 58.7475 128.333 61.997Z" fill="#FFBB4D"/>
<path d="M125.778 60.5454V64.744C124.602 65.8495 123.324 66.8656 121.944 67.8036V63.4151C123.299 62.5441 124.577 61.5839 125.778 60.5454Z" fill="#FFBB4D"/>
<path d="M119.478 69.3C118.226 69.9811 116.923 70.5954 115.556 71.1425V66.6759C116.872 66.151 118.162 65.5704 119.389 64.9228V69.3H119.478Z" fill="#FFBB4D"/>
<path d="M113 67.5691V72.0358C111.761 72.4266 110.483 72.7504 109.167 73.0184V68.5405C110.47 68.2839 111.748 67.96 113 67.5691Z" fill="#FFBB4D"/>
<path d="M106.611 68.965V73.4316C105.359 73.5991 104.081 73.6996 102.778 73.7443V69.2664C104.068 69.233 105.359 69.1325 106.611 68.965Z" fill="#FFBB4D"/>
<path d="M100.222 69.2665V73.7444C98.9189 73.6998 97.6412 73.5993 96.3889 73.4318V68.965C97.6411 69.1325 98.9317 69.233 100.222 69.2665Z" fill="#FFBB4D"/>
<path d="M93.8333 68.5406V73.0185C92.5173 72.7505 91.2394 72.4266 90 72.0359V67.5693C91.2523 67.96 92.53 68.2839 93.8333 68.5406Z" fill="#FFBB4D"/>
<path d="M87.4444 66.6759V71.1425C86.0771 70.5954 84.7738 69.9811 83.5217 69.3H83.6111V64.9226C84.8377 65.5704 86.1283 66.151 87.4444 66.6759Z" fill="#FFBB4D"/>
<path d="M81.0556 63.4151V67.8036C79.6756 66.8656 78.3979 65.8495 77.2223 64.744V60.5454C78.4233 61.5839 79.7011 62.5441 81.0556 63.4151Z" fill="#FFBB4D"/>
<path d="M74.6794 58.0886C74.6794 58.0997 74.6667 58.111 74.6667 58.1332V61.9969C72.0473 58.7474 70.3223 54.9954 69.76 50.9642C71.025 53.5439 72.6861 55.9335 74.6794 58.0886Z" fill="#FFBB4D"/>
<path d="M101.5 15.9569C86.8694 15.9569 74.9606 26.3642 74.9606 39.15C74.9606 51.9357 86.8694 62.3431 101.5 62.3431C116.131 62.3431 128.039 51.9359 128.039 39.15C128.039 26.3641 116.131 15.9569 101.5 15.9569ZM101.5 60.0205C88.3261 60.0205 77.6183 50.6629 77.6183 39.15C77.6183 27.6371 88.3261 18.2795 101.5 18.2795C114.674 18.2795 125.382 27.6371 125.382 39.15C125.382 50.6629 114.674 60.0205 101.5 60.0205Z" fill="#3A3707"/>
<ellipse cx="101.604" cy="39.15" rx="24.15" ry="20.77" fill="#FFD43C"/>
<path d="M124.5 2.32261C106.943 2.32261 92.6577 14.807 92.6577 30.15C92.6577 45.493 106.943 57.9774 124.5 57.9774C142.057 57.9774 156.342 45.493 156.342 30.15C156.342 14.807 142.057 2.32261 124.5 2.32261ZM124.5 53.3431C109.869 53.3431 97.9606 42.9357 97.9606 30.15C97.9606 17.3642 109.869 6.95686 124.5 6.95686C139.131 6.95686 151.039 17.3641 151.039 30.15C151.039 42.9359 139.131 53.3431 124.5 53.3431Z" fill="#FFC107"/>
<path d="M124.5 0C105.474 0 90 13.5229 90 30.15C90 30.485 90 39.0834 90 39.0834C90 54.4821 105.474 67 124.5 67C143.526 67 159 54.4821 159 39.0834C159 39.0834 159 30.485 159 30.15C159 13.5229 143.526 0 124.5 0ZM97.6667 49.1334V52.997C95.0473 49.7475 93.3223 45.9955 92.76 41.9644C94.025 44.5439 95.6861 46.9335 97.6794 49.0888C97.6794 49.0999 97.6667 49.111 97.6667 49.1334ZM104.056 58.8036C102.676 57.8656 101.398 56.8495 100.222 55.744V51.5454C101.423 52.5839 102.701 53.5443 104.056 54.4153V58.8036ZM110.444 62.1425C109.077 61.5954 107.774 60.9811 106.522 60.3H106.611V55.9226C107.838 56.5702 109.128 57.151 110.444 57.6757V62.1425ZM116.833 64.0185C115.517 63.7505 114.239 63.4266 113 63.0359V58.5693C114.252 58.9601 115.53 59.2839 116.833 59.5408V64.0185ZM123.222 64.7444C121.919 64.6998 120.641 64.5993 119.389 64.4318V59.965C120.641 60.1325 121.932 60.233 123.222 60.2665V64.7444ZM129.611 64.4316C128.359 64.5991 127.081 64.6996 125.778 64.7442V60.2664C127.068 60.2329 128.359 60.1324 129.611 59.9649V64.4316ZM136 63.0359C134.761 63.4268 133.483 63.7505 132.167 64.0185V59.5406C133.47 59.2837 134.748 58.96 136 58.5691V63.0359ZM138.556 62.1425V57.6759C139.872 57.151 141.162 56.5704 142.389 55.9228V60.3H142.478C141.226 60.9811 139.923 61.5954 138.556 62.1425ZM148.778 55.744C147.602 56.8495 146.324 57.8656 144.944 58.8036V54.4151C146.299 53.5441 147.577 52.5837 148.778 51.5452V55.744ZM151.333 52.997V49.1334C151.333 49.111 151.321 49.0999 151.321 49.0888C153.314 46.9336 154.975 44.5439 156.24 41.9644C155.678 45.9955 153.953 49.7475 151.333 52.997ZM124.5 57.9774C106.943 57.9774 92.6577 45.493 92.6577 30.15C92.6577 14.807 106.943 2.32262 124.5 2.32262C142.057 2.32262 156.342 14.807 156.342 30.15C156.342 45.493 142.057 57.9774 124.5 57.9774Z" fill="black"/>
<path d="M151.333 52.997V49.1334C151.333 49.1111 151.321 49.0999 151.321 49.0888C153.314 46.9337 154.975 44.5439 156.24 41.9644C155.678 45.9956 153.953 49.7475 151.333 52.997Z" fill="#FFBB4D"/>
<path d="M148.778 51.5454V55.744C147.602 56.8495 146.324 57.8656 144.944 58.8036V54.4151C146.299 53.5441 147.577 52.5839 148.778 51.5454Z" fill="#FFBB4D"/>
<path d="M142.478 60.3C141.226 60.9811 139.923 61.5954 138.556 62.1425V57.6759C139.872 57.151 141.162 56.5704 142.389 55.9228V60.3H142.478Z" fill="#FFBB4D"/>
<path d="M136 58.5691V63.0358C134.761 63.4266 133.483 63.7504 132.167 64.0184V59.5405C133.47 59.2839 134.748 58.96 136 58.5691Z" fill="#FFBB4D"/>
<path d="M129.611 59.965V64.4316C128.359 64.5991 127.081 64.6996 125.778 64.7443V60.2664C127.068 60.233 128.359 60.1325 129.611 59.965Z" fill="#FFBB4D"/>
<path d="M123.222 60.2665V64.7444C121.919 64.6998 120.641 64.5993 119.389 64.4318V59.965C120.641 60.1325 121.932 60.233 123.222 60.2665Z" fill="#FFBB4D"/>
<path d="M116.833 59.5406V64.0185C115.517 63.7505 114.239 63.4266 113 63.0359V58.5693C114.252 58.96 115.53 59.2839 116.833 59.5406Z" fill="#FFBB4D"/>
<path d="M110.444 57.6759V62.1425C109.077 61.5954 107.774 60.9811 106.522 60.3H106.611V55.9226C107.838 56.5704 109.128 57.151 110.444 57.6759Z" fill="#FFBB4D"/>
<path d="M104.056 54.4151V58.8036C102.676 57.8656 101.398 56.8495 100.222 55.744V51.5454C101.423 52.5839 102.701 53.5441 104.056 54.4151Z" fill="#FFBB4D"/>
<path d="M97.6794 49.0886C97.6794 49.0997 97.6667 49.111 97.6667 49.1332V52.9969C95.0473 49.7474 93.3223 45.9954 92.76 41.9642C94.025 44.5439 95.6861 46.9335 97.6794 49.0886Z" fill="#FFBB4D"/>
<path d="M124.5 6.95687C109.869 6.95687 97.9606 17.3642 97.9606 30.15C97.9606 42.9357 109.869 53.3431 124.5 53.3431C139.131 53.3431 151.039 42.9359 151.039 30.15C151.039 17.3641 139.131 6.95687 124.5 6.95687ZM124.5 51.0205C111.326 51.0205 100.618 41.6629 100.618 30.15C100.618 18.6371 111.326 9.2795 124.5 9.2795C137.674 9.2795 148.382 18.6371 148.382 30.15C148.382 41.6629 137.674 51.0205 124.5 51.0205Z" fill="#3A3707"/>
<ellipse cx="124.604" cy="30.15" rx="24.15" ry="20.77" fill="#FFD43C"/>
<path d="M70.5 17.3226C52.9433 17.3226 38.6577 29.807 38.6577 45.15C38.6577 60.493 52.9433 72.9774 70.5 72.9774C88.0567 72.9774 102.342 60.493 102.342 45.15C102.342 29.807 88.0567 17.3226 70.5 17.3226ZM70.5 68.3431C55.8694 68.3431 43.9606 57.9357 43.9606 45.15C43.9606 32.3642 55.8694 21.9569 70.5 21.9569C85.1306 21.9569 97.0394 32.3641 97.0394 45.15C97.0394 57.9359 85.1306 68.3431 70.5 68.3431Z" fill="#FFC107"/>
<path d="M70.5 15C51.4739 15 36 28.5229 36 45.15C36 45.485 36 54.0834 36 54.0834C36 69.4821 51.4739 82 70.5 82C89.5261 82 105 69.4821 105 54.0834C105 54.0834 105 45.485 105 45.15C105 28.5229 89.5261 15 70.5 15ZM43.6667 64.1334V67.997C41.0473 64.7475 39.3223 60.9955 38.76 56.9644C40.025 59.5439 41.6861 61.9335 43.6794 64.0888C43.6794 64.0999 43.6667 64.111 43.6667 64.1334ZM50.0556 73.8036C48.6756 72.8656 47.3979 71.8495 46.2223 70.744V66.5454C47.4233 67.5839 48.7012 68.5443 50.0556 69.4153V73.8036ZM56.4444 77.1425C55.0771 76.5954 53.7738 75.9811 52.5217 75.3H52.6111V70.9226C53.8377 71.5702 55.1283 72.151 56.4444 72.6757V77.1425ZM62.8333 79.0185C61.5173 78.7505 60.2394 78.4266 59 78.0359V73.5693C60.2523 73.9601 61.53 74.2839 62.8333 74.5408V79.0185ZM69.2223 79.7444C67.9189 79.6998 66.6412 79.5993 65.3889 79.4318V74.965C66.6412 75.1325 67.9317 75.233 69.2223 75.2665V79.7444ZM75.6111 79.4316C74.3588 79.5991 73.0811 79.6996 71.7777 79.7442V75.2664C73.0683 75.2329 74.3588 75.1324 75.6111 74.9649V79.4316ZM82 78.0359C80.7606 78.4268 79.4827 78.7505 78.1667 79.0185V74.5406C79.47 74.2837 80.7477 73.96 82 73.5691V78.0359ZM84.5556 77.1425V72.6759C85.8717 72.151 87.1623 71.5704 88.3889 70.9228V75.3H88.4783C87.2261 75.9811 85.9227 76.5954 84.5556 77.1425ZM94.7777 70.744C93.6021 71.8495 92.3244 72.8656 90.9444 73.8036V69.4151C92.2988 68.5441 93.5767 67.5837 94.7777 66.5452V70.744ZM97.3333 67.997V64.1334C97.3333 64.111 97.3206 64.0999 97.3206 64.0888C99.3139 61.9336 100.975 59.5439 102.24 56.9644C101.678 60.9955 99.9527 64.7475 97.3333 67.997ZM70.5 72.9774C52.9433 72.9774 38.6577 60.493 38.6577 45.15C38.6577 29.807 52.9433 17.3226 70.5 17.3226C88.0567 17.3226 102.342 29.807 102.342 45.15C102.342 60.493 88.0567 72.9774 70.5 72.9774Z" fill="black"/>
<path d="M97.3333 67.997V64.1334C97.3333 64.1111 97.3206 64.0999 97.3206 64.0888C99.3139 61.9337 100.975 59.5439 102.24 56.9644C101.678 60.9956 99.9527 64.7475 97.3333 67.997Z" fill="#FFBB4D"/>
<path d="M94.7777 66.5454V70.744C93.6021 71.8495 92.3244 72.8656 90.9444 73.8036V69.4151C92.2989 68.5441 93.5767 67.5839 94.7777 66.5454Z" fill="#FFBB4D"/>
<path d="M88.4783 75.3C87.2261 75.9811 85.9227 76.5954 84.5556 77.1425V72.6759C85.8717 72.151 87.1623 71.5704 88.3889 70.9228V75.3H88.4783Z" fill="#FFBB4D"/>
<path d="M82 73.5691V78.0358C80.7606 78.4266 79.4827 78.7504 78.1667 79.0184V74.5405C79.47 74.2839 80.7477 73.96 82 73.5691Z" fill="#FFBB4D"/>
<path d="M75.6111 74.965V79.4316C74.3588 79.5991 73.0811 79.6996 71.7777 79.7443V75.2664C73.0683 75.233 74.3589 75.1325 75.6111 74.965Z" fill="#FFBB4D"/>
<path d="M69.2223 75.2665V79.7444C67.9189 79.6998 66.6412 79.5993 65.3889 79.4318V74.965C66.6411 75.1325 67.9317 75.233 69.2223 75.2665Z" fill="#FFBB4D"/>
<path d="M62.8333 74.5406V79.0185C61.5173 78.7505 60.2394 78.4266 59 78.0359V73.5693C60.2523 73.96 61.53 74.2839 62.8333 74.5406Z" fill="#FFBB4D"/>
<path d="M56.4444 72.6759V77.1425C55.0771 76.5954 53.7738 75.9811 52.5217 75.3H52.6111V70.9226C53.8377 71.5704 55.1283 72.151 56.4444 72.6759Z" fill="#FFBB4D"/>
<path d="M50.0556 69.4151V73.8036C48.6756 72.8656 47.3979 71.8495 46.2223 70.744V66.5454C47.4233 67.5839 48.7011 68.5441 50.0556 69.4151Z" fill="#FFBB4D"/>
<path d="M43.6794 64.0886C43.6794 64.0997 43.6667 64.111 43.6667 64.1332V67.9969C41.0473 64.7474 39.3223 60.9954 38.76 56.9642C40.025 59.5439 41.6861 61.9335 43.6794 64.0886Z" fill="#FFBB4D"/>
<path d="M70.5 21.9569C55.8694 21.9569 43.9606 32.3642 43.9606 45.15C43.9606 57.9357 55.8694 68.3431 70.5 68.3431C85.1306 68.3431 97.0394 57.9359 97.0394 45.15C97.0394 32.3641 85.1306 21.9569 70.5 21.9569ZM70.5 66.0205C57.3261 66.0205 46.6183 56.6629 46.6183 45.15C46.6183 33.6371 57.3261 24.2795 70.5 24.2795C83.6739 24.2795 94.3817 33.6371 94.3817 45.15C94.3817 56.6629 83.6739 66.0205 70.5 66.0205Z" fill="#3A3707"/>
<ellipse cx="70.6035" cy="45.15" rx="24.15" ry="20.77" fill="#FFD43C"/>
<path d="M119.5 28.3226C101.943 28.3226 87.6577 40.807 87.6577 56.15C87.6577 71.493 101.943 83.9774 119.5 83.9774C137.057 83.9774 151.342 71.493 151.342 56.15C151.342 40.807 137.057 28.3226 119.5 28.3226ZM119.5 79.3431C104.869 79.3431 92.9606 68.9357 92.9606 56.15C92.9606 43.3642 104.869 32.9569 119.5 32.9569C134.131 32.9569 146.039 43.3641 146.039 56.15C146.039 68.9359 134.131 79.3431 119.5 79.3431Z" fill="#FFC107"/>
<path d="M119.5 26C100.474 26 85 39.5229 85 56.15C85 56.485 85 65.0834 85 65.0834C85 80.4821 100.474 93 119.5 93C138.526 93 154 80.4821 154 65.0834C154 65.0834 154 56.485 154 56.15C154 39.5229 138.526 26 119.5 26ZM92.6667 75.1334V78.997C90.0473 75.7475 88.3223 71.9955 87.76 67.9644C89.025 70.5439 90.6861 72.9335 92.6794 75.0888C92.6794 75.0999 92.6667 75.111 92.6667 75.1334ZM99.0556 84.8036C97.6756 83.8656 96.3979 82.8495 95.2223 81.744V77.5454C96.4233 78.5839 97.7012 79.5443 99.0556 80.4153V84.8036ZM105.444 88.1425C104.077 87.5954 102.774 86.9811 101.522 86.3H101.611V81.9226C102.838 82.5702 104.128 83.151 105.444 83.6757V88.1425ZM111.833 90.0185C110.517 89.7505 109.239 89.4266 108 89.0359V84.5693C109.252 84.9601 110.53 85.2839 111.833 85.5408V90.0185ZM118.222 90.7444C116.919 90.6998 115.641 90.5993 114.389 90.4318V85.965C115.641 86.1325 116.932 86.233 118.222 86.2665V90.7444ZM124.611 90.4316C123.359 90.5991 122.081 90.6996 120.778 90.7442V86.2664C122.068 86.2329 123.359 86.1324 124.611 85.9649V90.4316ZM131 89.0359C129.761 89.4268 128.483 89.7505 127.167 90.0185V85.5406C128.47 85.2837 129.748 84.96 131 84.5691V89.0359ZM133.556 88.1425V83.6759C134.872 83.151 136.162 82.5704 137.389 81.9228V86.3H137.478C136.226 86.9811 134.923 87.5954 133.556 88.1425ZM143.778 81.744C142.602 82.8495 141.324 83.8656 139.944 84.8036V80.4151C141.299 79.5441 142.577 78.5837 143.778 77.5452V81.744ZM146.333 78.997V75.1334C146.333 75.111 146.321 75.0999 146.321 75.0888C148.314 72.9336 149.975 70.5439 151.24 67.9644C150.678 71.9955 148.953 75.7475 146.333 78.997ZM119.5 83.9774C101.943 83.9774 87.6577 71.493 87.6577 56.15C87.6577 40.807 101.943 28.3226 119.5 28.3226C137.057 28.3226 151.342 40.807 151.342 56.15C151.342 71.493 137.057 83.9774 119.5 83.9774Z" fill="black"/>
<path d="M146.333 78.9971V75.1334C146.333 75.1111 146.321 75.0999 146.321 75.0888C148.314 72.9337 149.975 70.5439 151.24 67.9644C150.678 71.9956 148.953 75.7476 146.333 78.9971Z" fill="#FFBB4D"/>
<path d="M143.778 77.5454V81.744C142.602 82.8495 141.324 83.8656 139.944 84.8036V80.4151C141.299 79.5441 142.577 78.5839 143.778 77.5454Z" fill="#FFBB4D"/>
<path d="M137.478 86.3C136.226 86.9811 134.923 87.5954 133.556 88.1425V83.6759C134.872 83.151 136.162 82.5704 137.389 81.9228V86.3H137.478Z" fill="#FFBB4D"/>
<path d="M131 84.5691V89.0358C129.761 89.4266 128.483 89.7504 127.167 90.0184V85.5405C128.47 85.2839 129.748 84.96 131 84.5691Z" fill="#FFBB4D"/>
<path d="M124.611 85.965V90.4316C123.359 90.5991 122.081 90.6996 120.778 90.7443V86.2664C122.068 86.233 123.359 86.1325 124.611 85.965Z" fill="#FFBB4D"/>
<path d="M118.222 86.2665V90.7444C116.919 90.6998 115.641 90.5993 114.389 90.4318V85.965C115.641 86.1325 116.932 86.233 118.222 86.2665Z" fill="#FFBB4D"/>
<path d="M111.833 85.5406V90.0185C110.517 89.7505 109.239 89.4266 108 89.0359V84.5693C109.252 84.96 110.53 85.2839 111.833 85.5406Z" fill="#FFBB4D"/>
<path d="M105.444 83.6759V88.1425C104.077 87.5954 102.774 86.9811 101.522 86.3H101.611V81.9226C102.838 82.5704 104.128 83.151 105.444 83.6759Z" fill="#FFBB4D"/>
<path d="M99.0556 80.4151V84.8036C97.6756 83.8656 96.3979 82.8495 95.2223 81.744V77.5454C96.4233 78.5839 97.7011 79.5441 99.0556 80.4151Z" fill="#FFBB4D"/>
<path d="M92.6794 75.0886C92.6794 75.0997 92.6667 75.111 92.6667 75.1332V78.9969C90.0473 75.7474 88.3223 71.9954 87.76 67.9642C89.025 70.5439 90.6861 72.9335 92.6794 75.0886Z" fill="#FFBB4D"/>
<path d="M119.5 32.9569C104.869 32.9569 92.9606 43.3642 92.9606 56.15C92.9606 68.9357 104.869 79.3431 119.5 79.3431C134.131 79.3431 146.039 68.9359 146.039 56.15C146.039 43.3641 134.131 32.9569 119.5 32.9569ZM119.5 77.0205C106.326 77.0205 95.6183 67.6629 95.6183 56.15C95.6183 44.6371 106.326 35.2795 119.5 35.2795C132.674 35.2795 143.382 44.6371 143.382 56.15C143.382 67.6629 132.674 77.0205 119.5 77.0205Z" fill="#3A3707"/>
<ellipse cx="119.604" cy="56.15" rx="24.15" ry="20.77" fill="#FFD43C"/>
<path d="M75.5 36.3226C57.9433 36.3226 43.6577 48.807 43.6577 64.15C43.6577 79.493 57.9433 91.9774 75.5 91.9774C93.0567 91.9774 107.342 79.493 107.342 64.15C107.342 48.807 93.0567 36.3226 75.5 36.3226ZM75.5 87.3431C60.8694 87.3431 48.9606 76.9357 48.9606 64.15C48.9606 51.3642 60.8694 40.9569 75.5 40.9569C90.1306 40.9569 102.039 51.3641 102.039 64.15C102.039 76.9359 90.1306 87.3431 75.5 87.3431Z" fill="#FFC107"/>
<path d="M75.5 34C56.4739 34 41 47.5229 41 64.15C41 64.485 41 73.0834 41 73.0834C41 88.4821 56.4739 101 75.5 101C94.5261 101 110 88.4821 110 73.0834C110 73.0834 110 64.485 110 64.15C110 47.5229 94.5261 34 75.5 34ZM48.6667 83.1334V86.997C46.0473 83.7475 44.3223 79.9955 43.76 75.9644C45.025 78.5439 46.6861 80.9335 48.6794 83.0888C48.6794 83.0999 48.6667 83.111 48.6667 83.1334ZM55.0556 92.8036C53.6756 91.8656 52.3979 90.8495 51.2223 89.744V85.5454C52.4233 86.5839 53.7012 87.5443 55.0556 88.4153V92.8036ZM61.4444 96.1425C60.0771 95.5954 58.7738 94.9811 57.5217 94.3H57.6111V89.9226C58.8377 90.5702 60.1283 91.151 61.4444 91.6757V96.1425ZM67.8333 98.0185C66.5173 97.7505 65.2394 97.4266 64 97.0359V92.5693C65.2523 92.9601 66.53 93.2839 67.8333 93.5408V98.0185ZM74.2223 98.7444C72.9189 98.6998 71.6412 98.5993 70.3889 98.4318V93.965C71.6412 94.1325 72.9317 94.233 74.2223 94.2665V98.7444ZM80.6111 98.4316C79.3588 98.5991 78.0811 98.6996 76.7777 98.7442V94.2664C78.0683 94.2329 79.3588 94.1324 80.6111 93.9649V98.4316ZM87 97.0359C85.7606 97.4268 84.4827 97.7505 83.1667 98.0185V93.5406C84.47 93.2837 85.7477 92.96 87 92.5691V97.0359ZM89.5556 96.1425V91.6759C90.8717 91.151 92.1623 90.5704 93.3889 89.9228V94.3H93.4783C92.2261 94.9811 90.9227 95.5954 89.5556 96.1425ZM99.7777 89.744C98.6021 90.8495 97.3244 91.8656 95.9444 92.8036V88.4151C97.2988 87.5441 98.5767 86.5837 99.7777 85.5452V89.744ZM102.333 86.997V83.1334C102.333 83.111 102.321 83.0999 102.321 83.0888C104.314 80.9336 105.975 78.5439 107.24 75.9644C106.678 79.9955 104.953 83.7475 102.333 86.997ZM75.5 91.9774C57.9433 91.9774 43.6577 79.493 43.6577 64.15C43.6577 48.807 57.9433 36.3226 75.5 36.3226C93.0567 36.3226 107.342 48.807 107.342 64.15C107.342 79.493 93.0567 91.9774 75.5 91.9774Z" fill="black"/>
<path d="M102.333 86.9971V83.1334C102.333 83.1111 102.321 83.0999 102.321 83.0888C104.314 80.9337 105.975 78.5439 107.24 75.9644C106.678 79.9956 104.953 83.7476 102.333 86.9971Z" fill="#FFBB4D"/>
<path d="M99.7777 85.5454V89.744C98.6021 90.8495 97.3244 91.8656 95.9444 92.8036V88.4151C97.2989 87.5441 98.5767 86.5839 99.7777 85.5454Z" fill="#FFBB4D"/>
<path d="M93.4783 94.3C92.2261 94.9811 90.9227 95.5954 89.5556 96.1425V91.6759C90.8717 91.151 92.1623 90.5704 93.3889 89.9228V94.3H93.4783Z" fill="#FFBB4D"/>
<path d="M87 92.5691V97.0358C85.7606 97.4266 84.4827 97.7504 83.1667 98.0184V93.5405C84.47 93.2839 85.7477 92.96 87 92.5691Z" fill="#FFBB4D"/>
<path d="M80.6111 93.965V98.4316C79.3588 98.5991 78.0811 98.6996 76.7777 98.7443V94.2664C78.0683 94.233 79.3589 94.1325 80.6111 93.965Z" fill="#FFBB4D"/>
<path d="M74.2223 94.2665V98.7444C72.9189 98.6998 71.6412 98.5993 70.3889 98.4318V93.965C71.6411 94.1325 72.9317 94.233 74.2223 94.2665Z" fill="#FFBB4D"/>
<path d="M67.8333 93.5406V98.0185C66.5173 97.7505 65.2394 97.4266 64 97.0359V92.5693C65.2523 92.96 66.53 93.2839 67.8333 93.5406Z" fill="#FFBB4D"/>
<path d="M61.4444 91.6759V96.1425C60.0771 95.5954 58.7738 94.9811 57.5217 94.3H57.6111V89.9226C58.8377 90.5704 60.1283 91.151 61.4444 91.6759Z" fill="#FFBB4D"/>
<path d="M55.0556 88.4151V92.8036C53.6756 91.8656 52.3979 90.8495 51.2223 89.744V85.5454C52.4233 86.5839 53.7011 87.5441 55.0556 88.4151Z" fill="#FFBB4D"/>
<path d="M48.6794 83.0886C48.6794 83.0997 48.6667 83.111 48.6667 83.1332V86.9969C46.0473 83.7474 44.3223 79.9954 43.76 75.9642C45.025 78.5439 46.6861 80.9335 48.6794 83.0886Z" fill="#FFBB4D"/>
<path d="M75.5 40.9569C60.8694 40.9569 48.9606 51.3642 48.9606 64.15C48.9606 76.9357 60.8694 87.3431 75.5 87.3431C90.1306 87.3431 102.039 76.9359 102.039 64.15C102.039 51.3641 90.1306 40.9569 75.5 40.9569ZM75.5 85.0205C62.3261 85.0205 51.6183 75.6629 51.6183 64.15C51.6183 52.6371 62.3261 43.2795 75.5 43.2795C88.6739 43.2795 99.3817 52.6371 99.3817 64.15C99.3817 75.6629 88.6739 85.0205 75.5 85.0205Z" fill="#3A3707"/>
<ellipse cx="75.6035" cy="64.15" rx="24.15" ry="20.77" fill="#FFD43C"/>
<path d="M152.624 54H35.8705C19.3361 54 14.7233 63.8363 14.7233 72.3053V106.673H173.803V72.3053C173.787 63.8363 169.159 54 152.624 54Z" fill="#FFCA28"/>
<path d="M14.7078 88.7389C14.7078 88.7389 15.8765 90.5575 21.0971 89.2433C26.3177 87.9292 28.7332 80.0575 28.7332 80.0575L28.0786 106.673H14.7078V88.7389Z" fill="#E2A610"/>
<path d="M173.787 87.4778C173.787 87.4778 172.4 89.323 167.273 88.115C162.13 86.8938 160.089 78.1062 160.089 78.1062L160.494 106.686H173.787V87.4778Z" fill="#E2A610"/>
<path d="M169.486 99.9159C162.504 89.9203 160.837 85.1947 159.839 76.0088C159.185 69.9823 157.159 65.323 150.224 65.323H38.2704C31.3356 65.323 29.3098 69.9956 28.6552 76.0088C27.6579 85.1814 25.9904 89.9203 19.0089 99.9159C8.25608 115.314 -0.657843 129.053 0.931702 138.69C3.97054 157.141 23.3568 178.234 38.7847 178.234H149.71C165.154 178.234 184.524 157.141 187.563 138.69C189.153 129.053 180.239 115.314 169.486 99.9159Z" fill="url(#paint1_radial_180_388)"/>
<path d="M83.2296 65.4823C83.2296 65.4823 54.1191 86.7743 63.1889 91.9778C72.5391 97.3407 83.2296 65.4823 83.2296 65.4823Z" fill="#755CA3"/>
<path d="M94.559 105.305C107.244 105.305 93.9045 65.2301 93.9045 65.2301C93.9045 65.2301 81.8738 105.305 94.559 105.305Z" fill="#755CA3"/>
<path d="M105.857 65.2301C105.857 65.2301 115.098 97.8185 124.994 92.2035C134.89 86.5884 105.857 65.2301 105.857 65.2301Z" fill="#755CA3"/>
<path d="M93.1536 59.25C93.1536 59.25 94.5755 53.7969 95.5442 50.5781C96.8567 46.1875 97.8723 38.0781 104.31 39.0625C107.122 39.5 109.544 42.3125 109.138 45.1563L105.122 59.2344H93.1536V59.25Z" fill="#FFCA28"/>
<path d="M105.122 49.75C112.509 49.75 118.497 43.7618 118.497 36.375C118.497 28.9882 112.509 23 105.122 23C97.7355 23 91.7473 28.9882 91.7473 36.375C91.7473 43.7618 97.7355 49.75 105.122 49.75Z" fill="#E2A610"/>
<path d="M108.122 26.1094C108.888 26.8125 109.169 28.125 108.482 28.8906C108.06 29.3594 107.247 29.7031 106.232 29.625C104.185 29.4844 102.654 29.9844 101.544 30.4219C98.9973 31.4219 97.6848 30.8438 97.5755 29.8125C97.4661 28.7813 97.763 26.8906 101.685 25.6719C105.607 24.4688 107.591 25.625 108.122 26.1094Z" fill="#FFCA28"/>
<defs>
<radialGradient id="paint0_radial_180_388" cx="0" cy="0" r="1" gradientTransform="matrix(199.025 0.668724 -0.370186 110.081 101.221 71.4343)" gradientUnits="userSpaceOnUse">
<stop offset="0.444" stop-color="#9BACEC"/>
<stop offset="1" stop-color="#755CA3"/>
</radialGradient>
<radialGradient id="paint1_radial_180_388" cx="0" cy="0" r="1" gradientTransform="matrix(198.5 0.568119 -0.36921 93.5198 101.702 87.6344)" gradientUnits="userSpaceOnUse">
<stop offset="0.444" stop-color="#9BACEC"/>
<stop offset="1" stop-color="#755CA3"/>
</radialGradient>
</defs>
</svg>
