<svg viewBox="134.9999999999999 0 810.0000000000001 1066.5" fill="none" xmlns="http://www.w3.org/2000/svg" xmlns:xlink="http://www.w3.org/1999/xlink" overflow="visible" width="810.0000000000001px" height="1066.5px"><g id="Master/Stickers/Gift Boxes"><g id="Group 30"><path id="Fill 1" fill-rule="evenodd" clip-rule="evenodd" d="M423.522 541.496L406.433 541.637L320.749 542.309L303.661 542.456L217.977 543.128L200.864 543.272L153.868 543.629L153.892 560.792L153.918 571.137L153.942 590.17L153.99 607.112L154.084 663.034L154.134 691.958L154.182 708.876L154.326 793.72L154.374 810.641V810.667L154.54 895.485L154.566 912.432L154.732 997.276L154.758 1014.2L154.83 1052.24L202.088 1051.88L219.177 1051.73L304.858 1051.06L321.973 1050.92L407.633 1050.25L424.744 1050.12L433.242 1050.05L502.075 1049.52L501.933 972.938L501.909 955.967L501.741 871.15L501.717 854.203L501.549 769.386L501.525 752.438L501.381 667.571L501.357 660.349L501.333 650.652L501.187 568.47L501.141 540.896L423.522 541.496Z" fill="#3A1F28"/><path id="Fill 2" fill-rule="evenodd" clip-rule="evenodd" d="M422.319 542.715L405.207 542.859L319.451 543.606L302.362 543.747L216.63 544.467L199.496 544.635L153.891 545.019L153.918 555.724L153.987 590.141L154.012 607.086L154.084 650.578L154.156 691.93L154.18 708.874L154.348 793.694L154.372 810.639V810.665L154.54 895.483L154.566 912.427L154.732 997.273L154.758 1014.19L154.828 1052.23L202.11 1051.85L219.198 1051.71L304.906 1051.01L321.995 1050.89L407.679 1050.2L424.815 1050.05L433.24 1049.98L433.216 1041.65L433.194 1024.68L433.048 939.839L433.024 922.892L432.88 838.051L432.856 821.103L432.712 736.236L432.688 719.293L432.592 665.915L432.546 634.447L432.496 617.529L432.424 571.087L432.376 544.923V542.619L422.319 542.715Z" fill="#D1154B"/><path id="Fill 3" fill-rule="evenodd" clip-rule="evenodd" d="M217.974 543.121L216.63 544.465L154.012 607.084L153.988 607.108L153.94 590.163L153.988 590.139L200.862 543.265L217.974 543.121Z" fill="#E54363"/><path id="Fill 4" fill-rule="evenodd" clip-rule="evenodd" d="M320.748 542.308L319.452 543.604L154.18 708.875L154.132 691.954L154.156 691.93L302.363 543.748L303.659 542.452L320.748 542.308Z" fill="#E54363"/><path id="Fill 5" fill-rule="evenodd" clip-rule="evenodd" d="M406.432 541.635L405.208 542.859L154.349 793.694L154.325 793.718L154.373 810.639L422.32 542.715L423.52 541.491L406.432 541.635Z" fill="#E54363"/><path id="Fill 6" fill-rule="evenodd" clip-rule="evenodd" d="M432.545 634.446L154.565 912.426L154.541 895.482L432.497 617.525L432.545 634.446Z" fill="#E54363"/><path id="Fill 7" fill-rule="evenodd" clip-rule="evenodd" d="M432.713 736.236L154.757 1014.19L154.733 997.271L432.689 719.291L432.713 736.236Z" fill="#E54363"/><path id="Fill 8" fill-rule="evenodd" clip-rule="evenodd" d="M432.881 838.047L219.199 1051.7L219.175 1051.73L202.086 1051.87L432.857 821.103L432.881 838.047Z" fill="#E54363"/><path id="Fill 9" fill-rule="evenodd" clip-rule="evenodd" d="M433.049 939.834L321.972 1050.91L304.86 1051.06L433.025 922.89L433.049 939.834Z" fill="#E54363"/><path id="Fill 10" fill-rule="evenodd" clip-rule="evenodd" d="M433.217 1041.65L424.816 1050.05L424.744 1050.12L407.631 1050.24L407.679 1050.19L433.193 1024.68L433.217 1041.65Z" fill="#E54363"/><g id="Group 29"><path id="Fill 11" fill-rule="evenodd" clip-rule="evenodd" d="M453.99 501.214C441.807 512.943 423.679 523.719 402.947 531.56C376.526 541.557 348.042 537.405 330.531 532.96C349.542 529.508 378.873 520.798 400.573 498.84C412.521 486.755 422.459 473.713 429.571 461.009C432.722 460.858 435.814 460.796 438.749 460.925C454.047 461.583 464.375 466.069 467.082 473.233C469.794 480.393 465.02 490.593 453.99 501.214M222.838 536.527C186.457 525.091 149.841 499.863 155.472 481.951C157.493 475.519 165.531 470.827 177.817 468.751C186.164 482.316 198.285 496.208 212.865 508.674C236.005 528.453 265.454 534.778 284.71 536.722C267.679 540.857 244.835 543.44 222.838 536.527M178.367 424.945C181.177 421.657 185.987 419.996 192.273 419.996C197.116 419.996 202.838 420.98 209.199 422.965C217.99 425.711 227.389 430.189 236.843 435.981C238.326 444.585 240.527 453.581 243.489 462.759C243.935 464.146 244.415 465.514 244.917 466.865C244.862 466.849 244.809 466.827 244.754 466.81C222.697 459.871 200.731 457.027 182.807 458.691C182.272 457.697 181.693 456.696 181.206 455.71C174.423 441.981 173.387 430.765 178.367 424.945M257.967 373.368C259.232 372.96 260.535 372.763 261.87 372.763C272.862 372.763 285.936 386.108 296.834 404.385C292.915 413.8 289.593 424.082 287.085 434.883C284.582 445.669 284.056 456.371 284.731 466.499C279.702 459.215 273.678 452.202 266.435 446.01C259.652 440.209 252.644 434.981 245.607 430.419C241.661 402.889 244.795 377.619 257.967 373.368M319.48 382.373C327.526 371.409 335.895 365.377 342.891 365.377C343.774 365.377 344.634 365.476 345.471 365.668C352.928 367.401 358.749 377.037 361.439 392.112C363.059 401.182 363.419 411.584 362.642 422.646C355.688 427.927 348.721 434.03 341.943 440.887C335.801 447.103 330.739 453.922 326.546 460.935C325.901 453.214 324.48 445.31 321.945 437.455C317.908 424.946 312.926 413.533 307.382 403.601C310.998 395.619 315.057 388.406 319.48 382.373M323.76 520.918C332.062 513.689 342.841 502.859 351.894 488.97C360.057 482.166 369.564 476.055 380.395 471.958C393.272 467.088 406.151 463.73 418.106 462.06C411.748 472.232 403.525 482.547 393.922 492.261C371.011 515.443 337.733 522.66 321.235 524.883C321.998 523.642 322.824 522.336 323.76 520.918M295.059 528.017C278.799 527.307 244.199 523.15 218.945 501.558C206.464 490.887 195.889 479.189 188.195 467.676C189.848 467.599 191.531 467.558 193.247 467.558C207.976 467.558 224.887 470.371 241.945 475.733C244.823 476.638 247.588 477.725 250.3 478.892C262.72 502.559 282.514 519.173 295.059 528.017M296.14 514.877C296.39 515.823 296.632 516.749 296.853 517.642C288.076 511.028 276.762 501.113 267.255 488.219C279.332 496.399 289.065 506.333 296.14 514.877M348.597 447.464C352.572 443.441 356.822 439.551 361.217 435.888C360.463 440.995 359.489 446.187 358.274 451.412C355.577 463.04 350.544 473.553 344.642 482.76C335.541 490.507 328.122 498.96 322.376 506.554C324.162 499.421 325.705 491.222 326.466 482.39C331.292 470.33 338.303 457.88 348.597 447.464M296.198 436.995C297.972 429.361 300.17 422.021 302.691 415.092C306.723 423.137 310.27 431.732 313.04 440.324C317.384 453.786 318.13 467.589 317.154 480.202C312.092 493.17 309.466 505.526 308.098 514.759C307.256 513.638 306.346 512.469 305.398 511.276C304.913 510.119 304.416 508.888 303.917 507.614C302.717 503.553 301.253 499.182 299.477 494.629C294.691 478.45 291.398 457.677 296.198 436.995M252.393 459.887C250.658 454.508 249.175 448.947 247.951 443.362C252.132 446.384 256.281 449.638 260.354 453.121V453.123C273.754 464.577 282.694 479.402 288.644 493.183C279.963 485.174 269.441 477.379 257.165 471.647C255.338 467.894 253.713 463.979 252.393 459.887M416.38 408.464C421.144 408.464 425.119 409.727 427.936 412.511C433.385 417.897 433.293 429.156 427.687 443.407C426.578 446.223 425.222 449.105 423.755 452.005C409.17 453.32 393.099 457.143 377.088 463.201C371.671 465.251 366.58 467.744 361.797 470.533C364.086 465.162 366.004 459.486 367.387 453.521C369.405 444.833 370.811 436.207 371.615 427.864C387.749 416.308 404.519 408.464 416.38 408.464M475.838 469.922C471.678 458.932 458.651 452.415 439.15 451.578C437.595 451.508 435.972 451.525 434.362 451.527C435.07 449.958 435.783 448.385 436.392 446.84C443.54 428.673 442.872 414.124 434.515 405.865C422.676 394.169 398.288 398.869 372.319 415.809C372.542 406.751 372.026 398.173 370.653 390.469C367.223 371.256 359.03 359.21 347.583 356.555C336.133 353.898 323.479 361.098 311.937 376.838C308.226 381.895 304.766 387.708 301.578 394.04C286.868 371.846 269.414 359.843 255.091 364.468C239.255 369.578 232.179 393.389 235.237 424.245C227.305 419.867 219.456 416.37 211.985 414.04C193.36 408.22 178.887 409.933 171.255 418.869C163.615 427.8 164.175 442.356 172.815 459.856C172.865 459.959 172.93 460.067 172.981 460.17C158.753 463.24 149.484 469.811 146.548 479.145C139.617 501.195 171.893 530.323 220.03 545.453C231.034 548.914 242.113 550.239 252.642 550.239C280.534 550.239 304.48 540.945 312.767 537.317C320.112 540.079 341.384 547.159 366.578 547.159C379.25 547.159 392.907 545.362 406.254 540.314C428.148 532.034 447.404 520.542 460.477 507.954C474.539 494.419 479.995 480.912 475.838 469.922" fill="#FF953B"/><path id="Fill 13" fill-rule="evenodd" clip-rule="evenodd" d="M311.412 403.449C316.872 413.491 321.564 424.546 325.371 436.343C326.861 440.968 328.04 445.802 328.892 450.801C332.139 446.296 335.648 442.13 339.382 438.349C345.716 431.941 352.362 426.034 359.157 420.776C359.786 410.381 359.363 400.956 357.894 392.74C355.506 379.35 350.56 370.539 344.658 369.169C338.648 367.813 330.377 373.604 322.385 384.496C318.509 389.783 314.822 396.153 311.412 403.449V403.449ZM323.889 472.388L322.958 461.232C322.29 453.259 320.798 445.629 318.517 438.559C314.653 426.58 309.848 415.405 304.239 405.356L303.354 403.769L304.102 402.113C307.923 393.681 312.121 386.32 316.576 380.243L316.578 380.241C326.529 366.68 337.241 360.094 346.275 362.159C355.347 364.266 361.986 374.677 364.981 391.481C366.63 400.702 367.05 411.272 366.232 422.898L366.116 424.523L364.818 425.509C357.841 430.814 351.003 436.838 344.501 443.416C338.981 449.004 333.976 455.518 329.635 462.781L323.889 472.388ZM193.173 454.629C207.376 454.629 223.258 456.964 239.293 461.436C236.888 453.667 234.97 445.873 233.581 438.215C224.652 432.865 216.094 428.893 208.125 426.404C202.161 424.541 196.828 423.598 192.273 423.598C188.617 423.598 183.709 424.236 181.105 427.287L181.102 427.289C177.162 431.893 178.407 441.92 184.434 454.118C184.563 454.384 184.703 454.648 184.844 454.912C187.544 454.725 190.326 454.629 193.173 454.629V454.629ZM250.827 472.428L243.57 470.213C222.168 463.483 200.656 460.656 183.14 462.278L180.768 462.499L179.146 459.506C178.74 458.769 178.335 458.032 177.975 457.308C170.414 442.002 169.582 429.678 175.632 422.607C181.58 415.651 194.269 414.535 210.271 419.532C219.216 422.326 228.787 426.829 238.721 432.913L240.111 433.767L240.389 435.373C241.878 444.013 244.074 452.858 246.913 461.657C247.345 462.996 247.806 464.311 248.291 465.61L250.827 472.428ZM375.033 429.856C374.181 437.939 372.791 446.167 370.893 454.337C370.228 457.203 369.424 460.08 368.49 462.946C370.924 461.801 373.37 460.762 375.816 459.836C391.265 453.991 406.983 450.125 421.42 448.617C422.622 446.162 423.566 444.055 424.339 442.092C429.316 429.431 429.717 419.334 425.404 415.076C423.386 413.079 420.35 412.066 416.38 412.066C406.311 412.066 390.939 418.695 375.033 429.856V429.856ZM354.224 479.118L358.485 469.124C360.793 463.709 362.608 458.187 363.88 452.71C365.836 444.292 367.233 435.815 368.032 427.521L368.188 425.893L369.52 424.938C387.329 412.184 404.411 404.866 416.38 404.866C422.313 404.866 427.051 406.577 430.466 409.954C437.083 416.492 437.287 428.841 431.037 444.724C430 447.36 428.707 450.192 426.967 453.631L426.067 455.412L424.077 455.595C409.739 456.883 393.932 460.68 378.365 466.573C373.418 468.44 368.455 470.821 363.611 473.646L354.224 479.118ZM248.948 428.307C255.724 432.788 262.384 437.816 268.771 443.277C273.05 446.932 277.107 451.038 280.901 455.548C281.091 448.115 281.986 440.927 283.577 434.072C285.939 423.893 289.045 414.019 292.813 404.702C280.841 385.165 267.665 374.024 259.072 376.801C249.405 379.919 245.3 400.991 248.948 428.307V428.307ZM289.186 479.289L281.765 468.546C276.516 460.943 270.569 454.282 264.093 448.748C257.512 443.119 250.633 437.971 243.647 433.44L242.274 432.549L242.043 430.929C238.321 404.958 240.258 375.3 256.859 369.942C258.46 369.426 260.147 369.165 261.866 369.165C273.403 369.165 287.276 381.329 299.924 402.541L300.853 404.098L300.157 405.769C296.226 415.216 293.007 425.287 290.59 435.698C288.37 445.251 287.609 455.533 288.322 466.261L289.186 479.289ZM259.86 468.942C265.925 471.863 271.882 475.42 277.681 479.584C272.052 470.178 265.469 462.233 258.017 455.859C256.67 454.709 255.302 453.574 253.917 452.455C254.517 454.603 255.153 456.713 255.821 458.782V458.784C256.908 462.154 258.233 465.49 259.86 468.942V468.942ZM298.672 507.334L286.201 495.83C276.514 486.895 266.232 479.855 255.64 474.911L254.484 474.371L253.927 473.224C251.899 469.057 250.276 465.056 248.966 460.993C247.228 455.607 245.704 449.933 244.434 444.132L242.421 434.923L250.06 440.445C254.38 443.57 258.633 446.911 262.694 450.384C274.683 460.637 284.526 474.558 291.949 491.757L298.672 507.334ZM330.005 483.238C329.71 486.521 329.297 489.841 328.771 493.182C332.972 488.547 337.359 484.263 341.895 480.372C348.131 470.551 352.46 460.535 354.767 450.599C355.168 448.873 355.547 447.131 355.902 445.381C354.273 446.903 352.688 448.441 351.157 449.996C342.507 458.747 335.393 469.929 330.005 483.238V483.238ZM314.602 522.802L318.881 505.682C320.866 497.737 322.213 489.798 322.878 482.081L322.923 481.549L323.122 481.052C328.892 466.632 336.599 454.48 346.031 444.933H346.034C350.042 440.879 354.374 436.904 358.908 433.122L366.156 427.083L364.776 436.412C363.991 441.728 362.981 447.049 361.779 452.226C359.251 463.116 354.504 474.046 347.671 484.705L347.383 485.156L346.972 485.504C339.222 492.099 331.912 499.912 325.247 508.725L314.602 522.802ZM302.886 493.469C304.174 496.788 305.37 500.182 306.452 503.6C308.24 495.194 310.633 487.092 313.602 479.404C314.62 465.565 313.276 452.792 309.613 441.432C307.801 435.821 305.67 430.228 303.246 424.727C301.909 429.035 300.726 433.411 299.703 437.81C295.839 454.467 296.909 473.193 302.886 493.469V493.469ZM310.395 523.801L305.22 516.927C304.395 515.83 303.504 514.685 302.576 513.516L302.268 513.127L302.076 512.674C301.579 511.491 301.071 510.233 300.559 508.925L300.461 508.634C299.196 504.355 297.737 500.085 296.122 495.94L296.023 495.655C289.653 474.114 288.53 454.104 292.689 436.185C294.449 428.603 296.674 421.098 299.302 413.866L302.16 406.013L305.904 413.482C310.1 421.851 313.654 430.509 316.465 439.219C320.464 451.62 321.904 465.505 320.74 480.486L320.699 481.016L320.504 481.513C316.395 492.043 313.419 503.405 311.658 515.29L310.395 523.801ZM302.777 526.609L294.684 520.513C286.382 514.261 274.381 503.952 264.356 490.353L251.907 473.471L269.269 485.234C279.849 492.401 289.821 501.603 298.911 512.578L299.415 513.188L299.619 513.951C299.873 514.914 300.12 515.864 300.346 516.774L302.777 526.609ZM354.61 491.395C346.81 503.252 337.791 512.874 330.492 519.693C348.161 516.188 373.161 508.146 391.363 489.727C398.511 482.496 405.027 474.746 410.494 466.998C401.117 468.851 391.294 471.683 381.667 475.324C372.364 478.843 363.263 484.248 354.61 491.395V491.395ZM314.181 529.465L318.168 522.995C318.953 521.725 319.795 520.39 320.755 518.936L321.024 518.526L321.393 518.206C328.935 511.64 339.821 500.899 348.877 487.005L349.172 486.551L349.59 486.206C358.981 478.377 368.918 472.451 379.123 468.591C392.06 463.698 405.366 460.205 417.606 458.497L425.248 457.426L421.161 463.969C414.645 474.392 406.11 485.051 396.481 494.793C373.084 518.468 339.593 526.043 321.715 528.45L314.181 529.465ZM195.076 471.175C202.166 480.679 211.123 490.138 221.283 498.822C240.438 515.2 265.094 521.263 283.071 523.425C270.991 513.539 257.385 499.635 247.722 481.709C245.171 480.646 242.97 479.83 240.865 479.167C224.893 474.149 209.107 471.398 195.076 471.175V471.175ZM307.167 532.153L294.903 531.617C276.662 530.821 242.237 526.21 216.604 504.297C203.989 493.513 193.131 481.544 185.201 469.68L181.659 464.381L188.026 464.083C204.371 463.33 223.637 466.205 243.025 472.301C245.679 473.134 248.442 474.178 251.72 475.587L252.894 476.091L253.487 477.219C265.25 499.634 283.716 515.616 297.135 525.08L307.167 532.153ZM347.547 532.7C363.827 535.066 383.292 535.146 401.669 528.193C421.967 520.515 439.66 510.012 451.493 498.618C461.29 489.186 465.86 480.171 463.714 474.507C461.571 468.836 452.182 465.106 438.592 464.52C436.559 464.431 434.342 464.431 431.714 464.52C424.461 477.058 414.613 489.76 403.133 501.371C386.5 518.198 365.67 527.528 347.547 532.7V532.7ZM366.873 541.341C352.935 541.341 339.955 539.063 329.645 536.445L313.6 532.372L329.887 529.412C349.57 525.839 377.368 517.193 398.014 496.303C409.578 484.602 419.406 471.791 426.431 459.245L427.406 457.5L429.4 457.407C433.147 457.232 436.164 457.203 438.905 457.32C455.96 458.057 467.163 463.253 470.452 471.954C473.742 480.652 468.781 491.964 456.485 503.801C443.966 515.857 425.404 526.907 404.218 534.923C391.793 539.625 378.972 541.341 366.873 541.341V541.341ZM223.915 533.095C237.13 537.243 250.727 537.778 262.792 536.724C245.737 532.714 226.685 525.225 210.525 511.41C196.511 499.427 184.645 486.104 176.072 472.74C166.562 474.713 160.358 478.409 158.906 483.029C156.818 489.675 162.9 499.071 175.592 508.811C188.154 518.452 206.219 527.529 223.918 533.095H223.915ZM252.282 544.39C242.444 544.39 232.02 543.187 221.757 539.962V539.962C203.022 534.072 184.596 524.8 171.206 514.523C155.529 502.491 148.9 490.853 152.039 480.871C154.48 473.097 163.423 467.529 177.216 465.201L179.609 464.798L180.881 466.864C189.149 480.297 201.015 493.805 215.202 505.938C237.293 524.819 265.389 531.151 285.069 533.138L306.008 535.25L285.559 540.218C276.468 542.427 264.853 544.39 252.282 544.39V544.39ZM192.253 414.23C184.205 414.23 177.951 416.572 173.991 421.204C167.35 428.971 168.077 442.129 176.043 458.26L176.216 458.586L178.236 462.717L173.741 463.686C164.657 465.645 153.16 470.104 149.98 480.223C143.761 500.01 175.668 527.731 221.109 542.016C230.856 545.081 241.465 546.634 252.642 546.634C279.593 546.634 302.66 537.809 311.325 534.017L312.664 533.429L314.037 533.945C321.722 536.834 342.226 543.557 366.575 543.557C380.457 543.557 393.377 541.332 404.979 536.945C426.429 528.832 445.253 517.614 457.978 505.359C470.939 492.886 476.082 480.751 472.468 471.194C468.856 461.634 456.968 455.946 438.996 455.173C437.676 455.113 436.315 455.118 434.952 455.123L428.781 455.142L431.203 449.771C431.846 448.347 432.487 446.922 433.039 445.52C439.627 428.779 439.253 415.605 431.983 408.424C421.897 398.451 399.25 402.536 374.284 418.819L368.55 422.563L368.718 415.715C368.946 406.643 368.402 398.36 367.108 391.1C363.949 373.394 356.725 362.371 346.769 360.059C336.826 357.753 325.476 364.461 314.841 378.965C311.361 383.708 307.979 389.324 304.794 395.655L302.005 401.2L298.578 396.027C284.491 374.779 268.245 364.003 256.197 367.893C242.701 372.247 235.88 394.225 238.82 423.885L239.497 430.702L233.499 427.394C225.557 423.009 217.956 419.673 210.911 417.472C203.978 415.305 197.704 414.23 192.253 414.23V414.23ZM252.642 553.836C240.732 553.836 229.394 552.172 218.949 548.887C168.055 532.888 135.452 502.44 143.113 478.064C146.132 468.462 154.645 461.489 167.851 457.736C160.255 440.505 160.454 425.956 168.518 416.528C177.149 406.424 192.961 404.324 213.057 410.602C218.803 412.398 224.865 414.886 231.149 418.023C229.488 387.77 238.006 366.198 253.983 361.04C268.398 356.391 285.77 366.097 301.157 387.129C303.69 382.557 306.327 378.398 309.032 374.706C321.479 357.735 335.462 350.038 348.396 353.048C361.335 356.05 370.497 369.114 374.195 389.834C375.254 395.76 375.839 402.288 375.95 409.309C402.029 393.893 425.099 391.505 437.044 403.304C446.467 412.614 447.444 428.485 439.8 448.003C460.553 448.999 474.541 456.319 479.204 468.649C483.901 481.069 478.139 495.95 462.97 510.547C449.561 523.465 429.868 535.23 407.525 543.683C395.107 548.378 381.331 550.759 366.575 550.759C342.377 550.759 321.81 544.43 312.87 541.192C302.91 545.416 279.66 553.836 252.642 553.836V553.836Z" fill="#FF953B"/><mask id="mask0_206_1334593e44d91-d3d0-4ded-a839-d740bf7993f5" style="mask-type:alpha" maskUnits="userSpaceOnUse" x="142" y="0" width="796" height="1055" fill="#ffffff"><path id="Clip 16" fill-rule="evenodd" clip-rule="evenodd" d="M142.001 1054.31H937.405V0H142.001V1054.31Z" fill="#ffffff"/></mask><g mask="url(#mask0_206_1334593e44d91-d3d0-4ded-a839-d740bf7993f5)"><path id="Fill 15" fill-rule="evenodd" clip-rule="evenodd" d="M417.197 499.823H792.365V185.131H417.197V499.823Z" fill="#FF953B"/><path id="Fill 17" fill-rule="evenodd" clip-rule="evenodd" d="M707.542 499.823H792.364V185.131H707.542V499.823Z" fill="#F26037"/><path id="Fill 18" fill-rule="evenodd" clip-rule="evenodd" d="M400.035 263.723H809.527V182.076H400.035V263.723Z" fill="#D1154B"/><path id="Fill 19" fill-rule="evenodd" clip-rule="evenodd" d="M707.566 263.723H809.527V182.076H707.566V263.723Z" fill="#910F30"/><path id="Fill 20" fill-rule="evenodd" clip-rule="evenodd" d="M616.441 176.835C621.26 172.867 626.056 168.158 631.156 162.357C637.912 154.586 644.383 146.101 650.935 136.388C653.163 135.745 655.414 135.121 657.716 134.535C671.891 131.046 685.305 129.279 697.644 129.279C698.335 129.279 699.026 129.284 699.71 129.296C707.249 129.385 713.837 130.095 719.286 131.413C722.125 132.097 724.707 133.062 726.567 134.137C728.02 134.967 728.564 135.673 728.675 135.923C728.72 136.148 728.689 137.082 728.008 138.62C727.16 140.54 725.641 142.799 723.517 145.307C719.701 149.738 714.735 154.147 708.339 158.772C697.041 166.91 683.663 173.412 669.651 177.572C654.888 181.916 640.49 183.922 626.771 183.483C621.933 183.31 617.6 182.854 613.597 182.168C614.708 180.545 615.656 178.757 616.441 176.835M651.795 115.355C637.68 119.68 625.262 124.828 614.029 131.033C613.849 130.442 613.681 129.864 613.489 129.261C609.973 118.415 605.499 107.396 599.789 95.4725C601.625 92.0308 603.553 88.577 605.617 85.1089C615.188 69.2874 625.674 55.8156 636.794 45.0511C643.281 38.7149 649.495 33.713 655.268 30.1849C658.321 28.32 661.395 26.9231 663.944 26.2391C665.101 25.9247 665.955 25.8311 666.57 25.8311C667.429 25.8311 667.823 26.0159 667.911 26.0615C668.178 26.2007 669.133 27.1007 669.997 29.3424C670.933 31.757 671.576 35.0283 671.908 39.0293C672.436 46.0688 671.958 54.0491 670.453 63.4239C667.767 79.9367 661.928 96.8214 653.561 112.249C652.985 113.305 652.385 114.321 651.795 115.355M581.578 83.3986C574.358 98.1809 569.059 112.389 565.523 126.574C564.731 129.829 564.083 132.915 563.546 135.903C557.536 133.258 551.142 130.753 544.148 128.326C540.68 122.955 537.336 117.283 534.135 111.314C533.494 110.095 532.891 108.883 532.277 107.668C524.695 92.5166 519.225 77.7608 516.062 63.7562C514.024 54.9238 512.985 47.013 512.971 40.2447C512.966 36.671 513.371 33.3156 514.115 30.7811C514.788 28.4554 515.58 27.649 515.894 27.397C516.189 27.3034 516.717 27.2025 517.497 27.2025C518.052 27.2025 518.736 27.2529 519.545 27.3946C522.098 27.841 525.235 28.9786 528.833 30.7571C535.133 33.93 541.726 38.4566 548.984 44.5817C560.692 54.5013 571.274 66.8739 579.823 80.5233C580.416 81.4785 581.004 82.4338 581.578 83.3986M602.237 138.31C597.216 141.788 592.987 145.3 589.243 149.106C589.084 149.274 588.888 149.497 588.72 149.675C586.488 148.067 584.075 146.497 581.457 144.942C582.182 140.811 583.214 136.434 584.594 131.725C586.917 123.939 589.951 115.973 593.637 107.891C596.945 116.184 599.494 124.488 601.229 132.74C601.625 134.66 601.939 136.491 602.237 138.31M561.792 151.717C559.583 149.231 557.404 146.653 555.27 143.946C557.589 145.059 559.831 146.247 562.032 147.474C561.924 148.902 561.837 150.318 561.792 151.717M580.429 161.644C580.384 161.188 580.367 160.689 580.338 160.209C580.518 160.37 580.688 160.531 580.866 160.692C580.712 161.008 580.568 161.328 580.429 161.644M601.079 161.278C601.11 161.25 601.136 161.221 601.167 161.192C601.909 160.503 602.696 159.826 603.505 159.15C603.373 160.834 603.186 162.435 602.91 163.911C602.32 162.987 601.715 162.106 601.079 161.278M619.08 156.464C618.924 154.144 618.668 151.789 618.312 149.382C622.801 146.977 627.584 144.75 632.629 142.697C629.271 146.586 625.794 150.27 622.169 153.678C621.13 154.645 620.103 155.567 619.08 156.464M463.049 148.094C460.98 146.03 459.279 143.863 458.246 141.979C457.44 140.512 457.337 139.626 457.373 139.362C457.452 139.142 457.963 138.362 459.346 137.399C461.071 136.201 463.544 135.061 466.661 134.025C472.222 132.224 478.758 131.041 486.628 130.417C489.657 130.182 492.729 130.064 495.827 130.064C504.194 130.064 512.765 130.916 521.206 132.582C529.75 145.706 538.777 157.066 548.625 167.026C556.466 174.867 563.618 180.63 571.145 185.176C567.466 185.447 563.51 185.504 559.161 185.298C546.114 184.628 532.007 181.983 517.263 177.447C502.564 172.813 489.587 166.973 478.671 160.08C472.278 156.084 467.021 152.049 463.049 148.094M750.615 129.589C749.715 126.174 747.965 122.898 745.555 120.114C743.561 117.807 741.221 115.82 738.607 114.209C733.773 111.224 728.968 109.738 724.802 108.656C717.2 106.87 709.117 106.205 699.298 106.596C688.656 107.158 677.788 108.766 666.388 111.44C674.037 98.0999 681.665 83.7017 687.672 68.0242C691.661 57.3413 693.874 48.1681 694.647 39.0765C695.084 32.4786 694.671 27.2104 693.315 21.9902C692.403 18.4932 690.987 15.2483 689.107 12.3394C686.806 8.7872 683.736 5.80867 680.196 3.70138C676.67 1.64449 672.559 0.396436 668.303 0.0892225C664.753 -0.165189 661.184 0.125224 657.716 0.95086C651.214 2.48693 645.98 5.25425 641.628 7.81276C633.778 12.673 626.455 18.8964 618.542 27.448C607.151 40.1086 596.998 54.6844 587.535 71.8932C580.27 58.7622 572.126 45.168 562.144 32.2482C555.088 23.279 548.406 16.6187 541.047 11.2353C535.637 7.43114 530.926 5.04064 525.761 3.48297C522.298 2.44853 518.803 1.9493 515.33 2.05971C511.099 2.17731 506.956 3.25016 503.318 5.17745C503.236 5.22305 503.159 5.28065 503.078 5.32625C503.001 5.36705 502.917 5.39586 502.84 5.43666C499.261 7.39754 496.069 10.2777 493.609 13.765C491.564 16.6739 489.975 19.8733 488.886 23.2838C486.853 29.6393 486.526 35.5532 486.474 40.6006C486.589 49.8386 488.146 59.3214 491.394 70.5083C496.28 86.5098 503.368 102.435 512.959 119.077C504.628 116.991 495.973 115.186 486.997 114.034C477.452 112.889 469.483 112.904 461.849 114.087C456.314 115.052 452.042 116.451 447.985 118.628C445.259 120.094 442.835 121.935 440.78 124.103C438.27 126.76 436.393 129.947 435.342 133.357C434.334 136.742 434.127 140.45 434.737 144.079C435.243 147.086 436.206 150.002 437.603 152.738C440.18 157.81 443.512 161.573 446.505 164.66C452.061 170.134 458.625 174.901 467.218 179.684C480.377 186.777 494.936 192.362 511.747 196.761C528.507 201.079 543.858 203.22 558.707 203.309C568.2 203.309 576.002 202.459 583.323 200.616C586.548 199.752 591.373 198.273 596.022 195.398C597.034 194.771 597.968 194.083 598.861 193.362C600.239 193.739 601.571 194.068 602.768 194.32C607.657 195.244 612.81 195.7 618.595 195.7C621.244 195.7 624.026 195.604 626.976 195.415C640.76 194.452 655.196 191.975 672.412 187.629L672.451 187.617C686.58 183.916 701.696 179.579 716.548 172.959C725.296 168.968 732.091 164.816 737.995 159.833C742.224 156.13 745.147 152.712 747.475 148.747C749.045 146.066 750.156 143.232 750.78 140.323C751.546 136.754 751.493 133.055 750.615 129.589" fill="#F26037"/><path id="Fill 21" fill-rule="evenodd" clip-rule="evenodd" d="M887.434 804.839V1028.07C887.434 1042.59 875.721 1054.31 861.201 1054.31H432.11C417.613 1054.31 405.877 1042.59 405.877 1028.07V804.839C405.877 790.366 417.613 778.605 432.11 778.605H861.201C875.721 778.605 887.434 790.366 887.434 804.839" fill="#910F30"/><path id="Fill 22" fill-rule="evenodd" clip-rule="evenodd" d="M888.105 856.705V864.817H887.671V1028.07C887.671 1042.59 880.084 1054.31 870.678 1054.31H813.186V778.605H870.678C880.084 778.605 887.671 790.366 887.671 804.839V856.705H888.105Z" fill="#3A1F28"/><path id="Fill 23" fill-rule="evenodd" clip-rule="evenodd" d="M543.548 880.485C552.188 887.398 559.173 895.246 563.157 902.614C566.445 908.591 567.333 913.751 565.461 916.031C563.613 918.359 558.381 918.647 551.852 916.775C543.788 914.495 534.596 909.431 525.907 902.47C513.283 892.39 507.858 876.333 505.866 868.437C513.979 868.605 530.851 870.333 543.548 880.485V880.485ZM525.907 816.548C534.596 809.636 543.788 804.572 551.852 802.292C554.733 801.452 557.349 801.044 559.557 801.044C562.341 801.044 564.405 801.716 565.461 802.988C569.157 807.62 562.581 823.365 543.548 838.581C530.851 848.686 513.979 850.438 505.866 850.63C507.858 842.733 513.283 826.701 525.907 816.548V816.548ZM472.36 900.119C463.623 906.935 454.359 911.927 446.294 914.087C439.694 915.864 434.486 915.528 432.662 913.199C430.838 910.871 431.798 905.735 435.11 899.783C439.238 892.511 446.294 884.734 455.031 877.918C467.799 867.933 484.672 866.397 492.808 866.277C490.744 874.174 485.128 890.182 472.36 900.119V900.119ZM454.792 835.753C437.559 818.496 432.783 802.127 436.935 797.975C437.847 797.063 439.407 796.559 441.423 796.559C448.455 796.559 461.344 802.415 474.737 815.808C486.161 827.281 489.785 843.865 490.913 851.93C482.849 850.802 466.288 847.225 454.792 835.753V835.753ZM523.866 856.705C531.93 854.809 540.931 851.305 548.731 845.064C569.948 828.12 579.908 807.791 571.988 797.806C567.812 792.598 559.844 791.35 549.571 794.278C540.475 796.894 530.226 802.463 520.746 810.071C513.066 816.215 507.737 824.039 504.089 831.384V778.605H495.977V836.592C493.313 827.952 488.656 818.015 480.592 809.951C461.391 790.726 440.102 783.046 431.03 792.07C422.03 801.118 429.71 822.407 448.911 841.632C456.639 849.385 466.167 853.969 474.568 856.705H405.877V864.817H460.671C456.975 866.569 453.327 868.681 449.919 871.346C440.318 878.834 432.494 887.474 427.886 895.755C422.63 905.067 422.03 913.083 426.134 918.316C428.798 921.772 433.166 923.572 438.806 923.572C441.686 923.572 444.927 923.068 448.455 922.108C457.575 919.66 467.872 914.163 477.472 906.675C486.448 899.691 492.281 890.426 495.977 882.194V1054.31H504.089V887.69C507.737 895.035 513.066 902.859 520.746 909.003C530.226 916.588 540.475 922.204 549.571 924.772C553.195 925.804 556.555 926.308 559.556 926.308C565.004 926.308 569.276 924.604 571.988 921.244C576.14 916.035 575.588 908.019 570.476 898.611C565.94 890.354 558.211 881.57 548.731 873.962C543.499 869.809 537.715 866.905 532.074 864.817H888.106V856.705H523.866Z" fill="#EEC5CF"/><path id="Fill 24" fill-rule="evenodd" clip-rule="evenodd" d="M384.839 785.767H936.648V496.804H384.839V785.767Z" fill="#E54363"/><path id="Fill 25" fill-rule="evenodd" clip-rule="evenodd" d="M821.576 785.767H936.647V496.804H821.576V785.767Z" fill="#7F0A22"/><path id="Fill 26" fill-rule="evenodd" clip-rule="evenodd" d="M629.841 787.079H648.175V495.927H629.841V787.079Z" fill="#3A1F28"/><path id="Fill 27" fill-rule="evenodd" clip-rule="evenodd" d="M377.327 613.976H937.406V605.478H377.327V613.976Z" fill="#3A1F28"/><path id="Fill 28" fill-rule="evenodd" clip-rule="evenodd" d="M770.262 416.346C768.558 423.983 765.365 431.464 761.604 438.568C753.972 452.789 743.21 465.157 730.192 474.803C717.152 484.42 702.147 491.911 685.483 496.08C679.216 497.589 672.743 498.727 666.133 499.135C665.168 498.326 664.225 497.512 663.121 496.776C660.934 495.319 658.575 494.157 656.141 493.168C656.237 493.063 656.338 492.976 656.432 492.866C657.385 491.776 658.292 490.468 659.053 488.639C659.434 487.725 659.766 486.678 659.958 485.373C660.147 484.065 660.195 482.452 659.91 480.885C659.624 479.315 659.053 477.834 658.434 476.788C657.814 475.655 657.147 474.872 656.528 474.174C655.193 472.911 653.907 472.17 652.668 471.603C650.192 470.47 647.811 470.122 645.523 470.079C645.197 470.074 644.878 470.113 644.551 470.12C644.503 469.314 644.455 468.507 644.371 467.722C643.975 464.36 643.241 461.18 642.365 458.074C644.163 455.316 646.095 452.638 648.154 450.07C658.074 437.944 670.304 427.739 683.637 419.051C697.061 410.482 711.754 403.424 727.557 399.139C735.398 396.984 743.517 395.386 751.488 395.078C755.441 394.862 759.396 395.208 762.749 395.93C764.384 396.312 765.845 396.816 766.899 397.337C767.972 397.872 768.538 398.311 768.987 398.767C769.875 399.463 770.994 401.866 771.294 405.312C771.539 408.711 771.14 412.566 770.262 416.346M582.46 480.446C569.202 471.371 558.044 460.184 548.544 447.99C539.177 435.713 531.46 422.272 526.775 407.819C524.421 400.647 522.671 393.222 522.337 385.93C522.1 382.315 522.477 378.699 523.269 375.631C523.684 374.136 524.236 372.799 524.805 371.834C525.39 370.853 525.87 370.334 526.37 369.924C527.13 369.115 529.756 368.088 533.524 367.814C537.24 367.591 541.454 367.956 545.587 368.76C552.716 370.089 559.702 372.439 566.432 375.233C585.981 386.489 600.809 404.497 614.466 421.202C621.373 429.648 627.87 439.565 631.127 449.943C628.77 454.194 626.68 458.68 625.103 463.593C623.8 467.704 622.907 472.18 622.871 477.208C621.798 477.924 620.739 478.689 619.705 479.532C617.751 481.145 615.894 483.017 614.178 485.414C613.369 486.634 612.56 488.028 611.941 489.727C611.655 490.642 611.415 491.602 611.273 492.692C611.249 492.867 611.264 493.061 611.249 493.241C608.876 492.836 606.528 492.257 604.263 491.508C596.318 488.902 589.116 484.915 582.46 480.446M788.755 401.003C787.742 397.321 785.721 393.052 782.62 389.24C779.521 385.436 775.578 382.385 771.937 380.372C768.263 378.324 764.811 377.093 761.588 376.205C755.211 374.592 749.638 374.352 744.454 374.52C734.119 374.988 725.159 377.326 716.72 380.29C700.064 386.54 685.435 395.188 672.074 405.196C658.911 415.14 647.002 426.547 637.32 440.089C634.298 433.196 630.199 426.603 625.617 420.598C619.785 412.948 613.381 405.563 606.781 398.397C598.23 387.886 589.253 377.576 578.462 368.258C571.996 362.841 564.837 357.852 555.743 354.256C551.175 352.492 546.03 351.124 539.686 350.812C536.456 350.738 532.891 350.894 528.818 351.842C524.791 352.768 520.125 354.616 515.959 357.453C511.797 360.29 508.463 363.895 506.262 367.224C504.023 370.584 502.679 373.74 501.707 376.69C499.943 382.522 499.681 387.62 499.864 392.363C500.375 401.817 502.931 410.011 506.173 417.729C513.007 432.963 522.461 446.343 533.4 458.567C544.398 470.741 557.008 481.759 572.035 490.666C579.612 495.056 587.751 498.975 597.248 501.524C600.181 502.304 603.306 502.902 606.63 503.255C606.109 503.55 605.562 503.78 605.055 504.107C593.463 511.593 591.432 524.332 588.502 536.091C585.348 548.737 577.857 558.808 563.222 561.565C556.698 562.794 549.716 562.218 543.745 559.424C538.625 557.032 528.134 546.541 538.047 542.94C543.639 540.91 540.361 534.418 534.816 536.431C527.76 538.995 523.771 545.962 525.454 552.762C527.143 559.585 533.844 564.359 540.56 566.942C553.984 572.104 570.141 569.476 581.638 561.561C595.441 552.056 596.405 537.819 600.714 523.752C603.15 515.795 607.828 509.279 616.763 506.699C625.396 504.208 634.954 505.052 643.81 505.813C644.477 505.871 645.099 505.804 645.665 505.643C646.056 505.744 646.467 505.89 646.853 505.981C652.095 507.064 656.874 507.097 661.383 506.737C663.623 509.041 665.442 511.684 666.611 514.626C673.706 532.514 660.608 551.77 660.697 569.85C660.762 583.541 670.434 599.854 687.312 599.902C700.46 599.941 714.654 585.478 706.527 573.909C703.755 569.963 695.112 573.614 697.853 577.514C701.744 583.053 697.867 590.355 691.056 592.119C683.008 594.202 675.748 586.826 672.743 580.91C664.794 565.245 675.098 547.517 677.179 531.667C678.436 522.062 677.015 512.697 671.646 505.081C677.299 503.814 682.648 502.081 687.782 500.072C703.577 493.702 717.894 485.492 731.639 476.532C745.265 467.433 758.785 458.058 770.807 446.411C776.73 440.494 782.183 433.947 786.117 425.631C788.044 421.45 789.542 416.745 789.883 410.942C789.962 407.99 789.792 404.728 788.755 401.003" fill="#3A1F28"/></g></g></g></g></svg>