<svg viewBox="17.125 7.521084337349407 243.17499999999998 218.7951807228916" fill="none" xmlns="http://www.w3.org/2000/svg" xmlns:xlink="http://www.w3.org/1999/xlink" overflow="visible" width="243.17499999999998px" height="218.7951807228916px"><g id="Master/Stickers/Gift Store"><g id="Group 51"><path id="Fill 1" fill-rule="evenodd" clip-rule="evenodd" d="M154.583 27.0205C152.644 26.8185 150.671 26.6871 148.72 26.6324L148.738 26C150.705 26.0547 152.694 26.187 154.649 26.3907L154.583 27.0205ZM136.985 27.1837L136.908 26.5557C138.855 26.3149 140.842 26.1464 142.811 26.0538L142.841 26.6862C140.887 26.7779 138.917 26.9446 136.985 27.1837V27.1837ZM166.137 29.133C164.256 28.6355 162.325 28.2059 160.401 27.854L160.515 27.2322C162.455 27.5868 164.401 28.0198 166.298 28.5199L166.137 29.133ZM125.474 29.5113L125.301 28.9036C127.191 28.3665 129.13 27.8964 131.059 27.5065L131.185 28.1266C129.271 28.5138 127.348 28.9804 125.474 29.5113V29.5113ZM177.236 32.9927C175.444 32.2112 173.601 31.4888 171.758 30.8476L171.966 30.2505C173.825 30.897 175.683 31.6256 177.49 32.4132L177.236 32.9927ZM114.459 33.5775L114.196 33.0015C115.985 32.1803 117.825 31.4183 119.667 30.7391L119.885 31.3327C118.061 32.0066 116.234 32.7625 114.459 33.5775V33.5775ZM187.615 38.5115C185.964 37.4646 184.254 36.4696 182.531 35.5532L182.829 34.9949C184.565 35.9184 186.289 36.9221 187.954 37.977L187.615 38.5115ZM104.196 39.2798L103.848 38.7514C105.489 37.6674 107.193 36.6337 108.912 35.6776L109.219 36.2306C107.514 37.1797 105.824 38.2055 104.196 39.2798V39.2798ZM197.029 45.5448C195.561 44.2623 194.022 43.0196 192.456 41.8491L192.835 41.3419C194.414 42.5212 195.966 43.7754 197.445 45.0685L197.029 45.5448ZM94.9175 46.4797L94.4925 46.0114C95.9528 44.6892 97.4802 43.4076 99.0331 42.2028L99.4203 42.7029C97.8806 43.8989 96.3655 45.169 94.9175 46.4797V46.4797ZM205.267 53.9223C204.008 52.4316 202.676 50.9692 201.307 49.5774L201.759 49.1337C203.139 50.5371 204.482 52.0109 205.75 53.5148L205.267 53.9223ZM86.8336 55.0072L86.3424 54.6076C87.5841 53.0808 88.9016 51.5823 90.2543 50.1551L90.7129 50.59C89.3707 52.0056 88.0647 53.4927 86.8336 55.0072V55.0072ZM212.137 63.4499C211.12 61.7855 210.025 60.1388 208.883 58.5555L209.397 58.186C210.548 59.7816 211.651 61.4415 212.676 63.12L212.137 63.4499ZM80.1342 64.6653L79.5884 64.3452C80.5831 62.6481 81.6572 60.9661 82.7798 59.3476L83.2992 59.7092C82.1854 61.3136 81.1201 62.9815 80.1342 64.6653V64.6653ZM217.473 73.9072C216.724 72.1079 215.893 70.3147 215.007 68.5762L215.57 68.2887C216.465 70.0413 217.301 71.8494 218.057 73.6629L217.473 73.9072ZM74.986 75.2355L74.3978 75.0027C75.1218 73.1716 75.926 71.3458 76.7885 69.5747L77.3573 69.8516C76.5019 71.6086 75.7038 73.4185 74.986 75.2355V75.2355ZM221.146 85.0595C220.68 83.1632 220.135 81.2624 219.525 79.4093L220.124 79.2117C220.74 81.0807 221.291 82.9965 221.761 84.9078L221.146 85.0595ZM71.5203 86.4663L70.903 86.3261C71.3369 84.4077 71.851 82.4822 72.4313 80.6009L73.0353 80.787C72.4595 82.6533 71.9498 84.5629 71.5203 86.4663V86.4663ZM223.068 96.6484C222.897 94.7 222.648 92.7384 222.329 90.8165L222.953 90.7133C223.275 92.6511 223.525 94.6277 223.698 96.5929L223.068 96.6484ZM69.8175 98.0905L69.1861 98.0456C69.3219 96.0795 69.5362 94.0967 69.8201 92.1545L70.4462 92.2462C70.164 94.1726 69.9524 96.1395 69.8175 98.0905V98.0905ZM223.778 109.405L223.146 109.358C223.293 107.414 223.368 105.439 223.368 103.483C223.368 103.162 223.365 102.84 223.362 102.52L223.994 102.512C223.998 102.836 224 103.16 224 103.483C224 105.455 223.925 107.448 223.778 109.405V109.405ZM69.2593 109.889C69.0988 107.93 69.0123 105.94 69 103.967L69.6332 103.964C69.6446 105.919 69.7302 107.895 69.8898 109.838L69.2593 109.889ZM221.988 121.112L221.37 120.969C221.812 119.068 222.186 117.126 222.481 115.197L223.107 115.293C222.81 117.238 222.432 119.196 221.988 121.112V121.112ZM71.1217 121.585C70.6658 119.675 70.276 117.719 69.9665 115.772L70.5909 115.674C70.8986 117.603 71.2849 119.542 71.7381 121.439L71.1217 121.585ZM218.421 132.414L217.835 132.179C218.564 130.366 219.232 128.504 219.82 126.638L220.423 126.83C219.83 128.709 219.157 130.588 218.421 132.414V132.414ZM74.7567 132.86C74.0107 131.039 73.3264 129.166 72.7232 127.293L73.3246 127.099C73.9234 128.956 74.6024 130.814 75.3431 132.62L74.7567 132.86ZM213.165 143.039L212.62 142.717C213.619 141.037 214.564 139.299 215.43 137.549L215.997 137.829C215.123 139.593 214.171 141.347 213.165 143.039V143.039ZM80.0716 143.435C79.0557 141.75 78.0936 140.005 77.2109 138.248L77.7762 137.964C78.6518 139.706 79.6069 141.438 80.614 143.11L80.0716 143.435ZM206.35 152.734L205.861 152.332C207.103 150.825 208.301 149.252 209.424 147.654L209.942 148.018C208.809 149.629 207.601 151.216 206.35 152.734V152.734ZM86.9386 153.084C85.6784 151.571 84.4606 149.992 83.3204 148.391L83.8362 148.023C84.9676 149.612 86.174 151.178 87.4245 152.678L86.9386 153.084ZM198.147 161.28L197.725 160.809C199.179 159.506 200.603 158.133 201.955 156.725L202.411 157.163C201.047 158.582 199.613 159.967 198.147 161.28V161.28ZM95.19 161.582C93.7165 160.277 92.2729 158.901 90.9034 157.491L91.3575 157.049C92.7156 158.448 94.1468 159.814 95.6098 161.107L95.19 161.582ZM188.745 168.481L188.401 167.95C190.031 166.888 191.645 165.746 193.198 164.558L193.583 165.06C192.017 166.259 190.389 167.411 188.745 168.481V168.481ZM104.638 168.731C102.981 167.666 101.346 166.522 99.7783 165.335L100.16 164.832C101.715 166.008 103.337 167.142 104.98 168.199L104.638 168.731ZM178.363 174.165L178.103 173.589C179.879 172.787 181.647 171.905 183.359 170.968L183.663 171.524C181.938 172.467 180.154 173.356 178.363 174.165V174.165ZM115.067 174.36C113.271 173.562 111.481 172.683 109.745 171.746L110.046 171.188C111.767 172.118 113.543 172.99 115.324 173.782L115.067 174.36ZM167.233 178.195L167.063 177.585C168.944 177.064 170.827 176.464 172.663 175.799L172.878 176.394C171.027 177.064 169.128 177.67 167.233 178.195V178.195ZM126.235 178.323C124.328 177.808 122.425 177.214 120.576 176.557L120.788 175.961C122.622 176.613 124.509 177.201 126.399 177.713L126.235 178.323ZM155.611 180.471L155.538 179.843C157.483 179.614 159.436 179.308 161.344 178.935L161.466 179.556C159.542 179.933 157.573 180.241 155.611 180.471V180.471ZM137.87 180.525C135.914 180.308 133.943 180.012 132.01 179.647L132.127 179.025C134.044 179.388 136 179.68 137.939 179.895L137.87 180.525ZM146.5 181C145.589 181 144.681 180.985 143.779 180.953L143.801 180.321C145.754 180.389 147.754 180.382 149.679 180.302L149.705 180.936C148.654 180.977 147.575 180.999 146.5 181V181Z" fill="#56D6A9"/><path id="Fill 3" fill-rule="evenodd" clip-rule="evenodd" d="M260 128C260 150.092 242.092 168 220 168C197.909 168 180 150.092 180 128C180 105.908 197.909 88 220 88C242.092 88 260 105.908 260 128" fill="#E9DEFF"/><path id="Fill 5" fill-rule="evenodd" clip-rule="evenodd" d="M200 139H240V114H200V139Z" fill="#7252BF"/><path id="Fill 7" fill-rule="evenodd" clip-rule="evenodd" d="M219.436 127C219.314 127 219.193 126.964 219.087 126.892L200.29 114.216C199.994 114.018 199.911 113.607 200.104 113.301C200.297 112.994 200.693 112.908 200.99 113.108L219.446 125.553L239.025 113.099C239.326 112.907 239.721 113.005 239.905 113.315C240.09 113.627 239.997 114.035 239.695 114.227L219.772 126.902C219.668 126.967 219.553 127 219.436 127" fill="#B68DF5"/><path id="Fill 8" fill-rule="evenodd" clip-rule="evenodd" d="M200 97C200 106.941 191.941 115 182.001 115C172.059 115 164 106.941 164 97C164 87.0592 172.059 79 182.001 79C191.941 79 200 87.0592 200 97" fill="#B68DF5"/><path id="Stroke 9 (Stroke)" fill-rule="evenodd" clip-rule="evenodd" d="M190.738 93.3374C191.499 93.9016 191.659 94.9763 191.095 95.7378L182.944 106.738C182.669 107.109 182.256 107.353 181.798 107.416C181.341 107.479 180.877 107.355 180.513 107.071L173.664 101.753C172.915 101.171 172.779 100.093 173.361 99.3449C173.942 98.5964 175.02 98.4608 175.769 99.0421L181.231 103.284L188.337 93.6945C188.902 92.933 189.976 92.7731 190.738 93.3374Z" fill="white"/><path id="Fill 10" fill-rule="evenodd" clip-rule="evenodd" d="M183.48 63H111.52C108.471 63 106 60.5601 106 57.5503V17.4506C106 14.4399 108.471 12 111.52 12H185.717C187.53 12 189 13.4515 189 15.241V57.5503C189 60.5601 186.529 63 183.48 63" fill="#E9DEFF"/><path id="Fill 11" fill-rule="evenodd" clip-rule="evenodd" d="M181.717 59H105.283C103.47 59 102 57.5494 102 55.759V11.2401C102 9.45064 103.469 8 105.283 8H181.717C183.531 8 185 9.45064 185 11.2401V55.759C185 57.5494 183.531 59 181.717 59" fill="#56D6A9"/><path id="Fill 12" fill-rule="evenodd" clip-rule="evenodd" d="M102 38H185V26H102V38Z" fill="black"/><path id="Fill 13" fill-rule="evenodd" clip-rule="evenodd" d="M165 47C165 51.4185 161.418 55 156.999 55C152.582 55 149 51.4185 149 47C149 42.5815 152.582 39 156.999 39C161.418 39 165 42.5815 165 47" fill="#83EDC4"/><path id="Fill 14" fill-rule="evenodd" clip-rule="evenodd" d="M177 47C177 51.4185 173.418 55 168.999 55C164.582 55 161 51.4185 161 47C161 42.5815 164.582 39 168.999 39C173.418 39 177 42.5815 177 47" fill="black"/><path id="Fill 15" fill-rule="evenodd" clip-rule="evenodd" d="M161 47.0005C161 49.3612 161.964 51.482 163.499 53C165.036 51.482 166 49.3612 166 47.0005C166 44.6397 165.036 42.5189 163.499 41C161.964 42.5189 161 44.6397 161 47.0005" fill="#5DA086"/><path id="Stroke 16 (Stroke)" fill-rule="evenodd" clip-rule="evenodd" d="M109.691 12.433C109.061 12.433 108.433 13.0637 108.433 13.9995C108.433 14.9364 109.061 15.567 109.691 15.567H130.308C130.937 15.567 131.567 14.936 131.567 13.9995C131.567 13.0642 130.938 12.433 130.308 12.433H109.691ZM107.567 13.9995C107.567 12.7277 108.452 11.567 109.691 11.567H130.308C131.546 11.567 132.433 12.7272 132.433 13.9995C132.433 15.2727 131.546 16.433 130.308 16.433H109.691C108.452 16.433 107.567 15.2722 107.567 13.9995Z" fill="white"/><path id="Stroke 17 (Stroke)" fill-rule="evenodd" clip-rule="evenodd" d="M109.746 19.433C109.074 19.433 108.433 20.0776 108.433 20.9995C108.433 21.9226 109.074 22.567 109.746 22.567H145.253C145.925 22.567 146.567 21.9223 146.567 20.9995C146.567 20.0779 145.926 19.433 145.253 19.433H109.746ZM107.567 20.9995C107.567 19.7138 108.488 18.567 109.746 18.567H145.253C146.51 18.567 147.433 19.7135 147.433 20.9995C147.433 22.2864 146.51 23.433 145.253 23.433H109.746C108.488 23.433 107.567 22.2861 107.567 20.9995Z" fill="white"/><path id="Fill 18" fill-rule="evenodd" clip-rule="evenodd" d="M92 71.0005C92 82.0455 83.0455 91 72.0005 91C60.9545 91 52 82.0455 52 71.0005C52 59.9545 60.9545 51 72.0005 51C83.0455 51 92 59.9545 92 71.0005" fill="#FEE526"/><path id="Fill 19" fill-rule="evenodd" clip-rule="evenodd" d="M71.9788 89C67.5044 89 63.2474 87.3606 59.9095 84.3346C56.3478 81.1056 54.256 76.6821 54.0222 71.8799C53.7865 67.0785 55.4351 62.4729 58.6652 58.9104C61.8934 55.3488 66.3171 53.2581 71.1196 53.0225C75.9158 52.785 80.5279 54.4362 84.0897 57.6661C87.6515 60.8942 89.7433 65.3177 89.978 70.1199C90.2127 74.9222 88.5641 79.5278 85.3341 83.0903C82.1058 86.651 77.6822 88.7426 72.8796 88.9782C72.5788 88.9918 72.2779 89 71.9788 89" fill="#FFB902"/><path id="Fill 20" fill-rule="evenodd" clip-rule="evenodd" d="M74.9605 75.0307C74.9605 74.2805 74.4876 73.83 73.5436 73.3813V76.5907C74.6142 76.3202 74.9605 75.6604 74.9605 75.0307M71.3381 67.4999V64.3499C70.4248 64.5601 69.9528 65.1303 69.9528 65.8495C69.9528 66.4198 70.2358 66.8995 71.3381 67.4999M73.5436 81.3608V84H71.3381V81.391C67.7789 81.1507 65.133 79.4098 64 76.5295L68.3468 74.1297C69.0069 75.5699 69.9211 76.4106 71.3381 76.651V72.5104C71.2124 72.451 71.055 72.4208 70.9294 72.3597C68.1895 71.3106 64.9133 69.8402 64.9133 65.8203C64.9133 61.9201 67.9995 59.9096 71.3381 59.609V57H73.5436V59.6702C76.2518 60.0001 78.5188 61.38 79.7477 64.02L75.4959 66.3905C75.0872 65.3396 74.4569 64.7401 73.5436 64.4404V68.4905C76.2835 69.5999 80 70.5905 80 74.9704C80 78.7199 77.2908 80.9405 73.5436 81.3608" fill="white"/><path id="Fill 21" fill-rule="evenodd" clip-rule="evenodd" d="M227 65.5C227 71.2982 222.298 76 216.5 76C210.7 76 206 71.2982 206 65.5C206 59.7009 210.7 55 216.5 55C222.298 55 227 59.7009 227 65.5" fill="#FEE526"/><path id="Fill 22" fill-rule="evenodd" clip-rule="evenodd" d="M216.489 75C214.127 75 211.88 74.1348 210.119 72.5377C208.239 70.833 207.135 68.4987 207.012 65.9652C206.887 63.43 207.758 60.9997 209.462 59.1198C211.166 57.239 213.501 56.1364 216.035 56.0119C218.566 55.8865 221 56.7579 222.88 58.4618C224.761 60.1664 225.864 62.5007 225.989 65.036C226.111 67.5703 225.242 70.0015 223.538 71.8805C221.833 73.7604 219.499 74.8648 216.964 74.9884C216.805 74.9964 216.647 75 216.489 75" fill="#FFB902"/><path id="Fill 23" fill-rule="evenodd" clip-rule="evenodd" d="M218.165 68.0174C218.165 67.6007 217.9 67.3497 217.368 67.1006V68.8829C217.97 68.7337 218.165 68.3673 218.165 68.0174M216.127 63.8335V62.0832C215.614 62.1995 215.347 62.5173 215.347 62.9176C215.347 63.2336 215.508 63.5001 216.127 63.8335M217.368 71.5336V73H216.127V71.5501C214.126 71.4173 212.638 70.4501 212 68.85L214.445 67.5164C214.817 68.3169 215.331 68.784 216.127 68.9168V66.617C216.057 66.584 215.968 66.5666 215.897 66.5336C214.356 65.9502 212.513 65.1341 212.513 62.9002C212.513 60.7331 214.25 59.6166 216.127 59.4499V58H217.368V59.4838C218.891 59.667 220.168 60.4336 220.858 61.9L218.467 63.2171C218.236 62.6336 217.882 62.3002 217.368 62.1335V64.384C218.91 65.0004 221 65.5508 221 67.9835C221 70.0663 219.476 71.3001 217.368 71.5336" fill="white"/><path id="Fill 24" fill-rule="evenodd" clip-rule="evenodd" d="M72 127C72 140.807 60.8067 152 47 152C33.1933 152 22 140.807 22 127C22 113.193 33.1933 102 47 102C60.8067 102 72 113.193 72 127" fill="#FFB902"/><path id="Stroke 25 (Stroke)" fill-rule="evenodd" clip-rule="evenodd" d="M47 104.618C34.6394 104.618 24.6184 114.639 24.6184 127C24.6184 139.361 34.6394 149.382 47 149.382C59.3606 149.382 69.3816 139.361 69.3816 127C69.3816 114.639 59.3606 104.618 47 104.618ZM19 127C19 111.536 31.5365 99 47 99C62.4635 99 75 111.536 75 127C75 142.464 62.4636 155 47 155C31.5364 155 19 142.464 19 127Z" fill="#FFCD5F"/><path id="Fill 26" fill-rule="evenodd" clip-rule="evenodd" d="M52.9223 132.36C52.9223 131.151 51.8896 130.495 50.3564 129.978V134.743C52.1374 134.362 52.9223 133.465 52.9223 132.36M46.7954 124.038V119.135C44.9072 119.549 44.1581 120.55 44.1581 121.69C44.1581 122.898 45.2257 123.554 46.7954 124.038M50.3565 139.3V143.168H46.7954V139.404C43.2668 139.197 39.8812 138.126 37.9224 136.641L39.8812 132.429C41.6638 133.706 44.2296 134.64 46.7954 134.88V129.114C42.8395 128.182 38.4212 126.904 38.4212 121.966C38.4212 118.306 41.1642 115.164 46.7954 114.542V110.709H50.3565V114.473C53.0288 114.68 55.6303 115.371 57.5892 116.579L55.8083 120.827C53.9899 119.825 52.1375 119.238 50.3565 119.031V124.9C54.3117 125.799 58.6601 127.077 58.6601 131.946C58.6601 135.536 55.9521 138.644 50.3565 139.3" fill="white"/><path id="Fill 27" fill-rule="evenodd" clip-rule="evenodd" d="M239.808 160H247.872C247.526 163.58 251.341 211.907 250.975 214C248.59 213.206 246.168 211.757 243.76 210.629C243.758 196.02 244.135 181.476 244.133 166.713C242.513 166.968 242.88 167.832 242.877 168.444C242.854 174.514 242.863 180.583 242.863 186.652C242.863 194.635 243.168 202.491 243.168 210.593C241.306 211.535 239.028 212.735 237 213.762C237 213.762 237.11 208.29 237.276 205.812C237.397 204.013 237.533 202.212 237.62 200.408C237.876 195.074 238.103 189.739 238.48 184.413C239.056 176.28 239.536 168.146 239.808 160" fill="#766CFD"/><path id="Fill 28" fill-rule="evenodd" clip-rule="evenodd" d="M243.428 210L237 213.363V215H251L250.983 213.587L243.428 210Z" fill="#5035B5"/><path id="Fill 29" fill-rule="evenodd" clip-rule="evenodd" d="M225.206 183.953C224.974 183.905 224.666 183.845 224.358 183.777C219.54 182.697 217.635 180.52 217.526 175.855C217.471 173.471 217.514 171.082 217.524 168.697C217.524 168.403 217.594 168.11 217.626 167.856C218.168 167.104 219.243 166.745 219.218 165.699C217.5 162.937 216.656 162.887 214.556 165.413C214.636 166.577 215.714 167.233 216.248 168.125C216.248 171.278 216.178 174.362 216.266 177.441C216.384 181.65 220.161 184.862 224.44 185.151C229.787 185.513 233.88 181.809 234.074 176.953C234.194 173.979 234.097 170.995 234.097 167.913C235.246 167.046 236.018 165.954 235.15 164.589C234.425 163.451 233.279 163.438 232.091 163.937C231.556 164.479 231.179 165.059 231.116 165.693C231.196 166.742 232.279 167.164 232.551 168.067C232.551 171.024 232.557 174.007 232.55 176.99C232.545 178.982 231.693 180.653 230.176 182.013C228.827 183.222 227.068 183.62 225.206 183.953M238.804 214.962C227.203 214.975 215.601 214.987 204 215C204.19 212.474 204.22 209.954 204.532 207.415C205.065 203.079 205.429 198.713 205.904 194.359C206.367 190.109 206.542 185.83 207.245 181.6C207.561 181.572 207.877 181.544 208.48 181.492C210.231 174.41 212.003 167.243 213.775 160.078L217.607 160C217.989 160.01 218.372 160.022 218.755 160.035C225.384 160.039 232.015 160.044 238.645 160.05C239.764 160.053 240.882 160.057 242 160.061C241.625 165.26 241.202 170.457 240.887 175.66C240.552 181.178 240.317 186.702 240.047 192.224C239.984 193.509 240.002 194.799 239.896 196.082C239.381 202.368 238.962 208.659 238.804 214.962" fill="#56D6A9"/><path id="Fill 30" fill-rule="evenodd" clip-rule="evenodd" d="M204.265 160.933C204.513 159.75 205.347 158.734 204.73 157C206.674 157.798 208.171 157.889 209.681 157.839C209.966 158.48 210.514 158.415 211.067 158.338C211.453 159.219 212.307 158.846 212.953 159.045C213.895 159.336 215.031 159.49 214.999 160.87C213.277 168.237 211.557 175.607 209.854 182.89C209.269 182.943 208.962 182.973 208.655 183C205.847 182.295 203.04 181.59 200.004 180.827C199.864 178.214 203.5 164.565 204.265 160.933" fill="#FD3E81"/><path id="Fill 31" fill-rule="evenodd" clip-rule="evenodd" d="M225.159 184.755C226.935 184.415 228.613 184.011 229.9 182.779C231.347 181.395 232.16 179.693 232.164 177.664C232.171 174.627 232.166 171.589 232.166 168.578C231.906 167.659 230.873 167.229 230.796 166.161C230.856 165.515 231.216 164.925 231.727 164.373C232.86 163.865 233.954 163.878 234.645 165.037C235.473 166.427 234.737 167.539 233.64 168.421C233.64 171.56 233.733 174.598 233.619 177.627C233.433 182.572 229.529 186.343 224.428 185.975C220.346 185.68 216.743 182.409 216.63 178.123C216.546 174.988 216.614 171.848 216.614 168.637C216.105 167.729 215.076 167.061 215 165.876C217.002 163.303 217.808 163.354 219.447 166.167C219.47 167.232 218.445 167.598 217.928 168.363C217.898 168.622 217.831 168.921 217.83 169.22C217.822 171.649 217.78 174.081 217.833 176.509C217.936 181.259 219.754 183.476 224.35 184.575C224.643 184.645 224.938 184.706 225.159 184.755" fill="#5035B5"/><path id="Fill 32" fill-rule="evenodd" clip-rule="evenodd" d="M218.792 159.964C218.541 159.281 218.398 158.539 218.019 157.925C216.164 154.919 213.148 154.744 210.501 157.444C209.904 157.522 209.309 157.59 209 156.931C210.819 154.579 212.949 153.602 215.074 154.147C218.207 154.951 219.685 156.707 220 160C219.597 159.987 219.195 159.975 218.792 159.964" fill="#5035B5"/><path id="Fill 33" fill-rule="evenodd" clip-rule="evenodd" d="M175 174.507C175 174.507 164.805 159.888 157.986 162.26C151.165 164.632 155.85 175.728 173.898 174.962" fill="white"/><path id="Fill 34" fill-rule="evenodd" clip-rule="evenodd" d="M159.665 164.311C159.235 164.311 158.821 164.37 158.428 164.494C157.521 164.782 156.04 165.511 156.32 167.162C156.81 170.034 162.246 173.892 172.799 173.68C169.752 170.08 163.934 164.311 159.665 164.311M172.087 176C161.193 176.001 154.803 171.862 154.07 167.555C153.661 165.153 155.069 163.136 157.745 162.287C165.019 159.983 174.683 172.281 175.761 173.693C176.147 174.198 176.056 174.925 175.557 175.315C175.292 175.523 174.968 175.598 174.658 175.541C174.458 175.789 174.157 175.954 173.815 175.966C173.228 175.989 172.651 176 172.087 176" fill="#8F6AD8"/><path id="Fill 35" fill-rule="evenodd" clip-rule="evenodd" d="M177 174.507C177 174.507 187.195 159.888 194.014 162.26C200.835 164.632 196.15 175.728 178.102 174.962" fill="white"/><path id="Fill 36" fill-rule="evenodd" clip-rule="evenodd" d="M179.201 173.68C189.768 173.876 195.19 170.033 195.68 167.161C195.96 165.51 194.479 164.782 193.572 164.494C189.263 163.135 182.555 169.716 179.201 173.68M179.913 176C179.348 176 178.774 175.989 178.185 175.966C177.842 175.953 177.543 175.789 177.342 175.54C177.033 175.598 176.707 175.523 176.443 175.315C175.944 174.924 175.853 174.198 176.24 173.692C177.318 172.282 186.989 159.986 194.255 162.286C196.931 163.134 198.339 165.153 197.93 167.553C197.198 171.86 190.806 176 179.913 176" fill="#8F6AD8"/><path id="Fill 37" fill-rule="evenodd" clip-rule="evenodd" d="M167 160L176 174Z" fill="white"/><path id="Fill 38" fill-rule="evenodd" clip-rule="evenodd" d="M176.687 175C176.246 175 175.815 174.8 175.567 174.44L166.194 160.786C165.815 160.234 166.008 159.512 166.627 159.173C167.246 158.835 168.054 159.007 168.434 159.561L177.806 173.214C178.185 173.766 177.992 174.488 177.373 174.827C177.16 174.944 176.921 175 176.687 175" fill="#8F6AD8"/><path id="Fill 39" fill-rule="evenodd" clip-rule="evenodd" d="M185 160L176 174Z" fill="white"/><path id="Fill 40" fill-rule="evenodd" clip-rule="evenodd" d="M176.313 175C176.079 175 175.841 174.944 175.626 174.827C175.008 174.488 174.815 173.765 175.194 173.214L184.567 159.56C184.946 159.008 185.755 158.835 186.373 159.172C186.991 159.512 187.185 160.234 186.806 160.786L177.434 174.44C177.187 174.8 176.755 175 176.313 175" fill="#8F6AD8"/><path id="Fill 41" fill-rule="evenodd" clip-rule="evenodd" d="M145 215H208V172H145V215Z" fill="#B68DF5"/><path id="Fill 42" fill-rule="evenodd" clip-rule="evenodd" d="M144 186H210V172H144V186Z" fill="#7252BF"/><path id="Fill 43" fill-rule="evenodd" clip-rule="evenodd" d="M171 215H181V172H171V215Z" fill="black"/><path id="Fill 44" fill-rule="evenodd" clip-rule="evenodd" d="M171 215H181V172H171V215Z" fill="white"/><path id="Fill 45" fill-rule="evenodd" clip-rule="evenodd" d="M208 193L145 186.825V184H208V193Z" fill="black"/><path id="Fill 46" fill-rule="evenodd" clip-rule="evenodd" d="M81.0477 139.702C81.3857 142.412 81.6965 145.127 82.0706 147.832C82.3286 149.702 82.3471 151.581 82.6525 153.463C83.319 157.558 83.4246 161.736 84.0241 165.846C84.636 170.042 84.7979 174.287 85.5946 178.465C85.9468 180.31 85.9133 182.215 86.1862 184.097C86.8086 188.393 87.0595 192.738 87.5296 197.057C88.0711 202.026 88.6891 206.985 89.2648 211.949C89.3634 212.808 90.0853 213.467 90.073 214.337C90.0562 215.396 80.692 214.869 79.3416 214.869C75.189 214.87 71.0364 214.87 66.8847 214.871C65.7623 214.871 64.6372 214.887 63.5147 214.871C63.3572 214.869 62.409 215.043 62.2911 214.938C61.019 213.797 64.3079 214.032 64.6539 214.032C68.2959 208.986 71.9669 203.9 75.8871 198.468C79.9208 203.661 83.0619 208.98 86.6898 213.85C87.4786 214.048 88.1432 214.212 88.9206 213.456C85.0083 207.757 81.0662 202.013 76.9215 195.978V140.15C76.2524 139.809 75.8052 139.811 75.2665 140.107C74.7567 141.023 75.0349 142.089 75.034 143.101C75.0129 159.775 74.9865 176.449 75.0596 193.122C75.0693 195.141 74.5543 196.775 73.3605 198.393C70.0627 202.863 66.8847 207.418 63.6503 211.935C63.3765 212.317 63.0429 212.66 62.2453 213.602C65.109 188.561 67.8971 164.193 70.6966 139.707C72.1034 139.639 73.3271 139.58 74.7743 139.51C74.7743 137.723 74.7206 136.124 74.7849 134.529C75.005 129.03 78.7517 124.279 84.0989 122.679C85.6853 122.204 87.3157 122.001 88.9778 122.002C99.9152 122.006 110.852 122.015 121.789 122C129.37 121.989 133.895 126.515 135.31 131.299C136.096 133.954 136.14 136.734 135.793 139.495C135.087 139.495 134.382 139.496 133.676 139.496C133.636 137.51 133.8 135.533 133.493 133.535C132.648 128.025 128.465 124.358 122.132 124.175C119.114 124.088 116.092 124.159 113.072 124.159C104.985 124.159 96.8991 124.116 88.8132 124.174C82.4906 124.219 78.1152 127.727 77.1372 133.553C76.8115 135.493 76.8625 137.494 77.1768 139.531C78.5457 139.591 79.7967 139.647 81.0477 139.702" fill="#5035B5"/><path id="Fill 47" fill-rule="evenodd" clip-rule="evenodd" d="M130.477 162.249C130.48 162.312 130.488 162.376 130.5 162.441C130.488 162.376 130.48 162.312 130.477 162.249M128.992 158.202C129.457 159.063 130.428 159.445 130.819 160.296C130.856 160.404 130.869 160.51 130.867 160.613C130.869 160.51 130.856 160.404 130.819 160.297C130.428 159.445 129.457 159.063 128.992 158.202M114.227 157.613C114.744 157.785 115.304 157.712 115.906 157.745C115.304 157.712 114.744 157.785 114.227 157.613M147.661 200.856C147.195 196.551 146.551 192.265 146.071 187.959C145.588 183.645 145.266 179.313 144.775 175C144.09 168.973 143.271 162.962 142.591 156.933C142.093 152.522 141.75 148.095 141.281 143.681C141.121 142.178 140.788 140.693 140.503 139.013H133.44C132.738 139.013 132.037 139.014 131.335 139.014C114.947 139.022 98.5599 139.027 82.1717 139.05C81.1151 139.051 80.04 138.858 79 139.224C79.3362 141.991 79.6461 144.762 80.0173 147.525C80.2738 149.434 80.2921 151.352 80.5959 153.274C81.2586 157.454 81.3637 161.721 81.9599 165.916C82.5683 170.201 82.7294 174.535 83.5216 178.8C83.8727 180.684 83.8394 182.629 84.1099 184.55C84.7289 188.937 84.9784 193.373 85.4467 197.784C85.9842 202.856 86.5988 207.919 87.1713 212.987C87.2492 213.679 87.5548 214.26 87.9128 214.809C88.1116 214.881 88.2884 215 88.4635 215C108.643 215 128.821 214.991 149 214.982C148.559 210.273 148.17 205.559 147.661 200.856" fill="#766CFD"/><path id="Fill 48" fill-rule="evenodd" clip-rule="evenodd" d="M221 211C221 218.179 215.18 224 208 224C200.82 224 195 218.179 195 211C195 203.821 200.82 198 208 198C215.18 198 221 203.821 221 211" fill="#FEE526"/><path id="Fill 49" fill-rule="evenodd" clip-rule="evenodd" d="M208.487 223C205.628 223 202.909 221.953 200.776 220.02C198.5 217.956 197.164 215.13 197.014 212.062C196.864 208.995 197.917 206.052 199.98 203.776C202.043 201.501 204.87 200.164 207.938 200.014C211.001 199.862 213.948 200.917 216.224 202.981C218.5 205.044 219.836 207.87 219.986 210.938C220.136 214.006 219.082 216.949 217.02 219.224C214.956 221.5 212.13 222.835 209.062 222.986C208.87 222.996 208.678 223 208.487 223" fill="#FFB902"/><path id="Fill 50" fill-rule="evenodd" clip-rule="evenodd" d="M211.535 214.02C211.535 213.52 211.21 213.22 210.56 212.92V215.06C211.297 214.88 211.535 214.44 211.535 214.02M209.044 209V206.9C208.417 207.04 208.092 207.42 208.092 207.899C208.092 208.279 208.287 208.6 209.044 209M210.56 218.24V220H209.044V218.26C206.598 218.1 204.78 216.94 204 215.019L206.988 213.42C207.442 214.38 208.069 214.939 209.044 215.1V212.341C208.959 212.3 208.85 212.28 208.763 212.24C206.88 211.54 204.627 210.56 204.627 207.88C204.627 205.28 206.75 203.939 209.044 203.739V202H210.56V203.779C212.422 203.999 213.982 204.92 214.826 206.679L211.903 208.261C211.622 207.559 211.189 207.16 210.56 206.96V209.659C212.445 210.4 215 211.06 215 213.98C215 216.479 213.137 217.96 210.56 218.24" fill="white"/></g></g></svg>