<svg viewBox="23.17500000000001 24.703296703296672 247.20000000000005 231.59340659340654" fill="none" xmlns="http://www.w3.org/2000/svg" xmlns:xlink="http://www.w3.org/1999/xlink" overflow="visible" width="247.20000000000005px" height="231.59340659340654px"><g id="Master/Stickers/Shopping Cart"><g id="Shopping Cart"><path id="Rectangle" fill-rule="evenodd" clip-rule="evenodd" d="M263 75.719L70 48L88.4401 172L263 162.354V75.719Z" fill="#F899A0"/><path id="Path 6 (Stroke)" fill-rule="evenodd" clip-rule="evenodd" d="M77.9123 48L62.0877 50.3628L80.2414 171.947L57.9841 225.181H269V209.181H82.0159L96.7253 174L77.9123 48Z" fill="#FE7988"/><path id="Path 7 (Stroke)" fill-rule="evenodd" clip-rule="evenodd" d="M54.1007 57.2722C54.0944 57.2395 54.0765 57.1499 54.0431 57.0113C53.9737 56.7226 53.8409 56.2348 53.6149 55.615C53.158 54.3615 52.3581 52.6716 51.0171 50.9927C48.5726 47.9323 43.6421 44 32.9989 44C28.5807 44 24.9989 40.4183 24.9989 36C24.9989 31.5817 28.5807 28 32.9989 28C48.4064 28 57.9759 34.0677 63.5187 41.0073C66.1715 44.3284 67.7371 47.6385 68.6472 50.135C69.1048 51.3902 69.4059 52.4649 69.5995 53.2699C69.6966 53.6734 69.7673 54.0121 69.8176 54.2754C69.8427 54.4071 69.8628 54.5203 69.8785 54.6136C69.8864 54.6602 69.8931 54.7019 69.8989 54.7385L69.9068 54.7896L69.9103 54.8122L69.9118 54.8228C69.9126 54.8279 69.9133 54.8329 61.9989 56L69.9133 54.8329C70.5579 59.2039 67.5371 63.2698 63.166 63.9144C58.8302 64.5538 54.7945 61.5864 54.1007 57.2722Z" fill="#FE7988"/><circle id="Oval" r="13.5" transform="matrix(-1 0 0 1 252.5 239.5)" fill="#9C405B"/><circle id="Oval Copy 23" r="13.5" transform="matrix(-1 0 0 1 88.5 239.5)" fill="#9C405B"/></g></g></svg>